<?xml version="1.0" encoding="UTF-8" standalone="no"?>
<svg
     width="859"
	 height="334"
     viewBox="0 0 859 334">
  <path id="Selection"
        fill="#000000" stroke="black" stroke-width="1"
        d="M 555.00,230.00
           C 555.00,230.00 555.00,207.00 555.00,207.00
             555.00,207.00 553.40,198.65 553.40,198.65
             553.40,198.65 539.00,191.58 539.00,191.58
             539.00,191.58 509.00,178.00 509.00,178.00
             509.00,178.00 410.00,133.31 410.00,133.31
             410.00,133.31 382.00,120.77 382.00,120.77
             382.00,120.77 368.00,113.00 368.00,113.00
             368.00,113.00 388.00,105.28 388.00,105.28
             388.00,105.28 416.00,93.42 416.00,93.42
             416.00,93.42 513.00,51.14 513.00,51.14
             513.00,51.14 541.00,38.24 541.00,38.24
             541.00,38.24 553.40,30.67 553.40,30.67
             553.40,30.67 555.00,22.00 555.00,22.00
             555.00,22.00 554.00,0.00 554.00,0.00
             525.67,9.44 498.30,22.08 471.00,34.14
             471.00,34.14 385.00,72.78 385.00,72.78
             385.00,72.78 349.00,90.26 349.00,90.26
             337.20,96.35 335.02,96.39 335.00,106.00
             335.00,106.00 335.00,127.00 335.00,127.00
             335.17,135.92 340.85,136.03 348.00,139.31
             348.00,139.31 385.00,156.26 385.00,156.26
             385.00,156.26 487.00,202.30 487.00,202.30
             501.02,208.63 542.19,227.08 555.00,230.00 Z
           M 777.00,167.00
           C 777.00,167.00 770.65,139.00 770.65,139.00
             770.65,139.00 755.42,75.00 755.42,75.00
             751.85,58.92 744.83,25.48 735.07,13.09
             726.07,1.66 705.52,-1.33 693.00,5.52
             680.39,12.42 671.04,28.09 665.42,41.00
             663.96,44.36 660.67,51.61 660.38,55.00
             659.87,61.01 667.71,69.65 673.98,66.78
             679.76,64.15 686.48,44.80 698.91,52.85
             700.56,53.93 701.80,55.37 702.86,57.02
             705.41,60.97 707.42,70.17 708.63,75.00
             708.63,75.00 716.87,108.00 716.87,108.00
             716.87,108.00 733.88,174.00 733.88,174.00
             733.88,174.00 742.91,211.91 742.91,211.91
             743.49,217.44 735.66,226.47 732.42,231.00
             723.14,243.98 712.27,257.73 701.00,269.00
             695.90,274.10 689.56,280.64 682.00,281.65
             677.16,282.31 674.06,279.32 670.00,277.27
             661.05,272.75 652.12,270.76 644.04,278.19
             634.20,287.24 636.29,303.43 639.72,315.00
             640.98,319.24 642.23,323.58 645.22,326.96
             649.11,331.36 653.23,332.96 659.00,332.97
             666.92,332.98 676.99,328.80 684.00,325.24
             705.26,314.46 716.13,301.89 729.85,283.00
             744.42,262.94 757.91,239.40 770.60,218.00
             770.60,218.00 824.31,125.00 824.31,125.00
             824.31,125.00 842.25,90.00 842.25,90.00
             849.19,76.12 857.81,56.68 858.00,41.00
             858.14,28.60 856.26,13.21 845.00,5.70
             829.90,-4.37 807.22,6.11 808.04,25.00
             808.34,31.83 811.12,35.01 813.55,41.00
             815.91,46.83 817.69,53.70 817.96,60.00
             819.03,84.44 805.01,114.48 794.25,136.00
             790.45,143.59 781.82,161.07 777.00,167.00 Z
           M 121.00,185.00
           C 122.12,192.14 128.27,205.67 131.20,213.00
             137.90,229.75 143.98,246.87 154.00,262.00
             159.40,270.14 164.93,277.41 174.00,281.67
             178.91,283.98 181.72,284.05 187.00,284.00
             206.38,283.80 220.29,269.86 233.00,257.00
             237.38,252.56 240.24,249.12 243.80,244.00
             248.21,237.62 254.20,226.96 253.87,219.00
             253.50,210.05 246.44,206.57 239.01,211.80
             233.54,215.65 227.65,226.21 219.00,232.36
             214.75,235.39 209.80,237.23 205.00,234.26
             198.00,229.94 192.39,219.27 188.75,212.00
             188.75,212.00 166.58,159.00 166.58,159.00
             166.58,159.00 155.90,132.00 155.90,132.00
             155.56,127.73 162.82,117.78 165.33,114.00
             171.73,104.39 183.20,87.92 191.01,80.00
             195.15,75.82 201.04,70.46 207.00,69.34
             218.01,67.28 222.72,77.11 230.00,79.35
             240.24,82.51 251.17,71.83 254.44,63.00
             256.08,58.56 256.05,54.64 256.00,50.00
             255.94,45.46 255.46,42.31 253.91,38.00
             246.73,18.07 223.02,17.66 207.00,26.51
             188.53,36.72 173.14,60.36 161.95,78.00
             156.65,86.35 148.82,98.17 145.00,107.00
             141.38,101.70 138.75,94.05 136.15,88.00
             136.15,88.00 117.83,47.00 117.83,47.00
             113.21,38.29 107.22,27.94 98.00,23.54
             77.97,13.99 54.25,37.19 42.43,51.00
             42.43,51.00 34.37,61.00 34.37,61.00
             29.53,67.46 21.24,79.54 23.81,88.00
             25.58,93.87 31.99,98.46 37.68,94.26
             37.68,94.26 55.00,75.09 55.00,75.09
             57.88,72.46 61.78,69.00 66.00,70.27
             71.99,72.08 76.61,81.73 79.25,87.00
             79.25,87.00 100.80,138.00 100.80,138.00
             102.56,142.39 108.82,154.98 108.10,159.00
             107.53,162.12 99.15,175.43 97.00,179.00
             89.26,191.87 80.89,204.47 71.25,216.00
             66.62,221.53 59.70,228.75 53.00,231.64
             40.88,236.84 34.53,224.91 26.00,222.83
             14.83,220.10 4.29,232.18 1.76,242.00
             0.84,245.59 0.96,249.32 1.00,253.00
             1.32,280.40 29.94,291.55 52.00,279.13
             73.98,266.74 91.68,235.88 103.70,214.00
             107.58,206.93 115.71,189.66 121.00,185.00 Z
           M 330.00,178.00
           C 330.00,178.00 330.00,207.00 330.00,207.00
             330.00,208.70 329.86,212.11 330.57,213.59
             331.84,216.22 341.99,220.11 345.00,221.42
             345.00,221.42 380.00,237.25 380.00,237.25
             380.00,237.25 482.00,283.31 482.00,283.31
             482.00,283.31 524.00,302.30 524.00,302.30
             524.00,302.30 549.00,313.00 549.00,313.00
             549.00,313.00 549.00,289.00 549.00,289.00
             548.98,278.08 545.38,278.44 535.00,273.25
             535.00,273.25 500.00,256.31 500.00,256.31
             500.00,256.31 383.00,201.69 383.00,201.69
             383.00,201.69 353.00,187.74 353.00,187.74
             347.40,185.04 335.53,179.04 330.00,178.00 Z" />
</svg>
