<?xml version="1.0" encoding="UTF-8" standalone="no"?>
<svg 
     width="375"
	 height="319"
     viewBox="0 0 375 319">
  <path id="Selection"
        fill="#000000" stroke="black" stroke-width="1"
        d="M 182.00,1.43
           C 174.12,2.72 167.24,4.23 161.47,10.30
             149.14,23.25 148.76,54.48 162.09,66.79
             168.29,72.51 178.75,74.90 187.00,75.00
             198.22,75.13 209.78,73.52 217.90,64.96
             227.89,54.42 228.38,29.46 222.01,17.00
             220.12,13.31 217.27,10.05 214.00,7.53
             205.58,1.04 192.21,0.17 182.00,1.43 Z
           M 4.53,124.99
           C -0.33,129.79 1.00,136.62 1.00,143.00
             1.00,143.00 1.00,184.00 1.00,184.00
             1.02,193.82 1.95,195.98 12.00,196.00
             12.00,196.00 85.00,196.00 85.00,196.00
             85.00,196.00 363.00,196.00 363.00,196.00
             371.06,195.99 373.83,194.96 374.00,186.00
             374.00,186.00 374.00,137.00 374.00,137.00
             373.98,127.11 373.44,124.02 363.00,124.00
             363.00,124.00 290.00,124.00 290.00,124.00
             290.00,124.00 90.00,124.00 90.00,124.00
             90.00,124.00 31.00,124.00 31.00,124.00
             25.02,124.00 9.25,123.13 4.53,124.99 Z
           M 177.00,245.44
           C 169.65,246.81 162.36,249.31 157.20,255.04
             146.13,267.37 145.90,296.70 157.20,308.96
             163.85,316.20 174.43,318.89 184.00,319.00
             194.23,319.11 206.25,317.39 213.82,309.82
             226.38,297.26 225.96,265.26 212.91,253.21
             203.93,244.92 188.55,243.96 177.00,245.44 Z" />
</svg>
