<?xml version="1.0" encoding="UTF-8" standalone="no"?>
<svg 
     width="1472"
	 height="376"
     viewBox="0 0 1472 376">
  <path id="Selection"
        fill="#000000" stroke="black" stroke-width="1"
        d="M 448.00,0.14
           C 425.36,3.66 407.77,6.12 387.00,17.31
             343.11,40.95 319.37,82.03 307.63,129.00
             303.80,144.32 301.02,160.18 301.00,176.00
             301.00,176.00 300.32,186.00 300.32,186.00
             300.32,186.00 301.00,197.00 301.00,197.00
             301.67,254.34 326.53,319.09 376.00,351.31
             387.33,358.68 398.17,363.56 411.00,367.66
             421.65,371.06 440.93,374.87 452.00,375.00
             452.00,375.00 474.00,375.00 474.00,375.00
             509.73,374.94 548.47,358.74 573.96,333.91
             593.73,314.66 607.06,288.92 615.67,263.00
             620.67,247.93 626.81,220.67 627.00,205.00
             627.00,205.00 627.00,201.00 627.00,201.00
             627.00,201.00 627.99,189.00 627.99,189.00
             627.99,189.00 627.04,176.00 627.04,176.00
             624.61,120.23 604.17,62.32 558.00,27.90
             534.99,10.74 500.69,0.04 472.00,0.14
             472.00,0.14 454.00,0.14 454.00,0.14
             454.00,0.14 448.00,0.14 448.00,0.14 Z
           M 667.00,3.00
           C 667.00,3.00 667.00,373.00 667.00,373.00
             667.00,373.00 898.00,373.00 898.00,373.00
             898.00,373.00 898.00,329.00 898.00,329.00
             898.00,329.00 716.00,329.00 716.00,329.00
             716.00,329.00 716.00,3.00 716.00,3.00
             716.00,3.00 667.00,3.00 667.00,3.00 Z
           M 1.00,251.00
           C 1.00,251.00 1.00,262.00 1.00,262.00
             1.04,290.30 12.00,318.82 32.09,338.91
             51.88,358.71 74.66,368.37 102.00,372.27
             102.00,372.27 119.00,374.00 119.00,374.00
             119.00,374.00 134.00,374.68 134.00,374.68
             134.00,374.68 147.00,374.00 147.00,374.00
             159.42,373.98 171.97,371.89 184.00,368.87
             207.22,363.04 230.11,351.82 245.54,333.00
             257.96,317.84 265.97,295.62 266.00,276.00
             266.00,276.00 266.00,258.00 266.00,258.00
             265.91,251.00 263.80,240.70 261.66,234.00
             259.12,226.08 257.06,221.07 252.56,214.00
             234.31,185.33 207.58,178.27 177.00,170.63
             177.00,170.63 124.00,157.63 124.00,157.63
             99.52,151.51 66.35,148.50 57.77,120.00
             56.03,114.23 55.93,109.92 56.00,104.00
             56.46,64.97 90.42,45.42 126.00,45.00
             153.17,44.69 180.25,49.72 198.54,72.00
             205.02,79.90 209.68,89.07 212.10,99.00
             212.10,99.00 215.02,115.40 215.02,115.40
             216.59,117.38 220.70,117.00 223.00,117.00
             223.00,117.00 257.00,117.00 257.00,117.00
             257.00,85.82 246.76,53.38 223.00,32.17
             207.43,18.27 185.36,10.29 165.00,6.92
             123.73,0.09 74.80,2.28 43.00,33.04
             23.64,51.77 12.04,80.08 12.00,107.00
             12.00,107.00 12.00,119.00 12.00,119.00
             12.07,125.09 13.61,133.13 15.30,139.00
             17.03,145.02 19.24,150.61 22.45,156.00
             40.24,185.86 67.97,192.12 99.00,199.87
             99.00,199.87 159.00,214.63 159.00,214.63
             176.07,219.02 201.39,226.98 212.62,241.00
             216.49,245.82 218.62,251.11 220.26,257.00
             221.77,262.48 221.99,265.40 222.00,271.00
             222.01,280.37 222.21,285.99 218.55,295.00
             207.06,323.22 173.27,331.18 146.00,333.09
             146.00,333.09 134.00,333.99 134.00,333.99
             134.00,333.99 126.00,332.94 126.00,332.94
             126.00,332.94 118.00,332.94 118.00,332.94
             94.55,329.83 71.40,319.78 57.44,300.00
             51.05,290.94 47.14,280.89 45.25,270.00
             45.25,270.00 42.98,252.60 42.98,252.60
             41.41,250.62 37.30,251.00 35.00,251.00
             35.00,251.00 1.00,251.00 1.00,251.00 Z
           M 874.00,4.00
           C 874.00,4.00 883.67,33.00 883.67,33.00
             883.67,33.00 908.00,103.00 908.00,103.00
             908.00,103.00 953.31,234.00 953.31,234.00
             953.31,234.00 971.58,287.00 971.58,287.00
             971.58,287.00 978.69,308.00 978.69,308.00
             978.69,308.00 994.00,352.00 994.00,352.00
             994.00,352.00 1001.70,371.01 1001.70,371.01
             1001.70,371.01 1007.00,372.00 1007.00,372.00
             1007.00,372.00 1044.00,372.00 1044.00,372.00
             1044.00,372.00 1051.30,371.01 1051.30,371.01
             1051.30,371.01 1059.00,352.00 1059.00,352.00
             1059.00,352.00 1081.67,286.00 1081.67,286.00
             1081.67,286.00 1104.66,220.00 1104.66,220.00
             1104.66,220.00 1147.34,96.00 1147.34,96.00
             1147.34,96.00 1166.69,40.00 1166.69,40.00
             1166.69,40.00 1179.00,4.00 1179.00,4.00
             1179.00,4.00 1134.00,4.00 1134.00,4.00
             1134.00,4.00 1126.51,5.02 1126.51,5.02
             1126.51,5.02 1120.00,22.00 1120.00,22.00
             1120.00,22.00 1102.67,77.00 1102.67,77.00
             1102.67,77.00 1081.98,143.00 1081.98,143.00
             1081.98,143.00 1049.02,247.00 1049.02,247.00
             1049.02,247.00 1027.00,317.00 1027.00,317.00
             1027.00,317.00 1016.28,285.00 1016.28,285.00
             1016.28,285.00 1002.33,241.00 1002.33,241.00
             1002.33,241.00 968.98,136.00 968.98,136.00
             968.98,136.00 950.42,78.00 950.42,78.00
             950.42,78.00 932.67,22.00 932.67,22.00
             932.67,22.00 926.30,4.99 926.30,4.99
             926.30,4.99 919.00,4.00 919.00,4.00
             919.00,4.00 874.00,4.00 874.00,4.00 Z
           M 1213.00,5.00
           C 1213.00,5.00 1213.00,374.00 1213.00,374.00
             1213.00,374.00 1472.00,374.00 1472.00,374.00
             1472.00,374.00 1472.00,329.00 1472.00,329.00
             1472.00,329.00 1261.00,329.00 1261.00,329.00
             1261.00,329.00 1261.00,207.00 1261.00,207.00
             1261.00,207.00 1452.00,207.00 1452.00,207.00
             1452.00,207.00 1452.00,162.00 1452.00,162.00
             1452.00,162.00 1261.00,162.00 1261.00,162.00
             1261.00,162.00 1261.00,49.00 1261.00,49.00
             1261.00,49.00 1468.00,49.00 1468.00,49.00
             1468.00,49.00 1468.00,5.00 1468.00,5.00
             1468.00,5.00 1213.00,5.00 1213.00,5.00 Z
           M 454.00,43.28
           C 473.31,41.49 497.77,45.26 515.00,54.32
             550.39,72.93 570.96,110.64 577.41,149.00
             578.43,155.07 579.93,165.01 580.00,171.00
             580.00,171.00 580.00,202.00 580.00,202.00
             579.94,242.66 559.68,292.13 525.00,314.92
             502.69,329.59 482.98,332.30 457.00,332.00
             452.02,331.94 446.91,331.06 442.00,330.25
             390.81,321.80 361.00,278.00 351.40,230.00
             349.80,222.02 348.01,209.03 348.00,201.00
             347.97,182.80 347.38,168.19 350.43,150.00
             356.96,111.10 377.54,72.20 414.00,53.97
             428.45,46.74 438.51,45.52 454.00,43.28 Z" />
</svg>
