<?xml version="1.0" encoding="UTF-8" standalone="no"?>
<svg 
     width="464"
	 height="362"
     viewBox="0 0 464 362">
  <path id="Selection"
        fill="#000000" stroke="black" stroke-width="1"
        d="M 327.00,75.00
           C 327.00,75.00 353.00,75.00 353.00,75.00
             353.14,59.03 357.83,39.76 372.00,30.55
             393.03,16.87 424.22,24.77 433.53,49.00
             436.52,56.78 436.19,64.01 434.55,72.00
             433.08,79.20 429.81,85.54 424.82,90.96
             415.90,100.65 384.90,116.91 372.00,124.60
             363.37,129.75 352.99,136.77 346.09,144.01
             329.65,161.26 322.00,184.46 322.00,208.00
             322.00,208.00 463.00,208.00 463.00,208.00
             463.00,208.00 463.00,184.00 463.00,184.00
             463.00,184.00 351.00,184.00 351.00,184.00
             353.87,165.71 373.76,151.06 389.00,142.77
             419.28,126.30 462.52,108.62 463.00,68.00
             463.22,48.82 460.88,33.56 446.83,19.09
             423.00,-5.46 371.65,-4.83 347.04,18.17
             331.85,32.37 327.00,55.02 327.00,75.00 Z
           M 134.00,251.00
           C 135.21,257.68 143.05,275.61 146.00,283.00
             155.59,306.98 168.34,345.17 192.00,358.10
             215.39,370.88 245.14,346.32 259.83,330.00
             259.83,330.00 269.36,318.00 269.36,318.00
             274.89,310.42 280.79,300.62 280.98,291.00
             281.18,281.53 275.20,273.74 266.00,280.43
             257.36,286.71 253.05,297.29 243.00,303.89
             237.25,307.67 232.04,309.44 226.01,305.20
             218.92,300.21 213.10,288.71 209.25,281.00
             209.25,281.00 184.58,222.00 184.58,222.00
             184.58,222.00 176.40,202.00 176.40,202.00
             175.46,199.66 173.07,194.26 173.00,192.00
             172.86,187.78 180.54,176.96 183.05,173.00
             190.22,161.70 203.67,143.24 213.00,134.00
             217.33,129.72 223.78,123.80 230.00,122.77
             245.50,120.22 251.05,143.13 269.00,132.01
             271.50,130.46 273.87,128.19 275.82,126.00
             278.18,123.33 280.20,120.26 281.65,117.00
             287.51,103.80 283.19,81.23 270.00,73.90
             258.65,67.60 242.32,69.15 231.00,74.81
             218.43,81.10 209.58,91.22 201.00,102.00
             185.25,121.80 173.72,143.93 160.00,165.00
             160.00,165.00 132.25,101.00 132.25,101.00
             126.99,90.51 119.85,77.80 109.00,72.38
             89.73,62.74 68.54,81.46 56.00,94.00
             56.00,94.00 47.29,103.00 47.29,103.00
             47.29,103.00 37.63,115.00 37.63,115.00
             32.73,121.59 25.00,133.40 26.34,142.00
             27.61,150.15 35.86,155.55 41.68,151.26
             43.95,149.59 53.57,135.30 62.00,128.47
             65.23,125.84 69.63,122.28 74.00,124.22
             80.53,127.11 85.20,136.90 88.25,143.00
             88.25,143.00 111.58,198.00 111.58,198.00
             111.58,198.00 118.01,214.00 118.01,214.00
             118.99,216.40 120.61,219.38 120.29,222.00
             119.91,225.18 109.99,241.32 107.68,245.00
             97.25,261.63 91.12,271.64 78.25,287.00
             73.14,293.09 63.94,302.24 56.00,304.17
             46.14,306.58 39.00,297.90 34.00,295.09
             27.12,291.21 19.01,293.29 13.09,297.93
             10.50,299.95 8.58,302.30 6.75,305.00
             -5.32,322.84 2.20,349.86 22.00,358.65
             33.56,363.79 47.19,361.59 58.00,355.69
             83.30,341.88 103.28,304.83 117.14,280.00
             120.81,273.43 129.65,255.35 134.00,251.00 Z" />
</svg>
