<?xml version="1.0" encoding="UTF-8" standalone="no"?>
<svg
     width="576"
	 height="359"
     viewBox="0 0 576 359">
  <path id="Selection"
        fill="#000000" stroke="black" stroke-width="1"
        d="M 119.00,358.00
           C 119.00,358.00 124.80,327.00 124.80,327.00
             124.80,327.00 132.58,286.00 132.58,286.00
             132.58,286.00 162.61,127.00 162.61,127.00
             162.61,127.00 173.80,68.00 173.80,68.00
             173.80,68.00 180.00,33.00 180.00,33.00
             180.00,33.00 539.00,33.00 539.00,33.00
             539.00,33.00 539.00,58.00 539.00,58.00
             539.04,60.19 539.03,62.82 540.31,64.71
             541.95,67.11 544.41,66.95 547.00,67.00
             547.00,67.00 565.00,67.00 565.00,67.00
             567.53,67.00 571.21,67.38 573.11,65.43
             575.29,63.19 574.99,58.91 575.00,56.00
             575.00,56.00 575.00,11.00 575.00,11.00
             575.00,8.69 575.20,5.23 573.98,3.23
             571.07,-1.54 557.23,0.00 552.00,0.00
             552.00,0.00 478.00,0.00 478.00,0.00
             478.00,0.00 159.00,0.00 159.00,0.00
             156.41,0.01 152.70,-0.35 150.72,1.60
             148.67,3.62 147.43,11.01 146.79,14.00
             146.79,14.00 140.20,45.00 140.20,45.00
             140.20,45.00 121.39,142.00 121.39,142.00
             121.39,142.00 111.25,195.00 111.25,195.00
             111.25,195.00 103.60,236.00 103.60,236.00
             103.08,238.59 102.08,247.74 99.61,248.66
             97.10,249.60 95.18,245.68 94.26,244.00
             94.26,244.00 83.25,224.00 83.25,224.00
             83.25,224.00 44.77,154.00 44.77,154.00
             42.85,150.47 36.29,137.51 33.67,135.60
             32.05,134.72 30.77,134.72 29.00,135.60
             26.29,136.49 10.49,149.77 7.00,152.60
             4.56,154.59 1.42,156.64 1.24,160.09
             1.03,163.84 4.97,169.70 6.85,173.00
             6.85,173.00 21.70,199.00 21.70,199.00
             21.70,199.00 81.72,305.00 81.72,305.00
             81.72,305.00 103.85,344.00 103.85,344.00
             108.55,352.23 109.02,357.87 119.00,358.00 Z
           M 326.00,244.00
           C 339.16,272.31 346.65,303.76 364.00,330.00
             372.87,343.40 383.55,355.64 401.00,354.96
             425.14,354.01 452.72,327.17 464.95,308.00
             469.58,300.73 476.62,287.84 474.06,279.00
             471.33,269.58 463.59,269.81 457.04,275.34
             450.12,281.18 446.73,290.24 436.00,297.40
             431.64,300.32 426.03,302.52 421.00,299.88
             413.24,295.80 406.61,282.71 402.75,275.00
             402.75,275.00 378.72,218.00 378.72,218.00
             378.72,218.00 369.80,196.00 369.80,196.00
             368.89,193.74 366.24,188.03 366.06,186.00
             365.67,181.62 373.99,170.04 376.67,166.00
             384.15,154.72 399.23,132.89 409.00,124.59
             414.07,120.29 419.92,115.50 427.00,116.20
             437.28,117.21 440.33,125.92 449.00,128.02
             460.67,130.86 472.61,118.15 475.78,108.00
             477.16,103.58 477.05,99.56 477.00,95.00
             476.94,90.28 476.25,85.42 474.53,81.00
             466.34,59.91 440.28,59.50 423.00,68.90
             401.87,80.40 382.46,110.62 369.81,131.00
             365.77,137.50 356.07,152.45 354.00,159.00
             354.00,159.00 325.25,94.00 325.25,94.00
             319.84,83.21 312.43,70.42 301.00,65.35
             278.87,55.52 254.24,81.49 241.00,96.00
             237.23,100.13 233.69,104.45 230.43,109.00
             225.29,116.16 217.39,127.69 219.96,137.00
             221.88,143.97 229.40,149.70 235.82,143.77
             238.69,141.12 244.49,131.36 255.00,122.18
             258.24,119.35 262.45,116.15 267.00,117.75
             274.17,120.27 279.04,131.58 282.25,138.00
             282.25,138.00 304.15,190.00 304.15,190.00
             304.15,190.00 310.60,206.00 310.60,206.00
             311.43,208.03 313.71,212.78 313.74,214.72
             313.78,216.95 311.69,220.07 310.58,222.00
             310.58,222.00 301.80,237.00 301.80,237.00
             292.87,251.70 279.90,271.96 268.00,284.00
             263.02,289.04 257.03,295.35 250.00,297.36
             237.74,300.87 231.86,289.37 223.00,287.01
             219.79,285.87 217.14,286.24 214.00,287.01
             201.30,291.17 193.36,306.14 194.09,319.00
             194.35,323.50 195.72,329.85 197.46,334.00
             207.67,358.23 235.28,359.56 255.00,346.91
             268.90,338.00 279.32,323.53 288.33,310.00
             297.88,295.68 319.22,259.19 326.00,244.00 Z" />
</svg>
