<?xml version="1.0" encoding="UTF-8" standalone="no"?>

<svg 
     width="327"
	 height="367"
     viewBox="0 0 327 367">
  <path id="Selection"
        fill="#000000" stroke="black" stroke-width="1"
        d="M 0.00,367.00
           C 0.00,367.00 44.00,367.00 44.00,367.00
             46.04,367.00 49.63,367.26 51.30,366.01
             53.02,364.72 53.97,361.01 54.69,359.00
             54.69,359.00 60.42,343.00 60.42,343.00
             60.42,343.00 83.00,280.00 83.00,280.00
             84.35,276.04 88.16,262.97 91.27,261.02
             93.24,259.79 96.72,260.00 99.00,260.00
             99.00,260.00 227.00,260.00 227.00,260.00
             229.28,260.00 232.76,259.79 234.73,261.02
             238.07,263.12 241.63,275.88 243.00,280.00
             243.00,280.00 264.33,343.00 264.33,343.00
             264.33,343.00 269.67,359.00 269.67,359.00
             270.44,361.28 271.32,364.58 273.42,365.98
             275.29,367.22 278.79,367.00 281.00,367.00
             281.00,367.00 327.00,367.00 327.00,367.00
             327.00,367.00 283.69,247.00 283.69,247.00
             283.69,247.00 249.69,153.00 249.69,153.00
             249.69,153.00 225.19,85.00 225.19,85.00
             225.19,85.00 201.66,20.00 201.66,20.00
             201.66,20.00 193.58,1.02 193.58,1.02
             193.58,1.02 188.00,0.00 188.00,0.00
             188.00,0.00 146.00,0.00 146.00,0.00
             146.00,0.00 138.51,1.02 138.51,1.02
             138.51,1.02 129.95,21.00 129.95,21.00
             129.95,21.00 105.58,86.00 105.58,86.00
             105.58,86.00 36.42,270.00 36.42,270.00
             36.42,270.00 0.00,367.00 0.00,367.00 Z
           M 167.00,51.00
           C 167.00,51.00 178.67,85.00 178.67,85.00
             178.67,85.00 199.33,147.00 199.33,147.00
             199.33,147.00 213.33,189.00 213.33,189.00
             213.33,189.00 221.00,214.00 221.00,214.00
             221.00,214.00 107.00,214.00 107.00,214.00
             107.00,214.00 122.58,170.00 122.58,170.00
             122.58,170.00 147.95,100.00 147.95,100.00
             147.95,100.00 159.95,67.00 159.95,67.00
             159.95,67.00 167.00,51.00 167.00,51.00 Z" />
</svg>
