<?xml version="1.0" encoding="UTF-8" standalone="no"?>
<svg 
     width="494"
	 height="370"
     viewBox="0 0 494 370">
  <path id="Selection"
        fill="#000000" stroke="black" stroke-width="1"
        d="M 387.00,129.00
           C 392.41,144.60 404.94,177.06 413.67,190.00
             420.20,199.67 427.61,207.46 440.00,206.96
             457.11,206.27 474.93,188.26 483.97,175.00
             487.96,169.15 492.14,161.36 490.77,154.02
             489.48,147.04 483.64,147.36 479.01,151.23
             472.78,156.45 462.87,173.62 453.00,167.40
             447.04,163.65 442.29,154.27 439.26,148.00
             439.26,148.00 425.15,114.00 425.15,114.00
             425.15,114.00 415.22,89.00 415.22,89.00
             414.32,84.23 419.43,77.88 422.00,74.00
             426.75,66.84 436.62,53.10 442.29,47.09
             445.14,44.06 450.84,39.15 455.00,38.43
             461.85,37.25 467.02,44.26 472.00,46.11
             483.14,50.25 492.03,37.62 493.17,28.00
             493.75,25.02 493.42,22.94 493.17,20.00
             490.07,-0.14 470.57,-3.03 455.00,5.13
             440.41,12.78 427.22,33.13 418.58,47.00
             414.83,53.02 409.09,61.40 407.00,68.00
             407.00,68.00 405.00,68.00 405.00,68.00
             403.38,61.08 399.28,52.70 396.42,46.00
             392.39,36.54 388.67,26.85 383.40,18.00
             379.96,12.24 376.19,6.11 370.00,3.00
             354.38,-4.85 335.58,13.32 326.29,24.00
             326.29,24.00 319.90,32.00 319.90,32.00
             316.41,36.67 310.93,44.96 311.28,51.00
             311.58,56.31 316.60,61.83 321.91,58.39
             321.91,58.39 336.00,43.19 336.00,43.19
             338.46,41.06 341.50,38.67 344.96,39.79
             349.23,41.17 353.34,49.10 355.22,53.00
             355.22,53.00 371.40,92.00 371.40,92.00
             372.97,95.93 377.75,105.23 376.98,109.00
             376.49,111.37 370.58,121.30 368.99,124.00
             363.10,134.00 353.99,147.81 345.99,156.00
             342.53,159.54 338.62,163.69 334.00,165.63
             324.57,169.59 320.40,160.04 313.00,158.64
             301.51,156.48 292.52,171.90 293.32,182.00
             295.25,206.29 318.22,213.39 337.00,200.90
             359.23,186.10 372.72,150.94 387.00,129.00 Z
           M 168.00,49.63
           C 168.00,49.63 147.00,52.89 147.00,52.89
             115.60,60.74 81.87,80.21 59.04,103.04
             25.54,136.54 5.62,188.30 1.04,235.00
             1.04,235.00 1.04,244.00 1.04,244.00
             1.04,244.00 0.00,256.00 0.00,256.00
             0.00,256.00 0.00,260.00 0.00,260.00
             0.00,260.00 0.91,270.00 0.91,270.00
             3.72,310.80 16.10,353.11 60.00,366.28
             66.35,368.18 77.40,369.92 84.00,370.00
             131.13,370.55 177.26,346.79 210.00,314.00
             218.69,305.30 229.13,292.60 233.53,281.00
             235.55,275.69 236.29,268.36 230.94,264.74
             226.47,261.71 219.51,263.13 215.00,265.38
             203.78,270.97 196.57,281.36 187.96,289.96
             174.80,303.12 156.92,312.09 139.00,316.63
             134.51,317.76 126.40,320.03 122.00,319.79
             107.78,319.04 96.16,312.20 87.53,301.00
             83.74,296.09 80.61,288.89 78.67,283.00
             75.55,273.53 73.12,257.96 73.00,248.00
             72.96,244.41 72.23,235.10 74.60,232.56
             76.48,230.55 88.65,227.66 92.00,226.71
             92.00,226.71 135.00,213.00 135.00,213.00
             172.47,199.96 226.00,175.35 240.94,136.00
             244.69,126.11 245.12,119.36 245.00,109.00
             244.92,102.86 243.52,96.83 241.66,91.00
             233.32,64.98 210.79,52.59 185.00,49.63
             178.09,49.10 175.15,48.55 168.00,49.63 Z
           M 70.00,208.00
           C 71.23,181.23 84.86,143.34 102.30,123.00
             106.93,117.60 112.48,113.07 118.00,108.61
             129.49,99.32 149.83,89.10 165.00,90.18
             173.19,90.76 182.78,92.11 190.00,96.17
             200.50,102.08 204.94,110.16 205.00,122.00
             205.03,128.14 205.07,134.14 202.87,140.00
             200.51,146.31 192.60,157.07 187.91,161.99
             169.10,181.72 131.25,194.81 105.00,201.37
             96.23,203.57 78.51,207.81 70.00,208.00 Z" />
</svg>
