<?xml version="1.0" encoding="UTF-8" standalone="no"?>
<svg 
     width="558"
	 height="371"
     viewBox="0 0 558 371">
  <path id="Selection"
        fill="#000000" stroke="black" stroke-width="1"
        d="M 1.00,0.00
           C 1.00,0.00 1.00,371.00 1.00,371.00
             1.00,371.00 231.00,371.00 231.00,371.00
             231.00,371.00 231.00,326.00 231.00,326.00
             231.00,326.00 49.00,326.00 49.00,326.00
             49.00,326.00 49.00,0.00 49.00,0.00
             49.00,0.00 1.00,0.00 1.00,0.00 Z
           M 279.00,1.00
           C 279.00,1.00 279.00,371.00 279.00,371.00
             279.00,371.00 316.00,371.00 316.00,371.00
             317.99,371.00 321.81,371.23 323.40,369.98
             325.90,368.00 325.00,356.39 325.00,353.00
             325.00,353.00 325.00,301.00 325.00,301.00
             325.00,301.00 325.00,72.00 325.00,72.00
             325.00,72.00 344.60,104.00 344.60,104.00
             344.60,104.00 378.01,160.00 378.01,160.00
             378.01,160.00 461.20,299.00 461.20,299.00
             461.20,299.00 494.20,354.00 494.20,354.00
             496.40,357.67 501.91,368.11 505.18,369.98
             506.97,371.00 509.01,370.96 511.00,371.00
             511.00,371.00 549.00,371.00 549.00,371.00
             550.99,371.00 554.81,371.23 556.40,369.98
             558.95,367.96 558.00,353.68 558.00,350.00
             558.00,350.00 558.00,285.00 558.00,285.00
             558.00,285.00 558.00,1.00 558.00,1.00
             558.00,1.00 512.00,1.00 512.00,1.00
             512.00,1.00 512.00,299.00 512.00,299.00
             507.29,294.60 500.89,282.15 497.20,276.00
             497.20,276.00 468.99,228.00 468.99,228.00
             468.99,228.00 377.80,73.00 377.80,73.00
             377.80,73.00 346.00,19.00 346.00,19.00
             343.65,15.08 337.66,3.13 333.90,1.60
             332.14,0.88 328.94,1.00 327.00,1.00
             327.00,1.00 279.00,1.00 279.00,1.00 Z" />
</svg>
