<?xml version="1.0" encoding="UTF-8" standalone="no"?>
<svg 
     width="270"
	 height="371"
     viewBox="0 0 270 371">
  <path id="Selection"
        fill="#000000" stroke="black" stroke-width="1"
        d="M 0.00,1.00
           C 0.00,1.00 0.00,371.00 0.00,371.00
             0.00,371.00 122.00,371.00 122.00,371.00
             159.33,371.00 195.00,371.46 227.00,348.96
             252.15,331.29 269.63,300.01 270.00,269.00
             270.00,269.00 270.00,255.00 270.00,255.00
             269.95,225.05 256.35,199.00 231.00,182.70
             225.12,178.92 214.73,173.82 208.00,172.00
             208.00,172.00 208.00,170.00 208.00,170.00
             219.72,166.58 233.39,152.97 240.00,143.00
             248.70,129.88 251.63,117.37 253.17,102.00
             256.49,68.77 243.22,35.72 215.00,16.75
             188.09,-1.35 160.51,1.00 130.00,1.00
             130.00,1.00 0.00,1.00 0.00,1.00 Z
           M 48.00,157.00
           C 48.00,157.00 48.00,44.00 48.00,44.00
             48.00,44.00 126.00,44.00 126.00,44.00
             145.61,44.00 166.63,43.89 184.00,54.46
             211.26,71.06 212.44,115.40 192.54,137.91
             189.38,141.48 183.21,145.81 179.00,148.10
             162.27,157.20 141.49,157.00 123.00,157.00
             123.00,157.00 48.00,157.00 48.00,157.00 Z
           M 48.00,327.00
           C 48.00,327.00 48.00,198.00 48.00,198.00
             48.00,198.00 147.00,198.00 147.00,198.00
             164.12,198.20 188.37,202.79 202.00,213.52
             209.58,219.48 215.20,226.95 218.56,236.00
             220.61,241.52 221.93,248.12 222.00,254.00
             222.23,273.78 221.41,292.60 206.91,307.99
             194.48,321.16 173.71,326.97 156.00,327.00
             156.00,327.00 48.00,327.00 48.00,327.00 Z" />
</svg>
