<?xml version="1.0" encoding="UTF-8" standalone="no"?>
<svg 
     width="726" 
	 height="389"
     viewBox="0 0 726 389">
  <path id="Selection"
        fill="#000000" stroke="black" stroke-width="1"
        d="M 618.00,129.00
           C 625.27,140.52 633.39,171.86 645.75,190.00
             652.02,199.22 659.94,207.64 672.00,206.91
             689.30,205.85 708.61,186.91 717.19,173.00
             720.48,167.66 724.92,158.41 722.26,152.06
             719.92,146.44 714.70,148.13 711.01,151.23
             705.12,156.17 696.11,171.46 687.00,168.25
             681.59,166.34 677.17,158.79 674.43,154.00
             674.43,154.00 654.40,107.00 654.40,107.00
             652.89,103.22 646.88,90.04 647.02,87.00
             647.20,83.33 652.52,76.22 654.67,73.00
             659.18,66.23 669.68,51.48 675.09,46.09
             677.91,43.28 683.01,39.14 687.00,38.43
             694.03,37.17 698.06,43.13 703.00,45.55
             707.82,47.91 712.83,46.28 716.91,43.20
             718.83,41.76 720.41,39.97 721.75,37.99
             728.07,28.61 726.37,11.50 716.96,4.65
             712.38,1.32 706.47,0.88 701.00,1.01
             677.83,1.58 658.17,34.06 647.40,52.00
             644.56,56.73 640.70,64.31 637.00,68.00
             635.89,62.04 632.88,56.59 630.60,51.00
             625.97,39.63 619.18,22.91 612.48,13.00
             607.48,5.61 601.38,0.45 592.00,1.10
             576.66,2.14 558.53,22.08 550.35,34.00
             547.33,38.40 542.87,45.43 543.30,51.00
             543.71,56.23 548.87,61.34 553.83,58.22
             553.83,58.22 568.00,43.11 568.00,43.11
             570.43,40.93 573.80,38.05 577.27,39.59
             581.79,41.59 585.14,48.74 587.24,53.00
             587.24,53.00 603.58,92.00 603.58,92.00
             605.15,95.75 609.73,105.35 608.98,109.00
             608.41,111.80 602.58,121.03 600.80,124.00
             594.46,134.58 586.58,147.23 577.99,156.00
             574.50,159.56 569.83,164.27 565.00,165.83
             557.22,168.34 553.19,161.99 548.00,159.57
             543.07,157.27 538.28,158.61 534.09,161.80
             532.40,163.09 531.32,164.30 530.10,166.04
             528.73,168.01 527.35,170.72 526.60,173.00
             521.48,188.47 532.59,205.90 549.00,206.91
             554.59,207.25 561.14,205.36 566.00,202.65
             575.88,197.16 584.36,186.24 590.66,177.00
             598.63,165.28 612.49,141.80 618.00,129.00 Z
           M 344.00,18.21
           C 330.58,20.45 319.30,22.82 307.00,28.97
             260.73,52.10 243.56,108.22 237.85,156.00
             237.85,156.00 235.91,179.00 235.91,179.00
             235.91,179.00 235.00,191.00 235.00,191.00
             235.00,191.00 235.00,216.00 235.00,216.00
             235.00,216.00 235.91,228.00 235.91,228.00
             237.51,251.30 240.19,274.61 247.34,297.00
             252.41,312.84 258.34,328.15 267.75,342.00
             287.53,371.14 318.63,388.58 354.00,389.00
             367.15,389.15 380.34,388.05 393.00,384.28
             449.36,367.48 470.55,312.12 478.42,259.00
             478.42,259.00 482.00,222.00 482.00,222.00
             482.00,222.00 482.00,185.00 482.00,185.00
             482.00,185.00 481.09,173.00 481.09,173.00
             479.30,147.42 474.94,122.24 466.31,98.00
             458.62,76.40 445.88,55.12 428.00,40.46
             411.31,26.78 387.64,18.03 366.00,18.21
             366.00,18.21 344.00,18.21 344.00,18.21 Z
           M 76.00,19.00
           C 74.97,31.64 69.20,56.09 61.47,66.00
             58.08,70.35 53.75,73.41 49.00,76.13
             38.69,82.03 30.53,83.97 19.00,85.92
             16.17,86.40 4.17,87.91 2.57,89.17
             0.59,90.75 1.00,94.69 1.00,97.00
             1.00,97.00 1.00,125.00 1.00,125.00
             1.00,125.00 64.00,125.00 64.00,125.00
             72.24,125.02 73.94,125.26 74.00,134.00
             74.00,134.00 74.00,186.00 74.00,186.00
             74.00,186.00 74.00,386.00 74.00,386.00
             74.00,386.00 114.00,386.00 114.00,386.00
             115.99,386.00 119.81,386.23 121.40,384.98
             123.95,382.96 123.00,368.68 123.00,365.00
             123.00,365.00 123.00,301.00 123.00,301.00
             123.00,301.00 123.00,19.00 123.00,19.00
             123.00,19.00 76.00,19.00 76.00,19.00 Z
           M 353.00,58.15
           C 353.00,58.15 360.00,58.15 360.00,58.15
             397.54,58.87 415.54,86.06 425.00,119.00
             429.97,136.32 431.86,154.12 433.09,172.00
             433.09,172.00 434.00,184.00 434.00,184.00
             434.06,224.40 435.09,267.08 418.85,305.00
             408.38,329.43 389.93,347.96 362.00,348.00
             362.00,348.00 354.00,348.00 354.00,348.00
             316.20,347.55 297.12,311.47 290.21,279.00
             283.89,249.29 282.95,222.18 283.00,192.00
             283.00,192.00 284.00,173.00 284.00,173.00
             284.18,158.36 287.96,136.29 291.63,122.00
             296.64,102.51 306.72,79.61 324.00,68.10
             333.67,61.67 341.85,59.92 353.00,58.15 Z" />
</svg>
