<?xml version="1.0" encoding="UTF-8" standalone="no"?>
<svg 
     width="940"
	 height="376"
     viewBox="0 0 940 376">
  <path id="Selection"
        fill="#000000" stroke="black" stroke-width="1"
        d="M 403.00,1.21
           C 403.00,1.21 386.00,3.80 386.00,3.80
             359.37,9.03 334.95,20.51 315.00,39.09
             292.09,60.42 276.86,89.16 268.29,119.00
             263.72,134.92 260.74,150.51 259.04,167.00
             259.04,167.00 259.04,176.00 259.04,176.00
             259.04,176.00 258.00,190.00 258.00,190.00
             258.00,190.00 259.04,200.00 259.04,200.00
             259.04,200.00 259.04,210.00 259.04,210.00
             263.67,257.19 281.03,306.46 317.00,338.83
             341.16,360.57 371.98,371.78 404.00,374.83
             404.00,374.83 420.00,375.82 420.00,375.82
             420.00,375.82 432.00,375.00 432.00,375.00
             446.58,374.83 461.15,372.27 475.00,367.67
             488.45,363.20 499.12,358.57 511.00,350.65
             538.20,332.51 557.03,305.00 569.00,275.00
             589.67,223.16 589.92,161.62 572.00,109.00
             554.33,57.13 518.98,19.06 465.00,5.63
             455.53,3.27 442.71,1.02 433.00,1.21
             433.00,1.21 403.00,1.21 403.00,1.21 Z
           M 900.00,320.00
           C 900.00,320.00 900.00,335.00 900.00,335.00
             900.00,335.00 901.00,355.00 901.00,355.00
             901.00,355.00 902.00,370.00 902.00,370.00
             902.00,370.00 939.00,370.00 939.00,370.00
             939.00,370.00 939.00,176.00 939.00,176.00
             939.00,176.00 802.00,176.00 802.00,176.00
             802.00,176.00 794.02,177.60 794.02,177.60
             794.02,177.60 793.00,189.00 793.00,189.00
             793.00,189.00 793.00,217.00 793.00,217.00
             793.00,217.00 897.00,217.00 897.00,217.00
             897.00,244.13 893.16,270.61 876.52,293.00
             856.77,319.59 826.69,332.95 794.00,333.00
             767.85,333.04 743.31,326.68 723.00,309.56
             696.59,287.31 685.58,248.24 682.92,215.00
             682.92,215.00 682.00,203.00 682.00,203.00
             682.00,203.00 682.00,173.00 682.00,173.00
             682.00,173.00 683.73,156.00 683.73,156.00
             688.23,124.48 699.15,96.85 722.00,74.00
             727.73,68.27 734.89,62.24 742.00,58.31
             754.51,51.40 769.59,46.17 784.00,46.00
             784.00,46.00 797.00,46.00 797.00,46.00
             834.08,46.06 870.25,67.07 884.40,102.00
             886.64,107.53 889.09,114.13 890.00,120.00
             890.00,120.00 934.00,120.00 934.00,120.00
             931.85,103.82 927.12,86.30 919.14,72.00
             884.57,10.04 800.97,-10.73 737.00,13.42
             711.42,23.08 691.81,38.55 675.01,60.00
             652.26,89.05 639.65,125.47 636.04,162.00
             636.04,162.00 636.04,170.00 636.04,170.00
             636.04,170.00 635.00,180.00 635.00,180.00
             634.70,205.64 636.37,234.27 643.43,259.00
             654.92,299.28 682.43,338.91 720.00,358.68
             736.10,367.15 760.80,372.97 779.00,373.00
             779.00,373.00 800.00,373.00 800.00,373.00
             827.92,372.96 858.07,360.92 879.00,342.71
             879.00,342.71 900.00,320.00 900.00,320.00 Z
           M 0.00,14.00
           C 0.00,14.00 0.00,375.00 0.00,375.00
             0.00,375.00 220.00,375.00 220.00,375.00
             220.00,375.00 220.00,332.00 220.00,332.00
             220.00,332.00 56.00,332.00 56.00,332.00
             53.81,332.00 50.16,332.21 48.31,330.98
             44.83,328.65 46.00,317.07 46.00,313.00
             46.00,313.00 46.00,258.00 46.00,258.00
             46.00,258.00 46.00,14.00 46.00,14.00
             46.00,14.00 0.00,14.00 0.00,14.00 Z
           M 415.00,43.14
           C 415.00,43.14 423.00,43.14 423.00,43.14
             423.00,43.14 432.00,43.83 432.00,43.83
             446.57,45.24 456.47,47.07 470.00,53.31
             499.47,66.90 520.36,96.67 529.97,127.00
             534.05,139.88 537.98,161.55 538.00,175.00
             538.00,175.00 538.00,201.00 538.00,201.00
             537.99,207.67 537.05,214.40 536.13,221.00
             531.08,257.38 514.25,294.27 483.00,315.33
             475.85,320.14 467.21,324.59 459.00,327.26
             445.78,331.54 431.85,333.16 418.00,333.00
             410.14,332.90 397.63,330.94 390.00,328.85
             336.20,314.13 309.71,261.05 305.91,209.00
             305.91,209.00 305.00,197.00 305.00,197.00
             305.00,197.00 305.00,179.00 305.00,179.00
             305.00,179.00 305.91,167.00 305.91,167.00
             309.14,122.86 328.91,76.35 370.00,55.11
             388.24,45.68 395.80,46.04 415.00,43.14 Z" />
</svg>
