<?xml version="1.0" encoding="UTF-8" standalone="no"?>
<svg 
     width="295"
	 height="368"
     viewBox="0 0 295 368">
  <path id="Selection"
        fill="#000000" stroke="black" stroke-width="1"
        d="M 295.00,230.00
           C 295.00,230.00 259.00,230.00 259.00,230.00
             256.64,230.00 252.81,229.58 251.16,231.57
             249.91,233.08 247.39,245.14 246.57,248.00
             243.49,258.79 239.15,269.26 233.57,279.00
             216.34,309.10 191.19,323.97 157.00,325.91
             157.00,325.91 146.00,325.04 146.00,325.04
             105.57,323.09 75.68,300.30 60.45,263.00
             52.31,243.05 49.37,222.31 47.91,201.00
             47.91,201.00 47.00,189.00 47.00,189.00
             47.00,189.00 47.00,174.00 47.00,174.00
             47.00,174.00 47.91,162.00 47.91,162.00
             50.82,122.17 65.43,81.54 100.00,58.36
             135.70,34.42 193.19,36.81 223.99,68.00
             231.91,76.04 238.31,86.54 242.55,97.00
             243.81,100.12 246.98,112.65 248.72,114.01
             250.33,115.26 254.00,115.00 256.00,115.00
             256.00,115.00 291.00,115.00 291.00,115.00
             290.96,102.45 287.23,89.58 282.60,78.00
             268.94,43.84 239.92,18.10 205.00,7.03
             186.07,1.03 168.63,-0.03 149.00,0.00
             129.03,0.03 101.71,6.58 84.00,15.78
             74.40,20.77 65.20,27.40 57.00,34.43
             26.63,60.44 10.28,99.31 3.92,138.00
             2.60,146.04 1.01,157.98 1.00,166.00
             1.00,166.00 1.00,202.00 1.00,202.00
             1.00,202.00 2.85,221.00 2.85,221.00
             7.86,262.95 22.44,303.52 54.00,332.91
             93.00,369.23 154.96,377.09 204.00,358.58
             220.96,352.17 236.71,342.14 249.99,329.83
             267.29,313.80 281.13,286.59 287.57,264.00
             287.57,264.00 295.00,230.00 295.00,230.00 Z" />
</svg>
