<?xml version="1.0" encoding="UTF-8" standalone="no"?>
<svg 
     width="478"
	 height="418"
     viewBox="0 0 478 418">
  <path id="Selection"
        fill="#000000" stroke="black" stroke-width="1"
        d="M 370.00,129.00
           C 377.41,140.75 384.44,170.40 397.67,190.00
             403.97,199.33 411.89,207.65 424.00,206.91
             441.43,205.84 460.52,186.99 469.18,173.00
             472.44,167.75 476.94,158.34 474.26,152.11
             471.92,146.65 466.67,148.17 463.01,151.23
             457.19,156.10 448.02,171.44 439.00,168.39
             433.47,166.51 428.41,157.98 425.78,153.00
             425.78,153.00 406.20,107.00 406.20,107.00
             404.78,103.49 398.71,89.76 398.88,87.00
             399.09,83.67 404.04,76.95 406.00,74.00
             410.76,66.86 420.56,52.99 426.17,47.04
             429.11,43.92 434.70,39.20 439.00,38.43
             449.22,36.61 453.33,50.92 465.00,45.59
             466.59,44.86 468.50,43.63 469.82,42.47
             471.67,40.84 472.89,39.12 474.12,37.00
             479.75,27.25 478.25,10.50 467.98,4.30
             460.08,-0.61 448.05,0.35 440.00,4.30
             424.84,11.95 409.98,34.55 401.20,49.00
             397.30,55.43 393.78,62.17 389.00,68.00
             387.65,62.25 382.91,51.84 380.42,46.00
             375.39,34.20 371.95,24.97 364.95,14.00
             359.90,6.09 354.02,0.41 344.00,1.10
             330.84,2.00 317.46,15.60 309.29,25.00
             304.24,30.80 296.27,41.23 295.36,49.00
             294.63,55.29 299.30,60.48 303.96,59.16
             309.29,57.64 319.67,38.15 327.99,39.54
             331.36,40.10 333.56,43.36 335.30,46.00
             339.39,52.23 343.17,61.94 346.00,69.00
             346.00,69.00 356.60,95.00 356.60,95.00
             357.76,97.84 360.90,104.32 361.01,107.00
             361.17,111.11 356.17,118.39 354.00,122.00
             346.37,134.72 338.59,147.49 328.00,158.00
             324.25,161.71 319.66,166.23 314.00,166.37
             307.12,166.55 303.88,160.70 298.00,158.87
             287.60,155.62 278.99,168.07 277.70,177.00
             276.88,180.46 277.33,182.62 277.70,186.00
             281.55,206.52 302.55,211.94 319.00,202.07
             328.79,196.20 337.01,185.37 343.33,176.00
             351.09,164.49 364.61,141.52 370.00,129.00 Z
           M 157.00,233.00
           C 157.00,233.00 143.58,178.00 143.58,178.00
             143.58,178.00 129.65,120.00 129.65,120.00
             126.08,104.44 119.07,74.08 109.32,62.04
             105.73,57.61 101.26,55.06 96.00,53.06
             65.86,41.63 47.59,63.31 35.25,88.00
             33.15,92.19 26.15,106.91 26.63,111.00
             27.19,115.73 35.59,125.70 42.91,121.82
             46.72,119.80 48.72,114.42 51.53,111.09
             56.89,104.73 66.42,102.22 72.47,109.13
             75.70,112.81 76.69,117.44 78.00,122.00
             78.00,122.00 84.87,149.00 84.87,149.00
             84.87,149.00 102.12,216.00 102.12,216.00
             102.12,216.00 109.00,243.00 109.00,243.00
             109.00,243.00 116.35,273.00 116.35,273.00
             117.19,276.67 119.26,283.59 118.12,287.00
             117.10,290.08 109.94,299.69 107.66,303.00
             97.38,317.93 85.81,332.19 73.00,345.00
             67.22,350.78 61.20,357.93 53.00,360.07
             45.87,361.93 42.10,357.69 36.00,354.78
             25.36,349.72 14.46,348.92 6.39,359.02
             -2.18,369.74 1.04,388.01 5.00,400.00
             6.80,405.46 8.31,409.85 13.04,413.58
             17.31,416.96 21.82,417.11 27.00,416.99
             35.81,416.78 45.23,412.66 53.00,408.75
             77.32,396.52 90.46,380.81 105.72,359.00
             123.28,333.91 138.52,307.28 154.20,281.00
             180.12,237.57 205.13,194.25 227.75,149.00
             238.11,128.28 249.07,103.68 245.08,80.00
             242.36,63.86 235.89,51.75 218.00,50.32
             215.05,50.09 209.85,50.93 207.00,51.78
             203.87,52.73 201.49,54.07 199.01,56.21
             197.17,57.81 195.21,59.97 193.85,62.00
             185.28,74.83 193.18,83.95 197.56,96.00
             200.02,102.75 200.99,107.85 201.00,115.00
             201.00,115.00 201.00,123.00 201.00,123.00
             200.85,135.50 196.00,150.32 191.68,162.00
             182.74,186.20 169.77,210.59 157.00,233.00 Z" />
</svg>
