<?xml version="1.0" encoding="UTF-8" standalone="no"?>
<svg
     width="271" 
	 height="363"
     viewBox="0 0 271 363">
  <path id="Selection"
        fill="#000000" stroke="black" stroke-width="1"
        d="M 3.15,1.02
           C -0.60,4.34 0.01,6.28 0.00,11.00
             0.00,11.00 0.00,43.00 0.00,43.00
             0.00,43.00 0.00,165.00 0.00,165.00
             0.00,165.00 0.00,352.00 0.00,352.00
             0.01,355.18 -0.38,359.13 2.31,361.40
             5.00,363.67 12.45,363.00 16.00,363.00
             16.00,363.00 50.00,363.00 50.00,363.00
             50.00,363.00 90.00,363.00 90.00,363.00
             111.89,362.97 151.70,355.61 172.00,347.55
             182.88,343.23 190.08,339.28 200.00,333.19
             208.97,327.68 215.25,322.35 222.96,315.28
             254.73,286.16 267.22,245.74 270.09,204.00
             270.09,204.00 271.00,192.00 271.00,192.00
             271.00,192.00 271.00,173.00 271.00,173.00
             271.00,173.00 270.09,161.00 270.09,161.00
             267.81,128.34 258.98,96.54 239.11,70.00
             228.19,55.42 204.97,34.08 189.00,25.31
             166.85,13.14 140.83,7.96 116.00,4.72
             116.00,4.72 87.00,1.91 87.00,1.91
             87.00,1.91 77.00,1.00 77.00,1.00
             77.00,1.00 55.00,0.00 55.00,0.00
             55.00,0.00 26.00,0.00 26.00,0.00
             19.90,0.00 8.47,-0.87 3.15,1.02 Z
           M 42.00,324.00
           C 42.00,324.00 42.00,40.00 42.00,40.00
             42.00,40.00 82.00,40.00 82.00,40.00
             82.00,40.00 94.00,40.91 94.00,40.91
             127.35,43.20 158.43,50.99 185.00,72.46
             192.57,78.58 196.42,82.43 202.54,90.00
             227.79,121.24 229.06,155.95 229.00,194.00
             229.00,194.00 228.09,206.00 228.09,206.00
             225.62,241.86 214.77,273.61 185.00,296.10
             162.15,313.37 131.15,321.03 103.00,323.09
             103.00,323.09 91.00,324.00 91.00,324.00
             91.00,324.00 42.00,324.00 42.00,324.00 Z" />
</svg>
