<?xml version="1.0" encoding="UTF-8" standalone="no"?>
<svg 
     width="376" 
	 height="370"
     viewBox="0 0 376 370">
  <path id="Selection"
        fill="#000000" stroke="black" stroke-width="1"
        d="M 64.00,1.21
           C 55.46,2.71 50.99,3.37 43.00,7.37
             37.99,9.87 31.10,14.32 27.00,18.09
             10.02,33.71 1.04,55.98 1.00,79.00
             1.00,79.00 1.00,98.00 1.00,98.00
             1.01,104.01 3.26,125.56 4.78,131.00
             13.18,160.93 36.79,185.71 69.00,186.96
             73.95,187.15 80.99,185.90 86.00,185.08
             92.84,183.96 96.49,183.62 103.00,180.69
             134.43,166.53 147.44,140.00 150.08,107.00
             150.08,107.00 151.00,97.00 151.00,97.00
             151.31,70.42 143.81,35.56 122.99,17.30
             106.57,2.90 90.83,0.76 70.00,1.21
             70.00,1.21 64.00,1.21 64.00,1.21 Z
           M 77.00,370.00
           C 77.00,370.00 103.00,370.00 103.00,370.00
             105.28,370.00 108.65,370.22 110.61,368.98
             113.70,367.01 119.81,353.88 121.75,350.00
             121.75,350.00 143.22,309.00 143.22,309.00
             143.22,309.00 153.42,289.00 153.42,289.00
             153.42,289.00 165.26,266.00 165.26,266.00
             165.26,266.00 196.26,206.00 196.26,206.00
             196.26,206.00 251.25,99.00 251.25,99.00
             251.25,99.00 275.75,51.00 275.75,51.00
             275.75,51.00 282.25,37.00 282.25,37.00
             286.70,28.03 296.55,9.65 299.00,1.00
             299.00,1.00 274.00,1.00 274.00,1.00
             271.72,1.00 268.35,0.78 266.39,2.02
             263.20,4.05 256.79,17.96 254.75,22.00
             254.75,22.00 221.75,85.00 221.75,85.00
             221.75,85.00 174.26,176.00 174.26,176.00
             174.26,176.00 144.26,234.00 144.26,234.00
             144.26,234.00 130.69,261.00 130.69,261.00
             130.69,261.00 95.75,330.00 95.75,330.00
             91.14,339.23 79.47,361.32 77.00,370.00 Z
           M 74.00,31.32
           C 77.49,31.25 82.65,31.82 86.00,32.79
             112.89,40.56 112.03,77.87 112.00,100.00
             111.99,108.43 110.23,120.98 107.66,129.00
             102.86,143.96 94.86,155.34 78.00,156.68
             69.73,157.33 54.04,150.63 49.22,143.96
             44.77,137.80 42.52,128.42 41.00,121.00
             37.16,102.17 36.16,78.54 41.72,60.00
             44.15,51.91 48.10,42.99 55.04,37.79
             61.46,32.98 66.41,32.31 74.00,31.32 Z
           M 295.00,184.22
           C 286.99,185.91 274.97,187.18 268.00,190.79
             236.59,207.05 227.51,236.28 225.18,269.00
             225.18,269.00 227.72,297.00 227.72,297.00
             228.35,302.32 228.32,307.80 229.78,313.00
             238.14,342.80 261.25,369.61 294.00,370.00
             303.84,370.11 312.45,370.30 322.00,367.25
             329.08,364.99 334.86,361.78 341.00,357.64
             365.39,341.20 372.48,318.71 375.17,291.00
             375.17,291.00 376.00,282.00 376.00,282.00
             376.09,274.17 375.23,267.71 374.28,260.00
             374.28,260.00 372.24,242.00 372.24,242.00
             365.92,217.02 349.11,194.80 324.00,187.02
             316.68,184.76 310.63,183.99 303.00,184.22
             303.00,184.22 295.00,184.22 295.00,184.22 Z
           M 297.00,214.24
           C 297.00,214.24 301.00,214.24 301.00,214.24
             303.71,214.41 309.40,215.91 312.00,216.88
             335.79,225.66 337.30,252.67 338.82,274.00
             338.82,274.00 338.00,288.00 338.00,288.00
             337.96,293.97 336.88,301.16 335.58,307.00
             332.25,321.83 323.62,337.02 307.00,338.83
             302.99,339.26 298.94,338.95 295.00,338.20
             263.01,332.06 263.88,293.36 264.00,268.00
             264.05,257.35 266.73,240.30 271.90,231.00
             277.71,220.56 285.61,216.16 297.00,214.24 Z" />
</svg>
