<?xml version="1.0" encoding="UTF-8" standalone="no"?>
<svg 
     width="590"
	 height="414"
     viewBox="0 0 590 414">
  <path id="Selection"
        fill="#000000" stroke="black" stroke-width="1"
        d="M 120.00,401.00
           C 134.75,403.69 143.30,403.03 158.00,403.00
             160.38,403.00 163.71,403.20 165.79,401.98
             168.92,400.13 176.22,385.03 178.25,381.00
             178.25,381.00 199.69,341.00 199.69,341.00
             199.69,341.00 213.86,314.00 213.86,314.00
             213.86,314.00 247.31,251.00 247.31,251.00
             247.31,251.00 314.31,125.00 314.31,125.00
             314.31,125.00 356.31,46.00 356.31,46.00
             356.31,46.00 379.00,3.00 379.00,3.00
             369.65,-0.41 350.89,-0.85 341.00,0.75
             338.01,1.24 331.89,1.94 329.63,3.82
             327.42,5.68 320.08,20.47 318.22,24.00
             318.22,24.00 294.25,69.00 294.25,69.00
             294.25,69.00 261.31,131.00 261.31,131.00
             261.31,131.00 220.69,208.00 220.69,208.00
             220.69,208.00 169.74,304.00 169.74,304.00
             169.74,304.00 134.74,370.00 134.74,370.00
             130.82,377.60 120.81,393.37 120.00,401.00 Z
           M 65.00,16.00
           C 64.02,27.97 58.64,50.46 49.91,58.82
             36.48,71.67 17.26,72.86 0.00,76.00
             0.00,76.00 0.00,107.00 0.00,107.00
             0.00,107.00 63.00,107.00 63.00,107.00
             63.00,107.00 63.00,331.00 63.00,331.00
             63.00,331.00 105.00,331.00 105.00,331.00
             105.00,331.00 105.00,16.00 105.00,16.00
             105.00,16.00 65.00,16.00 65.00,16.00 Z
           M 439.00,303.00
           C 439.00,303.00 454.80,343.00 454.80,343.00
             461.33,359.62 467.81,376.21 478.02,391.00
             486.13,402.74 497.48,414.79 513.00,413.91
             538.04,412.48 563.50,387.71 576.65,368.00
             581.72,360.38 588.26,348.46 586.79,339.00
             585.27,329.27 577.11,328.07 570.17,333.85
             562.23,340.45 558.76,349.91 548.00,356.53
             543.31,359.42 538.13,361.43 533.00,358.26
             525.78,353.79 519.52,342.51 515.75,335.00
             515.75,335.00 490.58,275.00 490.58,275.00
             490.58,275.00 478.74,245.00 478.74,245.00
             478.12,240.26 486.21,229.24 489.00,225.00
             496.73,213.28 508.26,196.74 518.00,187.00
             522.58,182.42 528.43,176.79 535.00,175.39
             546.97,172.84 552.61,184.04 560.00,186.35
             577.30,191.76 590.53,169.76 589.96,155.00
             589.66,147.23 587.04,136.92 581.79,131.04
             570.48,118.36 548.57,120.47 535.00,128.04
             514.02,139.74 494.04,170.38 481.60,191.00
             477.67,197.51 469.08,210.41 467.00,217.00
             467.00,217.00 465.00,217.00 465.00,217.00
             465.00,217.00 454.28,190.00 454.28,190.00
             454.28,190.00 436.24,150.00 436.24,150.00
             431.49,140.65 424.55,129.72 415.00,124.82
             392.64,113.35 366.60,140.08 353.17,155.00
             353.17,155.00 343.48,167.00 343.48,167.00
             338.62,173.53 332.06,183.60 332.08,192.00
             332.10,201.75 341.51,207.81 347.68,203.26
             350.42,201.24 358.33,188.27 368.00,180.47
             371.85,177.36 376.20,174.29 381.08,177.11
             387.52,180.82 392.25,191.38 395.31,198.00
             395.31,198.00 417.20,250.00 417.20,250.00
             417.20,250.00 426.01,273.00 426.01,273.00
             426.18,277.45 417.43,290.62 414.80,295.00
             405.38,310.70 395.20,326.09 383.27,340.00
             377.99,346.16 369.31,355.01 361.00,356.60
             348.92,358.91 343.02,346.20 333.00,345.20
             325.09,344.40 317.73,349.96 313.30,356.01
             303.05,370.01 305.37,392.91 318.09,404.70
             335.03,420.40 357.80,413.90 374.00,401.00
             383.40,393.51 390.49,383.72 397.42,374.00
             413.44,351.55 424.88,326.54 439.00,303.00 Z" />
</svg>
