<?xml version="1.0" encoding="UTF-8" standalone="no"?>
<svg 
     width="259" 
	 height="370"
     viewBox="0 0 259 370">
  <path id="Selection"
        fill="#000000" stroke="black" stroke-width="1"
        d="M 0.00,1.00
           C 0.00,1.00 0.00,370.00 0.00,370.00
             0.00,370.00 259.00,370.00 259.00,370.00
             259.00,370.00 259.00,325.00 259.00,325.00
             259.00,325.00 48.00,325.00 48.00,325.00
             48.00,325.00 48.00,203.00 48.00,203.00
             48.00,203.00 231.00,203.00 231.00,203.00
             231.00,203.00 238.98,201.40 238.98,201.40
             238.98,201.40 240.00,189.00 240.00,189.00
             240.00,189.00 240.00,158.00 240.00,158.00
             240.00,158.00 48.00,158.00 48.00,158.00
             48.00,158.00 48.00,45.00 48.00,45.00
             48.00,45.00 256.00,45.00 256.00,45.00
             256.00,45.00 256.00,1.00 256.00,1.00
             256.00,1.00 0.00,1.00 0.00,1.00 Z" />
</svg>
