<?xml version="1.0" encoding="UTF-8" standalone="no"?>
<svg 
     width="700" 
	 height="376"
     viewBox="0 0 700 376">
  <path id="Selection"
        fill="#000000" stroke="black" stroke-width="1"
        d="M 168.00,0.00
           C 168.00,0.00 156.31,24.00 156.31,24.00
             156.31,24.00 131.31,78.00 131.31,78.00
             131.31,78.00 70.69,212.00 70.69,212.00
             70.69,212.00 39.58,281.00 39.58,281.00
             39.58,281.00 9.58,348.00 9.58,348.00
             9.58,348.00 2.71,363.00 2.71,363.00
             1.95,365.05 0.89,367.48 2.71,369.40
             4.38,371.32 8.60,371.00 11.00,371.00
             11.00,371.00 322.00,371.00 322.00,371.00
             322.00,371.00 311.40,344.00 311.40,344.00
             311.40,344.00 289.20,289.00 289.20,289.00
             289.20,289.00 216.60,111.00 216.60,111.00
             216.60,111.00 184.42,34.00 184.42,34.00
             181.15,26.33 173.03,5.04 168.00,0.00 Z
           M 380.00,0.42
           C 369.22,2.05 363.75,2.64 354.00,8.45
             333.00,20.97 323.75,47.02 319.92,70.00
             318.77,76.92 318.01,79.81 318.00,87.00
             318.00,87.00 318.00,97.00 318.00,97.00
             318.02,108.95 320.80,132.38 325.78,143.00
             337.51,168.00 357.68,188.65 387.00,189.00
             387.00,189.00 392.00,189.00 392.00,189.00
             437.31,188.93 468.48,151.93 469.00,108.00
             469.00,108.00 469.00,86.00 469.00,86.00
             468.96,61.87 458.24,29.66 439.00,14.29
             423.38,1.81 399.50,-1.96 380.00,0.42 Z
           M 622.00,0.00
           C 622.00,0.00 595.00,0.00 595.00,0.00
             593.25,0.00 589.92,-0.14 588.39,0.57
             584.97,2.16 579.63,14.26 577.75,18.00
             577.75,18.00 548.75,74.00 548.75,74.00
             548.75,74.00 527.26,115.00 527.26,115.00
             527.26,115.00 464.74,236.00 464.74,236.00
             464.74,236.00 441.25,281.00 441.25,281.00
             441.25,281.00 404.76,351.00 404.76,351.00
             404.76,351.00 396.71,367.00 396.71,367.00
             395.80,368.84 394.17,371.46 395.73,373.40
             397.27,375.32 401.75,375.00 404.00,375.00
             404.00,375.00 424.00,375.00 424.00,375.00
             425.83,374.97 427.87,375.05 429.47,374.01
             432.53,372.03 438.66,358.02 440.78,354.00
             440.78,354.00 476.25,286.00 476.25,286.00
             476.25,286.00 508.74,224.00 508.74,224.00
             508.74,224.00 567.26,110.00 567.26,110.00
             567.26,110.00 601.25,43.00 601.25,43.00
             601.25,43.00 622.00,0.00 622.00,0.00 Z
           M 390.00,31.29
           C 407.73,29.66 419.74,38.67 425.94,55.00
             429.14,63.45 430.99,75.96 431.00,85.00
             431.00,85.00 431.00,104.00 431.00,104.00
             430.74,125.89 422.98,157.67 396.00,158.00
             396.00,158.00 392.00,158.00 392.00,158.00
             374.95,157.77 362.81,142.39 358.90,127.00
             357.49,121.48 356.07,113.65 356.00,108.00
             355.74,85.61 354.70,48.30 377.00,35.36
             381.26,32.89 385.24,32.08 390.00,31.29 Z
           M 168.00,83.00
           C 168.00,83.00 191.99,142.00 191.99,142.00
             191.99,142.00 243.40,268.00 243.40,268.00
             243.40,268.00 263.00,316.00 263.00,316.00
             263.00,316.00 272.00,340.00 272.00,340.00
             272.00,340.00 50.00,340.00 50.00,340.00
             51.20,333.57 57.71,320.63 60.70,314.00
             60.70,314.00 78.70,274.00 78.70,274.00
             78.70,274.00 136.70,145.00 136.70,145.00
             136.70,145.00 157.31,99.00 157.31,99.00
             159.81,93.53 161.95,84.99 168.00,83.00 Z
           M 619.00,186.42
           C 607.19,188.14 600.14,189.17 589.00,194.31
             560.14,207.63 549.11,233.97 546.91,264.00
             546.91,264.00 546.02,273.00 546.02,273.00
             546.02,273.00 547.91,295.00 547.91,295.00
             548.31,300.76 548.79,311.80 550.16,317.00
             557.97,346.80 582.45,374.62 615.00,375.00
             624.30,375.11 640.32,373.84 649.00,370.90
             654.23,369.12 661.57,364.66 666.00,361.34
             688.13,344.74 698.96,317.25 699.00,290.00
             699.00,290.00 699.00,277.00 699.00,277.00
             698.94,237.33 681.45,196.57 639.00,187.66
             632.42,186.28 625.69,185.61 619.00,186.42 Z
           M 617.00,217.49
           C 621.31,216.87 626.78,216.71 631.00,217.49
             659.29,224.17 660.04,264.09 660.00,287.00
             660.00,287.00 658.08,309.00 658.08,309.00
             655.23,325.95 647.91,341.23 629.00,343.71
             623.96,344.37 620.84,343.81 616.00,342.63
             612.20,341.69 608.37,340.95 605.00,338.86
             582.62,324.96 585.96,289.67 586.00,267.00
             586.01,257.91 587.93,246.39 591.46,238.00
             596.46,226.13 604.47,219.67 617.00,217.49 Z" />
</svg>
