<?xml version="1.0" encoding="UTF-8" standalone="no"?>
<svg 
     width="948" 
	 height="375"
     viewBox="0 0 948 375">
  <path id="Selection"
        fill="#000000" stroke="black" stroke-width="1"
        d="M 370.00,1.00
           C 370.00,1.00 370.00,370.00 370.00,370.00
             370.00,370.00 498.00,370.00 498.00,370.00
             498.00,370.00 528.00,370.00 528.00,370.00
             549.01,369.97 576.72,362.62 594.00,350.56
             605.34,342.65 617.45,330.91 624.55,319.00
             642.43,289.00 645.73,241.78 628.13,211.00
             621.85,200.02 614.19,192.47 604.00,185.15
             597.90,180.77 584.25,173.70 577.00,172.00
             577.00,172.00 588.00,164.56 588.00,164.56
             599.11,156.78 609.00,146.54 614.56,134.00
             633.95,90.33 620.71,35.63 577.00,12.32
             565.47,6.17 545.09,1.16 532.00,1.00
             532.00,1.00 370.00,1.00 370.00,1.00 Z
           M 138.00,4.00
           C 138.00,4.00 124.42,41.00 124.42,41.00
             124.42,41.00 97.42,113.00 97.42,113.00
             97.42,113.00 33.58,283.00 33.58,283.00
             33.58,283.00 1.00,370.00 1.00,370.00
             1.00,370.00 44.00,370.00 44.00,370.00
             46.14,370.00 49.71,370.23 51.49,368.98
             53.38,367.65 54.27,364.12 55.05,362.00
             55.05,362.00 60.42,347.00 60.42,347.00
             60.42,347.00 83.00,284.00 83.00,284.00
             84.35,280.04 88.16,266.97 91.27,265.02
             93.24,263.79 96.72,264.00 99.00,264.00
             99.00,264.00 228.00,264.00 228.00,264.00
             230.28,264.00 233.76,263.79 235.73,265.02
             239.05,267.11 242.22,279.85 243.69,284.00
             243.69,284.00 265.00,346.00 265.00,346.00
             265.00,346.00 270.33,362.00 270.33,362.00
             271.00,364.00 272.00,367.73 273.70,369.01
             275.37,370.26 278.96,370.00 281.00,370.00
             281.00,370.00 327.00,370.00 327.00,370.00
             327.00,370.00 309.05,320.00 309.05,320.00
             309.05,320.00 279.05,237.00 279.05,237.00
             279.05,237.00 225.58,89.00 225.58,89.00
             225.58,89.00 202.05,24.00 202.05,24.00
             202.05,24.00 194.30,4.99 194.30,4.99
             194.30,4.99 187.00,4.00 187.00,4.00
             187.00,4.00 138.00,4.00 138.00,4.00 Z
           M 724.00,251.00
           C 724.00,251.00 682.00,251.00 682.00,251.00
             682.00,264.97 682.52,278.39 686.15,292.00
             693.27,318.70 711.59,341.48 735.00,355.94
             754.33,367.87 783.39,373.96 806.00,374.00
             806.00,374.00 825.00,374.00 825.00,374.00
             825.00,374.00 837.00,373.08 837.00,373.08
             871.73,370.30 907.45,357.66 929.10,329.00
             943.70,309.67 947.27,285.52 947.00,262.00
             946.90,254.17 944.93,243.59 942.85,236.00
             941.21,230.02 938.19,222.37 935.13,217.00
             916.49,184.35 884.51,177.06 851.00,169.12
             851.00,169.12 809.00,158.87 809.00,158.87
             809.00,158.87 785.00,152.88 785.00,152.88
             765.51,148.26 745.75,142.38 738.75,121.00
             736.48,114.07 736.92,107.20 737.00,100.00
             737.42,64.44 773.12,45.05 805.00,45.00
             820.65,44.98 830.63,44.45 846.00,49.52
             875.80,59.34 894.98,84.63 895.00,116.00
             895.00,116.00 938.00,116.00 938.00,116.00
             936.69,87.37 928.80,56.88 907.96,36.04
             896.35,24.43 881.40,17.08 866.00,12.00
             852.13,7.42 830.60,4.02 816.00,4.00
             816.00,4.00 802.00,4.00 802.00,4.00
             774.96,4.04 744.97,13.48 725.00,32.09
             705.06,50.66 693.04,79.79 693.00,107.00
             693.00,107.00 693.00,118.00 693.00,118.00
             693.08,124.47 694.68,133.83 696.67,140.00
             698.96,147.09 700.59,151.63 704.70,158.00
             723.09,186.46 750.57,192.27 781.00,199.87
             781.00,199.87 838.00,213.87 838.00,213.87
             857.80,218.83 887.74,227.68 897.63,247.00
             903.03,257.56 903.13,266.55 903.00,278.00
             902.47,322.74 848.48,334.41 813.00,334.00
             778.10,333.59 742.89,318.34 729.46,284.00
             725.90,274.88 724.01,260.80 724.00,251.00 Z
           M 417.00,157.00
           C 417.00,157.00 417.00,44.00 417.00,44.00
             417.00,44.00 495.00,44.00 495.00,44.00
             515.80,44.00 535.37,43.12 554.00,54.46
             573.00,66.03 577.63,86.25 575.15,107.00
             574.00,116.64 572.34,123.70 566.90,132.00
             562.45,138.79 556.11,144.23 549.00,148.10
             531.92,157.40 511.83,157.00 493.00,157.00
             493.00,157.00 417.00,157.00 417.00,157.00 Z
           M 168.00,54.00
           C 168.00,54.00 204.00,162.00 204.00,162.00
             204.00,162.00 222.00,218.00 222.00,218.00
             222.00,218.00 107.00,218.00 107.00,218.00
             107.00,218.00 126.95,162.00 126.95,162.00
             126.95,162.00 166.00,54.00 166.00,54.00
             166.00,54.00 168.00,54.00 168.00,54.00 Z
           M 417.00,198.00
           C 417.00,198.00 501.00,198.00 501.00,198.00
             523.81,198.00 547.85,197.96 568.00,210.47
             582.51,219.47 591.80,237.03 592.00,254.00
             592.28,278.26 589.52,303.18 566.00,316.66
             555.71,322.56 543.84,326.10 532.00,327.00
             532.00,327.00 523.00,327.00 523.00,327.00
             523.00,327.00 513.00,328.00 513.00,328.00
             513.00,328.00 426.00,328.00 426.00,328.00
             423.70,328.00 419.59,328.38 418.02,326.40
             416.85,324.92 417.01,321.82 417.00,320.00
             417.00,320.00 417.00,298.00 417.00,298.00
             417.00,298.00 417.00,198.00 417.00,198.00 Z" />
</svg>
