<?xml version="1.0" encoding="UTF-8" standalone="no"?>
<svg 
     width="1664" 
	 height="373"
     viewBox="0 0 1664 373">
  <path id="Selection"
        fill="#000000" stroke="black" stroke-width="1"
        d="M 488.00,0.00
           C 488.00,0.00 478.69,27.00 478.69,27.00
             478.69,27.00 458.34,84.00 458.34,84.00
             458.34,84.00 389.31,278.00 389.31,278.00
             389.31,278.00 368.95,335.00 368.95,335.00
             368.95,335.00 357.00,371.00 357.00,371.00
             357.00,371.00 406.00,371.00 406.00,371.00
             406.00,371.00 414.67,345.00 414.67,345.00
             414.67,345.00 434.00,288.00 434.00,288.00
             434.00,288.00 439.67,271.00 439.67,271.00
             440.44,268.72 441.32,265.42 443.42,264.02
             445.29,262.78 448.79,263.00 451.00,263.00
             451.00,263.00 574.00,263.00 574.00,263.00
             576.21,263.00 579.71,262.78 581.58,264.02
             584.56,266.00 588.03,279.09 589.33,283.00
             589.33,283.00 610.00,347.00 610.00,347.00
             610.00,347.00 615.00,363.00 615.00,363.00
             615.71,365.13 616.62,368.65 618.51,369.98
             620.29,371.23 623.86,371.00 626.00,371.00
             626.00,371.00 670.00,371.00 670.00,371.00
             670.00,371.00 614.34,209.00 614.34,209.00
             614.34,209.00 572.05,86.00 572.05,86.00
             572.05,86.00 549.69,21.00 549.69,21.00
             548.24,16.91 544.66,3.06 541.58,1.02
             539.71,-0.22 536.21,0.00 534.00,0.00
             534.00,0.00 488.00,0.00 488.00,0.00 Z
           M 1.00,2.00
           C 1.00,2.00 1.00,371.00 1.00,371.00
             1.00,371.00 47.00,371.00 47.00,371.00
             47.00,371.00 47.00,118.00 47.00,118.00
             47.00,118.00 46.00,101.00 46.00,101.00
             46.00,101.00 46.00,62.00 46.00,62.00
             46.00,62.00 70.34,137.00 70.34,137.00
             70.34,137.00 102.98,239.00 102.98,239.00
             102.98,239.00 122.00,299.00 122.00,299.00
             122.00,299.00 139.28,353.00 139.28,353.00
             139.28,353.00 145.70,370.01 145.70,370.01
             145.70,370.01 153.00,371.00 153.00,371.00
             153.00,371.00 186.00,371.00 186.00,371.00
             186.00,371.00 191.30,370.01 191.30,370.01
             191.30,370.01 197.34,354.00 197.34,354.00
             197.34,354.00 215.00,299.00 215.00,299.00
             215.00,299.00 259.34,159.00 259.34,159.00
             259.34,159.00 280.02,94.00 280.02,94.00
             280.02,94.00 290.00,62.00 290.00,62.00
             292.96,72.41 290.02,90.85 290.00,102.00
             290.00,102.00 290.00,157.00 290.00,157.00
             290.00,157.00 290.00,371.00 290.00,371.00
             290.00,371.00 336.00,371.00 336.00,371.00
             336.00,371.00 336.00,2.00 336.00,2.00
             336.00,2.00 268.00,2.00 268.00,2.00
             268.00,2.00 245.02,75.00 245.02,75.00
             245.02,75.00 192.98,239.00 192.98,239.00
             192.98,239.00 178.33,285.00 178.33,285.00
             178.33,285.00 170.00,313.00 170.00,313.00
             166.10,308.82 163.90,298.71 162.00,293.00
             162.00,293.00 147.00,246.00 147.00,246.00
             147.00,246.00 92.33,75.00 92.33,75.00
             92.33,75.00 74.67,20.00 74.67,20.00
             73.68,17.04 70.09,4.40 68.28,2.99
             66.66,1.74 63.00,2.00 61.00,2.00
             61.00,2.00 1.00,2.00 1.00,2.00 Z
           M 647.00,3.00
           C 647.00,3.00 647.00,47.00 647.00,47.00
             647.00,47.00 766.00,47.00 766.00,47.00
             766.00,47.00 766.00,372.00 766.00,372.00
             766.00,372.00 813.00,372.00 813.00,372.00
             813.00,372.00 813.00,47.00 813.00,47.00
             813.00,47.00 932.00,47.00 932.00,47.00
             932.00,47.00 932.00,3.00 932.00,3.00
             932.00,3.00 647.00,3.00 647.00,3.00 Z
           M 963.00,3.00
           C 963.00,3.00 963.00,373.00 963.00,373.00
             963.00,373.00 1002.00,373.00 1002.00,373.00
             1002.00,373.00 1009.98,371.40 1009.98,371.40
             1009.98,371.40 1011.00,361.00 1011.00,361.00
             1011.00,361.00 1011.00,336.00 1011.00,336.00
             1011.00,336.00 1011.00,214.00 1011.00,214.00
             1011.00,214.00 1124.00,214.00 1124.00,214.00
             1140.52,214.20 1159.65,217.99 1171.56,230.29
             1187.81,247.06 1186.97,273.24 1187.00,295.00
             1187.00,295.00 1188.00,312.00 1188.00,312.00
             1188.00,312.00 1189.04,338.00 1189.04,338.00
             1189.04,338.00 1190.91,362.00 1190.91,362.00
             1191.08,364.39 1190.61,369.61 1192.02,371.40
             1193.59,373.38 1197.70,373.00 1200.00,373.00
             1200.00,373.00 1241.00,373.00 1241.00,373.00
             1241.00,373.00 1236.00,334.00 1236.00,334.00
             1236.00,334.00 1234.00,282.00 1234.00,282.00
             1234.00,282.00 1233.00,265.00 1233.00,265.00
             1232.97,245.47 1229.87,220.81 1215.91,206.01
             1209.36,199.08 1200.65,194.73 1192.00,191.00
             1208.23,179.14 1219.16,172.78 1229.11,154.00
             1237.03,139.07 1240.19,116.79 1240.00,100.00
             1240.00,100.00 1239.17,91.00 1239.17,91.00
             1235.82,57.52 1223.25,30.74 1191.00,16.03
             1158.13,1.04 1126.99,3.00 1092.00,3.00
             1092.00,3.00 963.00,3.00 963.00,3.00 Z
           M 1370.00,8.00
           C 1370.00,8.00 1399.66,54.00 1399.66,54.00
             1399.66,54.00 1453.00,136.00 1453.00,136.00
             1453.00,136.00 1475.33,170.00 1475.33,170.00
             1477.41,173.11 1483.63,181.57 1483.61,185.00
             1483.58,188.26 1477.05,196.93 1475.00,200.00
             1475.00,200.00 1452.33,234.00 1452.33,234.00
             1452.33,234.00 1418.00,286.00 1418.00,286.00
             1418.00,286.00 1387.58,332.00 1387.58,332.00
             1382.16,340.65 1365.44,363.35 1363.00,371.00
             1363.00,371.00 1411.00,371.00 1411.00,371.00
             1411.00,371.00 1418.62,369.98 1418.62,369.98
             1418.62,369.98 1425.95,360.00 1425.95,360.00
             1425.95,360.00 1440.66,337.00 1440.66,337.00
             1440.66,337.00 1484.69,268.00 1484.69,268.00
             1484.69,268.00 1513.00,223.00 1513.00,223.00
             1513.00,223.00 1515.00,223.00 1515.00,223.00
             1515.00,223.00 1537.58,261.00 1537.58,261.00
             1537.58,261.00 1585.42,338.00 1585.42,338.00
             1585.42,338.00 1599.19,360.00 1599.19,360.00
             1599.19,360.00 1606.38,369.98 1606.38,369.98
             1606.38,369.98 1614.00,371.00 1614.00,371.00
             1614.00,371.00 1664.00,371.00 1664.00,371.00
             1664.00,371.00 1641.05,335.00 1641.05,335.00
             1641.05,335.00 1574.81,233.00 1574.81,233.00
             1574.81,233.00 1552.67,199.00 1552.67,199.00
             1552.67,199.00 1544.51,184.42 1544.51,184.42
             1544.51,184.42 1552.66,171.00 1552.66,171.00
             1552.66,171.00 1572.81,140.00 1572.81,140.00
             1572.81,140.00 1601.66,96.00 1601.66,96.00
             1601.66,96.00 1629.00,54.00 1629.00,54.00
             1629.00,54.00 1646.00,28.00 1646.00,28.00
             1646.00,28.00 1658.00,8.00 1658.00,8.00
             1658.00,8.00 1610.00,8.00 1610.00,8.00
             1610.00,8.00 1602.53,8.99 1602.53,8.99
             1602.53,8.99 1595.42,19.00 1595.42,19.00
             1595.42,19.00 1581.68,41.00 1581.68,41.00
             1581.68,41.00 1539.05,109.00 1539.05,109.00
             1539.05,109.00 1515.00,146.00 1515.00,146.00
             1515.00,146.00 1494.42,112.00 1494.42,112.00
             1494.42,112.00 1448.58,39.00 1448.58,39.00
             1448.58,39.00 1435.34,18.00 1435.34,18.00
             1435.34,18.00 1428.67,9.02 1428.67,9.02
             1428.67,9.02 1421.00,8.00 1421.00,8.00
             1421.00,8.00 1370.00,8.00 1370.00,8.00 Z
           M 1289.00,9.00
           C 1289.00,9.00 1289.00,361.00 1289.00,361.00
             1289.00,361.00 1290.60,368.98 1290.60,368.98
             1290.60,368.98 1304.00,370.00 1304.00,370.00
             1304.00,370.00 1338.00,370.00 1338.00,370.00
             1338.00,370.00 1338.00,9.00 1338.00,9.00
             1338.00,9.00 1289.00,9.00 1289.00,9.00 Z
           M 1011.00,172.00
           C 1011.00,172.00 1011.00,48.00 1011.00,48.00
             1011.00,48.00 1135.00,48.00 1135.00,48.00
             1151.91,48.03 1168.76,53.42 1179.62,67.00
             1185.62,74.49 1188.35,83.69 1189.92,93.00
             1193.82,116.19 1190.30,145.69 1170.00,160.51
             1152.81,173.07 1131.10,172.00 1111.00,172.00
             1111.00,172.00 1011.00,172.00 1011.00,172.00 Z
           M 514.00,56.00
           C 514.00,56.00 526.02,93.00 526.02,93.00
             526.02,93.00 546.02,156.00 546.02,156.00
             546.02,156.00 559.72,199.00 559.72,199.00
             559.72,199.00 565.00,218.00 565.00,218.00
             565.00,218.00 457.00,218.00 457.00,218.00
             457.00,218.00 494.00,111.00 494.00,111.00
             494.00,111.00 505.67,77.00 505.67,77.00
             505.67,77.00 514.00,56.00 514.00,56.00 Z" />
</svg>
