<?xml version="1.0" encoding="UTF-8" standalone="no"?>
<svg 
     width="956" 
	 height="372"
     viewBox="0 0 956 372">
  <path id="Selection"
        fill="#000000" stroke="black" stroke-width="1"
        d="M 351.00,1.00
           C 351.00,1.00 351.00,372.00 351.00,372.00
             351.00,372.00 398.00,372.00 398.00,372.00
             398.00,372.00 398.00,199.00 398.00,199.00
             398.00,199.00 582.00,199.00 582.00,199.00
             582.00,199.00 582.00,372.00 582.00,372.00
             582.00,372.00 629.00,372.00 629.00,372.00
             629.00,372.00 629.00,1.00 629.00,1.00
             629.00,1.00 582.00,1.00 582.00,1.00
             582.00,1.00 582.00,154.00 582.00,154.00
             582.00,154.00 398.00,154.00 398.00,154.00
             398.00,154.00 398.00,1.00 398.00,1.00
             398.00,1.00 351.00,1.00 351.00,1.00 Z
           M 733.00,248.00
           C 733.00,248.00 691.00,248.00 691.00,248.00
             691.00,263.98 690.98,275.24 695.43,291.00
             703.35,319.08 724.30,343.16 750.00,356.68
             765.30,364.73 791.70,370.79 809.00,371.00
             809.00,371.00 837.00,371.00 837.00,371.00
             846.40,370.99 860.80,368.66 870.00,366.37
             896.09,359.88 917.98,350.43 935.54,329.00
             950.56,310.67 956.27,285.27 956.00,262.00
             955.90,253.79 953.84,240.93 951.57,233.00
             949.52,225.79 946.85,219.51 943.13,213.00
             926.15,183.32 896.63,175.29 866.00,167.63
             866.00,167.63 818.00,155.87 818.00,155.87
             792.29,149.45 753.67,146.12 746.66,115.00
             744.90,107.16 744.69,103.90 745.72,96.00
             746.77,87.93 747.92,81.31 751.90,74.00
             763.88,51.99 791.04,42.04 815.00,42.00
             829.36,41.98 838.86,41.55 853.00,46.03
             883.64,55.73 903.71,80.53 904.00,113.00
             904.00,113.00 947.00,113.00 947.00,113.00
             945.57,107.10 946.33,107.21 945.83,102.00
             945.83,102.00 942.58,82.00 942.58,82.00
             937.22,58.05 923.73,35.70 903.00,22.08
             883.19,9.06 859.35,3.62 836.00,1.91
             836.00,1.91 824.00,1.00 824.00,1.00
             824.00,1.00 811.00,1.00 811.00,1.00
             774.89,1.06 737.86,16.72 718.23,48.00
             713.96,54.81 709.46,64.33 707.03,72.00
             704.64,79.52 702.10,92.17 702.00,100.00
             701.85,113.00 701.27,123.31 705.04,136.00
             706.92,142.33 710.03,149.36 713.46,155.00
             730.29,182.63 760.85,189.97 790.00,196.88
             790.00,196.88 834.00,207.63 834.00,207.63
             851.76,212.07 882.11,219.80 896.00,231.33
             902.44,236.67 907.17,243.98 909.56,252.00
             910.95,256.67 911.94,263.12 912.00,268.00
             912.08,275.38 911.96,281.91 909.45,289.00
             897.24,323.53 853.12,331.37 821.00,331.00
             788.89,330.62 754.43,316.62 740.31,286.00
             734.59,273.60 733.00,261.49 733.00,248.00 Z
           M 294.00,233.00
           C 294.00,233.00 250.00,233.00 250.00,233.00
             249.38,240.61 247.08,248.76 244.67,256.00
             235.70,282.91 220.67,305.87 195.00,319.51
             165.52,335.18 119.55,330.25 93.00,310.52
             58.82,285.13 48.71,241.26 46.96,201.00
             46.96,201.00 46.00,188.00 46.00,188.00
             46.00,188.00 46.00,178.00 46.00,178.00
             46.00,178.00 46.91,168.00 46.91,168.00
             50.04,122.47 65.67,79.13 108.00,55.86
             123.16,47.53 140.93,44.92 158.00,45.00
             194.27,45.17 227.43,63.53 241.40,98.00
             243.88,104.13 246.07,110.43 247.00,117.00
             247.00,117.00 291.00,117.00 291.00,117.00
             291.00,117.00 286.85,96.00 286.85,96.00
             282.20,79.02 274.20,62.42 262.70,49.00
             249.88,34.04 234.11,22.17 216.00,14.43
             200.28,7.71 176.10,3.03 159.00,3.00
             122.43,2.94 88.85,10.72 60.00,34.46
             19.39,67.89 4.37,116.49 0.91,167.00
             0.91,167.00 0.00,177.00 0.00,177.00
             -0.68,235.27 10.68,297.04 56.00,337.83
             107.94,384.58 202.23,380.95 250.91,330.96
             278.29,302.85 287.21,270.25 294.00,233.00 Z" />
</svg>
