<?xml version="1.0" encoding="UTF-8" standalone="no"?>
<svg 
     width="695"
	 height="366"
     viewBox="0 0 695 366">
  <path id="Selection"
        fill="#000000" stroke="black" stroke-width="1"
        d="M 0.00,0.00
           C 0.00,0.00 0.00,366.00 0.00,366.00
             0.00,366.00 47.00,366.00 47.00,366.00
             47.00,366.00 47.00,200.00 47.00,200.00
             47.00,200.00 217.00,200.00 217.00,200.00
             217.00,200.00 217.00,156.00 217.00,156.00
             217.00,156.00 47.00,156.00 47.00,156.00
             47.00,156.00 47.00,44.00 47.00,44.00
             47.00,44.00 240.00,44.00 240.00,44.00
             240.00,44.00 240.00,0.00 240.00,0.00
             240.00,0.00 0.00,0.00 0.00,0.00 Z
           M 401.00,2.00
           C 402.96,8.15 408.03,14.55 411.67,20.00
             411.67,20.00 429.33,47.00 429.33,47.00
             429.33,47.00 484.69,132.00 484.69,132.00
             484.69,132.00 506.33,165.00 506.33,165.00
             508.34,168.00 514.21,175.67 514.08,179.00
             513.95,182.09 507.33,191.00 505.33,194.00
             505.33,194.00 482.00,229.00 482.00,229.00
             482.00,229.00 423.00,318.00 423.00,318.00
             423.00,318.00 404.67,346.00 404.67,346.00
             401.00,351.52 395.28,359.05 393.00,365.00
             393.00,365.00 441.00,365.00 441.00,365.00
             441.00,365.00 448.68,363.98 448.68,363.98
             448.68,363.98 456.81,353.00 456.81,353.00
             456.81,353.00 470.31,332.00 470.31,332.00
             470.31,332.00 521.42,252.00 521.42,252.00
             521.42,252.00 543.00,217.00 543.00,217.00
             543.00,217.00 545.00,217.00 545.00,217.00
             545.00,217.00 568.58,256.00 568.58,256.00
             568.58,256.00 615.19,331.00 615.19,331.00
             615.19,331.00 629.58,354.00 629.58,354.00
             629.58,354.00 636.53,364.01 636.53,364.01
             636.53,364.01 644.00,365.00 644.00,365.00
             644.00,365.00 694.00,365.00 694.00,365.00
             694.00,365.00 684.42,349.00 684.42,349.00
             684.42,349.00 663.00,316.00 663.00,316.00
             663.00,316.00 629.31,264.00 629.31,264.00
             629.31,264.00 604.58,226.00 604.58,226.00
             604.58,226.00 583.67,194.00 583.67,194.00
             583.67,194.00 575.20,179.00 575.20,179.00
             575.20,179.00 582.95,165.00 582.95,165.00
             582.95,165.00 605.67,130.00 605.67,130.00
             605.67,130.00 652.67,58.00 652.67,58.00
             652.67,58.00 671.67,29.00 671.67,29.00
             671.67,29.00 689.00,2.00 689.00,2.00
             689.00,2.00 641.00,2.00 641.00,2.00
             641.00,2.00 633.21,3.02 633.21,3.02
             633.21,3.02 625.81,13.00 625.81,13.00
             625.81,13.00 613.19,33.00 613.19,33.00
             613.19,33.00 569.32,103.00 569.32,103.00
             569.32,103.00 547.00,140.00 547.00,140.00
             547.00,140.00 522.95,103.00 522.95,103.00
             522.95,103.00 480.81,36.00 480.81,36.00
             480.81,36.00 466.34,13.00 466.34,13.00
             466.34,13.00 458.82,3.02 458.82,3.02
             458.82,3.02 451.00,2.00 451.00,2.00
             451.00,2.00 401.00,2.00 401.00,2.00 Z
           M 295.00,3.00
           C 295.00,3.00 295.00,364.00 295.00,364.00
             295.00,364.00 344.00,364.00 344.00,364.00
             344.00,364.00 344.00,3.00 344.00,3.00
             344.00,3.00 295.00,3.00 295.00,3.00 Z" />
</svg>
