<?xml version="1.0" encoding="UTF-8" standalone="no"?>
<svg 
     width="237"
	 height="335"
     viewBox="0 0 237 335">
  <path id="Selection"
        fill="#000000" stroke="black" stroke-width="1"
        d="M 0.00,0.00
           C 0.00,0.00 0.00,42.00 0.00,42.00
             0.00,42.00 188.00,42.00 188.00,42.00
             168.62,63.09 144.92,98.13 130.00,123.00
             106.23,162.61 83.96,207.13 69.33,251.00
             62.30,272.10 49.47,313.57 49.00,335.00
             49.00,335.00 96.00,335.00 96.00,335.00
             104.94,267.63 136.42,187.58 170.42,129.00
             183.75,106.04 198.50,83.81 215.00,63.00
             215.00,63.00 228.17,47.00 228.17,47.00
             230.55,44.34 233.99,41.33 235.26,38.00
             236.13,35.72 236.00,32.45 236.00,30.00
             236.00,30.00 236.00,0.00 236.00,0.00
             236.00,0.00 0.00,0.00 0.00,0.00 Z" />
</svg>
