<?xml version="1.0" encoding="UTF-8" standalone="no"?>
<svg 
     width="919"
	 height="371"
     viewBox="0 0 919 371">
  <path id="Selection"
        fill="#000000" stroke="black" stroke-width="1"
        d="M 879.00,317.00
           C 879.00,317.00 879.00,333.00 879.00,333.00
             879.00,333.00 879.96,343.00 879.96,343.00
             879.96,343.00 879.96,354.00 879.96,354.00
             879.96,354.00 881.00,367.00 881.00,367.00
             881.00,367.00 918.00,367.00 918.00,367.00
             918.00,367.00 918.00,173.00 918.00,173.00
             918.00,173.00 772.00,173.00 772.00,173.00
             772.00,173.00 772.00,214.00 772.00,214.00
             772.00,214.00 876.00,214.00 876.00,214.00
             876.00,241.83 871.87,268.25 854.50,291.00
             837.90,312.74 809.73,328.67 782.00,329.00
             782.00,329.00 763.00,329.00 763.00,329.00
             743.38,328.97 721.49,321.51 706.00,309.49
             670.91,282.26 661.29,234.02 661.00,192.00
             661.00,192.00 661.00,169.00 661.00,169.00
             661.00,169.00 662.73,152.00 662.73,152.00
             667.20,120.71 678.40,93.60 701.00,71.00
             709.00,63.00 712.09,60.10 722.00,54.43
             754.97,35.55 806.11,39.16 836.00,62.67
             853.12,76.13 864.23,94.87 869.00,116.00
             869.00,116.00 913.00,116.00 913.00,116.00
             907.85,87.74 901.63,67.99 881.83,46.00
             840.51,0.11 764.45,-11.65 709.00,12.86
             686.78,22.68 667.44,38.58 652.89,58.00
             622.13,99.09 613.92,142.93 614.00,193.00
             614.00,193.00 615.04,205.00 615.04,205.00
             615.04,205.00 615.04,215.00 615.04,215.00
             616.99,234.08 620.64,253.02 627.42,271.00
             635.38,292.07 647.42,310.74 662.96,327.00
             685.89,350.97 708.00,363.54 741.00,368.13
             741.00,368.13 759.00,370.00 759.00,370.00
             759.00,370.00 775.00,370.00 775.00,370.00
             800.68,369.96 830.53,360.66 851.00,345.10
             866.36,333.42 872.49,322.09 879.00,317.00 Z
           M 315.00,1.00
           C 315.00,1.00 315.00,370.00 315.00,370.00
             315.00,370.00 573.00,370.00 573.00,370.00
             573.00,370.00 573.00,326.00 573.00,326.00
             573.00,326.00 362.00,326.00 362.00,326.00
             362.00,326.00 362.00,202.00 362.00,202.00
             362.00,202.00 553.00,202.00 553.00,202.00
             553.00,202.00 553.00,158.00 553.00,158.00
             553.00,158.00 362.00,158.00 362.00,158.00
             362.00,158.00 362.00,45.00 362.00,45.00
             362.00,45.00 569.00,45.00 569.00,45.00
             569.00,45.00 569.00,1.00 569.00,1.00
             569.00,1.00 315.00,1.00 315.00,1.00 Z
           M 3.23,6.02
           C -0.39,9.35 0.02,11.32 0.00,16.00
             0.00,16.00 0.00,48.00 0.00,48.00
             0.00,48.00 0.00,169.00 0.00,169.00
             0.00,169.00 0.00,356.00 0.00,356.00
             0.01,359.37 -0.41,363.85 2.43,366.26
             5.22,368.64 12.35,368.00 16.00,368.00
             16.00,368.00 50.00,368.00 50.00,368.00
             50.00,368.00 86.00,368.00 86.00,368.00
             86.00,368.00 98.00,367.09 98.00,367.09
             135.49,364.52 169.85,357.41 202.00,336.95
             243.20,310.72 263.50,269.31 269.15,222.00
             269.15,222.00 271.00,202.00 271.00,202.00
             271.00,202.00 271.00,176.00 271.00,176.00
             271.00,176.00 270.09,164.00 270.09,164.00
             267.83,131.67 258.16,100.14 238.53,74.00
             227.58,59.43 204.97,39.08 189.00,30.31
             165.60,17.46 133.41,11.66 107.00,8.84
             107.00,8.84 83.00,6.91 83.00,6.91
             83.00,6.91 73.00,5.96 73.00,5.96
             73.00,5.96 60.00,5.96 60.00,5.96
             60.00,5.96 48.00,5.00 48.00,5.00
             48.00,5.00 25.00,5.00 25.00,5.00
             19.16,5.00 8.31,4.16 3.23,6.02 Z
           M 42.00,330.00
           C 42.00,330.00 42.00,45.00 42.00,45.00
             42.00,45.00 87.00,45.00 87.00,45.00
             87.00,45.00 99.00,45.91 99.00,45.91
             131.34,48.28 161.63,57.59 187.00,78.46
             212.97,99.84 228.95,135.43 229.00,169.00
             229.00,169.00 229.00,211.00 229.00,211.00
             229.00,211.00 227.08,228.00 227.08,228.00
             222.49,255.78 210.55,281.57 188.00,299.33
             165.20,317.30 134.57,325.80 106.00,328.08
             106.00,328.08 95.00,329.04 95.00,329.04
             95.00,329.04 81.00,329.04 81.00,329.04
             81.00,329.04 69.00,330.00 69.00,330.00
             69.00,330.00 42.00,330.00 42.00,330.00 Z" />
</svg>
