<?xml version="1.0" encoding="UTF-8" standalone="no"?>
<svg 
     width="234"
	 height="352"
     viewBox="0 0 234 352">
  <path id="Selection"
        fill="#000000" stroke="black" stroke-width="1"
        d="M 57.00,160.00
           C 57.00,160.00 57.00,162.00 57.00,162.00
             52.69,163.23 49.95,164.75 46.00,166.76
             20.19,179.88 1.35,206.55 1.00,236.00
             0.72,260.18 0.53,279.28 13.45,301.00
             30.04,328.89 58.10,342.92 89.00,349.00
             95.29,350.24 106.74,351.92 113.00,352.00
             154.80,352.49 193.67,341.17 217.31,304.00
             225.95,290.41 232.81,269.17 233.00,253.00
             233.00,253.00 233.00,238.00 233.00,238.00
             232.96,212.69 220.03,188.30 200.00,173.13
             193.62,168.30 185.73,163.21 178.00,161.00
             190.01,153.80 199.49,148.99 207.96,137.00
             215.72,126.01 220.84,110.48 221.00,97.00
             221.00,97.00 221.00,85.00 221.00,85.00
             220.97,64.46 210.81,42.31 195.91,28.29
             172.44,6.19 141.95,0.95 111.00,1.00
             95.15,1.02 71.80,6.10 58.00,13.87
             49.07,18.91 39.96,26.08 33.23,34.00
             8.44,64.52 1.96,117.00 33.23,145.91
             39.39,151.86 48.43,157.99 57.00,160.00 Z
           M 111.00,39.29
           C 116.01,38.93 116.51,39.60 121.00,39.91
             137.27,41.05 152.90,44.66 164.56,57.17
             188.11,82.42 177.49,124.20 147.00,138.68
             136.32,143.75 125.67,145.13 114.00,145.00
             96.72,144.79 78.51,137.41 67.32,124.00
             51.84,105.44 53.28,73.87 69.18,56.00
             81.49,42.17 94.34,41.65 111.00,39.29 Z
           M 107.00,182.28
           C 130.91,180.06 159.65,185.98 174.96,206.00
             192.55,229.01 193.05,273.30 172.83,294.96
             162.99,305.50 148.05,310.99 134.00,312.71
             112.43,315.37 84.98,312.76 68.00,297.82
             43.31,276.08 37.78,231.86 59.32,206.00
             72.52,190.16 87.44,185.16 107.00,182.28 Z" />
</svg>
