<?xml version="1.0" encoding="UTF-8" standalone="no"?>
<svg 
     width="717" 
	 height="371"
     viewBox="0 0 717 371">
  <path id="Selection"
        fill="#000000" stroke="black" stroke-width="1"
        d="M 43.00,247.00
           C 43.00,247.00 0.00,247.00 0.00,247.00
             0.00,263.77 2.04,283.26 8.06,299.00
             17.12,322.68 37.74,344.31 60.00,356.11
             74.60,363.85 101.44,369.80 118.00,370.00
             118.00,370.00 133.00,370.96 133.00,370.96
             133.00,370.96 151.00,370.00 151.00,370.00
             180.16,369.65 219.39,355.99 239.83,334.91
             260.41,313.69 266.33,287.62 266.00,259.00
             265.91,251.31 263.89,239.42 261.71,232.00
             259.61,224.88 257.06,218.35 253.19,212.00
             233.50,179.69 203.93,173.16 170.00,165.12
             170.00,165.12 127.00,154.63 127.00,154.63
             127.00,154.63 104.00,148.87 104.00,148.87
             83.60,143.77 62.03,137.65 56.68,114.00
             55.31,107.96 55.44,102.09 55.92,96.00
             56.43,89.44 56.94,85.23 59.45,79.00
             72.17,47.48 105.56,40.65 136.00,41.00
             160.91,41.30 188.56,52.54 202.45,74.00
             209.96,85.60 213.37,99.33 214.00,113.00
             214.00,113.00 248.00,113.00 248.00,113.00
             249.94,113.00 253.86,113.23 255.39,111.98
             257.16,110.52 256.48,107.95 256.28,106.00
             256.28,106.00 254.41,90.00 254.41,90.00
             250.96,68.61 242.36,47.69 226.83,32.17
             204.89,10.22 166.44,0.05 136.00,0.00
             136.00,0.00 120.00,0.00 120.00,0.00
             96.39,0.04 68.65,7.97 50.00,22.67
             24.39,42.84 11.14,74.80 11.00,107.00
             10.96,117.08 12.51,128.42 15.67,138.00
             28.15,175.88 59.20,186.17 94.00,194.87
             94.00,194.87 163.00,212.00 163.00,212.00
             176.76,215.95 198.73,223.07 208.83,233.17
             223.91,248.25 225.50,277.74 215.68,296.00
             212.64,301.64 207.02,307.54 202.00,311.48
             184.61,325.16 154.73,330.25 133.00,330.00
             133.00,330.00 124.00,329.17 124.00,329.17
             116.83,328.47 110.05,327.88 103.00,326.11
             81.27,320.65 60.59,306.65 50.89,286.00
             45.18,273.85 43.00,260.33 43.00,247.00 Z
           M 605.00,231.00
           C 605.00,231.00 570.00,231.00 570.00,231.00
             567.55,231.00 563.72,230.62 561.93,232.60
             560.53,234.16 557.95,246.85 556.98,250.00
             553.20,262.20 549.37,272.09 542.58,283.00
             526.33,309.09 500.41,326.95 469.00,327.00
             469.00,327.00 460.00,327.00 460.00,327.00
             451.39,326.90 439.33,324.53 431.00,322.14
             423.91,320.11 416.30,316.63 410.00,312.80
             379.60,294.31 366.43,260.52 360.92,227.00
             359.60,218.96 358.01,207.02 358.00,199.00
             358.00,199.00 358.00,169.00 358.00,169.00
             358.03,152.05 362.96,128.76 369.20,113.00
             376.32,95.03 387.99,77.77 403.00,65.46
             437.65,37.05 497.10,35.65 531.00,66.17
             546.02,79.69 554.06,96.43 558.00,116.00
             558.00,116.00 602.00,116.00 602.00,116.00
             601.12,105.18 597.79,91.08 593.80,81.00
             590.37,72.34 584.65,61.44 579.10,54.00
             553.09,19.12 517.50,3.81 475.00,1.96
             475.00,1.96 466.00,1.08 466.00,1.08
             466.00,1.08 457.00,1.96 457.00,1.96
             437.39,2.81 419.02,6.06 401.00,14.31
             345.46,39.74 319.77,93.06 312.85,151.00
             312.85,151.00 311.00,172.00 311.00,172.00
             311.00,172.00 311.00,194.00 311.00,194.00
             311.00,194.00 311.91,206.00 311.91,206.00
             315.58,259.34 332.68,314.32 379.00,345.97
             400.68,360.79 425.86,368.39 452.00,369.11
             452.00,369.11 461.00,369.11 461.00,369.11
             461.00,369.11 475.00,369.11 475.00,369.11
             507.79,365.71 536.86,353.62 560.96,330.83
             579.54,313.26 591.74,287.27 598.71,263.00
             601.21,254.29 604.59,239.89 605.00,231.00 Z
           M 668.00,8.00
           C 668.00,8.00 668.00,369.00 668.00,369.00
             668.00,369.00 717.00,369.00 717.00,369.00
             717.00,369.00 717.00,8.00 717.00,8.00
             717.00,8.00 668.00,8.00 668.00,8.00 Z" />
</svg>
