<?xml version="1.0" encoding="UTF-8" standalone="no"?>
<svg 
     width="851"
	 height="332"
     viewBox="0 0 851 332">
  <path id="Selection"
        fill="#000000" stroke="black" stroke-width="1"
        d="M 0.00,0.00
           C 0.00,0.00 0.00,332.00 0.00,332.00
             0.00,332.00 43.00,332.00 43.00,332.00
             43.00,332.00 43.00,190.00 43.00,190.00
             43.00,190.00 149.00,190.00 149.00,190.00
             164.56,190.02 177.89,193.51 188.96,205.00
             198.15,214.55 201.84,227.97 202.00,241.00
             202.00,241.00 203.00,275.00 203.00,275.00
             203.00,275.00 204.00,289.00 204.00,289.00
             204.00,289.00 205.09,311.00 205.09,311.00
             205.09,311.00 206.00,321.00 206.00,321.00
             206.03,323.61 205.42,329.26 207.60,330.98
             209.49,332.48 217.34,332.00 220.00,332.00
             220.00,332.00 251.00,332.00 251.00,332.00
             251.00,332.00 247.17,308.00 247.17,308.00
             247.17,308.00 246.00,282.00 246.00,282.00
             246.00,282.00 245.00,259.00 245.00,259.00
             245.00,259.00 244.00,242.00 244.00,242.00
             243.97,222.58 242.09,196.71 227.91,182.04
             222.31,176.25 213.38,172.18 206.00,169.00
             218.82,161.28 231.48,151.23 238.96,138.00
             246.37,124.87 249.98,106.00 250.00,91.00
             250.05,57.74 239.48,28.01 208.00,12.27
             179.51,-1.97 151.63,0.00 121.00,0.00
             121.00,0.00 0.00,0.00 0.00,0.00 Z
           M 278.00,332.00
           C 278.00,332.00 316.00,332.00 316.00,332.00
             318.06,332.00 321.62,332.26 323.30,331.01
             325.63,329.28 330.21,314.66 331.58,311.00
             331.58,311.00 351.66,255.00 351.66,255.00
             352.95,251.29 356.57,238.91 359.42,237.02
             361.29,235.78 364.79,236.00 367.00,236.00
             367.00,236.00 482.00,236.00 482.00,236.00
             484.28,236.00 487.76,235.79 489.73,237.02
             492.95,239.04 496.01,251.02 497.33,255.00
             497.33,255.00 516.00,310.00 516.00,310.00
             516.00,310.00 521.00,324.00 521.00,324.00
             521.72,326.13 522.62,329.65 524.51,330.98
             526.29,332.23 529.86,332.00 532.00,332.00
             532.00,332.00 572.00,332.00 572.00,332.00
             572.00,332.00 561.69,302.00 561.69,302.00
             561.69,302.00 541.69,247.00 541.69,247.00
             541.69,247.00 500.05,132.00 500.05,132.00
             500.05,132.00 480.19,77.00 480.19,77.00
             480.19,77.00 459.19,19.00 459.19,19.00
             457.79,15.29 454.49,3.94 451.59,2.02
             450.01,0.98 447.82,1.04 446.00,1.00
             446.00,1.00 410.00,1.00 410.00,1.00
             407.94,1.00 404.38,0.74 402.70,1.99
             400.45,3.66 396.20,16.66 394.95,20.00
             394.95,20.00 373.19,78.00 373.19,78.00
             373.19,78.00 309.58,247.00 309.58,247.00
             309.58,247.00 288.95,302.00 288.95,302.00
             288.95,302.00 278.00,332.00 278.00,332.00 Z
           M 609.31,5.02
           C 606.07,8.50 607.00,12.48 607.00,17.00
             607.00,17.00 607.00,42.00 607.00,42.00
             607.00,42.00 607.00,147.00 607.00,147.00
             607.00,147.00 607.00,321.00 607.00,321.00
             607.01,323.91 606.55,328.14 609.31,329.98
             611.53,331.45 619.10,331.00 622.00,331.00
             622.00,331.00 654.00,331.00 654.00,331.00
             654.00,331.00 689.00,331.00 689.00,331.00
             689.00,331.00 701.00,330.09 701.00,330.09
             732.93,327.76 767.82,318.86 794.00,299.85
             825.96,276.64 841.97,246.36 848.41,208.00
             848.41,208.00 851.00,185.00 851.00,185.00
             851.00,185.00 851.00,155.00 851.00,155.00
             850.94,118.27 836.00,78.17 809.91,52.09
             809.91,52.09 795.00,39.42 795.00,39.42
             790.14,35.63 785.30,31.61 780.00,28.45
             758.76,15.79 731.30,10.75 707.00,7.85
             707.00,7.85 676.00,4.96 676.00,4.96
             676.00,4.96 665.00,4.96 665.00,4.96
             665.00,4.96 653.00,4.00 653.00,4.00
             653.00,4.00 630.00,4.00 630.00,4.00
             624.34,4.00 614.28,3.13 609.31,5.02 Z
           M 43.00,152.00
           C 43.00,152.00 43.00,40.00 43.00,40.00
             43.00,40.00 157.00,40.00 157.00,40.00
             170.59,40.02 185.21,44.58 194.38,55.09
             202.07,63.90 205.86,76.43 206.00,88.00
             206.22,106.88 205.76,127.63 189.00,140.24
             171.23,153.61 152.78,152.00 132.00,152.00
             132.00,152.00 43.00,152.00 43.00,152.00 Z
           M 644.00,297.00
           C 644.00,297.00 644.00,40.00 644.00,40.00
             644.00,40.00 685.00,40.00 685.00,40.00
             685.00,40.00 697.00,40.92 697.00,40.92
             724.38,43.11 749.90,50.63 772.00,67.50
             809.26,95.95 814.07,133.58 814.00,177.00
             814.00,177.00 813.09,189.00 813.09,189.00
             810.83,221.92 801.40,250.39 774.00,271.10
             738.03,298.29 686.88,297.00 644.00,297.00 Z
           M 429.00,47.00
           C 429.00,47.00 441.33,85.00 441.33,85.00
             441.33,85.00 464.67,155.00 464.67,155.00
             464.67,155.00 477.00,194.00 477.00,194.00
             477.00,194.00 374.00,194.00 374.00,194.00
             374.00,194.00 392.31,142.00 392.31,142.00
             392.31,142.00 418.58,70.00 418.58,70.00
             418.58,70.00 427.00,47.00 427.00,47.00
             427.00,47.00 429.00,47.00 429.00,47.00 Z" />
</svg>
