<?xml version="1.0" encoding="UTF-8" standalone="no"?>
<svg 
     width="944" 
	 height="373"
     viewBox="0 0 944 373">
  <path id="Selection"
        fill="#000000" stroke="black" stroke-width="1"
        d="M 0.00,0.00
           C 0.00,0.00 0.00,369.00 0.00,369.00
             0.00,369.00 258.00,369.00 258.00,369.00
             258.00,369.00 258.00,324.00 258.00,324.00
             258.00,324.00 48.00,324.00 48.00,324.00
             48.00,324.00 48.00,202.00 48.00,202.00
             48.00,202.00 239.00,202.00 239.00,202.00
             239.00,202.00 239.00,157.00 239.00,157.00
             239.00,157.00 48.00,157.00 48.00,157.00
             48.00,157.00 48.00,44.00 48.00,44.00
             48.00,44.00 255.00,44.00 255.00,44.00
             255.00,44.00 255.00,0.00 255.00,0.00
             255.00,0.00 0.00,0.00 0.00,0.00 Z
           M 309.00,0.00
           C 309.00,0.00 309.00,370.00 309.00,370.00
             309.00,370.00 356.00,370.00 356.00,370.00
             356.00,370.00 356.00,72.00 356.00,72.00
             356.00,72.00 404.60,153.00 404.60,153.00
             404.60,153.00 492.00,299.00 492.00,299.00
             492.00,299.00 524.40,353.00 524.40,353.00
             524.40,353.00 535.39,369.43 535.39,369.43
             535.39,369.43 542.00,370.00 542.00,370.00
             542.00,370.00 589.00,370.00 589.00,370.00
             589.00,370.00 589.00,0.00 589.00,0.00
             589.00,0.00 542.00,0.00 542.00,0.00
             542.00,0.00 542.00,298.00 542.00,298.00
             542.00,298.00 524.99,270.00 524.99,270.00
             524.99,270.00 495.58,220.00 495.58,220.00
             495.58,220.00 407.80,71.00 407.80,71.00
             407.80,71.00 376.60,18.00 376.60,18.00
             374.29,14.10 368.53,2.21 364.79,0.60
             363.11,-0.12 359.88,0.00 358.00,0.00
             358.00,0.00 309.00,0.00 309.00,0.00 Z
           M 902.00,319.00
           C 902.00,319.00 904.00,341.00 904.00,341.00
             904.00,341.00 904.96,353.00 904.96,353.00
             904.96,353.00 904.96,369.00 904.96,369.00
             904.96,369.00 944.00,369.00 944.00,369.00
             944.00,369.00 944.00,184.00 944.00,184.00
             944.00,184.00 942.40,176.02 942.40,176.02
             942.40,176.02 935.00,175.00 935.00,175.00
             935.00,175.00 910.00,175.00 910.00,175.00
             910.00,175.00 797.00,175.00 797.00,175.00
             797.00,175.00 797.00,216.00 797.00,216.00
             797.00,216.00 901.00,216.00 901.00,216.00
             901.00,216.00 900.09,228.00 900.09,228.00
             898.44,252.09 894.71,273.33 879.33,293.00
             857.53,320.88 832.08,329.98 798.00,331.91
             793.71,332.15 791.88,331.35 788.00,331.09
             762.58,329.34 743.26,323.43 724.00,305.83
             706.85,290.15 697.38,267.06 691.87,245.00
             687.03,225.61 686.00,207.83 686.00,188.00
             686.00,188.00 686.00,174.00 686.00,174.00
             686.03,154.15 692.61,125.85 701.26,108.00
             718.01,73.41 750.04,45.47 790.00,45.00
             818.70,44.67 849.36,51.46 869.91,73.01
             877.21,80.67 883.93,91.22 887.99,101.00
             889.20,103.91 893.16,116.79 894.72,118.01
             896.34,119.26 900.00,119.00 902.00,119.00
             902.00,119.00 938.00,119.00 938.00,119.00
             937.20,109.17 933.60,95.20 930.00,86.00
             924.03,70.75 915.37,56.81 903.91,45.04
             881.58,22.11 841.31,3.38 809.00,3.00
             809.00,3.00 786.00,3.00 786.00,3.00
             765.22,3.03 738.97,11.14 721.00,21.43
             677.91,46.09 651.06,94.13 642.42,142.00
             638.47,163.92 638.74,183.87 639.00,206.00
             639.00,206.00 639.91,216.00 639.91,216.00
             643.15,260.33 658.18,300.13 690.00,332.00
             698.17,340.18 704.21,345.78 714.00,352.14
             734.91,365.71 756.53,370.41 781.00,372.09
             781.00,372.09 795.00,373.00 795.00,373.00
             795.00,373.00 805.00,372.09 805.00,372.09
             828.15,370.50 849.38,365.35 869.00,352.33
             880.95,344.40 895.38,331.86 902.00,319.00 Z" />
</svg>
