<?xml version="1.0" encoding="UTF-8" standalone="no"?>
<svg 
     width="940"
	 height="373"
     viewBox="0 0 940 373">
  <path id="Selection"
        fill="#000000" stroke="black" stroke-width="1"
        d="M 264.00,316.00
           C 264.00,316.00 265.17,330.00 265.17,330.00
             265.17,330.00 266.00,348.00 266.00,348.00
             266.00,348.00 267.00,367.00 267.00,367.00
             267.00,367.00 305.00,367.00 305.00,367.00
             305.00,367.00 305.00,174.00 305.00,174.00
             305.00,174.00 159.00,174.00 159.00,174.00
             159.00,174.00 159.00,214.00 159.00,214.00
             159.00,214.00 262.00,214.00 262.00,214.00
             262.00,242.28 258.84,267.67 241.10,291.00
             229.90,305.73 214.32,317.30 197.00,323.77
             165.21,335.65 118.95,330.99 92.00,309.71
             63.99,287.60 52.93,253.17 48.85,219.00
             48.85,219.00 47.00,197.00 47.00,197.00
             47.00,197.00 47.00,173.00 47.00,173.00
             47.00,173.00 47.92,163.00 47.92,163.00
             51.44,118.96 71.69,72.92 113.00,52.27
             145.33,36.10 194.62,41.16 223.00,63.52
             233.40,71.71 241.36,82.23 247.25,94.00
             250.99,101.49 253.82,108.65 255.00,117.00
             255.00,117.00 299.00,117.00 299.00,117.00
             298.54,106.92 294.53,92.42 290.80,83.00
             260.00,5.26 157.48,-19.09 87.00,17.26
             39.90,41.55 11.95,93.25 3.43,144.00
             3.43,144.00 0.18,182.00 0.18,182.00
             0.18,182.00 1.00,196.00 1.00,196.00
             1.09,256.16 23.20,315.10 75.00,349.65
             92.63,361.40 119.75,369.75 141.00,370.00
             141.00,370.00 155.00,370.82 155.00,370.82
             155.00,370.82 163.00,370.04 163.00,370.04
             183.70,369.14 201.31,365.72 220.00,356.24
             235.43,348.42 256.37,331.54 264.00,316.00 Z
           M 347.00,2.00
           C 347.00,2.00 347.00,371.00 347.00,371.00
             347.00,371.00 394.00,371.00 394.00,371.00
             394.00,371.00 394.00,213.00 394.00,213.00
             394.00,213.00 511.00,213.00 511.00,213.00
             526.60,213.19 544.70,217.54 555.83,229.09
             571.29,245.14 570.97,268.23 571.00,289.00
             571.00,289.00 572.00,306.00 572.00,306.00
             572.00,306.00 573.04,327.00 573.04,327.00
             573.04,327.00 573.04,336.00 573.04,336.00
             573.04,336.00 574.96,359.00 574.96,359.00
             575.07,361.51 574.55,367.54 576.02,369.40
             577.59,371.38 581.70,371.00 584.00,371.00
             584.00,371.00 625.00,371.00 625.00,371.00
             621.00,349.74 619.03,332.69 619.00,311.00
             619.00,311.00 618.00,288.00 618.00,288.00
             618.00,288.00 617.00,273.00 617.00,273.00
             616.75,251.26 615.69,221.83 599.82,205.09
             593.69,198.63 583.17,193.52 575.00,190.00
             589.66,181.17 602.50,171.12 611.13,156.00
             617.67,144.54 622.84,125.21 623.00,112.00
             623.13,100.62 623.46,89.25 621.57,78.00
             617.19,51.97 602.77,29.55 579.00,17.26
             547.70,1.08 512.26,2.00 478.00,2.00
             478.00,2.00 347.00,2.00 347.00,2.00 Z
           M 671.31,11.02
           C 668.41,14.13 669.01,15.90 669.00,20.00
             669.00,20.00 669.00,52.00 669.00,52.00
             669.00,52.00 669.00,167.00 669.00,167.00
             669.00,167.00 669.00,362.00 669.00,362.00
             669.01,369.22 668.85,371.85 677.00,372.00
             677.00,372.00 720.00,372.00 720.00,372.00
             720.00,372.00 761.00,372.00 761.00,372.00
             761.00,372.00 773.00,371.09 773.00,371.09
             806.83,368.62 846.19,358.84 874.00,338.85
             910.46,312.63 928.84,279.74 936.08,236.00
             936.08,236.00 939.00,210.00 939.00,210.00
             939.00,210.00 939.00,176.00 939.00,176.00
             938.95,141.00 924.74,98.48 901.71,72.00
             890.48,59.08 868.34,40.06 853.00,32.37
             833.17,22.43 803.10,16.49 781.00,13.85
             781.00,13.85 751.00,11.00 751.00,11.00
             751.00,11.00 732.00,10.00 732.00,10.00
             732.00,10.00 696.00,10.00 696.00,10.00
             689.88,10.00 676.43,9.08 671.31,11.02 Z
           M 395.00,172.00
           C 395.00,172.00 395.00,46.00 395.00,46.00
             395.00,46.00 510.00,46.00 510.00,46.00
             510.00,46.00 520.00,46.91 520.00,46.91
             534.81,47.93 548.57,50.51 559.83,61.30
             566.82,68.01 571.58,78.56 573.39,88.00
             577.87,111.36 575.82,143.58 555.00,158.84
             542.26,168.18 531.08,169.71 516.00,171.17
             516.00,171.17 507.00,172.00 507.00,172.00
             507.00,172.00 395.00,172.00 395.00,172.00 Z
           M 710.00,334.00
           C 710.00,334.00 710.00,49.00 710.00,49.00
             761.88,49.00 810.89,47.27 854.00,81.81
             866.44,91.77 876.12,103.79 883.25,118.00
             897.61,146.66 898.05,170.80 898.00,202.00
             898.00,202.00 896.96,214.00 896.96,214.00
             896.96,214.00 896.96,222.00 896.96,222.00
             893.76,254.09 881.19,284.73 855.00,304.76
             813.68,336.38 759.16,334.00 710.00,334.00 Z" />
</svg>
