<?xml version="1.0" encoding="UTF-8" standalone="no"?>
<svg 
     width="231"
	 height="352"
     viewBox="0 0 231 352">
  <path id="Selection"
        fill="#000000" stroke="black" stroke-width="1"
        d="M 186.00,188.00
           C 187.79,194.81 183.72,213.40 182.20,221.00
             176.22,250.91 165.61,290.44 138.00,307.53
             130.11,312.42 120.33,315.89 111.00,316.00
             90.13,316.24 74.72,314.27 60.32,297.00
             51.30,286.17 48.79,274.53 47.00,261.00
             47.00,261.00 4.00,261.00 4.00,261.00
             4.50,283.65 14.43,310.14 31.04,325.83
             64.31,357.26 126.00,360.41 164.00,335.91
             204.81,309.60 221.68,251.78 227.15,206.00
             227.15,206.00 229.09,184.00 229.09,184.00
             229.09,184.00 230.00,174.00 230.00,174.00
             230.00,174.00 230.00,146.00 230.00,146.00
             230.00,146.00 229.09,134.00 229.09,134.00
             226.33,93.79 215.76,48.28 182.00,22.50
             150.75,-1.36 100.96,-5.11 65.00,9.45
             50.19,15.45 36.58,25.66 26.46,38.00
             0.65,69.49 -5.85,119.68 6.02,158.00
             17.05,193.58 42.95,216.83 79.00,225.35
             92.53,228.54 100.48,228.02 114.00,228.00
             140.45,227.96 174.77,213.13 186.00,188.00 Z
           M 109.00,39.30
           C 113.32,39.08 114.08,39.63 118.00,39.91
             137.63,41.35 152.86,46.95 165.48,63.00
             171.02,70.04 174.61,78.42 176.99,87.00
             184.36,113.59 179.87,154.22 158.99,173.91
             144.55,187.52 126.93,190.22 108.00,190.00
             89.89,189.78 71.09,183.23 59.33,169.00
             50.39,158.18 45.17,139.95 45.00,126.00
             44.75,103.93 45.11,84.98 58.44,66.00
             67.97,52.43 81.64,43.36 98.00,40.46
             98.00,40.46 109.00,39.30 109.00,39.30 Z" />
</svg>
