<?xml version="1.0" encoding="UTF-8" standalone="no"?>
<svg 
     width="942" 
	 height="375"
     viewBox="0 0 942 375">
  <path id="Selection"
        fill="#000000" stroke="black" stroke-width="1"
        d="M 809.00,0.21
           C 809.00,0.21 799.00,1.43 799.00,1.43
             785.60,3.36 770.57,8.42 759.00,15.46
             733.19,31.18 717.25,59.02 708.00,87.00
             700.74,108.97 697.36,132.04 695.04,155.00
             695.04,155.00 695.04,165.00 695.04,165.00
             695.04,165.00 694.00,177.00 694.00,177.00
             693.95,206.35 695.81,235.28 702.35,264.00
             711.02,302.11 728.81,340.65 765.00,359.68
             769.95,362.29 776.64,364.58 782.00,366.33
             789.45,368.76 800.19,370.90 808.00,371.00
             828.15,371.23 842.75,371.35 862.00,363.55
             894.93,350.21 913.33,323.07 925.42,291.00
             933.76,268.91 938.37,242.52 940.09,219.00
             940.09,219.00 941.04,209.00 941.04,209.00
             941.04,209.00 941.04,195.00 941.04,195.00
             941.04,195.00 941.97,186.00 941.97,186.00
             941.97,186.00 941.00,172.00 941.00,172.00
             940.96,147.83 937.45,122.36 931.15,99.00
             924.72,75.16 914.53,51.53 897.83,33.00
             878.54,11.60 849.56,0.34 821.00,0.21
             821.00,0.21 809.00,0.21 809.00,0.21 Z
           M 809.00,41.29
           C 820.99,40.17 833.97,41.16 845.00,46.32
             865.34,55.84 877.48,78.26 883.42,99.00
             888.42,116.45 890.83,133.94 892.09,152.00
             892.09,152.00 893.00,164.00 893.00,164.00
             893.00,164.00 893.00,187.00 893.00,187.00
             893.00,187.00 893.00,208.00 893.00,208.00
             892.97,225.91 888.46,255.80 883.28,273.00
             873.11,306.78 853.92,331.43 816.00,331.00
             779.61,330.58 761.14,302.62 751.72,271.00
             747.61,257.19 743.17,228.35 743.00,214.00
             743.00,214.00 742.00,193.00 742.00,193.00
             742.00,193.00 742.00,177.00 742.00,177.00
             742.00,177.00 742.96,167.00 742.96,167.00
             742.96,167.00 742.96,157.00 742.96,157.00
             743.19,141.33 747.40,116.16 751.71,101.00
             760.40,70.45 775.44,46.41 809.00,41.29 Z
           M 134.00,264.00
           C 135.34,271.41 142.30,287.25 145.40,295.00
             152.94,313.85 158.84,330.54 169.61,348.00
             175.27,357.16 183.12,367.13 193.00,371.87
             217.65,383.69 244.33,359.37 259.96,343.00
             263.78,339.00 267.12,334.53 270.28,330.00
             276.18,321.55 281.60,311.60 280.96,301.00
             280.37,291.30 272.39,288.67 265.00,294.39
             257.76,300.00 252.81,310.35 243.00,317.20
             238.70,320.21 233.00,322.25 228.00,319.69
             220.71,315.95 215.46,305.92 211.58,299.00
             211.58,299.00 183.60,233.00 183.60,233.00
             183.60,233.00 175.80,214.00 175.80,214.00
             174.69,211.23 172.58,206.93 173.02,204.00
             173.53,200.63 181.09,189.37 183.33,186.00
             190.76,174.84 205.51,153.66 215.00,145.17
             220.30,140.43 226.51,135.47 234.00,136.11
             242.48,136.82 246.11,143.35 252.00,146.43
             262.29,151.81 272.53,143.97 278.48,136.00
             288.11,123.10 285.20,96.33 270.99,87.46
             260.00,80.87 244.33,82.17 233.00,87.46
             208.86,98.27 188.59,131.93 174.68,154.00
             170.71,160.31 163.98,173.61 159.00,178.00
             157.76,171.16 152.59,160.91 149.80,154.00
             143.66,138.83 135.04,117.58 126.58,104.00
             121.30,95.53 115.81,87.88 106.00,84.39
             96.93,81.16 87.10,84.19 79.00,88.67
             64.06,96.93 47.99,114.28 37.88,128.00
             33.18,134.38 25.07,146.75 26.34,155.00
             27.39,161.75 34.93,169.33 41.82,164.40
             43.96,162.86 46.87,158.29 48.67,156.00
             51.75,152.09 58.19,145.09 62.01,141.94
             66.23,138.46 70.65,135.42 76.00,138.74
             82.31,142.66 88.57,156.08 91.58,163.00
             91.58,163.00 111.40,211.00 111.40,211.00
             111.40,211.00 120.11,233.00 120.11,233.00
             121.05,238.51 112.02,250.97 109.00,256.00
             100.17,270.71 87.45,290.62 75.91,303.00
             71.02,308.25 63.20,315.84 56.00,317.47
             45.01,319.95 40.24,311.17 32.00,307.41
             25.01,304.23 17.38,307.37 12.01,312.18
             9.81,314.16 7.72,316.51 6.13,319.00
             -9.06,342.81 9.20,376.09 38.00,374.96
             52.31,374.40 65.21,365.90 74.99,356.00
             91.05,339.73 108.09,309.32 119.58,289.00
             123.05,282.86 129.71,268.30 134.00,264.00 Z
           M 361.15,154.02
           C 359.76,155.25 359.40,155.07 358.60,157.06
             357.63,159.46 357.99,171.62 358.00,175.00
             358.01,177.77 357.71,181.44 359.60,183.69
             361.71,186.19 365.04,185.98 368.00,186.00
             368.00,186.00 400.00,186.00 400.00,186.00
             400.00,186.00 600.00,186.00 600.00,186.00
             607.66,185.98 610.84,185.70 611.00,177.00
             611.00,177.00 611.00,163.00 611.00,163.00
             610.99,155.78 611.15,153.15 603.00,153.00
             603.00,153.00 554.00,153.00 554.00,153.00
             554.00,153.00 420.00,153.00 420.00,153.00
             420.00,153.00 381.00,153.00 381.00,153.00
             375.27,153.00 366.31,152.18 361.15,154.02 Z
           M 362.06,249.74
           C 360.61,250.62 360.04,250.57 359.02,252.23
             357.41,254.87 357.99,266.35 358.00,270.00
             358.01,272.54 357.68,276.48 359.60,278.40
             361.39,280.19 364.65,279.98 367.00,280.00
             367.00,280.00 399.00,280.00 399.00,280.00
             399.00,280.00 601.00,280.00 601.00,280.00
             608.22,279.99 610.85,280.15 611.00,272.00
             611.07,267.72 611.86,254.24 609.40,251.31
             606.69,248.10 598.98,249.00 595.00,249.00
             595.00,249.00 555.00,249.00 555.00,249.00
             555.00,249.00 424.00,249.00 424.00,249.00
             424.00,249.00 384.00,249.00 384.00,249.00
             377.98,249.00 367.49,248.39 362.06,249.74 Z" />
</svg>
