<?xml version="1.0" encoding="UTF-8" standalone="no"?>
<svg 
     width="301"
	 height="302"
     viewBox="0 0 301 302">
  <path id="Selection"
        fill="#000000" stroke="black" stroke-width="1"
        d="M 153.00,113.00
           C 153.00,113.00 116.00,76.01 116.00,76.01
             116.00,76.01 104.00,65.00 104.00,65.00
             104.00,65.00 58.00,19.01 58.00,19.01
             58.00,19.01 42.00,4.00 42.00,4.00
             35.60,8.58 21.40,23.60 15.00,30.00
             12.79,32.21 6.20,37.93 6.20,41.00
             6.20,43.49 9.37,46.33 11.00,48.00
             11.00,48.00 25.96,63.00 25.96,63.00
             25.96,63.00 34.04,72.00 34.04,72.00
             34.04,72.00 71.99,110.00 71.99,110.00
             71.99,110.00 83.00,122.00 83.00,122.00
             83.00,122.00 103.00,142.00 103.00,142.00
             104.90,143.90 109.96,148.27 109.96,151.00
             109.96,153.60 105.76,157.23 104.00,159.00
             104.00,159.00 85.09,178.00 85.09,178.00
             85.09,178.00 39.01,225.00 39.01,225.00
             39.01,225.00 26.00,239.00 26.00,239.00
             26.00,239.00 9.00,256.00 9.00,256.00
             7.26,257.74 2.90,261.73 2.34,264.00
             1.46,267.50 6.77,271.76 9.00,274.00
             9.00,274.00 30.00,295.00 30.00,295.00
             32.42,297.37 35.27,301.04 39.00,299.26
             41.08,298.27 47.94,291.06 50.00,289.00
             50.00,289.00 74.00,265.00 74.00,265.00
             74.00,265.00 105.00,234.04 105.00,234.04
             105.00,234.04 126.00,214.00 126.00,214.00
             132.16,207.84 145.49,195.30 150.00,189.00
             150.00,189.00 178.00,216.96 178.00,216.96
             178.00,216.96 189.00,227.00 189.00,227.00
             189.00,227.00 236.00,273.99 236.00,273.99
             236.00,273.99 261.00,298.00 261.00,298.00
             267.39,293.42 281.61,278.39 288.00,272.00
             290.26,269.74 296.62,264.17 296.66,261.00
             296.70,258.42 293.67,255.71 291.99,254.00
             291.99,254.00 277.00,239.00 277.00,239.00
             277.00,239.00 218.00,180.00 218.00,180.00
             218.00,180.00 198.00,160.00 198.00,160.00
             196.10,158.10 191.04,153.73 191.04,151.00
             191.04,148.40 195.24,144.77 197.00,143.00
             197.00,143.00 216.01,123.00 216.01,123.00
             216.01,123.00 260.99,78.00 260.99,78.00
             260.99,78.00 276.00,62.00 276.00,62.00
             276.00,62.00 293.00,45.00 293.00,45.00
             294.74,43.26 299.10,39.27 299.66,37.00
             300.54,33.50 295.23,29.24 293.00,27.00
             293.00,27.00 272.04,6.02 272.04,6.02
             269.48,3.43 266.98,-0.43 262.99,1.71
             260.78,2.89 253.26,10.74 251.00,13.00
             251.00,13.00 228.00,36.00 228.00,36.00
             228.00,36.00 208.96,56.00 208.96,56.00
             208.96,56.00 182.00,83.00 182.00,83.00
             175.25,89.75 157.68,106.46 153.00,113.00 Z" />
</svg>
