<?xml version="1.0" encoding="UTF-8" standalone="no"?>
<svg 
     width="478" 
	 height="452"
     viewBox="0 0 478 452">
  <path id="Selection"
        fill="#000000" stroke="black" stroke-width="1"
        d="M 389.00,107.00
           C 394.13,119.90 402.25,143.01 409.06,154.00
             412.81,160.04 417.28,166.56 424.00,169.47
             440.58,176.66 460.02,158.09 468.84,146.00
             472.08,141.55 477.03,132.72 475.56,127.02
             474.11,121.41 469.14,121.41 465.17,124.57
             461.08,127.83 452.98,141.97 445.00,138.72
             440.21,136.77 436.48,129.44 434.25,125.00
             434.25,125.00 418.85,89.00 418.85,89.00
             417.48,85.79 412.67,74.84 412.79,72.00
             412.93,68.92 416.60,63.63 418.35,61.00
             423.47,53.33 436.07,34.18 445.00,32.41
             454.73,30.47 458.83,44.85 469.98,35.72
             471.22,34.71 472.61,33.26 473.58,32.00
             475.10,30.02 475.83,28.36 476.56,26.00
             477.64,22.46 477.75,20.63 477.23,17.00
             474.74,-0.51 458.88,-3.44 445.00,3.82
             436.88,8.07 429.27,17.62 424.00,25.00
             418.35,32.92 408.86,47.34 405.00,56.00
             405.00,56.00 399.72,44.00 399.72,44.00
             394.99,33.02 390.39,19.88 383.64,10.00
             378.31,2.21 371.34,-1.75 362.00,1.36
             359.26,2.27 357.44,3.17 355.00,4.71
             350.79,7.37 348.50,9.54 345.00,13.00
             339.46,18.48 336.44,21.57 331.91,28.00
             329.30,31.71 325.40,38.28 326.47,43.00
             327.20,46.22 330.34,49.82 333.96,48.60
             338.66,47.03 346.05,32.18 353.00,33.01
             357.40,33.54 360.99,40.41 362.74,44.00
             362.74,44.00 375.80,75.00 375.80,75.00
             376.96,77.91 380.80,86.38 380.67,89.00
             380.53,92.01 375.91,99.19 374.19,102.00
             369.06,110.39 363.16,119.60 356.71,127.00
             353.70,130.46 349.44,134.94 345.00,136.43
             337.44,138.96 334.42,132.82 329.00,131.43
             318.10,128.65 310.70,141.60 311.53,151.00
             313.20,170.05 332.02,176.26 347.00,166.61
             363.94,155.70 378.80,124.71 389.00,107.00 Z
           M 205.00,12.47
           C 193.92,15.10 185.88,22.48 178.75,31.00
             164.09,48.53 160.48,61.31 152.20,82.00
             124.57,151.07 99.36,221.29 79.42,293.00
             79.42,293.00 72.20,327.00 72.20,327.00
             72.20,327.00 64.63,359.00 64.63,359.00
             63.23,364.36 58.95,379.57 53.90,381.89
             48.44,384.39 45.18,377.59 42.94,374.00
             37.32,365.04 33.28,359.14 22.00,359.00
             17.89,358.95 12.55,358.48 9.02,360.74
             -1.01,367.13 -2.21,386.44 3.61,395.99
             11.92,409.60 36.21,413.35 50.00,407.10
             59.77,402.67 68.67,392.70 74.65,384.00
             87.71,365.02 91.44,354.00 99.42,333.00
             117.20,286.28 135.18,239.76 150.02,192.00
             150.02,192.00 166.11,138.00 166.11,138.00
             166.11,138.00 171.65,113.00 171.65,113.00
             171.65,113.00 184.29,64.00 184.29,64.00
             186.08,57.77 187.92,51.85 190.78,46.00
             191.92,43.68 193.44,40.49 196.10,39.66
             200.72,38.21 204.17,43.93 206.42,47.00
             211.35,53.72 218.16,61.42 227.00,62.44
             230.21,62.82 234.04,61.74 237.00,60.53
             247.42,56.27 249.11,51.41 249.00,41.00
             248.94,36.17 248.42,32.33 246.09,28.00
             238.46,13.86 219.59,10.43 205.00,12.47 Z
           M 386.00,331.00
           C 386.00,331.00 381.28,297.00 381.28,297.00
             381.28,297.00 377.28,268.00 377.28,268.00
             377.28,268.00 374.00,244.00 374.00,244.00
             371.93,233.42 370.09,219.93 359.00,215.11
             340.48,207.05 326.16,221.25 317.20,236.00
             313.24,242.53 304.86,253.61 314.04,259.38
             322.19,264.50 325.38,247.38 334.98,249.47
             340.45,250.66 341.30,256.40 342.08,261.00
             342.08,261.00 347.58,297.00 347.58,297.00
             347.58,297.00 355.27,345.00 355.27,345.00
             355.84,348.98 358.18,363.00 357.24,366.00
             356.28,369.06 351.73,374.33 349.60,377.00
             344.07,383.92 338.25,390.72 332.00,397.00
             326.90,402.13 317.20,412.79 310.00,414.11
             304.42,415.13 301.81,410.03 294.00,408.53
             281.96,406.22 275.46,417.61 275.04,428.00
             274.89,431.76 275.28,434.33 275.92,438.00
             276.37,440.49 276.79,442.67 277.92,444.98
             284.51,458.49 306.07,447.98 315.00,442.31
             315.00,442.31 322.00,437.57 322.00,437.57
             325.14,435.31 327.19,433.65 330.00,430.96
             344.52,417.09 363.19,390.09 375.02,373.00
             375.02,373.00 429.80,291.00 429.80,291.00
             439.27,275.40 454.56,252.81 453.96,234.00
             453.76,227.91 451.78,220.43 446.90,216.43
             438.94,209.91 425.31,213.50 420.23,222.01
             413.99,232.46 423.35,240.75 422.49,254.00
             421.36,271.27 411.72,289.16 403.28,304.00
             399.25,311.10 390.91,325.00 386.00,331.00 Z" />
</svg>
