<?xml version="1.0" encoding="UTF-8" standalone="no"?>
<svg 
     width="778" 
	 height="372"
     viewBox="0 0 778 372">
  <path id="Selection"
        fill="#000000" stroke="black" stroke-width="1"
        d="M 252.00,1.00
           C 252.00,1.00 252.00,370.00 252.00,370.00
             252.00,370.00 377.00,370.00 377.00,370.00
             409.13,370.00 437.24,372.34 467.00,356.68
             506.56,335.87 526.40,294.68 522.17,251.00
             520.62,235.04 518.24,221.83 509.30,208.00
             495.76,187.03 481.24,181.00 460.00,171.00
             468.17,167.06 477.68,160.55 483.91,153.99
             508.85,127.73 512.61,81.83 496.73,50.00
             488.79,34.09 476.51,21.49 461.00,12.86
             434.92,-1.66 408.54,1.00 380.00,1.00
             380.00,1.00 252.00,1.00 252.00,1.00 Z
           M 557.00,9.00
           C 557.00,9.00 557.00,370.00 557.00,370.00
             557.00,370.00 777.00,370.00 777.00,370.00
             777.00,370.00 777.00,327.00 777.00,327.00
             777.00,327.00 604.00,327.00 604.00,327.00
             604.00,327.00 604.00,9.00 604.00,9.00
             604.00,9.00 557.00,9.00 557.00,9.00 Z
           M 0.00,10.00
           C 0.00,10.00 0.00,372.00 0.00,372.00
             0.00,372.00 212.00,372.00 212.00,372.00
             212.00,372.00 219.98,370.40 219.98,370.40
             219.98,370.40 221.00,363.00 221.00,363.00
             221.00,363.00 221.00,337.00 221.00,337.00
             221.00,337.00 219.40,329.02 219.40,329.02
             219.40,329.02 208.00,328.00 208.00,328.00
             208.00,328.00 180.00,328.00 180.00,328.00
             180.00,328.00 47.00,328.00 47.00,328.00
             47.00,328.00 47.00,10.00 47.00,10.00
             47.00,10.00 0.00,10.00 0.00,10.00 Z
           M 300.00,157.00
           C 300.00,157.00 300.00,44.00 300.00,44.00
             300.00,44.00 378.00,44.00 378.00,44.00
             398.95,44.00 419.55,43.63 438.00,55.44
             450.88,63.69 457.82,77.92 458.00,93.00
             458.26,115.92 454.76,134.71 433.00,147.13
             415.54,157.09 394.48,157.00 375.00,157.00
             375.00,157.00 300.00,157.00 300.00,157.00 Z
           M 300.00,327.00
           C 300.00,327.00 300.00,198.00 300.00,198.00
             300.00,198.00 401.00,198.00 401.00,198.00
             419.02,198.21 441.69,203.20 456.00,214.52
             481.76,234.87 480.41,286.16 458.56,308.71
             446.19,321.49 425.37,326.97 408.00,327.00
             408.00,327.00 300.00,327.00 300.00,327.00 Z" />
</svg>
