<?xml version="1.0" encoding="UTF-8" standalone="no"?>
<svg 
     width="807" 
	 height="338"
     viewBox="0 0 807 338">
  <path id="Selection"
        fill="#000000" stroke="black" stroke-width="1"
        d="M 1.00,1.00
           C 1.00,1.00 1.00,334.00 1.00,334.00
             1.00,334.00 115.00,334.00 115.00,334.00
             146.23,334.00 177.08,334.35 204.00,315.56
             216.87,306.58 227.57,295.12 234.63,281.00
             240.58,269.09 243.17,256.13 244.09,243.00
             244.09,243.00 244.92,235.00 244.92,235.00
             244.92,235.00 244.09,227.00 244.09,227.00
             242.24,200.57 232.49,178.92 209.00,164.61
             203.11,161.03 194.66,156.57 188.00,155.00
             188.00,155.00 203.00,144.54 203.00,144.54
             212.07,137.10 219.14,127.88 223.55,117.00
             233.02,93.62 231.58,61.85 218.55,40.00
             204.10,15.77 176.03,1.04 148.00,1.00
             148.00,1.00 1.00,1.00 1.00,1.00 Z
           M 321.00,226.00
           C 321.00,226.00 283.00,226.00 283.00,226.00
             283.00,241.19 283.15,251.06 287.43,266.00
             293.70,287.90 309.25,306.67 328.00,319.25
             345.00,330.66 372.62,336.97 393.00,337.00
             393.00,337.00 414.00,337.00 414.00,337.00
             443.72,336.95 481.85,324.83 501.71,302.00
             519.70,281.32 522.30,260.20 522.00,234.00
             521.92,227.06 520.26,218.65 518.28,212.00
             516.33,205.46 514.06,199.88 510.55,194.00
             494.63,167.32 468.84,160.59 441.00,153.63
             441.00,153.63 394.00,142.13 394.00,142.13
             371.16,136.42 339.95,133.54 333.24,106.00
             331.94,100.67 331.62,94.44 332.29,89.00
             336.45,55.18 365.59,40.37 397.00,40.00
             425.63,39.67 454.96,48.48 468.73,76.00
             473.94,86.41 474.53,93.86 476.00,105.00
             476.00,105.00 514.00,105.00 514.00,105.00
             513.77,79.38 505.26,50.59 486.83,32.17
             474.71,20.05 458.39,12.83 442.00,8.63
             434.00,6.58 423.22,4.65 415.00,4.00
             415.00,4.00 406.00,4.00 406.00,4.00
             406.00,4.00 395.00,3.04 395.00,3.04
             367.84,4.09 340.20,10.66 320.09,30.17
             303.42,46.34 293.04,71.82 293.00,95.00
             293.00,95.00 293.00,108.00 293.00,108.00
             293.08,114.27 294.43,121.04 296.34,127.00
             308.99,166.47 344.80,173.54 380.00,181.88
             380.00,181.88 427.00,193.58 427.00,193.58
             444.00,198.43 467.09,204.91 476.65,221.00
             480.63,227.70 481.81,234.41 482.72,242.00
             483.34,247.21 482.94,250.90 482.08,256.00
             475.81,293.19 431.45,301.36 400.00,301.00
             371.82,300.67 341.54,288.33 328.37,262.00
             322.74,250.75 321.00,238.43 321.00,226.00 Z
           M 553.00,5.00
           C 553.00,5.00 553.00,44.00 553.00,44.00
             553.00,44.00 659.00,44.00 659.00,44.00
             659.00,44.00 659.00,334.00 659.00,334.00
             659.00,334.00 701.00,334.00 701.00,334.00
             701.00,334.00 701.00,44.00 701.00,44.00
             701.00,44.00 807.00,44.00 807.00,44.00
             807.00,44.00 807.00,5.00 807.00,5.00
             807.00,5.00 553.00,5.00 553.00,5.00 Z
           M 44.00,142.00
           C 44.00,142.00 44.00,39.00 44.00,39.00
             44.00,39.00 125.00,39.00 125.00,39.00
             139.39,39.02 156.87,42.03 169.00,50.10
             195.66,67.85 191.94,116.43 165.00,132.12
             152.76,139.25 142.52,139.88 129.00,141.17
             129.00,141.17 120.00,142.00 120.00,142.00
             120.00,142.00 44.00,142.00 44.00,142.00 Z
           M 44.00,295.00
           C 44.00,295.00 44.00,178.00 44.00,178.00
             44.00,178.00 132.00,178.00 132.00,178.00
             149.39,178.21 171.29,182.27 185.00,193.47
             208.01,212.25 206.97,258.46 186.71,278.71
             175.28,290.15 156.81,294.98 141.00,295.00
             141.00,295.00 44.00,295.00 44.00,295.00 Z" />
</svg>
