<?xml version="1.0" encoding="UTF-8" standalone="no"?>
<svg
     width="841"
	 height="337"
     viewBox="0 0 841 337">
  <path id="Selection"
        fill="#000000" stroke="black" stroke-width="1"
        d="M 337.00,224.00
           C 337.00,224.00 299.00,224.00 299.00,224.00
             299.00,224.00 299.00,235.00 299.00,235.00
             299.04,260.19 308.96,285.26 327.01,302.96
             350.43,325.91 374.47,331.93 406.00,334.09
             406.00,334.09 418.00,335.00 418.00,335.00
             428.95,335.02 441.18,333.87 452.00,332.08
             477.78,327.81 502.59,317.67 519.54,297.00
             535.71,277.27 538.28,256.49 538.00,232.00
             537.91,224.83 536.24,216.92 534.36,210.00
             528.12,187.00 512.45,170.99 491.00,161.31
             479.76,156.24 468.82,154.08 457.00,151.13
             457.00,151.13 411.00,139.87 411.00,139.87
             389.00,134.37 357.65,131.53 349.77,106.00
             348.16,100.78 347.94,96.39 348.00,91.00
             348.05,86.49 348.93,80.32 350.21,76.00
             356.37,55.23 374.54,43.38 395.00,39.46
             395.00,39.46 411.00,37.91 411.00,37.91
             425.87,36.91 441.41,38.65 455.00,45.26
             469.97,52.54 479.91,62.85 486.69,78.00
             488.67,82.44 490.06,88.17 490.71,93.00
             491.03,95.33 490.80,99.44 492.74,101.01
             494.28,102.25 498.06,102.00 500.00,102.00
             500.00,102.00 530.00,102.00 530.00,102.00
             528.76,75.09 521.33,47.02 501.00,28.09
             487.89,15.88 473.09,9.88 456.00,5.63
             446.87,3.35 432.33,1.11 423.00,1.00
             423.00,1.00 406.00,1.00 406.00,1.00
             377.01,1.05 346.86,12.90 328.67,36.00
             316.93,50.90 309.03,71.95 309.00,91.00
             309.00,91.00 309.00,106.00 309.00,106.00
             309.31,131.93 325.22,153.64 348.00,165.03
             360.38,171.22 375.55,174.56 389.00,177.65
             389.00,177.65 444.00,191.29 444.00,191.29
             462.05,196.48 484.96,202.90 494.01,221.00
             496.88,226.74 497.96,233.68 498.72,240.00
             499.32,245.02 498.81,247.17 498.13,252.00
             493.50,284.95 456.31,297.95 427.00,298.00
             427.00,298.00 413.00,298.00 413.00,298.00
             382.28,297.95 349.76,280.81 340.44,250.00
             337.71,240.97 337.00,233.35 337.00,224.00 Z
           M 39.00,226.00
           C 39.00,226.00 1.00,226.00 1.00,226.00
             1.00,249.83 4.00,272.16 18.49,292.00
             41.63,323.68 72.33,334.40 110.00,336.04
             110.00,336.04 124.00,336.99 124.00,336.99
             124.00,336.99 134.00,336.04 134.00,336.04
             167.31,334.58 201.99,324.25 223.33,297.00
             233.49,284.03 239.97,264.46 240.00,248.00
             240.00,248.00 240.00,232.00 240.00,232.00
             239.92,225.17 238.14,216.49 236.00,210.00
             233.73,203.12 231.33,197.07 227.25,191.00
             207.82,162.10 175.43,156.56 144.00,149.35
             144.00,149.35 113.00,141.65 113.00,141.65
             89.96,136.36 57.82,132.55 51.43,105.00
             49.49,96.66 49.86,95.21 50.85,87.00
             54.31,58.11 77.63,42.86 105.00,40.17
             105.00,40.17 119.00,39.03 119.00,39.03
             119.00,39.03 127.00,39.83 127.00,39.83
             155.65,42.70 179.90,53.94 190.14,83.00
             192.28,89.10 193.70,97.53 194.00,104.00
             194.00,104.00 232.00,104.00 232.00,104.00
             231.98,75.09 221.64,45.19 199.00,26.32
             188.87,17.89 175.58,12.30 163.00,8.71
             153.21,5.91 137.10,3.12 127.00,3.00
             127.00,3.00 107.00,3.00 107.00,3.00
             85.30,3.03 58.29,11.63 42.00,26.17
             17.56,47.99 10.63,74.45 11.00,106.00
             11.07,111.74 12.58,120.54 14.36,126.00
             25.52,160.23 52.33,169.96 84.00,177.87
             84.00,177.87 145.00,192.86 145.00,192.86
             164.72,198.45 190.23,205.67 197.91,227.00
             200.44,234.03 201.08,240.61 201.00,248.00
             200.94,252.93 200.19,257.31 198.64,262.00
             189.56,289.55 154.23,299.96 128.00,300.00
             128.00,300.00 117.00,300.00 117.00,300.00
             88.95,299.96 59.39,287.03 46.37,261.00
             41.14,250.55 39.01,237.61 39.00,226.00 Z
           M 586.00,4.00
           C 586.00,4.00 586.00,44.00 586.00,44.00
             586.00,44.00 692.00,44.00 692.00,44.00
             692.00,44.00 692.00,334.00 692.00,334.00
             692.00,334.00 735.00,334.00 735.00,334.00
             735.00,334.00 735.00,44.00 735.00,44.00
             735.00,44.00 840.00,44.00 840.00,44.00
             840.00,44.00 840.00,4.00 840.00,4.00
             840.00,4.00 586.00,4.00 586.00,4.00 Z" />
</svg>
