<?xml version="1.0" encoding="UTF-8" standalone="no"?>
<svg 
     width="907"
	 height="374"
     viewBox="0 0 907 374">
  <path id="Selection"
        fill="#000000" stroke="black" stroke-width="1"
        d="M 0.00,372.00
           C 0.00,372.00 48.00,372.00 48.00,372.00
             48.00,372.00 48.00,199.00 48.00,199.00
             48.00,199.00 232.00,199.00 232.00,199.00
             232.00,199.00 232.00,372.00 232.00,372.00
             232.00,372.00 279.00,372.00 279.00,372.00
             279.00,372.00 279.00,0.00 279.00,0.00
             279.00,0.00 232.00,0.00 232.00,0.00
             232.00,0.00 232.00,154.00 232.00,154.00
             232.00,154.00 48.00,154.00 48.00,154.00
             48.00,154.00 48.00,0.00 48.00,0.00
             48.00,0.00 9.00,0.00 9.00,0.00
             7.01,0.00 3.19,-0.23 1.60,1.02
             -0.95,3.04 0.00,17.32 0.00,21.00
             0.00,21.00 0.00,87.00 0.00,87.00
             0.00,87.00 0.00,372.00 0.00,372.00 Z
           M 642.00,0.00
           C 642.00,0.00 642.00,374.00 642.00,374.00
             642.00,374.00 690.00,374.00 690.00,374.00
             690.00,374.00 690.00,216.00 690.00,216.00
             690.00,216.00 774.00,216.00 774.00,216.00
             774.00,216.00 805.00,216.00 805.00,216.00
             832.41,215.96 858.93,205.92 877.96,186.00
             911.05,151.37 916.01,83.99 890.30,44.00
             872.64,16.52 840.52,0.05 808.00,0.00
             808.00,0.00 642.00,0.00 642.00,0.00 Z
           M 308.00,1.00
           C 308.00,1.00 341.60,58.00 341.60,58.00
             341.60,58.00 404.60,163.00 404.60,163.00
             404.60,163.00 429.20,204.00 429.20,204.00
             434.98,213.63 439.98,218.47 440.00,230.00
             440.00,230.00 440.00,371.00 440.00,371.00
             440.00,371.00 488.00,371.00 488.00,371.00
             488.00,371.00 488.00,230.00 488.00,230.00
             488.02,219.30 493.23,213.96 498.60,205.00
             498.60,205.00 522.60,165.00 522.60,165.00
             522.60,165.00 587.20,57.00 587.20,57.00
             587.20,57.00 608.20,22.00 608.20,22.00
             611.70,16.16 617.78,7.00 620.00,1.00
             620.00,1.00 572.00,1.00 572.00,1.00
             563.09,1.02 564.32,0.91 556.85,14.00
             556.85,14.00 539.85,44.00 539.85,44.00
             539.85,44.00 490.42,131.00 490.42,131.00
             490.42,131.00 463.00,178.00 463.00,178.00
             463.00,178.00 453.85,160.00 453.85,160.00
             453.85,160.00 437.42,131.00 437.42,131.00
             437.42,131.00 386.42,41.00 386.42,41.00
             386.42,41.00 371.23,14.00 371.23,14.00
             371.23,14.00 363.47,1.99 363.47,1.99
             363.47,1.99 356.00,1.00 356.00,1.00
             356.00,1.00 308.00,1.00 308.00,1.00 Z
           M 690.00,172.00
           C 690.00,172.00 690.00,43.00 690.00,43.00
             690.00,43.00 779.00,43.00 779.00,43.00
             779.00,43.00 797.00,44.00 797.00,44.00
             811.13,44.07 828.11,49.14 839.00,58.32
             863.48,78.97 862.35,132.62 840.71,154.83
             829.55,166.29 809.69,171.98 794.00,172.00
             794.00,172.00 690.00,172.00 690.00,172.00 Z" />
</svg>
