<?xml version="1.0" encoding="UTF-8" standalone="no"?>
<svg 
     width="965"
	 height="376"
     viewBox="0 0 965 376">
  <path id="Selection"
        fill="#000000" stroke="black" stroke-width="1"
        d="M 787.00,1.21
           C 775.09,3.12 763.68,4.09 752.00,7.43
             726.93,14.58 703.68,28.62 686.17,48.00
             668.57,67.49 655.53,92.83 648.29,118.00
             639.95,147.01 637.65,167.97 638.00,198.00
             638.00,198.00 638.83,207.00 638.83,207.00
             640.14,220.69 641.78,233.60 645.13,247.00
             656.52,292.59 678.36,331.62 720.00,355.99
             730.34,362.04 741.49,366.37 753.00,369.58
             765.42,373.03 782.14,375.85 795.00,376.00
             822.87,376.32 852.01,372.29 877.00,359.11
             922.15,335.31 947.70,291.58 958.42,243.00
             960.75,232.48 963.87,215.58 964.00,205.00
             964.00,205.00 964.98,187.00 964.98,187.00
             964.98,187.00 963.96,178.00 963.96,178.00
             963.96,178.00 963.96,168.00 963.96,168.00
             962.05,149.31 958.59,130.84 952.67,113.00
             944.03,87.00 930.76,61.45 910.91,42.17
             877.46,9.68 838.16,0.48 793.00,1.21
             793.00,1.21 787.00,1.21 787.00,1.21 Z
           M 264.00,319.00
           C 264.00,319.00 265.17,332.00 265.17,332.00
             265.17,332.00 266.00,350.00 266.00,350.00
             266.00,350.00 267.00,370.00 267.00,370.00
             267.00,370.00 305.00,370.00 305.00,370.00
             305.00,370.00 305.00,176.00 305.00,176.00
             305.00,176.00 159.00,176.00 159.00,176.00
             159.00,176.00 159.00,217.00 159.00,217.00
             159.00,217.00 262.00,217.00 262.00,217.00
             262.00,243.76 259.05,269.75 242.52,292.00
             229.59,309.40 210.22,323.78 189.00,329.11
             181.26,331.05 174.79,331.42 167.00,332.17
             167.00,332.17 159.00,332.99 159.00,332.99
             154.13,333.10 152.50,332.60 148.00,332.17
             125.75,330.01 106.24,325.22 89.00,309.83
             60.35,284.26 50.50,248.02 47.91,211.00
             47.91,211.00 47.00,199.00 47.00,199.00
             46.95,165.43 47.97,142.55 61.58,111.00
             75.93,77.72 110.13,46.45 148.00,46.00
             148.00,46.00 164.00,46.00 164.00,46.00
             186.93,46.04 214.84,56.54 230.91,73.04
             237.84,80.15 245.17,90.81 248.99,100.00
             250.37,103.32 254.63,117.56 256.56,118.98
             258.27,120.23 261.91,120.00 264.00,120.00
             264.00,120.00 299.00,120.00 299.00,120.00
             298.56,110.42 296.02,101.05 293.00,92.00
             278.92,49.79 244.10,21.44 202.00,9.43
             180.75,3.36 169.40,3.97 148.00,4.00
             136.39,4.02 120.05,7.35 109.00,11.00
             88.53,17.77 69.46,28.90 54.01,44.04
             22.57,74.86 1.07,127.92 1.00,172.00
             0.97,192.80 0.37,213.37 3.43,234.00
             9.75,276.67 28.70,312.98 61.00,341.83
             82.16,360.72 114.63,372.66 143.00,373.00
             168.03,373.29 181.77,373.25 206.00,365.00
             227.19,357.78 253.68,339.05 264.00,319.00 Z
           M 341.00,7.00
           C 341.00,7.00 341.00,50.00 341.00,50.00
             341.00,50.00 458.00,50.00 458.00,50.00
             458.00,50.00 458.00,372.00 458.00,372.00
             458.00,372.00 505.00,372.00 505.00,372.00
             505.00,372.00 505.00,50.00 505.00,50.00
             505.00,50.00 622.00,50.00 622.00,50.00
             622.00,50.00 622.00,7.00 622.00,7.00
             622.00,7.00 341.00,7.00 341.00,7.00 Z
           M 787.00,44.14
           C 787.00,44.14 808.00,44.14 808.00,44.14
             817.11,44.01 826.23,45.75 835.00,48.15
             843.66,50.53 851.38,54.09 859.00,58.81
             896.34,81.96 914.00,125.75 917.09,168.00
             917.09,168.00 918.00,180.00 918.00,180.00
             918.00,180.00 918.00,197.00 918.00,197.00
             917.98,208.46 915.39,226.80 912.63,238.00
             900.06,288.91 862.97,332.91 807.00,333.00
             807.00,333.00 794.00,333.00 794.00,333.00
             754.66,332.54 721.59,307.75 703.31,274.00
             698.83,265.73 695.58,256.92 692.67,248.00
             689.00,236.74 685.14,215.76 685.00,204.00
             685.00,204.00 685.00,175.00 685.00,175.00
             685.01,168.33 685.95,161.60 686.87,155.00
             691.56,121.33 705.24,90.84 731.00,68.05
             738.41,61.50 746.99,56.37 756.00,52.31
             766.34,47.65 775.94,45.91 787.00,44.14 Z" />
</svg>
