<?xml version="1.0" encoding="UTF-8" standalone="no"?>
<svg 
     width="1136"
	 height="395"
     viewBox="0 0 1136 395">
  <path id="Selection"
        fill="#000000" stroke="black" stroke-width="1"
        d="M 1108.00,1.00
           C 1107.05,12.60 1103.47,27.03 1093.00,33.53
             1086.92,37.30 1081.88,38.43 1075.00,39.59
             1072.44,40.02 1066.61,40.50 1065.02,42.58
             1063.76,44.23 1064.00,47.96 1064.00,50.00
             1064.00,50.00 1064.00,62.00 1064.00,62.00
             1064.00,62.00 1107.00,62.00 1107.00,62.00
             1107.00,62.00 1107.00,214.00 1107.00,214.00
             1107.00,214.00 1135.00,214.00 1135.00,214.00
             1135.00,214.00 1135.00,1.00 1135.00,1.00
             1135.00,1.00 1108.00,1.00 1108.00,1.00 Z
           M 642.00,21.00
           C 642.00,21.00 642.00,386.00 642.00,386.00
             642.00,386.00 643.60,393.98 643.60,393.98
             643.60,393.98 656.00,395.00 656.00,395.00
             656.00,395.00 690.00,395.00 690.00,395.00
             690.00,395.00 690.00,237.00 690.00,237.00
             690.00,237.00 774.00,237.00 774.00,237.00
             805.80,237.00 833.81,239.09 862.00,220.91
             868.31,216.84 872.79,212.33 877.99,207.00
             897.26,187.24 904.25,161.73 906.09,135.00
             906.35,131.12 907.15,129.29 906.91,125.00
             905.45,99.24 899.96,75.13 882.70,55.00
             863.22,32.27 833.51,21.35 804.00,21.00
             804.00,21.00 642.00,21.00 642.00,21.00 Z
           M 1.00,22.00
           C 1.00,22.00 1.00,393.00 1.00,393.00
             1.00,393.00 48.00,393.00 48.00,393.00
             48.00,393.00 48.00,220.00 48.00,220.00
             48.00,220.00 232.00,220.00 232.00,220.00
             232.00,220.00 232.00,393.00 232.00,393.00
             232.00,393.00 279.00,393.00 279.00,393.00
             279.00,393.00 279.00,22.00 279.00,22.00
             279.00,22.00 232.00,22.00 232.00,22.00
             232.00,22.00 232.00,175.00 232.00,175.00
             232.00,175.00 48.00,175.00 48.00,175.00
             48.00,175.00 48.00,22.00 48.00,22.00
             48.00,22.00 1.00,22.00 1.00,22.00 Z
           M 309.00,22.00
           C 310.87,28.39 316.27,36.12 319.80,42.00
             319.80,42.00 340.20,76.00 340.20,76.00
             340.20,76.00 407.40,188.00 407.40,188.00
             407.40,188.00 430.80,227.00 430.80,227.00
             436.51,236.52 440.98,240.60 441.00,252.00
             441.00,252.00 441.00,392.00 441.00,392.00
             441.00,392.00 488.00,392.00 488.00,392.00
             488.00,392.00 488.00,252.00 488.00,252.00
             488.02,240.60 492.49,236.52 498.20,227.00
             498.20,227.00 521.60,188.00 521.60,188.00
             521.60,188.00 588.00,77.00 588.00,77.00
             588.00,77.00 609.00,42.00 609.00,42.00
             612.39,36.35 618.11,27.98 620.00,22.00
             620.00,22.00 573.00,22.00 573.00,22.00
             573.00,22.00 565.38,23.02 565.38,23.02
             565.38,23.02 557.42,35.00 557.42,35.00
             557.42,35.00 541.58,63.00 541.58,63.00
             541.58,63.00 494.58,146.00 494.58,146.00
             494.58,146.00 465.00,199.00 465.00,199.00
             465.00,199.00 463.00,199.00 463.00,199.00
             463.00,199.00 454.28,182.00 454.28,182.00
             454.28,182.00 437.85,153.00 437.85,153.00
             437.85,153.00 386.42,62.00 386.42,62.00
             386.42,62.00 372.23,37.00 372.23,37.00
             372.23,37.00 363.67,23.60 363.67,23.60
             363.67,23.60 355.00,22.00 355.00,22.00
             355.00,22.00 309.00,22.00 309.00,22.00 Z
           M 690.00,194.00
           C 690.00,194.00 690.00,64.00 690.00,64.00
             690.00,64.00 785.00,64.00 785.00,64.00
             785.00,64.00 795.00,64.91 795.00,64.91
             810.48,65.98 820.31,66.97 834.00,75.47
             848.97,84.76 856.80,102.80 857.00,120.00
             857.00,120.00 857.00,134.00 857.00,134.00
             856.90,154.73 847.73,174.91 829.00,185.10
             811.57,194.59 791.20,194.00 772.00,194.00
             772.00,194.00 690.00,194.00 690.00,194.00 Z
           M 1081.00,134.00
           C 1081.00,134.00 1081.00,116.00 1081.00,116.00
             1081.00,114.06 1081.25,110.28 1080.01,108.74
             1078.52,106.89 1075.15,107.03 1073.00,107.00
             1073.00,107.00 1051.00,107.00 1051.00,107.00
             1051.00,107.00 953.00,107.00 953.00,107.00
             951.01,107.00 947.19,106.77 945.60,108.02
             943.10,110.00 943.94,124.38 944.00,128.00
             944.12,134.60 945.64,134.91 952.00,135.00
             952.00,135.00 989.00,135.00 989.00,135.00
             989.00,135.00 1026.00,135.00 1026.00,135.00
             1038.90,135.00 1070.15,135.94 1081.00,134.00 Z" />
</svg>
