<?xml version="1.0" encoding="UTF-8" standalone="no"?>
<svg 
     width="690" 
	 height="372"
     viewBox="0 0 690 372">
  <path id="Selection"
        fill="#000000" stroke="black" stroke-width="1"
        d="M 42.00,248.00
           C 42.00,248.00 0.00,248.00 0.00,248.00
             0.00,285.70 8.50,316.06 38.00,341.71
             46.05,348.71 56.18,355.37 66.00,359.57
             100.08,374.14 152.61,374.17 188.00,364.14
             207.23,358.69 227.20,348.96 240.83,334.00
             255.87,317.48 264.97,294.38 265.00,272.00
             265.00,272.00 265.00,256.00 265.00,256.00
             264.91,248.76 262.87,237.92 260.66,231.00
             258.41,224.00 255.51,217.21 251.56,211.00
             233.65,182.80 206.23,175.18 176.00,167.63
             176.00,167.63 124.00,154.87 124.00,154.87
             100.13,148.91 65.60,145.72 57.04,118.00
             54.84,110.89 54.92,106.27 55.00,99.00
             55.42,63.57 88.14,42.39 121.00,42.00
             121.00,42.00 138.00,42.00 138.00,42.00
             161.57,42.04 183.41,52.06 198.70,70.00
             202.59,74.57 205.24,79.56 207.69,85.00
             211.86,94.26 212.70,103.11 214.00,113.00
             214.00,113.00 256.00,113.00 256.00,113.00
             255.91,82.08 244.98,48.82 221.00,28.30
             200.89,11.08 172.89,3.80 147.00,1.91
             147.00,1.91 135.00,1.00 135.00,1.00
             135.00,1.00 120.00,1.00 120.00,1.00
             88.05,1.05 54.33,13.45 34.21,39.00
             28.18,46.65 24.31,53.14 20.31,62.00
             13.48,77.17 10.81,96.46 11.00,113.00
             11.08,119.37 12.90,129.86 14.72,136.00
             16.75,142.84 19.29,148.92 23.06,155.00
             40.98,183.79 73.53,190.66 104.00,197.88
             104.00,197.88 157.00,210.88 157.00,210.88
             171.55,214.71 197.14,222.96 207.91,233.18
             216.73,241.55 219.92,252.35 221.16,264.00
             221.54,267.51 222.12,269.23 221.91,273.00
             221.66,277.34 220.34,284.90 218.92,289.00
             205.17,328.75 148.43,334.10 113.00,329.13
             104.55,327.94 94.77,325.22 87.00,321.69
             68.02,313.06 52.48,297.19 46.44,277.00
             42.93,265.28 43.51,259.43 42.00,248.00 Z
           M 311.00,6.00
           C 311.00,6.00 311.00,367.00 311.00,367.00
             311.00,367.00 360.00,367.00 360.00,367.00
             360.00,367.00 360.00,6.00 360.00,6.00
             360.00,6.00 311.00,6.00 311.00,6.00 Z
           M 418.00,7.00
           C 418.00,7.00 418.00,368.00 418.00,368.00
             418.00,368.00 462.00,368.00 462.00,368.00
             462.00,368.00 462.00,170.00 462.00,170.00
             462.00,170.00 462.00,109.00 462.00,109.00
             462.00,109.00 463.00,76.00 463.00,76.00
             463.00,76.00 596.00,299.00 596.00,299.00
             596.00,299.00 627.00,351.00 627.00,351.00
             629.10,354.50 635.11,366.01 638.33,367.43
             639.93,368.14 643.19,368.00 645.00,368.00
             645.00,368.00 689.00,368.00 689.00,368.00
             689.00,368.00 689.00,7.00 689.00,7.00
             689.00,7.00 645.00,7.00 645.00,7.00
             645.00,7.00 645.00,298.00 645.00,298.00
             639.96,293.56 633.25,280.34 629.58,274.00
             629.58,274.00 602.58,228.00 602.58,228.00
             602.58,228.00 514.42,78.00 514.42,78.00
             514.42,78.00 482.80,24.00 482.80,24.00
             473.30,8.08 474.99,7.02 465.00,7.00
             465.00,7.00 418.00,7.00 418.00,7.00 Z" />
</svg>
