<?xml version="1.0" encoding="UTF-8" standalone="no"?>
<svg 
     width="769" 
	 height="366"
     viewBox="0 0 769 366">
  <path id="Selection"
        fill="#000000" stroke="black" stroke-width="1"
        d="M 3.15,2.02
           C -0.60,5.34 0.01,7.28 0.00,12.00
             0.00,12.00 0.00,44.00 0.00,44.00
             0.00,44.00 0.00,165.00 0.00,165.00
             0.00,165.00 0.00,353.00 0.00,353.00
             0.01,356.18 -0.38,360.13 2.31,362.40
             4.94,364.61 11.59,364.00 15.00,364.00
             15.00,364.00 48.00,364.00 48.00,364.00
             48.00,364.00 85.00,364.00 85.00,364.00
             85.00,364.00 97.00,363.09 97.00,363.09
             131.12,360.75 166.23,354.30 196.00,336.55
             244.52,307.62 266.26,261.71 270.09,207.00
             270.09,207.00 271.00,197.00 271.00,197.00
             271.00,197.00 271.00,171.00 271.00,171.00
             271.00,171.00 270.09,159.00 270.09,159.00
             267.81,127.85 258.34,96.29 239.52,71.00
             226.89,54.02 202.96,32.75 184.00,23.27
             165.25,13.89 139.75,8.75 119.00,5.87
             119.00,5.87 81.00,2.00 81.00,2.00
             81.00,2.00 62.00,1.00 62.00,1.00
             62.00,1.00 27.00,1.00 27.00,1.00
             20.87,1.00 8.39,0.16 3.15,2.02 Z
           M 483.00,62.00
           C 483.00,62.00 494.72,98.00 494.72,98.00
             494.72,98.00 509.34,144.00 509.34,144.00
             509.34,144.00 545.02,256.00 545.02,256.00
             545.02,256.00 557.28,294.00 557.28,294.00
             557.28,294.00 574.67,349.00 574.67,349.00
             575.62,351.87 578.92,363.61 580.72,365.01
             582.34,366.26 586.00,366.00 588.00,366.00
             588.00,366.00 620.00,366.00 620.00,366.00
             621.76,365.96 623.99,366.03 625.49,364.98
             628.18,363.09 630.68,352.46 631.72,349.00
             631.72,349.00 649.28,294.00 649.28,294.00
             649.28,294.00 687.98,172.00 687.98,172.00
             687.98,172.00 723.00,61.00 723.00,61.00
             725.76,70.70 723.12,81.15 723.00,91.00
             723.00,91.00 723.00,155.00 723.00,155.00
             723.00,155.00 723.00,366.00 723.00,366.00
             723.00,366.00 768.00,366.00 768.00,366.00
             768.00,366.00 768.00,2.00 768.00,2.00
             768.00,2.00 710.00,2.00 710.00,2.00
             707.86,2.00 704.29,1.77 702.51,3.02
             699.84,4.89 697.18,16.41 696.00,20.00
             696.00,20.00 679.00,73.00 679.00,73.00
             679.00,73.00 604.00,309.00 604.00,309.00
             604.00,309.00 592.28,274.00 592.28,274.00
             592.28,274.00 575.98,223.00 575.98,223.00
             575.98,223.00 543.66,122.00 543.66,122.00
             543.66,122.00 528.58,75.00 528.58,75.00
             528.58,75.00 522.02,55.00 522.02,55.00
             522.02,55.00 510.67,19.00 510.67,19.00
             509.62,15.85 506.51,4.65 504.30,2.99
             502.63,1.74 499.04,2.00 497.00,2.00
             497.00,2.00 445.00,2.00 445.00,2.00
             437.51,2.14 438.01,4.26 438.00,11.00
             438.00,11.00 438.00,357.00 438.00,357.00
             438.00,359.30 437.62,363.41 439.60,364.98
             441.40,366.40 447.59,366.00 450.00,366.00
             450.00,366.00 475.00,366.00 475.00,366.00
             476.99,366.00 480.81,366.23 482.40,364.98
             484.90,363.00 484.00,351.39 484.00,348.00
             484.00,348.00 484.00,295.00 484.00,295.00
             484.00,295.00 484.00,258.00 484.00,258.00
             484.00,258.00 483.00,243.00 483.00,243.00
             483.00,243.00 483.00,62.00 483.00,62.00 Z
           M 377.00,365.00
           C 377.00,365.00 377.00,3.00 377.00,3.00
             377.00,3.00 337.00,3.00 337.00,3.00
             337.00,3.00 329.60,4.02 329.60,4.02
             329.60,4.02 328.00,10.00 328.00,10.00
             328.00,10.00 328.00,27.00 328.00,27.00
             328.00,27.00 328.00,102.00 328.00,102.00
             328.00,102.00 328.00,356.00 328.00,356.00
             328.00,356.00 329.60,363.98 329.60,363.98
             329.60,363.98 343.00,365.00 343.00,365.00
             343.00,365.00 377.00,365.00 377.00,365.00 Z
           M 42.00,325.00
           C 42.00,325.00 42.00,41.00 42.00,41.00
             42.00,41.00 87.00,41.00 87.00,41.00
             87.00,41.00 99.00,41.91 99.00,41.91
             132.67,44.37 161.68,53.95 188.00,75.61
             213.13,96.30 225.54,127.24 228.08,159.00
             228.08,159.00 229.00,169.00 229.00,169.00
             229.00,169.00 229.00,198.00 229.00,198.00
             229.00,198.00 228.09,210.00 228.09,210.00
             225.66,243.17 213.88,274.28 187.00,295.33
             161.94,314.96 130.06,321.92 99.00,324.09
             99.00,324.09 87.00,325.00 87.00,325.00
             87.00,325.00 42.00,325.00 42.00,325.00 Z" />
</svg>
