<?xml version="1.0" encoding="UTF-8" standalone="no"?>
<svg 
     width="948"
	 height="394"
     viewBox="0 0 948 394">
  <path id="Selection"
        fill="#000000" stroke="black" stroke-width="1"
        d="M 877.00,62.00
           C 877.00,62.00 919.00,62.00 919.00,62.00
             919.00,62.00 919.00,213.00 919.00,213.00
             919.00,213.00 948.00,213.00 948.00,213.00
             948.00,213.00 948.00,0.00 948.00,0.00
             948.00,0.00 929.00,0.00 929.00,0.00
             927.03,0.00 923.31,-0.26 921.73,0.99
             919.76,2.56 918.97,9.39 918.35,12.00
             916.83,18.40 914.05,26.15 908.91,30.47
             904.03,34.56 896.24,37.57 890.00,38.74
             887.32,39.24 879.56,39.80 877.99,41.74
             876.32,43.81 877.00,58.52 877.00,62.00 Z
           M 43.00,271.00
           C 43.00,271.00 0.00,271.00 0.00,271.00
             0.00,271.00 0.91,282.00 0.91,282.00
             1.71,293.63 2.16,302.56 5.43,314.00
             12.93,340.29 30.90,361.67 54.00,375.94
             72.52,387.37 94.60,391.59 116.00,393.09
             116.00,393.09 128.00,394.00 128.00,394.00
             180.51,394.08 240.58,381.21 259.92,325.00
             270.91,293.08 267.21,250.26 244.70,224.00
             237.92,216.09 228.16,209.24 219.00,204.31
             207.18,197.94 193.93,194.82 181.00,191.63
             181.00,191.63 133.00,179.87 133.00,179.87
             133.00,179.87 111.00,174.42 111.00,174.42
             89.40,169.63 63.38,163.72 56.76,139.00
             55.48,134.24 54.90,128.92 55.01,124.00
             55.13,118.85 56.46,110.92 58.03,106.00
             67.08,77.52 93.54,66.92 121.00,64.91
             126.21,64.53 126.72,63.87 133.00,64.01
             175.63,64.98 213.58,89.97 214.00,136.00
             214.00,136.00 256.00,136.00 256.00,136.00
             256.00,107.93 246.91,74.96 225.96,55.17
             205.73,36.05 177.27,27.10 150.00,24.92
             150.00,24.92 140.00,24.00 140.00,24.00
             113.14,23.69 88.43,24.15 64.00,37.31
             31.17,54.99 13.57,87.47 11.96,124.00
             11.96,124.00 11.18,134.00 11.18,134.00
             11.96,144.93 13.30,155.75 17.45,166.00
             32.46,203.06 64.30,210.81 99.00,219.37
             99.00,219.37 149.00,231.63 149.00,231.63
             174.00,237.88 209.21,245.96 218.91,273.00
             221.17,279.30 222.07,288.30 222.00,295.00
             221.60,330.03 192.83,345.94 162.00,351.08
             155.75,352.12 152.48,352.90 146.00,353.00
             146.00,353.00 135.00,353.92 135.00,353.92
             135.00,353.92 127.00,352.90 127.00,352.90
             127.00,352.90 118.00,352.90 118.00,352.90
             93.43,349.69 69.60,339.10 55.36,318.00
             51.63,312.48 48.83,306.36 46.88,300.00
             43.71,289.63 43.00,281.74 43.00,271.00 Z
           M 311.00,29.00
           C 311.00,29.00 311.00,390.00 311.00,390.00
             311.00,390.00 360.00,390.00 360.00,390.00
             360.00,390.00 360.00,29.00 360.00,29.00
             360.00,29.00 311.00,29.00 311.00,29.00 Z
           M 418.00,30.00
           C 418.00,30.00 418.00,390.00 418.00,390.00
             418.00,390.00 463.00,390.00 463.00,390.00
             463.00,390.00 463.00,99.00 463.00,99.00
             463.00,99.00 505.20,169.00 505.20,169.00
             505.20,169.00 595.20,320.00 595.20,320.00
             595.20,320.00 626.80,373.00 626.80,373.00
             628.95,376.59 634.84,387.95 638.21,389.40
             639.89,390.12 643.12,390.00 645.00,390.00
             645.00,390.00 690.00,390.00 690.00,390.00
             690.00,390.00 690.00,30.00 690.00,30.00
             690.00,30.00 645.00,30.00 645.00,30.00
             645.00,30.00 645.00,321.00 645.00,321.00
             639.50,314.29 635.64,306.42 631.20,299.00
             631.20,299.00 604.80,254.00 604.80,254.00
             604.80,254.00 514.40,100.00 514.40,100.00
             514.40,100.00 483.20,47.00 483.20,47.00
             480.88,43.11 475.65,32.21 471.82,30.60
             470.10,29.88 466.91,30.00 465.00,30.00
             465.00,30.00 418.00,30.00 418.00,30.00 Z
           M 757.60,108.02
           C 754.80,111.92 755.99,120.16 756.00,125.00
             756.00,127.30 755.62,131.41 757.60,132.98
             759.08,134.15 762.18,133.99 764.00,134.00
             764.00,134.00 786.00,134.00 786.00,134.00
             786.00,134.00 884.00,134.00 884.00,134.00
             885.99,134.00 889.81,134.23 891.40,132.98
             893.89,131.01 893.01,119.38 893.00,116.00
             893.00,113.70 893.38,109.59 891.40,108.02
             889.92,106.85 886.82,107.01 885.00,107.00
             885.00,107.00 863.00,107.00 863.00,107.00
             863.00,107.00 790.00,107.00 790.00,107.00
             790.00,107.00 769.00,107.00 769.00,107.00
             765.16,107.00 761.16,106.51 757.60,108.02 Z" />
</svg>
