<?xml version="1.0" encoding="UTF-8" standalone="no"?>
<svg 
     width="463" 
	 height="365"
     viewBox="0 0 463 365">
  <path id="Selection"
        fill="#000000" stroke="black" stroke-width="1"
        d="M 374.00,0.00
           C 375.51,8.05 387.55,28.98 391.69,38.00
             404.22,65.27 414.10,89.52 420.58,119.00
             426.69,146.85 426.04,164.18 426.00,192.00
             426.00,192.00 425.09,204.00 425.09,204.00
             423.01,234.39 418.50,263.25 407.95,292.00
             402.15,307.81 393.49,325.98 385.74,341.00
             385.74,341.00 374.00,364.00 374.00,364.00
             374.00,364.00 390.00,364.00 390.00,364.00
             391.97,364.00 395.12,364.12 396.91,363.40
             400.75,361.86 406.52,351.75 409.00,348.00
             418.33,333.85 430.70,312.46 437.42,297.00
             437.42,297.00 451.28,261.00 451.28,261.00
             469.98,198.90 467.09,129.66 438.24,71.00
             429.11,52.42 418.98,34.35 407.66,17.00
             405.14,13.15 398.77,2.15 394.91,0.60
             393.12,-0.12 389.97,0.00 388.00,0.00
             388.00,0.00 374.00,0.00 374.00,0.00 Z
           M 90.00,364.00
           C 90.00,364.00 73.26,330.00 73.26,330.00
             63.91,310.68 55.40,290.51 49.02,270.00
             40.46,242.46 36.96,213.74 37.00,185.00
             37.00,185.00 38.00,164.00 38.00,164.00
             38.08,146.28 43.32,114.36 47.88,97.00
             53.36,76.16 61.63,56.24 71.25,37.00
             71.25,37.00 89.00,1.00 89.00,1.00
             89.00,1.00 73.00,1.00 73.00,1.00
             71.18,1.00 67.94,0.86 66.32,1.57
             63.24,2.92 56.86,13.71 54.67,17.00
             43.00,34.50 32.95,52.89 24.23,72.00
             12.84,96.95 1.32,137.59 0.96,165.00
             0.96,165.00 0.96,174.00 0.96,174.00
             0.96,174.00 0.03,183.00 0.03,183.00
             0.03,183.00 1.00,195.00 1.00,195.00
             1.43,231.77 12.39,268.28 28.75,301.00
             37.05,317.59 46.55,333.45 56.66,349.00
             66.35,363.92 64.42,363.98 74.00,364.00
             74.00,364.00 90.00,364.00 90.00,364.00 Z
           M 203.00,18.00
           C 203.00,18.00 203.00,59.00 203.00,59.00
             203.00,59.00 245.00,59.00 245.00,59.00
             245.00,59.00 245.00,26.00 245.00,26.00
             245.00,26.00 243.40,19.02 243.40,19.02
             243.40,19.02 232.00,18.00 232.00,18.00
             232.00,18.00 203.00,18.00 203.00,18.00 Z
           M 203.00,113.00
           C 203.00,113.00 203.00,353.00 203.00,353.00
             203.00,353.00 236.00,353.00 236.00,353.00
             242.74,352.99 244.86,353.49 245.00,346.00
             245.00,346.00 245.00,299.00 245.00,299.00
             245.00,299.00 245.00,122.00 245.00,122.00
             245.00,119.70 245.38,115.59 243.40,114.02
             241.55,112.56 234.54,113.00 232.00,113.00
             232.00,113.00 203.00,113.00 203.00,113.00 Z" />
</svg>
