<?xml version="1.0" encoding="UTF-8" standalone="no"?>
<svg 
     width="1158"
	 height="394"
     viewBox="0 0 1158 394">
  <path id="Selection"
        fill="#000000" stroke="black" stroke-width="1"
        d="M 1130.00,1.00
           C 1129.59,9.95 1126.26,23.36 1119.82,29.82
             1112.08,37.57 1097.63,40.51 1087.00,41.00
             1087.00,41.00 1087.00,62.00 1087.00,62.00
             1087.00,62.00 1129.00,62.00 1129.00,62.00
             1129.00,62.00 1129.00,214.00 1129.00,214.00
             1129.00,214.00 1157.00,214.00 1157.00,214.00
             1157.00,214.00 1157.00,1.00 1157.00,1.00
             1157.00,1.00 1130.00,1.00 1130.00,1.00 Z
           M 477.00,18.14
           C 465.38,20.07 454.39,21.18 443.00,24.43
             416.76,31.91 394.46,45.68 376.17,66.00
             358.05,86.13 345.72,112.14 338.29,138.00
             315.68,216.74 332.67,324.30 407.00,370.58
             418.78,377.91 429.76,382.33 443.00,386.28
             455.41,389.98 474.07,392.85 487.00,393.00
             518.01,393.36 549.05,387.58 576.00,371.55
             615.28,348.18 637.64,307.14 648.37,264.00
             651.35,252.05 654.98,231.11 655.00,219.00
             655.00,219.00 655.00,191.00 655.00,191.00
             654.97,172.61 648.85,145.54 643.00,128.00
             634.80,103.43 620.60,77.31 601.91,59.17
             575.44,33.46 536.95,18.06 500.00,18.14
             500.00,18.14 483.00,18.14 483.00,18.14
             483.00,18.14 477.00,18.14 477.00,18.14 Z
           M 733.00,271.00
           C 733.00,271.00 691.00,271.00 691.00,271.00
             691.00,284.41 691.60,296.89 694.89,310.00
             701.78,337.42 719.31,359.48 743.00,374.56
             760.84,385.92 788.87,392.75 810.00,393.00
             810.00,393.00 837.00,393.00 837.00,393.00
             867.84,392.95 909.56,379.97 930.83,356.99
             951.32,334.85 956.34,310.17 956.00,281.00
             955.90,273.17 953.93,262.59 951.85,255.00
             950.10,248.60 947.36,241.71 943.99,236.00
             924.19,202.52 890.93,195.37 856.00,187.35
             856.00,187.35 819.00,178.35 819.00,178.35
             819.00,178.35 795.00,172.37 795.00,172.37
             774.67,167.29 755.16,162.62 747.75,140.00
             745.53,133.21 745.92,127.03 746.00,120.00
             746.44,82.47 782.61,64.05 816.00,64.00
             829.48,63.98 839.82,63.86 853.00,68.03
             883.78,77.77 903.98,102.35 904.00,135.00
             904.00,135.00 947.00,135.00 947.00,135.00
             945.68,106.19 937.79,76.13 916.83,55.17
             903.93,42.26 887.31,34.63 870.00,29.71
             857.70,26.21 845.69,24.78 833.00,23.91
             833.00,23.91 821.00,23.00 821.00,23.00
             788.52,22.95 756.16,29.60 732.04,53.09
             713.46,71.18 702.04,100.14 702.00,126.00
             702.00,126.00 702.00,138.00 702.00,138.00
             702.08,144.83 703.86,153.51 706.00,160.00
             708.25,166.83 709.73,170.84 713.70,177.00
             731.07,204.02 755.92,210.60 785.00,217.87
             785.00,217.87 850.00,233.86 850.00,233.86
             872.68,240.29 901.28,247.96 909.48,273.00
             912.40,281.90 912.10,288.84 912.00,298.00
             911.92,304.72 910.12,310.96 907.21,317.00
             892.32,347.99 849.46,353.35 819.00,353.00
             788.44,352.64 755.55,338.36 741.37,310.00
             735.76,298.78 733.04,283.49 733.00,271.00 Z
           M 294.00,255.00
           C 294.00,255.00 259.00,255.00 259.00,255.00
             256.64,255.00 252.81,254.58 251.16,256.57
             249.92,258.08 247.17,271.01 246.28,274.00
             243.06,284.81 238.69,295.26 232.99,305.00
             215.03,335.67 187.28,351.41 152.00,351.00
             143.87,350.90 127.76,348.43 120.00,345.97
             75.86,332.00 56.95,293.76 49.92,251.00
             49.92,251.00 47.00,225.00 47.00,225.00
             46.59,189.96 46.15,161.84 61.31,129.00
             69.80,110.60 83.26,94.44 100.00,83.03
             130.39,62.29 179.11,61.74 210.00,81.70
             223.41,90.36 232.23,100.77 239.24,115.00
             242.75,122.12 246.29,131.07 247.00,139.00
             247.00,139.00 291.00,139.00 291.00,139.00
             288.91,123.15 284.89,106.11 277.14,92.00
             253.85,49.64 215.01,29.20 168.00,25.91
             168.00,25.91 158.00,25.00 158.00,25.00
             129.83,24.67 101.57,30.83 77.00,44.87
             35.14,68.80 11.56,115.86 3.92,162.00
             3.92,162.00 1.00,188.00 1.00,188.00
             1.00,188.00 1.00,193.00 1.00,193.00
             1.00,193.00 0.01,206.00 0.01,206.00
             0.01,206.00 0.96,218.00 0.96,218.00
             0.96,218.00 0.96,228.00 0.96,228.00
             0.96,228.00 2.85,247.00 2.85,247.00
             8.13,291.22 25.68,336.87 62.00,364.77
             114.18,404.84 196.98,401.95 246.00,357.83
             269.05,337.09 281.99,309.67 289.37,280.00
             291.13,272.94 293.42,262.14 294.00,255.00 Z
           M 478.00,61.14
           C 478.00,61.14 500.00,61.14 500.00,61.14
             508.79,61.01 517.54,62.83 526.00,65.15
             534.66,67.53 542.38,71.09 550.00,75.81
             597.41,105.20 609.08,160.34 609.00,212.00
             608.98,224.00 606.35,244.34 603.37,256.00
             590.24,307.38 553.26,349.91 497.00,350.00
             497.00,350.00 485.00,350.00 485.00,350.00
             480.02,349.94 474.91,349.06 470.00,348.25
             418.01,339.67 386.84,293.06 378.59,244.00
             377.57,237.93 376.07,227.99 376.00,222.00
             376.00,222.00 376.00,217.00 376.00,217.00
             376.00,217.00 375.09,207.00 375.09,207.00
             375.09,207.00 376.00,194.00 376.00,194.00
             376.37,161.85 385.53,128.83 405.13,103.00
             409.29,97.52 413.78,91.92 419.00,87.43
             428.70,79.08 433.55,75.80 445.00,70.26
             456.39,64.75 465.71,63.09 478.00,61.14 Z
           M 966.29,105.74
           C 965.86,106.10 965.26,106.06 964.57,107.43
             963.63,109.30 963.99,121.13 964.00,124.00
             964.00,125.94 963.75,129.72 964.99,131.26
             966.48,133.11 969.85,132.97 972.00,133.00
             972.00,133.00 994.00,133.00 994.00,133.00
             994.00,133.00 1091.00,133.00 1091.00,133.00
             1093.26,133.00 1097.62,133.25 1099.43,131.83
             1101.92,129.86 1101.01,117.45 1101.00,114.00
             1101.00,112.06 1101.25,108.28 1100.01,106.74
             1098.52,104.89 1095.15,105.03 1093.00,105.00
             1093.00,105.00 1071.00,105.00 1071.00,105.00
             1071.00,105.00 1001.00,105.00 1001.00,105.00
             993.87,105.00 971.72,104.26 966.29,105.74 Z" />
</svg>
