<?xml version="1.0" encoding="UTF-8" standalone="no"?>
<svg 
     width="957" 
	 height="377"
     viewBox="0 0 957 377">
  <path id="Selection"
        fill="#000000" stroke="black" stroke-width="1"
        d="M 477.00,1.21
           C 465.38,3.07 454.39,4.18 443.00,7.43
             417.45,14.72 395.02,28.23 377.17,48.00
             359.03,68.09 345.98,94.06 338.58,120.00
             330.61,147.93 328.87,169.23 329.00,198.00
             329.06,211.38 332.37,231.90 335.63,245.00
             346.48,288.62 366.10,327.25 405.00,352.31
             417.66,360.47 427.73,364.56 442.00,368.98
             454.58,372.87 473.84,375.84 487.00,376.00
             517.99,376.36 547.88,370.72 575.00,355.13
             614.70,332.31 637.59,290.12 648.37,247.00
             651.31,235.24 654.86,216.96 655.00,205.00
             655.00,205.00 655.96,190.00 655.96,190.00
             655.96,190.00 655.00,176.00 655.00,176.00
             654.47,130.24 635.02,76.00 602.91,43.04
             596.71,36.67 584.69,27.52 577.00,22.81
             566.12,16.14 554.27,11.08 542.00,7.58
             529.89,4.12 512.54,1.02 500.00,1.21
             500.00,1.21 477.00,1.21 477.00,1.21 Z
           M 733.00,254.00
           C 733.00,254.00 691.00,254.00 691.00,254.00
             691.00,267.48 691.66,280.89 695.15,294.00
             702.31,320.82 719.69,342.73 743.00,357.56
             760.90,368.96 789.81,375.90 811.00,376.00
             811.00,376.00 837.00,376.00 837.00,376.00
             868.46,375.95 910.39,362.71 931.83,339.00
             951.68,317.05 956.33,292.56 956.00,264.00
             955.91,256.45 954.05,246.34 952.12,239.00
             950.46,232.72 947.78,225.64 944.57,220.00
             924.60,184.90 890.79,178.60 855.00,170.12
             855.00,170.12 820.00,161.42 820.00,161.42
             820.00,161.42 795.00,155.37 795.00,155.37
             775.39,150.47 755.78,145.43 748.09,124.00
             745.49,116.76 745.92,110.53 746.00,103.00
             746.44,65.60 782.70,47.05 816.00,47.00
             829.48,46.98 839.82,46.86 853.00,51.03
             883.86,60.80 904.00,85.27 904.00,118.00
             904.00,118.00 947.00,118.00 947.00,118.00
             945.70,89.68 938.10,59.98 917.83,39.09
             903.98,24.80 885.03,16.36 866.00,11.63
             853.60,8.54 834.73,6.02 822.00,6.00
             789.06,5.95 756.57,12.20 732.04,36.09
             708.79,58.73 701.64,88.69 702.00,120.00
             702.08,126.47 703.68,135.83 705.67,142.00
             707.82,148.65 709.32,152.97 713.06,159.00
             730.28,186.74 755.53,193.51 785.00,200.87
             785.00,200.87 849.00,216.58 849.00,216.58
             868.37,222.10 896.80,229.79 906.63,249.00
             912.21,259.91 912.14,269.20 912.00,281.00
             911.91,288.66 909.85,295.30 906.21,302.00
             890.27,331.32 848.91,336.35 819.00,336.00
             791.32,335.67 761.10,323.77 745.54,300.00
             736.90,286.79 733.14,269.66 733.00,254.00 Z
           M 294.00,238.00
           C 294.00,238.00 259.00,238.00 259.00,238.00
             256.64,238.00 252.81,237.58 251.16,239.57
             249.92,241.08 247.17,254.01 246.28,257.00
             243.08,267.73 238.28,279.38 232.55,289.00
             214.61,319.10 186.65,334.40 152.00,334.00
             144.82,333.91 130.01,331.72 123.00,329.85
             115.47,327.83 106.70,323.96 100.00,319.99
             67.10,300.49 53.17,262.19 48.85,226.00
             48.85,226.00 47.00,205.00 47.00,205.00
             47.00,205.00 47.00,173.00 47.00,173.00
             47.23,153.39 53.79,128.80 61.86,111.00
             69.82,93.46 84.17,76.83 100.00,66.03
             133.22,43.37 186.75,44.84 218.00,70.46
             227.42,78.19 233.90,87.16 239.24,98.00
             242.95,105.51 246.29,113.59 247.00,122.00
             247.00,122.00 291.00,122.00 291.00,122.00
             290.15,111.57 287.11,99.87 283.66,90.00
             278.53,75.36 270.40,62.58 260.15,51.00
             235.76,23.42 203.94,11.42 168.00,8.91
             168.00,8.91 158.00,8.00 158.00,8.00
             137.23,7.76 112.14,11.65 93.00,19.87
             41.09,42.17 11.56,92.72 3.73,147.00
             3.73,147.00 1.00,172.00 1.00,172.00
             1.00,172.00 1.00,178.00 1.00,178.00
             1.00,178.00 0.18,190.00 0.18,190.00
             0.18,190.00 1.00,200.00 1.00,200.00
             1.66,256.97 18.88,318.02 68.00,352.12
             118.35,387.07 196.19,382.99 243.00,343.56
             266.92,323.41 281.35,294.94 288.87,265.00
             290.67,257.83 293.67,245.10 294.00,238.00 Z
           M 478.00,44.14
           C 478.00,44.14 500.00,44.14 500.00,44.14
             509.74,44.02 520.79,46.16 530.00,49.34
             538.87,52.41 545.14,55.55 553.00,60.70
             586.31,82.49 604.13,124.46 607.83,163.00
             607.83,163.00 609.00,196.00 609.00,196.00
             608.98,207.38 606.37,226.87 603.63,238.00
             591.09,288.77 553.80,332.91 498.00,333.00
             498.00,333.00 485.00,333.00 485.00,333.00
             480.02,332.94 474.91,332.06 470.00,331.25
             425.11,323.84 397.14,289.33 383.67,248.00
             380.23,237.44 376.13,215.98 376.00,205.00
             376.00,205.00 376.00,174.00 376.00,174.00
             376.01,166.15 377.28,157.75 378.59,150.00
             384.60,114.26 403.01,77.52 435.00,58.45
             449.59,49.75 461.49,46.71 478.00,44.14 Z" />
</svg>
