<?xml version="1.0" encoding="UTF-8" standalone="no"?>
<svg 
     width="865"
	 height="368"
     viewBox="0 0 865 368">
  <path id="Selection"
        fill="#000000" stroke="black" stroke-width="1"
        d="M 378.00,0.00
           C 378.00,0.00 366.42,32.00 366.42,32.00
             366.42,32.00 345.42,88.00 345.42,88.00
             345.42,88.00 277.58,269.00 277.58,269.00
             277.58,269.00 254.58,330.00 254.58,330.00
             254.58,330.00 241.00,367.00 241.00,367.00
             241.00,367.00 284.00,367.00 284.00,367.00
             286.06,367.00 289.62,367.26 291.30,366.01
             292.95,364.79 294.24,360.93 294.95,359.00
             294.95,359.00 300.66,343.00 300.66,343.00
             300.66,343.00 323.05,280.00 323.05,280.00
             324.50,276.03 328.40,262.95 331.39,261.02
             333.32,259.78 336.75,260.00 339.00,260.00
             339.00,260.00 468.00,260.00 468.00,260.00
             470.28,260.00 473.76,259.79 475.73,261.02
             478.02,262.46 478.84,265.58 479.67,268.00
             479.67,268.00 485.33,285.00 485.33,285.00
             485.33,285.00 504.67,342.00 504.67,342.00
             504.67,342.00 513.00,367.00 513.00,367.00
             513.00,367.00 567.00,367.00 567.00,367.00
             567.00,367.00 555.05,333.00 555.05,333.00
             555.05,333.00 533.69,274.00 533.69,274.00
             533.69,274.00 463.31,79.00 463.31,79.00
             463.31,79.00 445.58,30.00 445.58,30.00
             445.58,30.00 435.00,0.00 435.00,0.00
             435.00,0.00 378.00,0.00 378.00,0.00 Z
           M 0.00,2.00
           C 0.00,2.00 0.00,37.00 0.00,37.00
             0.00,37.00 1.02,44.40 1.02,44.40
             1.02,44.40 7.00,46.00 7.00,46.00
             7.00,46.00 28.00,46.00 28.00,46.00
             28.00,46.00 118.00,46.00 118.00,46.00
             118.00,46.00 118.00,367.00 118.00,367.00
             118.00,367.00 165.00,367.00 165.00,367.00
             165.00,367.00 165.00,46.00 165.00,46.00
             165.00,46.00 273.00,46.00 273.00,46.00
             273.00,46.00 280.98,44.40 280.98,44.40
             280.98,44.40 282.00,33.00 282.00,33.00
             282.00,33.00 282.00,2.00 282.00,2.00
             282.00,2.00 0.00,2.00 0.00,2.00 Z
           M 590.00,3.00
           C 590.00,3.00 590.00,358.00 590.00,358.00
             590.00,360.30 589.62,364.41 591.60,365.98
             593.40,367.40 599.59,367.00 602.00,367.00
             602.00,367.00 627.00,367.00 627.00,367.00
             635.64,366.98 635.98,366.64 636.00,358.00
             636.00,358.00 636.00,299.00 636.00,299.00
             636.00,299.00 636.00,73.00 636.00,73.00
             636.00,73.00 677.40,142.00 677.40,142.00
             677.40,142.00 769.80,297.00 769.80,297.00
             769.80,297.00 800.99,349.00 800.99,349.00
             803.44,353.17 808.93,364.71 813.10,366.40
             814.87,367.12 818.05,367.00 820.00,367.00
             820.00,367.00 864.00,367.00 864.00,367.00
             864.00,367.00 864.00,3.00 864.00,3.00
             864.00,3.00 819.00,3.00 819.00,3.00
             819.00,3.00 819.00,297.00 819.00,297.00
             819.00,297.00 798.58,263.00 798.58,263.00
             798.58,263.00 771.58,217.00 771.58,217.00
             771.58,217.00 687.01,73.00 687.01,73.00
             687.01,73.00 655.99,20.00 655.99,20.00
             653.94,16.52 647.99,4.99 644.79,3.60
             643.12,2.88 639.87,3.00 638.00,3.00
             638.00,3.00 590.00,3.00 590.00,3.00 Z
           M 407.00,50.00
           C 407.00,50.00 414.33,70.00 414.33,70.00
             414.33,70.00 427.33,109.00 427.33,109.00
             427.33,109.00 450.00,177.00 450.00,177.00
             450.00,177.00 462.00,214.00 462.00,214.00
             462.00,214.00 347.00,214.00 347.00,214.00
             347.00,214.00 361.95,172.00 361.95,172.00
             361.95,172.00 385.95,106.00 385.95,106.00
             385.95,106.00 398.31,72.00 398.31,72.00
             398.31,72.00 407.00,50.00 407.00,50.00 Z" />
</svg>
