<?xml version="1.0" encoding="UTF-8" standalone="no"?>
<svg 
     width="1098"
	 height="389"
     viewBox="0 0 1098 389">
  <path id="Selection"
        fill="#000000" stroke="black" stroke-width="1"
        d="M 1027.00,62.00
           C 1027.00,62.00 1069.00,62.00 1069.00,62.00
             1069.00,62.00 1069.00,213.00 1069.00,213.00
             1069.00,213.00 1097.00,213.00 1097.00,213.00
             1097.00,213.00 1097.00,0.00 1097.00,0.00
             1097.00,0.00 1079.00,0.00 1079.00,0.00
             1076.96,0.00 1073.23,-0.24 1071.58,1.02
             1069.54,2.58 1068.77,9.36 1068.11,12.00
             1066.41,18.75 1064.19,24.96 1058.96,29.82
             1053.73,34.67 1046.89,37.14 1040.00,38.55
             1037.32,39.10 1029.57,39.63 1028.02,41.60
             1026.30,43.79 1027.00,58.42 1027.00,62.00 Z
           M 241.00,388.00
           C 241.00,388.00 284.00,388.00 284.00,388.00
             286.04,388.00 289.63,388.26 291.30,387.01
             292.93,385.79 294.07,381.93 294.81,380.00
             294.81,380.00 300.58,364.00 300.58,364.00
             300.58,364.00 323.00,301.00 323.00,301.00
             324.31,297.17 328.35,283.86 331.27,282.02
             333.24,280.79 336.72,281.00 339.00,281.00
             339.00,281.00 468.00,281.00 468.00,281.00
             470.21,281.00 473.71,280.78 475.58,282.02
             478.56,284.00 482.03,297.08 483.33,301.00
             483.33,301.00 505.05,365.00 505.05,365.00
             505.05,365.00 510.33,380.00 510.33,380.00
             511.00,382.00 512.00,385.73 513.70,387.01
             515.37,388.26 518.96,388.00 521.00,388.00
             521.00,388.00 567.00,388.00 567.00,388.00
             567.00,388.00 532.69,293.00 532.69,293.00
             532.69,293.00 465.05,106.00 465.05,106.00
             465.05,106.00 441.66,41.00 441.66,41.00
             440.40,37.41 436.02,23.76 433.50,22.02
             431.68,20.77 428.17,21.00 426.00,21.00
             426.00,21.00 385.00,21.00 385.00,21.00
             383.18,21.04 380.99,20.98 379.41,22.02
             376.53,23.93 372.38,37.17 370.95,41.00
             370.95,41.00 346.05,107.00 346.05,107.00
             346.05,107.00 275.58,295.00 275.58,295.00
             275.58,295.00 251.95,358.00 251.95,358.00
             251.95,358.00 241.00,388.00 241.00,388.00 Z
           M 0.00,23.00
           C 0.00,23.00 0.00,67.00 0.00,67.00
             0.00,67.00 118.00,67.00 118.00,67.00
             118.00,67.00 118.00,389.00 118.00,389.00
             118.00,389.00 164.00,389.00 164.00,389.00
             164.00,389.00 164.00,67.00 164.00,67.00
             164.00,67.00 282.00,67.00 282.00,67.00
             282.00,67.00 282.00,23.00 282.00,23.00
             282.00,23.00 0.00,23.00 0.00,23.00 Z
           M 590.00,24.00
           C 590.00,24.00 590.00,388.00 590.00,388.00
             590.00,388.00 635.00,388.00 635.00,388.00
             635.00,388.00 635.00,94.00 635.00,94.00
             635.00,94.00 649.60,117.00 649.60,117.00
             649.60,117.00 677.60,164.00 677.60,164.00
             677.60,164.00 769.00,317.00 769.00,317.00
             769.00,317.00 801.20,371.00 801.20,371.00
             801.20,371.00 812.38,387.43 812.38,387.43
             812.38,387.43 819.00,388.00 819.00,388.00
             819.00,388.00 864.00,388.00 864.00,388.00
             864.00,388.00 864.00,24.00 864.00,24.00
             864.00,24.00 819.00,24.00 819.00,24.00
             819.00,24.00 819.00,318.00 819.00,318.00
             813.71,311.54 807.47,299.63 802.99,292.00
             802.99,292.00 775.40,245.00 775.40,245.00
             775.40,245.00 721.99,154.00 721.99,154.00
             721.99,154.00 687.28,95.00 687.28,95.00
             687.28,95.00 655.60,41.00 655.60,41.00
             645.95,24.90 647.53,24.02 637.00,24.00
             637.00,24.00 590.00,24.00 590.00,24.00 Z
           M 407.00,71.00
           C 407.00,71.00 435.00,154.00 435.00,154.00
             435.00,154.00 462.00,235.00 462.00,235.00
             462.00,235.00 347.00,235.00 347.00,235.00
             347.00,235.00 361.95,193.00 361.95,193.00
             361.95,193.00 386.58,125.00 386.58,125.00
             386.58,125.00 399.31,90.00 399.31,90.00
             399.31,90.00 407.00,71.00 407.00,71.00 Z
           M 1041.00,105.00
           C 1030.15,103.06 998.90,104.00 986.00,104.00
             986.00,104.00 949.00,104.00 949.00,104.00
             949.00,104.00 920.00,104.00 920.00,104.00
             917.09,104.00 909.48,103.69 907.15,104.74
             903.95,106.18 904.06,108.97 904.00,112.00
             904.00,112.00 904.00,123.00 904.00,123.00
             904.00,125.30 903.62,129.41 905.60,130.98
             907.08,132.15 910.18,131.99 912.00,132.00
             912.00,132.00 934.00,132.00 934.00,132.00
             934.00,132.00 1032.00,132.00 1032.00,132.00
             1033.99,132.00 1037.81,132.23 1039.40,130.98
             1041.10,129.63 1040.96,126.95 1041.00,125.00
             1041.00,125.00 1041.00,105.00 1041.00,105.00 Z" />
</svg>
