<?xml version="1.0" encoding="UTF-8" standalone="no"?>
<svg 
     width="931" 
	 height="371"
     viewBox="0 0 931 371">
  <path id="Selection"
        fill="#000000" stroke="black" stroke-width="1"
        d="M 1.00,1.00
           C 1.00,1.00 1.00,370.00 1.00,370.00
             1.00,370.00 259.00,370.00 259.00,370.00
             259.00,370.00 259.00,326.00 259.00,326.00
             259.00,326.00 48.00,326.00 48.00,326.00
             48.00,326.00 48.00,203.00 48.00,203.00
             48.00,203.00 239.00,203.00 239.00,203.00
             239.00,203.00 239.00,159.00 239.00,159.00
             239.00,159.00 48.00,159.00 48.00,159.00
             48.00,159.00 48.00,45.00 48.00,45.00
             48.00,45.00 255.00,45.00 255.00,45.00
             255.00,45.00 255.00,1.00 255.00,1.00
             255.00,1.00 1.00,1.00 1.00,1.00 Z
           M 316.00,1.00
           C 316.00,1.00 316.00,361.00 316.00,361.00
             316.00,362.99 315.77,366.81 317.02,368.40
             319.01,370.92 331.52,370.00 335.00,370.00
             335.00,370.00 392.00,370.00 392.00,370.00
             392.00,370.00 566.00,370.00 566.00,370.00
             568.30,370.00 572.41,370.38 573.98,368.40
             575.48,366.51 575.00,358.66 575.00,356.00
             575.00,356.00 575.00,325.00 575.00,325.00
             575.00,325.00 364.00,325.00 364.00,325.00
             364.00,325.00 364.00,202.00 364.00,202.00
             364.00,202.00 555.00,202.00 555.00,202.00
             555.00,202.00 555.00,158.00 555.00,158.00
             555.00,158.00 364.00,158.00 364.00,158.00
             364.00,158.00 364.00,45.00 364.00,45.00
             364.00,45.00 571.00,45.00 571.00,45.00
             571.00,45.00 571.00,1.00 571.00,1.00
             571.00,1.00 316.00,1.00 316.00,1.00 Z
           M 638.00,4.00
           C 638.00,4.00 648.67,22.00 648.67,22.00
             648.67,22.00 666.33,49.00 666.33,49.00
             666.33,49.00 721.67,134.00 721.67,134.00
             721.67,134.00 743.33,167.00 743.33,167.00
             743.33,167.00 751.00,181.00 751.00,181.00
             751.00,181.00 743.19,195.00 743.19,195.00
             743.19,195.00 718.67,232.00 718.67,232.00
             718.67,232.00 661.67,318.00 661.67,318.00
             661.67,318.00 630.00,367.00 630.00,367.00
             630.00,367.00 678.00,367.00 678.00,367.00
             678.00,367.00 685.62,365.98 685.62,365.98
             685.62,365.98 693.00,356.00 693.00,356.00
             693.00,356.00 707.66,333.00 707.66,333.00
             707.66,333.00 753.69,261.00 753.69,261.00
             753.69,261.00 780.00,219.00 780.00,219.00
             780.00,219.00 782.00,219.00 782.00,219.00
             782.00,219.00 805.58,258.00 805.58,258.00
             805.58,258.00 852.19,333.00 852.19,333.00
             852.19,333.00 866.42,356.00 866.42,356.00
             866.42,356.00 873.53,366.01 873.53,366.01
             873.53,366.01 881.00,367.00 881.00,367.00
             881.00,367.00 931.00,367.00 931.00,367.00
             931.00,367.00 902.69,323.00 902.69,323.00
             902.69,323.00 844.33,233.00 844.33,233.00
             844.33,233.00 820.31,196.00 820.31,196.00
             820.31,196.00 811.68,181.00 811.68,181.00
             811.68,181.00 819.67,167.00 819.67,167.00
             819.67,167.00 840.58,135.00 840.58,135.00
             840.58,135.00 870.66,89.00 870.66,89.00
             870.66,89.00 896.00,50.00 896.00,50.00
             896.00,50.00 913.00,24.00 913.00,24.00
             913.00,24.00 925.00,4.00 925.00,4.00
             925.00,4.00 878.00,4.00 878.00,4.00
             878.00,4.00 870.33,5.02 870.33,5.02
             870.33,5.02 863.66,14.00 863.66,14.00
             863.66,14.00 849.81,36.00 849.81,36.00
             849.81,36.00 806.58,105.00 806.58,105.00
             806.58,105.00 784.00,142.00 784.00,142.00
             784.00,142.00 782.00,142.00 782.00,142.00
             782.00,142.00 759.42,105.00 759.42,105.00
             759.42,105.00 716.05,36.00 716.05,36.00
             716.05,36.00 702.81,15.00 702.81,15.00
             702.81,15.00 695.62,5.02 695.62,5.02
             695.62,5.02 688.00,4.00 688.00,4.00
             688.00,4.00 638.00,4.00 638.00,4.00 Z" />
</svg>
