<?xml version="1.0" encoding="UTF-8" standalone="no"?>
<svg 
     width="1661" 
	 height="372"
     viewBox="0 0 1661 372">
  <path id="Selection"
        fill="#000000" stroke="black" stroke-width="1"
        d="M 629.00,247.00
           C 629.00,247.00 586.00,247.00 586.00,247.00
             586.97,259.03 587.16,271.16 589.89,283.00
             596.43,311.39 613.39,334.65 638.00,350.31
             654.89,361.05 674.36,365.81 694.00,368.15
             741.21,373.80 803.45,365.15 833.51,324.00
             848.66,303.27 851.29,280.79 851.00,256.00
             850.91,248.65 848.81,238.14 846.85,231.00
             845.01,224.31 843.34,221.09 840.24,215.00
             835.99,206.64 832.61,202.61 826.00,196.00
             804.68,174.68 780.94,170.74 753.00,164.12
             753.00,164.12 712.00,154.13 712.00,154.13
             688.05,148.14 653.48,145.10 644.10,118.00
             641.75,111.20 641.92,105.05 642.00,98.00
             642.07,92.58 642.99,87.16 644.67,82.00
             655.26,49.43 689.28,40.64 720.00,41.00
             762.06,41.50 798.97,67.11 799.00,112.00
             799.00,112.00 842.00,112.00 842.00,112.00
             841.92,84.61 831.84,51.49 811.99,32.04
             791.80,12.26 762.50,3.79 735.00,1.04
             735.00,1.04 726.00,1.04 726.00,1.04
             726.00,1.04 716.00,0.00 716.00,0.00
             716.00,0.00 710.00,0.00 710.00,0.00
             710.00,0.00 700.00,0.91 700.00,0.91
             674.47,2.70 650.48,9.77 631.00,27.17
             611.52,44.57 598.04,73.76 598.00,100.00
             598.00,100.00 598.00,117.00 598.00,117.00
             598.33,144.89 616.64,169.55 641.00,181.73
             656.11,189.29 670.83,192.05 687.00,195.88
             687.00,195.88 747.00,210.86 747.00,210.86
             768.66,217.00 795.50,224.56 803.91,248.00
             807.08,256.84 807.10,263.84 807.00,273.00
             806.68,300.06 785.15,316.76 761.00,323.57
             754.10,325.52 747.08,326.46 740.00,327.42
             701.25,332.72 651.79,322.29 635.45,282.00
             631.11,271.28 629.01,258.54 629.00,247.00 Z
           M 308.00,1.00
           C 308.00,1.00 308.00,371.00 308.00,371.00
             308.00,371.00 566.00,371.00 566.00,371.00
             566.00,371.00 566.00,326.00 566.00,326.00
             566.00,326.00 356.00,326.00 356.00,326.00
             356.00,326.00 356.00,203.00 356.00,203.00
             356.00,203.00 547.00,203.00 547.00,203.00
             547.00,203.00 547.00,159.00 547.00,159.00
             547.00,159.00 356.00,159.00 356.00,159.00
             356.00,159.00 356.00,46.00 356.00,46.00
             356.00,46.00 563.00,46.00 563.00,46.00
             563.00,46.00 563.00,10.00 563.00,10.00
             562.98,2.27 563.13,1.06 555.00,1.00
             555.00,1.00 504.00,1.00 504.00,1.00
             504.00,1.00 308.00,1.00 308.00,1.00 Z
           M 0.00,3.00
           C 0.00,3.00 0.00,372.00 0.00,372.00
             0.00,372.00 48.00,372.00 48.00,372.00
             48.00,372.00 48.00,214.00 48.00,214.00
             48.00,214.00 166.00,214.00 166.00,214.00
             184.40,214.03 200.70,219.48 212.67,234.00
             221.04,244.15 223.98,262.10 224.04,275.00
             224.04,275.00 224.04,288.00 224.04,288.00
             224.04,288.00 225.00,300.00 225.00,300.00
             225.00,300.00 226.91,339.00 226.91,339.00
             226.91,339.00 228.09,363.00 228.09,363.00
             228.09,363.00 229.00,372.00 229.00,372.00
             229.00,372.00 279.00,372.00 279.00,372.00
             274.98,352.00 273.03,338.56 273.00,318.00
             273.00,318.00 272.00,295.00 272.00,295.00
             272.00,295.00 271.00,280.00 271.00,280.00
             271.00,280.00 269.96,260.00 269.96,260.00
             269.96,260.00 269.96,250.00 269.96,250.00
             268.59,237.03 264.82,220.61 257.07,210.00
             248.56,198.33 240.61,196.61 229.00,190.00
             259.53,175.11 276.61,143.28 277.00,110.00
             277.00,110.00 277.00,96.00 277.00,96.00
             276.95,64.59 262.83,34.78 235.00,18.87
             203.69,0.97 171.44,3.00 137.00,3.00
             137.00,3.00 0.00,3.00 0.00,3.00 Z
           M 882.00,5.00
           C 882.00,5.00 882.00,170.00 882.00,170.00
             882.00,170.00 882.00,253.00 882.00,253.00
             882.00,253.00 883.92,270.00 883.92,270.00
             889.50,303.78 905.76,332.46 935.00,351.30
             954.77,364.04 982.55,370.96 1006.00,371.00
             1043.60,371.06 1078.03,364.90 1107.00,338.83
             1130.83,317.38 1142.95,288.31 1146.72,257.00
             1148.78,239.84 1148.00,222.28 1148.00,205.00
             1148.00,205.00 1148.00,120.00 1148.00,120.00
             1148.00,120.00 1148.00,14.00 1148.00,14.00
             1148.00,11.70 1148.38,7.59 1146.40,6.02
             1144.51,4.52 1136.66,5.00 1134.00,5.00
             1134.00,5.00 1102.00,5.00 1102.00,5.00
             1102.00,5.00 1102.00,144.00 1102.00,144.00
             1102.00,144.00 1102.00,222.00 1102.00,222.00
             1102.00,222.00 1101.00,243.00 1101.00,243.00
             1100.76,263.35 1092.14,286.74 1078.71,302.00
             1055.63,328.23 1009.42,334.28 978.00,321.55
             966.66,316.95 957.27,310.32 949.30,301.00
             925.26,272.91 928.00,237.31 928.00,203.00
             928.00,203.00 928.00,14.00 928.00,14.00
             928.00,11.70 928.38,7.59 926.40,6.02
             924.51,4.52 916.66,5.00 914.00,5.00
             914.00,5.00 882.00,5.00 882.00,5.00 Z
           M 1180.00,7.00
           C 1180.00,7.00 1180.00,360.00 1180.00,360.00
             1180.02,368.64 1180.36,368.98 1189.00,369.00
             1189.00,369.00 1249.00,369.00 1249.00,369.00
             1249.00,369.00 1392.00,369.00 1392.00,369.00
             1394.30,369.00 1398.41,369.38 1399.98,367.40
             1401.44,365.55 1401.00,358.54 1401.00,356.00
             1401.00,356.00 1401.00,325.00 1401.00,325.00
             1401.00,325.00 1227.00,325.00 1227.00,325.00
             1227.00,325.00 1227.00,7.00 1227.00,7.00
             1227.00,7.00 1180.00,7.00 1180.00,7.00 Z
           M 1499.00,51.00
           C 1499.00,51.00 1499.00,366.00 1499.00,366.00
             1499.00,366.00 1546.00,366.00 1546.00,366.00
             1546.00,366.00 1546.00,51.00 1546.00,51.00
             1546.00,51.00 1661.00,51.00 1661.00,51.00
             1661.00,51.00 1661.00,7.00 1661.00,7.00
             1661.00,7.00 1393.00,7.00 1393.00,7.00
             1393.00,7.00 1385.02,8.60 1385.02,8.60
             1385.02,8.60 1384.00,16.00 1384.00,16.00
             1384.00,16.00 1384.00,42.00 1384.00,42.00
             1384.00,42.00 1385.02,49.40 1385.02,49.40
             1385.02,49.40 1391.00,51.00 1391.00,51.00
             1391.00,51.00 1411.00,51.00 1411.00,51.00
             1411.00,51.00 1499.00,51.00 1499.00,51.00 Z
           M 48.00,172.00
           C 48.00,172.00 48.00,47.00 48.00,47.00
             48.00,47.00 167.00,47.00 167.00,47.00
             184.84,47.03 203.56,51.07 215.82,65.00
             225.21,75.68 227.16,88.46 228.09,102.00
             228.09,102.00 228.82,109.00 228.82,109.00
             228.82,109.00 228.09,116.00 228.09,116.00
             226.84,133.91 222.45,149.15 207.00,160.21
             195.17,168.68 176.35,171.98 162.00,172.00
             162.00,172.00 48.00,172.00 48.00,172.00 Z" />
</svg>
