<?xml version="1.0" encoding="UTF-8" standalone="no"?>
<svg
     width="602" 
	 height="371"
     viewBox="0 0 602 371">
  <path id="Selection"
        fill="#000000" stroke="black" stroke-width="1"
        d="M 43.00,247.00
           C 43.00,247.00 1.00,247.00 1.00,247.00
             1.00,264.64 1.80,279.02 7.52,296.00
             15.83,320.71 35.59,341.82 58.00,354.57
             74.18,363.78 103.37,369.91 122.00,370.00
             122.00,370.00 146.00,370.00 146.00,370.00
             177.50,369.95 218.79,357.20 240.71,333.91
             260.68,312.70 266.33,287.24 266.00,259.00
             265.91,251.62 263.82,239.19 261.85,232.00
             254.49,205.14 236.12,187.63 211.00,176.87
             200.20,172.25 185.55,169.01 174.00,166.13
             174.00,166.13 127.00,154.63 127.00,154.63
             101.71,148.30 63.66,144.77 56.68,114.00
             55.42,108.44 55.30,102.62 55.83,97.00
             56.90,85.81 58.24,78.74 64.55,69.00
             76.92,49.89 103.08,41.03 125.00,41.00
             139.36,40.98 148.86,40.55 163.00,45.03
             193.75,54.76 213.98,79.34 214.00,112.00
             214.00,112.00 257.00,112.00 257.00,112.00
             254.64,82.84 248.24,52.14 225.96,31.17
             204.09,10.58 174.15,2.95 145.00,0.91
             145.00,0.91 133.00,0.00 133.00,0.00
             99.75,-0.05 68.09,4.97 43.00,29.04
             23.66,47.60 12.04,76.24 12.00,103.00
             12.00,103.00 12.00,115.00 12.00,115.00
             12.08,121.46 13.75,129.79 15.59,136.00
             17.37,142.00 19.76,147.67 23.06,153.00
             41.88,183.33 72.01,189.30 104.00,196.88
             104.00,196.88 161.00,211.00 161.00,211.00
             180.97,216.73 208.19,224.55 217.48,245.00
             221.91,254.74 222.12,263.59 222.00,274.00
             221.46,319.90 165.88,330.42 130.00,330.00
             99.20,329.64 65.73,315.71 51.37,287.00
             45.24,274.75 43.00,260.57 43.00,247.00 Z
           M 362.00,4.00
           C 362.00,4.00 362.00,369.00 362.00,369.00
             362.00,369.00 408.00,369.00 408.00,369.00
             408.00,369.00 408.00,203.00 408.00,203.00
             408.00,203.00 578.00,203.00 578.00,203.00
             578.00,203.00 578.00,159.00 578.00,159.00
             578.00,159.00 408.00,159.00 408.00,159.00
             408.00,159.00 408.00,57.00 408.00,57.00
             408.01,54.09 407.55,49.86 410.31,48.02
             412.53,46.55 420.10,47.00 423.00,47.00
             423.00,47.00 453.00,47.00 453.00,47.00
             453.00,47.00 601.00,47.00 601.00,47.00
             601.00,47.00 601.00,4.00 601.00,4.00
             601.00,4.00 362.00,4.00 362.00,4.00 Z" />
</svg>
