<?xml version="1.0" encoding="UTF-8" standalone="no"?>
<svg 
     width="605" 
	 height="381"
     viewBox="0 0 605 381">
  <path id="Selection"
        fill="#000000" stroke="black" stroke-width="1"
        d="M 464.00,102.00
           C 464.00,102.00 411.00,147.41 411.00,147.41
             411.00,147.41 397.00,159.27 397.00,159.27
             397.00,159.27 391.31,166.17 391.31,166.17
             391.31,166.17 393.85,177.00 393.85,177.00
             393.85,177.00 405.00,199.00 405.00,199.00
             412.48,197.65 425.55,190.73 433.00,187.31
             433.00,187.31 482.00,164.86 482.00,164.86
             482.00,164.86 574.00,122.69 574.00,122.69
             574.00,122.69 596.00,112.58 596.00,112.58
             598.66,111.41 602.93,109.93 603.69,106.79
             605.15,100.78 597.06,98.39 593.00,96.14
             593.00,96.14 555.00,75.75 555.00,75.75
             555.00,75.75 519.00,56.31 519.00,56.31
             519.00,56.31 455.00,22.22 455.00,22.22
             455.00,22.22 428.00,7.69 428.00,7.69
             425.30,6.23 417.65,1.55 415.04,1.28
             411.58,0.92 409.30,4.57 407.48,7.00
             403.51,12.28 393.47,27.29 395.64,34.00
             396.73,37.39 403.28,43.28 406.00,46.00
             406.00,46.00 429.00,68.91 429.00,68.91
             429.00,68.91 438.00,77.01 438.00,77.01
             444.72,83.57 457.25,97.17 464.00,102.00 Z
           M 157.00,237.00
           C 158.25,243.88 167.45,265.13 170.60,273.00
             179.35,294.88 186.38,314.72 198.81,335.00
             205.32,345.62 214.68,357.53 226.00,363.19
             255.04,377.72 286.50,349.30 304.96,330.00
             309.44,325.31 315.04,318.40 318.65,313.00
             324.56,304.13 331.38,291.99 330.96,281.00
             330.51,269.39 321.75,264.48 312.01,271.22
             304.06,276.73 297.19,290.80 285.00,298.90
             280.64,301.79 274.10,304.62 268.91,302.32
             260.20,298.47 251.48,283.41 247.25,275.00
             234.97,250.62 225.69,224.29 215.40,199.00
             215.40,199.00 206.00,176.00 206.00,176.00
             204.78,172.96 202.34,168.22 203.02,165.00
             203.71,161.77 212.51,148.71 214.81,145.00
             222.93,131.92 239.54,108.98 250.28,98.42
             255.53,93.27 263.41,86.35 271.00,85.37
             285.17,83.52 290.83,98.60 303.00,99.80
             311.63,100.66 320.35,94.31 325.53,88.00
             329.24,83.48 332.26,77.74 333.48,72.00
             336.18,59.37 332.45,40.27 322.91,31.18
             307.36,16.38 280.09,22.33 264.00,33.00
             245.80,45.07 230.38,66.93 218.33,85.00
             218.33,85.00 188.00,135.00 188.00,135.00
             174.61,106.58 164.68,73.41 147.95,47.00
             140.02,34.49 129.49,21.39 113.00,22.51
             87.03,24.28 59.51,54.54 44.65,74.00
             38.74,81.74 30.47,94.07 30.04,104.00
             29.57,114.81 37.75,123.37 45.99,120.26
             50.02,118.73 52.33,114.33 54.74,111.00
             59.16,104.91 67.26,96.06 73.00,91.33
             75.80,89.02 80.19,86.01 84.00,86.33
             92.09,87.00 100.02,102.23 103.00,109.00
             103.00,109.00 130.99,176.00 130.99,176.00
             130.99,176.00 137.85,193.00 137.85,193.00
             138.92,195.51 141.18,199.71 140.72,202.42
             140.21,205.36 129.83,222.29 127.60,226.00
             116.54,244.43 102.04,267.89 87.00,283.00
             79.66,290.38 71.39,299.68 60.00,298.90
             43.49,297.77 39.60,279.20 21.00,287.36
             18.66,288.39 16.03,290.07 14.04,291.68
             11.25,293.93 9.49,296.09 7.44,299.00
             -7.65,320.43 0.85,352.92 25.00,363.65
             39.02,369.88 55.00,366.87 68.00,359.69
             80.64,352.71 89.98,342.17 98.79,331.00
             113.71,312.07 125.83,290.91 137.72,270.00
             141.86,262.72 152.29,241.62 157.00,237.00 Z
           M 388.00,274.00
           C 388.00,274.00 388.00,276.00 388.00,276.00
             388.00,276.00 414.00,291.14 414.00,291.14
             414.00,291.14 529.00,353.26 529.00,353.26
             529.00,353.26 565.00,372.31 565.00,372.31
             568.25,374.07 577.84,379.81 581.00,380.14
             584.72,380.53 586.73,377.68 588.65,374.98
             591.93,370.39 596.66,362.11 599.24,357.00
             600.26,355.00 602.37,351.19 602.30,349.00
             602.13,344.12 592.53,337.20 589.00,333.91
             589.00,333.91 549.00,294.58 549.00,294.58
             549.00,294.58 536.01,282.00 536.01,282.00
             534.65,280.59 532.04,278.19 532.04,276.09
             532.04,274.02 534.57,272.19 536.01,271.00
             536.01,271.00 550.00,260.13 550.00,260.13
             550.00,260.13 589.00,230.13 589.00,230.13
             592.30,227.63 603.12,220.15 604.39,216.83
             605.50,213.92 603.73,208.90 602.81,206.00
             602.81,206.00 592.00,180.00 592.00,180.00
             585.18,181.23 574.74,186.66 568.00,189.70
             568.00,189.70 524.00,209.69 524.00,209.69
             478.43,230.56 432.34,250.57 388.00,274.00 Z" />
</svg>
