<?xml version="1.0" encoding="UTF-8" standalone="no"?>
<svg 
     width="243" 
	 height="342"
     viewBox="0 0 243 342">
  <path id="Selection"
        fill="#000000" stroke="black" stroke-width="1"
        d="M 0.00,259.00
           C 0.00,259.00 150.00,259.00 150.00,259.00
             150.00,259.00 150.00,342.00 150.00,342.00
             150.00,342.00 192.00,342.00 192.00,342.00
             192.00,342.00 192.00,259.00 192.00,259.00
             192.00,259.00 242.00,259.00 242.00,259.00
             242.00,259.00 242.00,222.00 242.00,222.00
             242.00,222.00 192.00,222.00 192.00,222.00
             192.00,222.00 192.00,0.00 192.00,0.00
             192.00,0.00 164.00,0.00 164.00,0.00
             162.18,0.00 158.95,-0.14 157.32,0.57
             154.40,1.85 147.90,11.92 145.63,15.00
             145.63,15.00 113.86,59.00 113.86,59.00
             113.86,59.00 29.42,176.00 29.42,176.00
             29.42,176.00 10.00,203.00 10.00,203.00
             3.49,212.13 0.02,213.48 0.00,225.00
             0.00,225.00 0.00,259.00 0.00,259.00 Z
           M 150.00,67.00
           C 150.00,67.00 150.00,222.00 150.00,222.00
             150.00,222.00 40.00,222.00 40.00,222.00
             40.00,222.00 74.98,171.00 74.98,171.00
             74.98,171.00 148.00,67.00 148.00,67.00
             148.00,67.00 150.00,67.00 150.00,67.00 Z" />
</svg>
