<?xml version="1.0" encoding="UTF-8" standalone="no"?>
<svg 
     width="235" 
	 height="344"
     viewBox="0 0 235 344">
  <path id="Selection"
        fill="#000000" stroke="black" stroke-width="1"
        d="M 39.00,0.00
           C 39.00,0.00 23.28,111.00 23.28,111.00
             23.28,111.00 16.27,161.00 16.27,161.00
             16.27,161.00 13.00,184.00 13.00,184.00
             13.00,184.00 43.00,185.00 43.00,185.00
             56.55,184.97 51.82,179.45 70.00,167.03
             85.29,156.57 98.58,152.79 117.00,153.00
             131.33,153.17 147.16,158.36 159.00,166.36
             178.24,179.35 188.96,202.08 189.00,225.00
             189.00,225.00 189.00,233.00 189.00,233.00
             188.96,260.05 173.41,287.50 149.00,299.73
             137.75,305.37 127.43,307.02 115.00,307.00
             80.35,306.95 48.03,287.01 45.00,250.00
             45.00,250.00 1.00,250.00 1.00,250.00
             1.09,259.42 3.70,269.11 6.67,278.00
             12.41,295.24 20.77,308.87 35.00,320.54
             53.87,336.01 82.82,343.96 107.00,344.00
             148.97,344.07 186.84,334.82 212.84,299.00
             219.91,289.26 224.25,279.34 228.00,268.00
             241.49,227.18 236.38,178.56 204.91,147.09
             187.66,129.84 156.66,115.29 132.00,115.00
             114.03,114.79 101.43,114.61 84.00,120.69
             72.97,124.54 66.60,128.60 57.00,135.00
             57.00,135.00 60.73,109.00 60.73,109.00
             60.73,109.00 71.00,42.00 71.00,42.00
             71.00,42.00 216.00,42.00 216.00,42.00
             216.00,42.00 216.00,0.00 216.00,0.00
             216.00,0.00 39.00,0.00 39.00,0.00 Z" />
</svg>
