<?xml version="1.0" encoding="UTF-8" standalone="no"?>
<svg 
     width="561" 
	 height="332"
     viewBox="0 0 561 332">
  <path id="Selection"
        fill="#000000" stroke="black" stroke-width="1"
        d="M 266.00,208.00
           C 266.00,208.00 227.00,208.00 227.00,208.00
             222.30,233.00 212.35,257.55 193.00,274.76
             163.53,301.15 110.79,300.20 81.00,274.76
             54.85,252.32 46.31,219.93 43.04,187.00
             43.04,187.00 43.04,177.00 43.04,177.00
             43.04,177.00 42.00,167.00 42.00,167.00
             42.00,167.00 42.00,160.00 42.00,160.00
             42.00,160.00 43.04,150.00 43.04,150.00
             43.04,150.00 43.04,142.00 43.04,142.00
             46.34,108.80 59.37,75.07 87.00,54.75
             119.31,31.00 172.52,31.45 201.96,60.09
             213.74,71.55 220.80,87.08 224.00,103.00
             224.00,103.00 263.00,103.00 263.00,103.00
             262.78,92.84 259.35,80.44 255.60,71.00
             244.42,42.83 221.39,19.92 193.00,9.06
             173.85,1.74 156.27,-0.03 136.00,0.00
             116.33,0.03 91.30,5.94 74.00,15.31
             65.06,20.15 57.64,25.59 50.00,32.29
             20.65,58.03 4.97,100.82 1.92,139.00
             1.92,139.00 1.00,151.00 1.00,151.00
             1.00,151.00 1.00,181.00 1.00,181.00
             1.11,189.67 3.65,207.24 5.40,216.00
             14.11,259.56 34.29,297.17 75.00,318.52
             116.29,340.16 176.66,335.31 214.00,307.52
             240.54,287.77 256.18,257.87 263.00,226.00
             264.30,219.91 265.71,214.26 266.00,208.00 Z
           M 344.00,1.00
           C 344.00,1.00 344.00,331.00 344.00,331.00
             344.00,331.00 386.00,331.00 386.00,331.00
             386.00,331.00 386.00,181.00 386.00,181.00
             386.00,181.00 540.00,181.00 540.00,181.00
             540.00,181.00 540.00,142.00 540.00,142.00
             540.00,142.00 386.00,142.00 386.00,142.00
             386.00,142.00 386.00,41.00 386.00,41.00
             386.00,41.00 561.00,41.00 561.00,41.00
             561.00,41.00 561.00,10.00 561.00,10.00
             561.00,10.00 559.40,2.02 559.40,2.02
             559.40,2.02 546.00,1.00 546.00,1.00
             546.00,1.00 511.00,1.00 511.00,1.00
             511.00,1.00 344.00,1.00 344.00,1.00 Z" />
</svg>
