<?xml version="1.0" encoding="UTF-8" standalone="no"?>
<svg
     width="910" 
	 height="371"
     viewBox="0 0 910 371">
  <path id="Selection"
        fill="#000000" stroke="black" stroke-width="1"
        d="M 546.00,113.00
           C 554.87,113.00 582.24,113.92 589.00,112.00
             589.00,112.00 584.35,80.00 584.35,80.00
             578.97,57.26 566.31,36.24 547.00,22.72
             526.82,8.59 502.27,2.69 478.00,0.91
             478.00,0.91 466.00,0.00 466.00,0.00
             436.75,-0.05 409.68,3.02 385.00,20.44
             358.12,39.40 343.38,72.57 343.00,105.00
             342.89,114.99 343.58,124.33 346.29,134.00
             348.21,140.85 350.53,146.87 354.21,153.00
             373.42,185.03 408.74,191.00 442.00,198.88
             442.00,198.88 483.00,208.87 483.00,208.87
             483.00,208.87 507.00,216.00 507.00,216.00
             529.71,223.58 548.99,232.76 552.72,259.00
             553.19,262.36 554.09,268.83 553.91,272.00
             553.56,278.15 551.87,286.30 549.55,292.00
             536.91,323.02 492.49,330.14 463.00,330.00
             435.04,329.87 403.96,319.04 387.89,295.00
             382.28,286.61 378.06,275.98 376.44,266.00
             375.98,263.16 375.04,249.93 373.98,248.60
             372.41,246.62 368.30,247.00 366.00,247.00
             366.00,247.00 340.00,247.00 340.00,247.00
             338.18,247.01 335.08,246.85 333.60,248.02
             331.65,249.56 331.96,253.73 332.01,256.00
             332.36,271.71 335.71,290.71 342.31,305.00
             347.13,315.46 353.86,324.66 361.83,332.91
             386.58,358.53 412.16,367.54 447.00,370.09
             447.00,370.09 457.00,371.00 457.00,371.00
             457.00,371.00 473.00,371.00 473.00,371.00
             473.00,371.00 485.00,370.09 485.00,370.09
             521.86,367.40 563.25,353.06 583.39,320.00
             587.37,313.45 591.07,305.35 593.28,298.00
             595.74,289.85 597.90,276.48 598.00,268.00
             598.12,257.05 597.09,245.63 594.37,235.00
             592.26,226.75 589.40,219.38 585.13,212.00
             566.29,179.47 528.82,171.09 495.00,163.58
             495.00,163.58 466.00,156.37 466.00,156.37
             466.00,156.37 437.00,149.37 437.00,149.37
             418.00,144.62 397.61,139.89 390.09,119.00
             388.78,115.36 387.31,107.86 387.09,104.00
             386.93,101.08 387.93,93.12 388.44,90.00
             394.07,55.31 428.40,41.37 460.00,41.00
             493.24,40.61 526.12,52.27 540.13,85.00
             543.74,93.45 545.26,103.87 546.00,113.00 Z
           M 652.00,1.00
           C 652.00,1.00 652.00,370.00 652.00,370.00
             652.00,370.00 910.00,370.00 910.00,370.00
             910.00,370.00 910.00,325.00 910.00,325.00
             910.00,325.00 699.00,325.00 699.00,325.00
             699.00,325.00 699.00,203.00 699.00,203.00
             699.00,203.00 891.00,203.00 891.00,203.00
             891.00,203.00 891.00,158.00 891.00,158.00
             891.00,158.00 699.00,158.00 699.00,158.00
             699.00,158.00 699.00,45.00 699.00,45.00
             699.00,45.00 907.00,45.00 907.00,45.00
             907.00,45.00 907.00,1.00 907.00,1.00
             907.00,1.00 652.00,1.00 652.00,1.00 Z
           M 4.06,7.02
           C 2.56,8.19 2.05,8.18 1.02,10.06
             -0.66,13.13 0.00,25.84 0.00,30.00
             0.00,30.00 0.00,94.00 0.00,94.00
             0.00,94.00 0.00,358.00 0.00,358.00
             0.01,360.77 -0.29,364.44 1.60,366.69
             4.62,370.28 18.20,369.00 23.00,369.00
             23.00,369.00 97.00,369.00 97.00,369.00
             107.34,368.98 124.64,366.27 135.00,364.20
             146.75,361.85 161.89,358.19 173.00,353.94
             190.58,347.21 214.98,331.55 227.83,317.96
             252.00,292.40 264.34,262.49 269.13,228.00
             269.13,228.00 271.00,210.00 271.00,210.00
             271.00,210.00 271.00,170.00 271.00,170.00
             270.99,163.94 270.13,157.99 269.27,152.00
             265.31,124.32 256.75,99.81 240.26,77.00
             227.23,58.98 201.28,36.60 181.00,27.31
             158.23,16.88 129.80,12.31 105.00,9.83
             105.00,9.83 57.00,7.00 57.00,7.00
             57.00,7.00 40.00,6.00 40.00,6.00
             32.30,5.99 10.02,4.97 4.06,7.02 Z
           M 42.00,331.00
           C 42.00,331.00 42.00,47.00 42.00,47.00
             42.00,47.00 92.00,47.00 92.00,47.00
             99.87,47.01 108.23,48.28 116.00,49.59
             145.14,54.48 167.14,63.15 190.00,82.44
             213.89,102.59 228.95,138.90 229.00,170.00
             229.00,170.00 229.00,210.00 229.00,210.00
             228.95,243.82 214.23,280.71 187.00,301.50
             145.71,333.02 91.20,331.00 42.00,331.00 Z" />
</svg>
