<?xml version="1.0" encoding="UTF-8" standalone="no"?>
<svg 
     width="515" 
	 height="373"
     viewBox="0 0 515 373">
  <path id="Selection"
        fill="#000000" stroke="black" stroke-width="1"
        d="M 0.00,372.00
           C 0.00,372.00 48.00,372.00 48.00,372.00
             48.00,372.00 48.00,204.00 48.00,204.00
             48.00,204.00 221.00,204.00 221.00,204.00
             221.00,204.00 221.00,159.00 221.00,159.00
             221.00,159.00 48.00,159.00 48.00,159.00
             48.00,159.00 48.00,45.00 48.00,45.00
             48.00,45.00 244.00,45.00 244.00,45.00
             244.00,45.00 244.00,0.00 244.00,0.00
             244.00,0.00 9.00,0.00 9.00,0.00
             7.01,0.00 3.19,-0.23 1.60,1.02
             -0.95,3.04 0.00,17.32 0.00,21.00
             0.00,21.00 0.00,87.00 0.00,87.00
             0.00,87.00 0.00,372.00 0.00,372.00 Z
           M 306.00,120.00
           C 306.00,120.00 348.00,120.00 348.00,120.00
             348.00,95.91 352.07,68.66 372.00,52.47
             388.16,39.34 416.98,36.21 436.00,44.34
             445.06,48.21 452.35,54.08 458.24,62.00
             469.05,76.54 469.20,87.90 469.00,105.00
             468.79,122.31 460.49,133.29 449.92,146.00
             449.92,146.00 412.80,188.00 412.80,188.00
             405.29,197.27 399.62,204.92 394.87,216.00
             386.82,234.79 386.00,255.89 386.00,276.00
             386.00,276.00 428.00,276.00 428.00,276.00
             428.00,253.56 428.79,234.17 442.21,215.00
             459.03,190.96 480.89,177.97 500.80,145.00
             507.01,134.71 513.85,118.11 514.00,106.00
             514.26,83.42 512.30,63.42 499.25,44.00
             484.93,22.70 463.90,9.48 439.00,4.21
             433.81,3.11 428.31,2.07 423.00,2.00
             423.00,2.00 405.00,2.00 405.00,2.00
             380.57,2.04 354.70,13.55 337.00,30.09
             311.32,54.08 306.00,86.50 306.00,120.00 Z
           M 385.00,321.00
           C 385.00,321.00 385.00,372.00 385.00,372.00
             385.00,372.00 431.00,372.00 431.00,372.00
             431.00,372.00 431.00,321.00 431.00,321.00
             431.00,321.00 385.00,321.00 385.00,321.00 Z" />
</svg>
