<?xml version="1.0" encoding="UTF-8" standalone="no"?>
<svg 
     width="721"
	 height="372"
     viewBox="0 0 721 372">
  <path id="Selection"
        fill="#000000" stroke="black" stroke-width="1"
        d="M 139.00,248.00
           C 139.00,248.00 96.00,248.00 96.00,248.00
             96.00,267.76 98.35,287.75 106.44,306.00
             115.59,326.63 136.20,346.61 156.00,357.11
             170.84,364.98 197.18,370.80 214.00,371.00
             214.00,371.00 229.00,371.96 229.00,371.96
             229.00,371.96 241.00,371.04 241.00,371.04
             274.91,369.56 311.17,361.05 335.72,335.83
             355.86,315.13 362.32,289.10 362.00,261.00
             361.90,252.43 359.93,241.26 357.57,233.00
             355.52,225.79 352.85,219.51 349.13,213.00
             331.87,182.83 301.24,174.52 270.00,167.12
             270.00,167.12 224.00,155.87 224.00,155.87
             224.00,155.87 200.00,149.88 200.00,149.88
             180.00,145.14 158.48,138.81 152.90,116.00
             150.94,107.98 150.98,104.00 151.84,96.00
             152.64,88.45 153.20,85.16 156.23,78.00
             168.91,48.10 203.01,41.66 232.00,42.00
             257.85,42.31 285.94,54.18 299.55,77.00
             306.49,88.64 308.92,100.67 310.00,114.00
             318.87,114.00 346.24,114.92 353.00,113.00
             353.00,113.00 348.35,81.00 348.35,81.00
             342.95,58.18 330.36,37.10 311.00,23.44
             290.23,8.78 257.27,1.04 232.00,1.00
             232.00,1.00 215.00,1.00 215.00,1.00
             194.68,1.03 170.10,7.68 153.00,18.70
             123.70,37.57 107.41,71.58 107.00,106.00
             106.89,116.05 107.68,125.27 110.43,135.00
             112.26,141.51 114.51,147.12 117.87,153.00
             134.78,182.55 163.69,189.30 194.00,196.87
             194.00,196.87 246.00,209.63 246.00,209.63
             265.72,214.56 297.59,222.51 309.40,240.00
             315.38,248.84 317.31,259.52 317.91,270.00
             318.10,273.36 317.29,278.59 316.72,282.00
             310.78,317.27 272.54,327.95 242.00,330.09
             242.00,330.09 229.00,331.00 229.00,331.00
             229.00,331.00 220.00,330.17 220.00,330.17
             212.83,329.47 206.05,328.88 199.00,327.11
             176.69,321.50 156.00,307.34 146.31,286.00
             140.94,274.17 139.00,260.89 139.00,248.00 Z
           M 681.00,317.00
           C 681.00,317.00 682.00,349.00 682.00,349.00
             682.00,349.00 683.00,368.00 683.00,368.00
             683.00,368.00 721.00,368.00 721.00,368.00
             721.00,368.00 721.00,173.00 721.00,173.00
             721.00,173.00 575.00,173.00 575.00,173.00
             575.00,173.00 575.00,214.00 575.00,214.00
             575.00,214.00 678.00,214.00 678.00,214.00
             678.00,239.78 674.77,266.43 659.25,288.00
             646.39,305.89 626.55,320.69 605.00,326.11
             597.95,327.88 591.17,328.47 584.00,329.17
             578.78,329.67 577.71,330.12 572.00,329.99
             572.00,329.99 563.00,329.09 563.00,329.09
             542.66,327.60 524.25,322.13 508.00,309.33
             470.29,279.62 462.48,224.01 463.00,179.00
             463.00,179.00 463.91,169.00 463.91,169.00
             466.45,132.05 476.12,98.91 503.00,72.00
             510.01,64.98 515.19,60.15 524.00,55.31
             558.00,36.63 606.86,39.32 638.00,62.90
             648.81,71.08 657.28,81.90 663.24,94.00
             666.83,101.27 669.86,108.94 671.00,117.00
             671.00,117.00 716.00,117.00 716.00,117.00
             716.00,117.00 711.57,96.00 711.57,96.00
             706.47,77.93 697.75,60.80 684.91,47.00
             663.34,23.81 636.89,9.82 606.00,3.60
             600.19,2.43 591.86,1.07 586.00,1.00
             586.00,1.00 565.00,1.00 565.00,1.00
             543.05,1.03 516.98,9.02 498.00,19.87
             472.02,34.72 448.84,61.90 436.31,89.00
             425.79,111.74 419.54,136.10 417.04,161.00
             417.04,161.00 417.04,171.00 417.04,171.00
             417.04,171.00 416.00,181.00 416.00,181.00
             416.00,181.00 416.00,188.00 416.00,188.00
             416.00,188.00 416.96,198.00 416.96,198.00
             416.96,198.00 416.96,209.00 416.96,209.00
             416.96,209.00 417.92,219.00 417.92,219.00
             420.26,248.30 429.31,277.14 445.05,302.00
             458.04,322.51 477.54,343.06 499.00,354.69
             537.10,375.34 597.34,376.56 636.00,356.74
             658.60,345.16 665.30,335.28 681.00,317.00 Z
           M 0.00,5.00
           C 0.00,5.00 0.00,370.00 0.00,370.00
             0.00,370.00 41.00,370.00 41.00,370.00
             42.99,370.00 46.81,370.23 48.40,368.98
             50.95,366.96 50.00,352.68 50.00,349.00
             50.00,349.00 50.00,285.00 50.00,285.00
             50.00,285.00 50.00,5.00 50.00,5.00
             50.00,5.00 0.00,5.00 0.00,5.00 Z" />
</svg>
