<?xml version="1.0" encoding="UTF-8" standalone="no"?>
<svg 
     width="235"
	 height="352"
     viewBox="0 0 235 352">
  <path id="Selection"
        fill="#000000" stroke="black" stroke-width="1"
        d="M 45.00,166.00
           C 45.00,130.53 55.32,82.31 82.04,57.17
             93.83,46.08 109.73,39.34 126.00,39.34
             126.00,39.34 133.00,39.98 133.00,39.98
             142.69,40.63 153.20,43.52 161.00,49.53
             175.19,60.46 181.56,74.92 185.00,92.00
             185.00,92.00 227.00,92.00 227.00,92.00
             225.15,69.15 218.53,48.24 202.83,31.00
             176.75,2.36 129.01,-4.73 93.00,5.43
             82.37,8.43 73.24,12.85 64.00,18.86
             28.16,42.17 11.38,89.59 4.75,130.00
             4.75,130.00 1.00,164.00 1.00,164.00
             1.00,164.00 1.00,205.00 1.00,205.00
             1.00,205.00 2.84,227.00 2.84,227.00
             6.97,265.62 19.95,306.03 52.00,330.50
             74.08,347.36 95.85,352.13 123.00,352.00
             139.32,351.92 162.73,347.55 177.00,339.56
             185.12,335.02 191.47,329.55 198.00,323.00
             219.66,301.28 233.63,273.06 234.00,242.00
             234.30,215.98 232.11,194.72 217.94,172.00
             191.91,130.30 133.02,115.06 88.00,131.44
             77.36,135.31 66.18,142.16 58.17,150.17
             58.17,150.17 45.00,166.00 45.00,166.00 Z
           M 119.00,163.32
           C 119.00,163.32 127.00,163.91 127.00,163.91
             147.08,165.31 161.42,170.87 174.53,187.00
             200.39,218.82 193.42,280.10 159.00,303.25
             148.06,310.61 136.86,312.71 124.00,313.68
             120.83,313.91 108.43,312.52 105.00,311.79
             73.32,305.06 51.38,276.06 51.00,244.00
             50.77,223.76 51.72,208.48 63.52,191.00
             73.65,175.99 89.32,167.21 107.00,164.44
             107.00,164.44 119.00,163.32 119.00,163.32 Z" />
</svg>
