<?xml version="1.0" encoding="UTF-8" standalone="no"?>
<svg 
     width="1145" 
	 height="374"
     viewBox="0 0 1145 374">
  <path id="Selection"
        fill="#000000" stroke="black" stroke-width="1"
        d="M 630.00,248.00
           C 630.00,248.00 588.00,248.00 588.00,248.00
             588.00,276.01 593.23,303.76 611.46,326.00
             638.06,358.44 667.96,367.35 708.00,370.09
             708.00,370.09 720.00,371.00 720.00,371.00
             735.75,371.02 753.70,369.18 769.00,365.37
             793.11,359.37 816.46,348.61 832.54,329.00
             845.16,313.61 852.97,290.89 853.00,271.00
             853.00,271.00 853.00,255.00 853.00,255.00
             852.92,248.07 850.92,238.75 849.12,232.00
             847.50,225.96 844.70,219.48 841.69,214.00
             823.24,180.40 790.00,173.18 756.00,165.12
             756.00,165.12 712.00,154.37 712.00,154.37
             688.94,148.61 654.82,144.71 645.55,119.00
             642.92,111.71 642.92,106.56 643.00,99.00
             643.45,60.71 678.42,41.41 713.00,41.00
             713.00,41.00 723.00,41.00 723.00,41.00
             753.67,41.05 784.63,56.49 796.55,86.00
             799.83,94.12 801.29,104.29 802.00,113.00
             802.00,113.00 844.00,113.00 844.00,113.00
             843.98,84.47 834.48,52.55 813.96,32.04
             801.83,19.91 785.33,11.99 769.00,7.29
             754.47,3.11 742.92,1.93 728.00,0.91
             728.00,0.91 716.00,0.00 716.00,0.00
             687.52,-0.04 657.15,6.34 635.00,25.30
             608.98,47.56 598.61,78.54 599.00,112.00
             599.09,119.13 600.63,128.13 602.58,135.00
             604.37,141.30 606.83,147.37 610.21,153.00
             630.51,186.84 671.89,192.56 707.00,200.88
             707.00,200.88 744.00,210.12 744.00,210.12
             771.11,217.27 805.69,226.81 808.93,260.00
             809.31,263.92 810.13,268.08 809.91,272.00
             809.41,280.76 806.78,291.65 801.90,299.00
             782.09,328.81 729.34,334.23 697.00,327.80
             688.43,326.10 679.85,323.55 672.00,319.63
             653.44,310.35 639.30,294.04 633.74,274.00
             633.74,274.00 630.00,248.00 630.00,248.00 Z
           M 306.00,4.00
           C 306.00,4.00 306.00,373.00 306.00,373.00
             306.00,373.00 564.00,373.00 564.00,373.00
             564.00,373.00 564.00,329.00 564.00,329.00
             564.00,329.00 353.00,329.00 353.00,329.00
             353.00,329.00 353.00,206.00 353.00,206.00
             353.00,206.00 500.00,206.00 500.00,206.00
             500.00,206.00 530.00,206.00 530.00,206.00
             532.52,206.00 540.84,206.31 542.69,205.40
             545.15,204.19 544.95,201.35 545.00,199.00
             545.00,199.00 545.00,170.00 545.00,170.00
             545.00,167.70 545.38,163.59 543.40,162.02
             541.51,160.52 533.66,161.00 531.00,161.00
             531.00,161.00 500.00,161.00 500.00,161.00
             500.00,161.00 353.00,161.00 353.00,161.00
             353.00,161.00 353.00,58.00 353.00,58.00
             353.01,55.09 352.55,50.86 355.31,49.02
             357.58,47.51 365.97,48.00 369.00,48.00
             369.00,48.00 401.00,48.00 401.00,48.00
             401.00,48.00 561.00,48.00 561.00,48.00
             561.00,48.00 561.00,4.00 561.00,4.00
             561.00,4.00 306.00,4.00 306.00,4.00 Z
           M 863.00,4.00
           C 863.00,4.00 863.00,48.00 863.00,48.00
             863.00,48.00 980.00,48.00 980.00,48.00
             980.00,48.00 980.00,369.00 980.00,369.00
             980.00,369.00 1027.00,369.00 1027.00,369.00
             1027.00,369.00 1027.00,48.00 1027.00,48.00
             1027.00,48.00 1144.00,48.00 1144.00,48.00
             1144.00,48.00 1144.00,4.00 1144.00,4.00
             1144.00,4.00 863.00,4.00 863.00,4.00 Z
           M 0.00,6.00
           C 0.00,6.00 0.00,49.00 0.00,49.00
             0.00,49.00 118.00,49.00 118.00,49.00
             118.00,49.00 118.00,371.00 118.00,371.00
             118.00,371.00 165.00,371.00 165.00,371.00
             165.00,371.00 165.00,49.00 165.00,49.00
             165.00,49.00 282.00,49.00 282.00,49.00
             282.00,49.00 282.00,6.00 282.00,6.00
             282.00,6.00 0.00,6.00 0.00,6.00 Z" />
</svg>
