<?xml version="1.0" encoding="UTF-8" standalone="no"?>
<svg 
     width="1418"
	 height="381"
     viewBox="0 0 1418 381">
  <path id="Selection"
        fill="#000000" stroke="black" stroke-width="1"
        d="M 716.00,102.00
           C 716.00,102.00 662.00,148.00 662.00,148.00
             662.00,148.00 648.00,160.00 648.00,160.00
             648.00,160.00 642.90,166.09 642.90,166.09
             642.90,166.09 645.20,176.00 645.20,176.00
             645.20,176.00 657.00,199.00 657.00,199.00
             663.87,197.72 679.74,189.63 687.00,186.31
             687.00,186.31 735.00,164.26 735.00,164.26
             735.00,164.26 778.00,144.69 778.00,144.69
             778.00,144.69 825.00,123.00 825.00,123.00
             825.00,123.00 848.00,112.42 848.00,112.42
             850.71,111.24 854.90,110.05 855.69,106.79
             857.15,100.78 849.09,98.38 845.00,96.22
             845.00,96.22 807.00,75.75 807.00,75.75
             807.00,75.75 784.00,63.31 784.00,63.31
             784.00,63.31 707.00,22.22 707.00,22.22
             707.00,22.22 680.00,7.69 680.00,7.69
             677.28,6.22 669.66,1.54 667.01,1.28
             662.01,0.77 655.73,12.08 653.40,16.00
             651.00,20.04 646.39,28.23 647.35,33.00
             648.16,37.01 654.07,42.07 657.00,45.00
             657.00,45.00 680.00,68.00 680.00,68.00
             680.00,68.00 716.00,102.00 716.00,102.00 Z
           M 0.00,3.00
           C 0.00,3.00 0.00,372.00 0.00,372.00
             0.00,372.00 48.00,372.00 48.00,372.00
             48.00,372.00 48.00,214.00 48.00,214.00
             48.00,214.00 165.00,214.00 165.00,214.00
             180.56,214.19 197.80,218.59 208.91,230.04
             220.59,242.08 223.97,260.76 224.04,277.00
             224.04,277.00 224.04,294.00 224.04,294.00
             224.04,294.00 225.00,306.00 225.00,306.00
             225.00,306.00 226.10,327.00 226.10,327.00
             226.10,327.00 226.10,337.00 226.10,337.00
             226.10,337.00 227.09,351.00 227.09,351.00
             227.09,351.00 227.99,360.00 227.99,360.00
             228.05,362.63 227.58,368.41 229.17,370.43
             230.74,372.41 234.70,372.00 237.00,372.00
             237.00,372.00 279.00,372.00 279.00,372.00
             274.80,357.49 273.02,338.12 273.00,323.00
             273.00,323.00 272.00,307.00 272.00,307.00
             272.00,307.00 271.00,277.00 271.00,277.00
             271.00,277.00 270.00,257.00 270.00,257.00
             269.80,240.31 264.54,217.43 252.71,205.17
             246.46,198.69 237.43,193.94 229.00,191.00
             244.29,179.20 255.87,173.38 265.68,155.00
             281.93,124.52 281.12,71.71 261.23,43.00
             251.46,28.90 238.57,20.08 223.00,13.43
             193.89,0.98 162.86,3.00 132.00,3.00
             132.00,3.00 0.00,3.00 0.00,3.00 Z
           M 972.00,12.00
           C 972.00,12.00 972.00,373.00 972.00,373.00
             972.00,373.00 1019.00,373.00 1019.00,373.00
             1019.00,373.00 1019.00,12.00 1019.00,12.00
             1019.00,12.00 972.00,12.00 972.00,12.00 Z
           M 48.00,172.00
           C 48.00,172.00 48.00,47.00 48.00,47.00
             48.00,47.00 163.00,47.00 163.00,47.00
             163.00,47.00 174.00,48.06 174.00,48.06
             174.00,48.06 182.00,48.06 182.00,48.06
             193.37,49.77 205.86,54.70 213.91,63.04
             222.74,72.19 227.85,88.41 228.00,101.00
             228.26,123.65 227.41,145.60 207.00,160.21
             189.45,172.78 167.46,172.00 147.00,172.00
             147.00,172.00 48.00,172.00 48.00,172.00 Z
           M 541.00,291.00
           C 534.57,289.17 517.57,289.98 510.00,290.00
             507.96,290.00 504.24,289.76 502.58,291.02
             500.94,292.27 500.63,295.12 500.08,297.00
             499.06,300.50 497.45,303.81 495.69,307.00
             491.81,314.00 486.17,319.89 480.00,324.91
             457.20,343.41 419.22,343.19 397.01,323.70
             388.70,316.41 383.47,306.32 380.00,296.00
             376.01,284.12 375.00,271.45 375.00,259.00
             375.00,259.00 535.00,259.00 535.00,259.00
             536.99,259.00 540.81,259.23 542.40,257.98
             544.10,256.64 543.96,253.95 544.00,252.00
             544.00,252.00 542.96,239.00 542.96,239.00
             542.96,239.00 542.96,231.00 542.96,231.00
             540.15,202.84 533.32,174.28 516.57,151.00
             509.28,140.86 498.22,130.89 487.00,125.27
             460.03,111.75 420.96,113.54 394.00,126.32
             386.61,129.82 377.01,136.64 371.01,142.17
             349.50,162.01 338.80,192.70 334.87,221.00
             334.87,221.00 333.00,239.00 333.00,239.00
             333.00,239.00 333.00,261.00 333.00,261.00
             333.01,267.06 333.87,273.01 334.73,279.00
             338.94,308.43 351.13,334.13 374.00,353.70
             387.45,365.21 410.24,373.79 428.00,374.00
             458.12,374.35 481.79,373.45 506.00,352.70
             521.25,339.64 531.94,322.05 537.97,303.00
             537.97,303.00 541.00,291.00 541.00,291.00 Z
           M 1141.00,158.00
           C 1141.00,158.00 1140.00,123.00 1140.00,123.00
             1140.00,123.00 1103.00,123.00 1103.00,123.00
             1103.00,123.00 1103.00,370.00 1103.00,370.00
             1103.00,370.00 1134.00,370.00 1134.00,370.00
             1136.30,370.00 1140.41,370.38 1141.98,368.40
             1143.48,366.51 1143.00,358.66 1143.00,356.00
             1143.00,356.00 1143.00,324.00 1143.00,324.00
             1143.00,324.00 1143.00,247.00 1143.00,247.00
             1143.00,223.02 1142.33,201.01 1156.52,180.00
             1161.68,172.36 1169.95,164.41 1178.00,159.87
             1193.06,151.39 1215.82,149.82 1228.54,163.29
             1237.75,173.05 1238.95,182.47 1240.17,195.00
             1240.17,195.00 1241.00,204.00 1241.00,204.00
             1241.00,204.00 1241.00,280.00 1241.00,280.00
             1241.00,280.00 1241.00,370.00 1241.00,370.00
             1241.00,370.00 1280.00,370.00 1280.00,370.00
             1280.00,370.00 1280.00,221.00 1280.00,221.00
             1280.04,195.43 1292.87,166.38 1318.00,156.46
             1322.77,154.58 1328.88,153.71 1334.00,153.32
             1336.64,153.12 1341.23,153.79 1344.00,154.16
             1370.86,157.72 1377.96,185.03 1378.00,208.00
             1378.00,208.00 1378.00,370.00 1378.00,370.00
             1378.00,370.00 1409.00,370.00 1409.00,370.00
             1410.99,370.00 1414.81,370.23 1416.40,368.98
             1418.95,366.96 1418.00,352.68 1418.00,349.00
             1418.00,349.00 1418.00,285.00 1418.00,285.00
             1418.00,285.00 1418.00,219.00 1418.00,219.00
             1418.00,200.30 1418.83,184.35 1413.57,166.00
             1406.61,141.70 1389.62,124.54 1365.00,118.37
             1359.68,117.04 1355.53,116.07 1350.00,116.00
             1335.61,115.84 1325.59,116.27 1312.00,122.01
             1291.36,130.74 1284.92,145.71 1273.00,155.00
             1270.94,149.38 1267.66,143.72 1263.98,139.00
             1252.63,124.45 1235.47,116.22 1217.00,116.00
             1217.00,116.00 1208.00,116.00 1208.00,116.00
             1181.19,116.04 1152.77,133.98 1141.00,158.00 Z
           M 503.00,226.00
           C 503.00,226.00 375.00,226.00 375.00,226.00
             375.00,203.56 383.05,183.37 400.00,168.17
             410.56,158.70 424.74,153.08 439.00,153.08
             439.00,153.08 447.00,153.92 447.00,153.92
             460.10,154.96 472.11,159.05 481.83,168.30
             496.15,181.91 502.94,206.68 503.00,226.00 Z
           M 640.00,274.00
           C 640.00,274.00 640.00,276.00 640.00,276.00
             640.00,276.00 673.00,295.14 673.00,295.14
             673.00,295.14 781.00,353.26 781.00,353.26
             781.00,353.26 817.00,372.31 817.00,372.31
             820.12,374.00 830.00,379.95 833.00,380.05
             836.22,380.16 838.65,377.30 840.47,375.00
             844.06,370.45 848.10,362.31 850.75,357.00
             851.69,355.13 853.99,350.94 854.05,349.00
             854.20,344.54 842.51,335.51 839.00,332.00
             839.00,332.00 809.00,302.04 809.00,302.04
             809.00,302.04 797.00,291.00 797.00,291.00
             794.44,288.45 784.04,279.15 784.04,276.04
             784.04,273.87 786.50,272.11 788.01,270.88
             788.01,270.88 801.00,260.79 801.00,260.79
             801.00,260.79 841.00,230.00 841.00,230.00
             844.27,227.43 855.18,219.98 856.39,216.71
             857.37,214.06 855.51,208.67 854.66,206.00
             854.66,206.00 844.00,180.00 844.00,180.00
             836.60,181.16 827.99,186.03 821.00,189.14
             821.00,189.14 779.00,208.14 779.00,208.14
             779.00,208.14 706.00,241.69 706.00,241.69
             683.81,251.88 661.17,261.81 640.00,274.00 Z" />
</svg>
