<?xml version="1.0" encoding="UTF-8" standalone="no"?>
<svg 
     width="340"
	 height="87"
     viewBox="0 0 340 87">
  <path id="Selection"
        fill="#000000" stroke="black" stroke-width="1"
        d="M 6.02,1.70
           C 4.34,2.51 3.11,2.85 1.99,4.53
             0.38,6.97 1.00,17.60 1.00,21.00
             1.00,21.00 1.00,75.00 1.00,75.00
             1.02,84.80 3.25,85.95 13.00,86.00
             13.00,86.00 76.00,86.00 76.00,86.00
             76.00,86.00 325.00,86.00 325.00,86.00
             334.91,85.98 338.98,85.66 339.00,75.00
             339.00,75.00 339.00,12.00 339.00,12.00
             338.98,2.77 336.46,1.13 327.00,1.00
             327.00,1.00 262.00,1.00 262.00,1.00
             262.00,1.00 89.00,1.00 89.00,1.00
             89.00,1.00 35.00,1.00 35.00,1.00
             28.13,1.00 11.79,0.39 6.02,1.70 Z" />
</svg>
