<?xml version="1.0" encoding="UTF-8" standalone="no"?>
<svg 
     width="876" 
	 height="401"
     viewBox="0 0 876 401">
  <path id="Selection"
        fill="#000000" stroke="black" stroke-width="1"
        d="M 331.00,400.00
           C 331.00,400.00 372.00,400.00 372.00,400.00
             374.28,400.00 377.65,400.22 379.61,398.98
             382.94,396.86 389.54,382.24 391.78,378.00
             391.78,378.00 429.26,307.00 429.26,307.00
             429.26,307.00 452.69,263.00 452.69,263.00
             452.69,263.00 490.69,191.00 490.69,191.00
             490.69,191.00 535.31,106.00 535.31,106.00
             535.31,106.00 572.26,36.00 572.26,36.00
             576.33,28.11 588.00,8.01 590.00,1.00
             590.00,1.00 549.00,1.00 549.00,1.00
             549.00,1.00 541.39,2.02 541.39,2.02
             541.39,2.02 536.74,9.00 536.74,9.00
             536.74,9.00 529.25,23.00 529.25,23.00
             529.25,23.00 491.75,94.00 491.75,94.00
             491.75,94.00 446.78,179.00 446.78,179.00
             446.78,179.00 383.69,299.00 383.69,299.00
             383.69,299.00 346.74,369.00 346.74,369.00
             346.74,369.00 331.00,400.00 331.00,400.00 Z
           M 653.00,263.00
           C 653.00,263.00 611.00,263.00 611.00,263.00
             611.00,278.60 611.04,288.57 615.15,304.00
             622.15,330.25 640.73,353.68 664.00,367.55
             681.02,377.70 708.17,384.76 728.00,385.00
             728.00,385.00 734.00,385.00 734.00,385.00
             734.00,385.00 745.00,385.92 745.00,385.92
             745.00,385.92 756.00,385.00 756.00,385.00
             787.61,384.63 826.12,373.70 848.91,350.91
             869.07,330.75 876.32,303.80 876.00,276.00
             875.90,268.14 873.94,255.63 871.85,248.00
             869.88,240.82 867.78,235.51 864.14,229.00
             844.70,194.23 807.66,186.49 772.00,178.58
             772.00,178.58 740.00,170.65 740.00,170.65
             740.00,170.65 714.00,164.37 714.00,164.37
             693.29,159.19 671.91,152.98 666.51,129.00
             664.99,122.26 664.76,116.81 665.73,110.00
             667.16,99.98 668.92,92.69 674.55,84.00
             687.49,64.01 715.30,56.04 738.00,56.00
             746.83,55.99 753.18,56.04 762.00,57.61
             789.28,62.48 812.88,79.79 820.96,107.00
             822.97,113.74 823.98,120.99 824.00,128.00
             832.87,128.00 860.24,128.92 867.00,127.00
             865.57,121.10 866.33,121.21 865.83,116.00
             865.83,116.00 862.58,96.00 862.58,96.00
             857.15,71.74 843.08,49.25 822.00,35.70
             800.27,21.73 775.20,17.64 750.00,15.91
             750.00,15.91 735.00,15.00 735.00,15.00
             735.00,15.00 725.00,15.91 725.00,15.91
             690.23,18.30 660.07,30.12 639.75,60.00
             633.51,69.17 630.77,75.63 627.33,86.00
             624.67,94.01 622.10,106.59 622.00,115.00
             621.85,127.81 621.32,137.48 625.04,150.00
             626.85,156.12 629.28,162.60 632.70,168.00
             652.71,199.65 683.53,204.95 717.00,212.88
             717.00,212.88 753.00,221.65 753.00,221.65
             771.96,226.00 806.44,235.17 819.83,249.09
             828.14,257.73 831.86,270.21 832.00,282.00
             832.09,290.34 831.79,297.00 828.91,305.00
             818.51,333.90 778.81,344.96 751.00,345.00
             751.00,345.00 737.00,345.00 737.00,345.00
             710.08,344.68 678.82,331.57 664.46,308.00
             655.83,293.83 653.00,279.38 653.00,263.00 Z
           M 0.00,17.00
           C 0.00,17.00 0.00,386.00 0.00,386.00
             0.00,386.00 48.00,386.00 48.00,386.00
             48.00,386.00 48.00,228.00 48.00,228.00
             48.00,228.00 168.00,228.00 168.00,228.00
             182.41,228.02 198.43,232.78 208.83,243.17
             219.24,253.59 223.83,270.58 224.00,285.00
             224.00,285.00 225.00,320.00 225.00,320.00
             225.00,320.00 226.00,335.00 226.00,335.00
             226.00,335.00 228.00,366.00 228.00,366.00
             228.00,366.00 228.00,375.00 228.00,375.00
             228.00,375.00 229.00,386.00 229.00,386.00
             229.00,386.00 279.00,386.00 279.00,386.00
             275.54,374.07 273.02,356.40 273.00,344.00
             273.00,344.00 272.00,323.00 272.00,323.00
             272.00,323.00 271.00,294.00 271.00,294.00
             271.00,294.00 270.00,274.00 270.00,274.00
             269.97,255.74 265.20,231.42 251.83,218.17
             246.08,212.48 236.62,207.66 229.00,205.00
             243.91,192.39 254.15,189.20 264.69,170.00
             281.65,139.11 281.56,86.38 261.23,57.00
             250.51,41.51 235.36,31.96 218.00,25.42
             190.27,14.99 160.05,17.00 131.00,17.00
             131.00,17.00 0.00,17.00 0.00,17.00 Z
           M 48.00,186.00
           C 48.00,186.00 48.00,61.00 48.00,61.00
             48.00,61.00 170.00,61.00 170.00,61.00
             185.22,61.02 202.62,65.01 213.56,76.29
             225.04,88.12 228.62,105.04 228.99,121.00
             229.10,125.90 228.62,127.46 228.17,132.00
             226.52,148.44 222.01,163.41 208.00,173.71
             190.14,186.84 167.97,186.00 147.00,186.00
             147.00,186.00 48.00,186.00 48.00,186.00 Z" />
</svg>
