<?xml version="1.0" encoding="UTF-8" standalone="no"?>
<svg 
     width="749" 
	 height="361"
     viewBox="0 0 749 361">
  <path id="Selection"
        fill="#000000" stroke="black" stroke-width="1"
        d="M 225.00,361.00
           C 225.00,361.00 261.00,361.00 261.00,361.00
             261.00,361.00 268.79,359.98 268.79,359.98
             268.79,359.98 279.58,342.00 279.58,342.00
             279.58,342.00 295.26,312.00 295.26,312.00
             295.26,312.00 313.26,278.00 313.26,278.00
             313.26,278.00 414.26,87.00 414.26,87.00
             414.26,87.00 443.31,32.00 443.31,32.00
             443.31,32.00 459.00,1.00 459.00,1.00
             459.00,1.00 423.00,1.00 423.00,1.00
             410.95,1.02 413.09,4.91 404.58,20.00
             404.58,20.00 388.22,51.00 388.22,51.00
             388.22,51.00 370.75,84.00 370.75,84.00
             370.75,84.00 338.31,145.00 338.31,145.00
             338.31,145.00 313.69,192.00 313.69,192.00
             313.69,192.00 268.74,277.00 268.74,277.00
             268.74,277.00 239.69,332.00 239.69,332.00
             236.30,338.26 226.64,355.25 225.00,361.00 Z
           M 1.00,11.00
           C 1.00,11.00 1.00,348.00 1.00,348.00
             1.00,348.00 44.00,348.00 44.00,348.00
             44.00,348.00 44.00,206.00 44.00,206.00
             44.00,206.00 122.00,206.00 122.00,206.00
             155.36,206.00 186.30,206.55 211.91,180.91
             227.87,164.93 238.73,137.59 239.00,115.00
             239.00,115.00 239.00,99.00 239.00,99.00
             238.97,77.27 229.55,53.86 214.58,38.17
             197.01,19.77 171.09,11.12 146.00,11.00
             146.00,11.00 1.00,11.00 1.00,11.00 Z
           M 497.00,14.00
           C 497.00,14.00 497.00,347.00 497.00,347.00
             497.00,347.00 540.00,347.00 540.00,347.00
             540.00,347.00 540.00,204.00 540.00,204.00
             540.00,204.00 646.00,204.00 646.00,204.00
             659.84,204.17 675.81,208.14 685.83,218.17
             700.51,232.87 699.97,256.73 700.00,276.00
             700.00,276.00 701.00,293.00 701.00,293.00
             701.00,293.00 703.00,326.00 703.00,326.00
             703.00,326.00 703.00,335.00 703.00,335.00
             703.00,335.00 704.00,347.00 704.00,347.00
             704.00,347.00 749.00,347.00 749.00,347.00
             749.00,347.00 745.29,328.00 745.29,328.00
             745.29,328.00 744.00,309.00 744.00,309.00
             744.00,309.00 743.00,287.00 743.00,287.00
             743.00,287.00 742.04,275.00 742.04,275.00
             742.04,275.00 742.04,261.00 742.04,261.00
             742.04,261.00 741.00,248.00 741.00,248.00
             740.68,220.46 734.04,192.57 704.00,184.00
             704.00,184.00 704.00,182.00 704.00,182.00
             716.34,177.44 730.86,162.47 737.10,151.00
             738.98,147.54 741.07,141.81 742.33,138.00
             744.76,130.63 746.91,119.74 747.00,112.00
             747.00,112.00 747.00,97.00 747.00,97.00
             746.96,70.19 735.02,44.68 712.00,30.23
             684.74,13.11 652.83,14.00 622.00,14.00
             622.00,14.00 497.00,14.00 497.00,14.00 Z
           M 44.00,167.00
           C 44.00,167.00 44.00,50.00 44.00,50.00
             44.00,50.00 119.00,50.00 119.00,50.00
             135.70,50.00 154.93,49.70 170.00,57.90
             192.58,70.19 197.40,95.48 194.13,119.00
             193.15,126.05 191.52,133.68 188.10,140.00
             183.60,148.32 177.21,154.50 169.00,159.13
             153.95,167.61 135.69,167.00 119.00,167.00
             119.00,167.00 44.00,167.00 44.00,167.00 Z
           M 541.00,167.00
           C 541.00,167.00 541.00,54.00 541.00,54.00
             541.00,54.00 652.00,54.00 652.00,54.00
             665.04,54.02 680.33,57.69 689.83,67.17
             700.24,77.57 703.83,93.71 704.00,108.00
             704.20,125.73 699.67,144.17 685.00,155.47
             673.92,164.01 655.72,166.84 642.00,167.00
             642.00,167.00 541.00,167.00 541.00,167.00 Z" />
</svg>
