<?xml version="1.0" encoding="UTF-8" standalone="no"?>
<svg 
     width="804"
	 height="338"
     viewBox="0 0 804 338">
  <path id="Selection"
        fill="@000000" stroke="black" stroke-width="1"
        d="M 0.00,337.00
           C 0.00,337.00 44.00,337.00 44.00,337.00
             44.00,337.00 44.00,195.00 44.00,195.00
             44.00,195.00 123.00,195.00 123.00,195.00
             123.00,195.00 150.00,195.00 150.00,195.00
             173.11,194.96 195.66,186.45 212.00,170.00
             247.63,134.11 250.24,62.46 213.91,26.09
             195.89,8.04 170.08,0.04 145.00,0.00
             145.00,0.00 9.00,0.00 9.00,0.00
             7.01,0.00 3.19,-0.23 1.60,1.02
             -0.92,3.01 0.00,15.52 0.00,19.00
             0.00,19.00 0.00,78.00 0.00,78.00
             0.00,78.00 0.00,337.00 0.00,337.00 Z
           M 570.00,2.00
           C 570.00,2.00 570.00,335.00 570.00,335.00
             570.00,335.00 804.00,335.00 804.00,335.00
             804.00,335.00 804.00,295.00 804.00,295.00
             804.00,295.00 613.00,295.00 613.00,295.00
             613.00,295.00 613.00,184.00 613.00,184.00
             613.00,184.00 786.00,184.00 786.00,184.00
             786.00,184.00 786.00,144.00 786.00,144.00
             786.00,144.00 613.00,144.00 613.00,144.00
             613.00,144.00 613.00,42.00 613.00,42.00
             613.00,42.00 801.00,42.00 801.00,42.00
             801.00,42.00 801.00,2.00 801.00,2.00
             801.00,2.00 570.00,2.00 570.00,2.00 Z
           M 316.00,226.00
           C 316.00,226.00 286.00,226.00 286.00,226.00
             284.01,226.00 280.19,225.77 278.60,227.02
             276.73,228.50 276.98,231.88 277.17,234.00
             277.17,234.00 279.00,252.00 279.00,252.00
             282.67,278.55 295.97,299.02 317.00,315.34
             338.09,331.70 360.26,335.33 386.00,337.09
             386.00,337.09 401.00,338.00 401.00,338.00
             401.00,338.00 411.00,336.96 411.00,336.96
             411.00,336.96 419.00,336.96 419.00,336.96
             448.47,334.01 480.61,322.96 499.48,299.00
             510.15,285.46 516.97,266.26 517.00,249.00
             517.00,249.00 517.00,235.00 517.00,235.00
             516.99,227.54 515.68,219.16 513.56,212.00
             502.36,174.14 472.81,162.37 438.00,154.12
             438.00,154.12 384.00,140.87 384.00,140.87
             384.00,140.87 355.00,133.31 355.00,133.31
             334.30,125.77 324.64,109.62 327.73,88.00
             328.55,82.27 329.45,77.34 331.90,72.00
             341.91,50.19 365.70,41.97 388.00,40.96
             388.00,40.96 396.00,40.18 396.00,40.18
             396.00,40.18 403.00,40.91 403.00,40.91
             431.90,42.93 458.40,56.42 467.28,86.00
             469.45,93.24 469.99,97.50 470.00,105.00
             470.00,105.00 509.00,105.00 509.00,105.00
             508.98,79.93 499.85,48.61 480.96,31.29
             458.95,11.10 432.70,5.88 404.00,3.91
             404.00,3.91 390.00,3.00 390.00,3.00
             390.00,3.00 380.00,3.91 380.00,3.91
             338.66,6.80 305.06,26.83 292.03,68.00
             289.09,77.27 286.43,95.37 287.09,105.00
             287.76,114.89 289.69,124.79 293.45,134.00
             306.26,165.34 337.71,173.14 367.00,180.37
             367.00,180.37 413.00,191.63 413.00,191.63
             428.52,195.51 454.63,202.80 465.91,214.09
             469.70,217.89 473.14,223.93 474.90,229.00
             477.46,236.39 477.09,244.29 477.00,252.00
             476.90,260.02 474.72,266.35 470.25,273.00
             455.14,295.48 421.31,301.29 396.00,301.00
             363.81,300.62 331.47,286.03 320.09,254.00
             317.02,245.38 316.00,235.10 316.00,226.00 Z
           M 44.00,156.00
           C 44.00,156.00 44.00,40.00 44.00,40.00
             44.00,40.00 138.00,40.00 138.00,40.00
             152.82,40.02 171.48,44.84 181.82,56.04
             197.96,73.52 198.54,109.76 187.68,130.00
             184.91,135.16 180.50,139.96 176.00,143.67
             165.81,152.08 148.02,155.84 135.00,156.00
             135.00,156.00 44.00,156.00 44.00,156.00 Z" />
</svg>
