<?xml version="1.0" encoding="UTF-8" standalone="no"?>
<svg 
     width="903"
	 height="370"
     viewBox="0 0 903 370">
  <path id="Selection"
        fill="#000000" stroke="black" stroke-width="1"
        d="M 0.00,1.00
           C 0.00,1.00 0.00,370.00 0.00,370.00
             0.00,370.00 48.00,370.00 48.00,370.00
             48.00,370.00 48.00,212.00 48.00,212.00
             48.00,212.00 151.00,212.00 151.00,212.00
             171.56,212.00 191.57,210.87 207.96,226.17
             218.46,235.97 223.83,252.88 224.04,267.00
             224.04,267.00 224.04,278.00 224.04,278.00
             224.04,278.00 225.04,290.00 225.04,290.00
             225.04,290.00 225.04,305.00 225.04,305.00
             225.04,305.00 226.00,317.00 226.00,317.00
             226.00,317.00 227.00,332.00 227.00,332.00
             227.00,332.00 227.00,341.00 227.00,341.00
             227.00,341.00 229.00,370.00 229.00,370.00
             229.00,370.00 279.00,370.00 279.00,370.00
             274.70,355.12 273.02,335.50 273.00,320.00
             273.00,320.00 272.00,303.00 272.00,303.00
             272.00,303.00 271.00,272.00 271.00,272.00
             271.00,272.00 270.00,259.00 270.00,259.00
             269.65,229.07 261.45,198.25 229.00,189.00
             229.00,189.00 241.00,180.26 241.00,180.26
             251.40,172.73 260.08,163.38 266.11,152.00
             272.98,139.05 276.98,118.64 277.00,104.00
             277.04,80.25 273.47,56.25 258.33,37.00
             247.22,22.88 234.46,15.61 218.00,9.42
             190.26,-1.01 160.07,1.00 131.00,1.00
             131.00,1.00 0.00,1.00 0.00,1.00 Z
           M 306.00,3.00
           C 306.00,3.00 306.00,47.00 306.00,47.00
             306.00,47.00 424.00,47.00 424.00,47.00
             424.00,47.00 424.00,369.00 424.00,369.00
             424.00,369.00 470.00,369.00 470.00,369.00
             470.00,369.00 470.00,47.00 470.00,47.00
             470.00,47.00 588.00,47.00 588.00,47.00
             588.00,47.00 588.00,12.00 588.00,12.00
             587.98,3.36 587.64,3.02 579.00,3.00
             579.00,3.00 522.00,3.00 522.00,3.00
             522.00,3.00 306.00,3.00 306.00,3.00 Z
           M 629.00,5.00
           C 629.00,5.00 629.00,369.00 629.00,369.00
             629.00,369.00 674.00,369.00 674.00,369.00
             674.00,369.00 674.00,75.00 674.00,75.00
             679.18,81.32 685.92,93.53 690.40,101.00
             690.40,101.00 718.40,148.00 718.40,148.00
             718.40,148.00 808.00,298.00 808.00,298.00
             808.00,298.00 839.60,351.00 839.60,351.00
             842.10,355.16 847.95,366.74 852.09,368.40
             853.88,369.12 857.03,369.00 859.00,369.00
             859.00,369.00 903.00,369.00 903.00,369.00
             903.00,369.00 903.00,5.00 903.00,5.00
             903.00,5.00 858.00,5.00 858.00,5.00
             858.00,5.00 858.00,299.00 858.00,299.00
             852.94,292.83 844.03,276.68 839.58,269.00
             839.58,269.00 811.99,222.00 811.99,222.00
             811.99,222.00 726.28,76.00 726.28,76.00
             726.28,76.00 694.60,22.00 694.60,22.00
             684.60,5.33 686.77,5.02 677.00,5.00
             677.00,5.00 629.00,5.00 629.00,5.00 Z
           M 48.00,170.00
           C 48.00,170.00 48.00,45.00 48.00,45.00
             48.00,45.00 170.00,45.00 170.00,45.00
             185.60,45.02 203.74,49.21 214.70,61.09
             225.00,72.24 228.82,89.17 229.00,104.00
             229.22,123.20 225.20,144.78 209.00,157.10
             191.16,170.67 169.18,170.00 148.00,170.00
             148.00,170.00 48.00,170.00 48.00,170.00 Z" />
</svg>
