<?xml version="1.0" encoding="UTF-8" standalone="no"?>
<svg 
     width="247"
	 height="364"
     viewBox="0 0 247 364">
  <path id="Selection"
        fill="#000000" stroke="black" stroke-width="1"
        d="M 1.00,364.00
           C 1.00,364.00 241.00,364.00 241.00,364.00
             241.00,364.00 242.91,338.00 242.91,338.00
             242.91,338.00 245.09,299.00 245.09,299.00
             245.09,299.00 247.00,271.00 247.00,271.00
             247.00,271.00 228.00,267.00 228.00,267.00
             220.08,281.30 214.94,299.26 201.00,309.21
             191.29,316.14 182.13,316.10 171.00,317.17
             171.00,317.17 162.00,318.00 162.00,318.00
             162.00,318.00 71.00,318.00 71.00,318.00
             71.00,318.00 89.88,292.00 89.88,292.00
             89.88,292.00 142.42,219.00 142.42,219.00
             142.42,219.00 161.15,193.00 161.15,193.00
             163.26,190.10 168.88,183.30 169.27,180.00
             169.67,176.65 165.56,170.93 163.80,168.00
             163.80,168.00 146.20,139.00 146.20,139.00
             146.20,139.00 101.60,65.00 101.60,65.00
             101.60,65.00 76.00,23.00 76.00,23.00
             76.00,23.00 154.00,23.00 154.00,23.00
             162.84,23.04 176.40,24.89 184.00,29.48
             198.90,38.47 210.21,65.37 214.00,82.00
             214.00,82.00 233.00,79.00 233.00,79.00
             233.00,79.00 232.00,40.00 232.00,40.00
             232.00,40.00 231.00,25.00 231.00,25.00
             231.00,25.00 231.00,10.00 231.00,10.00
             230.99,3.14 231.80,0.14 224.00,0.00
             224.00,0.00 181.00,0.00 181.00,0.00
             181.00,0.00 16.00,0.00 16.00,0.00
             14.01,0.00 10.19,-0.23 8.50,1.02
             5.70,3.32 7.06,13.95 8.50,17.00
             8.50,17.00 38.20,66.00 38.20,66.00
             38.20,66.00 92.80,155.00 92.80,155.00
             92.80,155.00 106.81,178.00 106.81,178.00
             108.17,180.22 111.77,185.06 111.54,187.58
             111.34,189.79 105.87,196.78 104.34,199.00
             104.34,199.00 84.14,228.00 84.14,228.00
             84.14,228.00 26.28,311.00 26.28,311.00
             26.28,311.00 9.58,335.00 9.58,335.00
             5.14,341.27 1.14,345.02 1.00,353.00
             1.00,353.00 1.00,364.00 1.00,364.00 Z" />
</svg>
