<?xml version="1.0" encoding="UTF-8" standalone="no"?>
<svg 
     width="920" 
	 height="373"
     viewBox="0 0 920 373">
  <path id="Selection"
        fill="#000000" stroke="black" stroke-width="1"
        d="M 263.00,316.00
           C 263.00,316.00 267.00,367.00 267.00,367.00
             267.00,367.00 304.00,367.00 304.00,367.00
             304.00,367.00 304.00,173.00 304.00,173.00
             304.00,173.00 158.00,173.00 158.00,173.00
             158.00,173.00 158.00,214.00 158.00,214.00
             158.00,214.00 262.00,214.00 262.00,214.00
             262.00,240.52 257.53,268.36 241.10,290.00
             221.64,315.64 197.44,326.93 166.00,329.09
             166.00,329.09 156.00,329.96 156.00,329.96
             156.00,329.96 148.00,329.09 148.00,329.09
             126.83,327.61 109.17,322.90 92.00,309.76
             65.09,289.19 53.37,255.41 48.87,223.00
             48.87,223.00 47.00,205.00 47.00,205.00
             47.00,205.00 46.00,182.00 46.00,182.00
             46.00,182.00 47.04,172.00 47.04,172.00
             47.04,172.00 47.04,163.00 47.04,163.00
             50.24,130.80 59.61,101.81 81.00,77.00
             87.18,69.83 94.05,63.30 102.00,58.08
             137.04,35.05 191.54,37.85 224.00,64.46
             240.07,77.64 250.90,96.68 255.00,117.00
             255.00,117.00 282.00,117.00 282.00,117.00
             282.00,117.00 299.00,116.00 299.00,116.00
             299.00,116.00 294.57,95.00 294.57,95.00
             290.28,79.80 283.78,66.51 274.11,54.00
             252.89,26.53 220.05,8.56 186.00,2.92
             180.89,2.07 175.15,1.06 170.00,1.00
             170.00,1.00 148.00,1.00 148.00,1.00
             118.14,1.05 84.69,14.33 62.00,33.44
             24.14,65.33 4.30,114.49 0.91,163.00
             0.91,163.00 0.00,173.00 0.00,173.00
             -0.48,214.11 2.25,254.00 22.31,291.00
             28.99,303.33 36.54,313.45 45.72,324.00
             53.60,333.05 61.17,340.05 71.00,346.96
             91.24,361.20 119.22,369.71 144.00,370.00
             173.55,370.34 198.76,368.34 225.00,352.99
             236.77,346.10 258.05,328.65 263.00,316.00 Z
           M 388.00,249.00
           C 388.00,249.00 346.00,249.00 346.00,249.00
             346.00,266.13 346.41,279.36 351.75,296.00
             359.49,320.14 378.41,341.70 400.00,354.55
             419.58,366.20 448.31,371.96 471.00,372.00
             471.00,372.00 488.00,372.00 488.00,372.00
             488.00,372.00 500.00,371.08 500.00,371.08
             533.49,368.40 568.61,356.75 590.54,330.00
             606.16,310.94 611.28,286.08 611.00,262.00
             610.90,254.16 608.88,241.57 606.70,234.00
             604.86,227.57 601.84,219.70 598.38,214.00
             577.75,179.93 543.66,173.53 508.00,165.35
             508.00,165.35 475.00,157.21 475.00,157.21
             475.00,157.21 451.00,151.37 451.00,151.37
             429.15,145.91 405.15,139.38 401.13,113.00
             400.59,109.42 399.89,105.62 400.09,102.00
             400.58,93.32 402.73,82.66 406.90,75.00
             419.43,51.98 444.48,44.04 469.00,42.96
             469.00,42.96 478.00,42.32 478.00,42.32
             489.66,43.20 500.91,44.08 512.00,48.23
             540.61,58.92 558.91,83.25 559.00,114.00
             559.00,114.00 602.00,114.00 602.00,114.00
             602.00,114.00 600.72,102.00 600.72,102.00
             599.71,93.55 598.29,85.24 596.12,77.00
             589.92,53.52 575.67,33.83 555.00,21.06
             535.22,8.86 504.17,2.04 481.00,2.00
             481.00,2.00 465.00,2.00 465.00,2.00
             429.89,2.05 394.27,17.31 374.36,47.00
             370.05,53.42 364.82,64.61 362.35,72.00
             359.79,79.69 357.10,92.94 357.00,101.00
             356.84,115.12 356.33,125.23 360.75,139.00
             374.86,182.99 416.48,191.65 456.00,200.42
             456.00,200.42 486.00,207.79 486.00,207.79
             507.35,212.40 543.78,221.64 557.62,239.00
             563.54,246.42 566.89,258.58 567.00,268.00
             567.09,275.72 567.08,282.57 564.45,290.00
             553.95,319.69 520.16,329.03 492.00,331.09
             492.00,331.09 478.00,332.00 478.00,332.00
             446.20,331.63 411.44,319.12 396.37,289.00
             390.20,276.66 388.00,262.66 388.00,249.00 Z
           M 650.00,3.00
           C 650.00,3.00 650.00,372.00 650.00,372.00
             650.00,372.00 774.00,372.00 774.00,372.00
             804.94,372.00 833.18,374.01 862.00,359.63
             872.96,354.16 880.35,348.64 889.00,340.00
             910.92,318.10 918.19,295.28 919.91,265.00
             920.15,260.71 919.35,258.88 919.09,255.00
             917.98,238.89 915.56,225.00 906.77,211.00
             898.71,198.16 887.44,188.21 874.00,181.26
             874.00,181.26 857.00,173.00 857.00,173.00
             872.22,165.67 885.14,154.00 893.11,139.00
             914.57,98.61 901.55,40.07 861.00,16.87
             831.71,0.11 806.16,3.00 774.00,3.00
             774.00,3.00 650.00,3.00 650.00,3.00 Z
           M 697.00,159.00
           C 697.00,159.00 697.00,46.00 697.00,46.00
             697.00,46.00 776.00,46.00 776.00,46.00
             795.86,46.00 816.35,45.54 834.00,56.47
             852.48,67.91 857.34,87.70 855.16,108.00
             854.08,118.18 852.67,125.19 846.90,134.00
             842.26,141.08 836.37,146.08 829.00,150.14
             811.81,159.61 791.95,159.00 773.00,159.00
             773.00,159.00 697.00,159.00 697.00,159.00 Z
           M 697.00,330.00
           C 697.00,330.00 697.00,200.00 697.00,200.00
             697.00,200.00 781.00,200.00 781.00,200.00
             802.15,200.00 826.07,200.07 845.00,210.87
             862.13,220.65 871.77,237.37 872.00,257.00
             872.31,284.15 867.85,308.21 841.00,321.63
             824.27,329.99 800.42,330.00 782.00,330.00
             782.00,330.00 697.00,330.00 697.00,330.00 Z" />
</svg>
