<?xml version="1.0" encoding="UTF-8" standalone="no"?>
<svg 
     width="1297"
	 height="376"
     viewBox="0 0 1297 376">
  <path id="Selection"
        fill="#000000" stroke="black" stroke-width="1"
        d="M 0.00,1.00
           C 0.00,1.00 0.00,375.00 0.00,375.00
             0.00,375.00 48.00,375.00 48.00,375.00
             48.00,375.00 48.00,217.00 48.00,217.00
             48.00,217.00 132.00,217.00 132.00,217.00
             172.66,217.00 206.57,218.72 236.91,186.00
             267.29,153.24 273.28,91.07 252.51,52.00
             236.03,20.98 202.08,1.05 167.00,1.00
             167.00,1.00 0.00,1.00 0.00,1.00 Z
           M 962.00,3.00
           C 962.00,3.00 962.00,372.00 962.00,372.00
             962.00,372.00 1008.00,372.00 1008.00,372.00
             1008.00,372.00 1008.00,134.00 1008.00,134.00
             1008.00,134.00 1007.00,117.00 1007.00,117.00
             1007.00,117.00 1007.00,63.00 1007.00,63.00
             1007.00,63.00 1018.72,99.00 1018.72,99.00
             1018.72,99.00 1033.34,145.00 1033.34,145.00
             1033.34,145.00 1061.34,233.00 1061.34,233.00
             1061.34,233.00 1082.42,299.00 1082.42,299.00
             1082.42,299.00 1100.00,354.00 1100.00,354.00
             1100.00,354.00 1106.51,370.98 1106.51,370.98
             1106.51,370.98 1114.00,372.00 1114.00,372.00
             1114.00,372.00 1147.00,372.00 1147.00,372.00
             1147.00,372.00 1152.28,371.01 1152.28,371.01
             1152.28,371.01 1158.33,355.00 1158.33,355.00
             1158.33,355.00 1175.72,300.00 1175.72,300.00
             1175.72,300.00 1194.66,241.00 1194.66,241.00
             1194.66,241.00 1231.02,126.00 1231.02,126.00
             1231.02,126.00 1251.00,63.00 1251.00,63.00
             1251.00,63.00 1251.92,68.00 1251.92,68.00
             1251.92,68.00 1251.02,76.00 1251.02,76.00
             1251.02,76.00 1251.02,92.00 1251.02,92.00
             1251.02,92.00 1251.02,158.00 1251.02,158.00
             1251.02,158.00 1251.02,372.00 1251.02,372.00
             1251.02,372.00 1297.00,372.00 1297.00,372.00
             1297.00,372.00 1297.00,3.00 1297.00,3.00
             1297.00,3.00 1229.00,3.00 1229.00,3.00
             1229.00,3.00 1203.02,85.00 1203.02,85.00
             1203.02,85.00 1150.98,249.00 1150.98,249.00
             1150.98,249.00 1130.00,315.00 1130.00,315.00
             1130.00,315.00 1112.66,262.00 1112.66,262.00
             1112.66,262.00 1080.98,163.00 1080.98,163.00
             1080.98,163.00 1048.33,61.00 1048.33,61.00
             1048.33,61.00 1030.00,3.00 1030.00,3.00
             1030.00,3.00 962.00,3.00 962.00,3.00 Z
           M 301.00,4.00
           C 301.00,4.00 301.00,373.00 301.00,373.00
             301.00,373.00 349.00,373.00 349.00,373.00
             349.00,373.00 349.00,215.00 349.00,215.00
             349.00,215.00 464.00,215.00 464.00,215.00
             480.12,215.19 498.37,219.15 509.96,231.01
             520.35,241.65 524.82,257.35 525.00,272.00
             525.00,272.00 526.00,308.00 526.00,308.00
             526.00,308.00 527.00,323.00 527.00,323.00
             527.00,323.00 529.00,354.00 529.00,354.00
             529.00,354.00 529.00,363.00 529.00,363.00
             529.00,363.00 530.00,373.00 530.00,373.00
             530.00,373.00 580.00,373.00 580.00,373.00
             575.99,353.04 574.03,336.40 574.00,316.00
             574.00,316.00 573.04,304.00 573.04,304.00
             573.04,304.00 573.04,291.00 573.04,291.00
             573.04,291.00 572.00,277.00 572.00,277.00
             571.89,253.91 570.64,222.22 552.91,205.17
             546.96,199.44 537.78,194.72 530.00,192.00
             545.56,181.63 558.01,173.13 567.11,156.00
             573.09,144.75 577.85,125.76 578.00,113.00
             578.26,90.15 577.44,68.16 564.94,48.00
             555.13,32.20 542.73,22.85 526.00,15.31
             497.14,2.30 464.85,4.00 434.00,4.00
             434.00,4.00 301.00,4.00 301.00,4.00 Z
           M 875.00,321.00
           C 875.00,321.00 876.00,335.00 876.00,335.00
             876.00,335.00 877.04,349.00 877.04,349.00
             877.04,349.00 877.04,361.00 877.04,361.00
             877.04,361.00 878.00,372.00 878.00,372.00
             878.00,372.00 916.00,372.00 916.00,372.00
             916.00,372.00 916.00,178.00 916.00,178.00
             916.00,178.00 769.00,178.00 769.00,178.00
             769.00,178.00 769.00,210.00 769.00,210.00
             769.00,210.00 770.02,217.40 770.02,217.40
             770.02,217.40 776.00,219.00 776.00,219.00
             776.00,219.00 794.00,219.00 794.00,219.00
             794.00,219.00 873.00,219.00 873.00,219.00
             873.00,251.19 867.47,279.53 844.83,303.99
             828.33,321.82 801.32,333.71 777.00,334.00
             747.15,334.35 721.19,330.74 698.00,309.83
             680.34,293.91 670.27,271.69 664.63,249.00
             661.09,234.80 658.02,212.56 658.00,198.00
             657.95,165.51 660.44,137.59 675.25,108.00
             690.92,76.68 722.23,48.43 759.00,48.00
             759.00,48.00 774.00,48.00 774.00,48.00
             797.39,48.04 825.43,58.17 841.83,75.09
             849.89,83.40 856.04,93.39 860.57,104.00
             861.93,107.18 865.54,119.58 867.51,120.98
             869.27,122.23 872.87,122.00 875.00,122.00
             875.00,122.00 910.00,122.00 910.00,122.00
             909.88,108.71 904.16,90.86 898.25,79.00
             864.43,11.21 776.32,-11.03 709.00,16.45
             656.27,37.98 623.57,92.59 614.43,147.00
             611.62,163.80 610.80,180.99 611.00,198.00
             611.00,198.00 612.00,215.00 612.00,215.00
             612.00,215.00 614.75,239.00 614.75,239.00
             622.28,284.95 646.35,327.01 685.00,353.80
             702.97,366.25 732.13,374.74 754.00,375.00
             754.00,375.00 775.00,375.00 775.00,375.00
             794.94,374.97 821.03,367.59 838.00,357.19
             851.05,349.19 867.97,334.65 875.00,321.00 Z
           M 48.00,173.00
           C 48.00,173.00 48.00,44.00 48.00,44.00
             48.00,44.00 143.00,44.00 143.00,44.00
             143.00,44.00 155.00,44.91 155.00,44.91
             168.76,45.87 177.74,47.31 190.00,54.34
             212.97,67.51 217.02,94.99 214.15,119.00
             212.94,129.12 210.97,138.18 205.53,147.00
             201.38,153.75 195.85,159.14 189.00,163.12
             169.34,174.57 151.62,173.00 130.00,173.00
             130.00,173.00 48.00,173.00 48.00,173.00 Z
           M 349.00,173.00
           C 349.00,173.00 349.00,48.00 349.00,48.00
             349.00,48.00 473.00,48.00 473.00,48.00
             487.25,48.02 504.58,52.61 514.70,63.17
             523.73,72.59 528.85,88.08 529.00,101.00
             529.25,122.33 528.66,144.88 510.00,159.32
             497.04,169.36 482.64,171.02 467.00,172.09
             467.00,172.09 457.00,173.00 457.00,173.00
             457.00,173.00 349.00,173.00 349.00,173.00 Z" />
</svg>
