<?xml version="1.0" encoding="UTF-8" standalone="no"?>
<svg 
     width="507" 
	 height="375"
     viewBox="0 0 507 375">
  <path id="Selection"
        fill="@000000" stroke="black" stroke-width="1"
        d="M 420.00,1.00
           C 398.46,46.05 380.03,92.84 360.99,139.00
             360.99,139.00 342.40,184.00 342.40,184.00
             339.64,190.89 335.10,200.01 334.00,207.00
             334.00,207.00 353.00,208.00 353.00,208.00
             353.00,208.00 384.00,208.00 384.00,208.00
             384.00,208.00 384.00,363.00 384.00,363.00
             384.02,371.31 384.01,373.95 393.00,374.00
             393.00,374.00 446.00,374.00 446.00,374.00
             448.54,373.99 452.48,374.32 454.40,372.40
             456.19,370.61 455.98,367.35 456.00,365.00
             456.00,365.00 456.00,338.00 456.00,338.00
             456.00,338.00 456.00,218.00 456.00,218.00
             456.01,210.78 455.85,208.15 464.00,208.00
             473.37,207.83 499.83,209.04 507.00,207.00
             507.00,207.00 486.42,157.00 486.42,157.00
             486.42,157.00 448.01,65.00 448.01,65.00
             448.01,65.00 429.28,20.00 429.28,20.00
             426.75,14.11 424.35,5.55 420.00,1.00 Z
           M 0.00,4.00
           C 0.00,4.00 0.00,373.00 0.00,373.00
             0.00,373.00 47.00,373.00 47.00,373.00
             47.00,373.00 47.00,215.00 47.00,215.00
             47.00,215.00 167.00,215.00 167.00,215.00
             185.53,215.03 201.87,220.94 213.47,236.00
             221.14,245.95 223.98,263.64 224.04,276.00
             224.04,276.00 224.04,289.00 224.04,289.00
             224.04,289.00 225.00,301.00 225.00,301.00
             225.00,301.00 226.91,340.00 226.91,340.00
             226.91,340.00 229.00,373.00 229.00,373.00
             229.00,373.00 278.00,373.00 278.00,373.00
             278.00,373.00 276.08,362.00 276.08,362.00
             276.08,362.00 273.00,335.00 273.00,335.00
             273.00,335.00 271.00,284.00 271.00,284.00
             271.00,284.00 270.00,263.00 270.00,263.00
             269.97,244.95 265.48,219.63 252.56,206.29
             246.02,199.53 237.60,195.44 229.00,192.00
             229.00,192.00 229.00,190.00 229.00,190.00
             233.96,188.42 235.85,186.71 240.00,183.71
             254.50,173.21 263.78,161.81 269.95,145.00
             274.44,132.75 274.96,125.61 276.17,113.00
             279.43,78.87 269.14,42.17 239.00,22.70
             220.48,10.73 191.97,4.03 170.00,4.00
             170.00,4.00 139.00,4.00 139.00,4.00
             139.00,4.00 0.00,4.00 0.00,4.00 Z
           M 48.00,173.00
           C 48.00,173.00 48.00,48.00 48.00,48.00
             48.00,48.00 170.00,48.00 170.00,48.00
             187.56,48.03 205.12,53.01 216.67,67.00
             225.38,77.54 227.20,89.94 228.09,103.00
             228.30,106.15 228.92,107.69 228.68,111.00
             227.18,130.99 225.25,147.18 208.00,160.47
             196.53,169.31 178.26,172.98 164.00,173.00
             164.00,173.00 48.00,173.00 48.00,173.00 Z" />
</svg>
