<?xml version="1.0" encoding="UTF-8" standalone="no"?>
<svg 
     width="508" 
	 height="371"
     viewBox="0 0 508 371">
  <path id="Selection"
        fill="#000000" stroke="black" stroke-width="1"
        d="M 385.00,164.00
           C 385.00,164.00 345.00,164.00 345.00,164.00
             342.62,164.00 337.71,163.46 336.78,166.31
             335.92,168.96 339.98,177.25 341.15,180.00
             341.15,180.00 354.85,213.00 354.85,213.00
             354.85,213.00 399.58,320.00 399.58,320.00
             399.58,320.00 413.72,354.00 413.72,354.00
             416.02,359.36 417.78,365.11 421.00,370.00
             421.00,370.00 444.85,317.00 444.85,317.00
             444.85,317.00 488.42,214.00 488.42,214.00
             488.42,214.00 502.20,181.00 502.20,181.00
             503.42,177.98 507.01,171.03 506.22,168.06
             505.02,163.56 499.62,164.01 496.00,164.00
             496.00,164.00 457.00,164.00 457.00,164.00
             457.00,164.00 457.00,11.00 457.00,11.00
             456.98,2.76 456.74,1.06 448.00,1.00
             448.00,1.00 396.00,1.00 396.00,1.00
             392.82,1.01 388.87,0.62 386.60,3.31
             384.71,5.56 385.01,9.23 385.00,12.00
             385.00,12.00 385.00,39.00 385.00,39.00
             385.00,39.00 385.00,164.00 385.00,164.00 Z
           M 0.00,2.00
           C 0.00,2.00 0.00,371.00 0.00,371.00
             0.00,371.00 47.00,371.00 47.00,371.00
             47.00,371.00 47.00,213.00 47.00,213.00
             47.00,213.00 167.00,213.00 167.00,213.00
             185.53,213.03 201.87,218.94 213.47,234.00
             221.14,243.95 223.98,261.64 224.04,274.00
             224.04,274.00 224.04,287.00 224.04,287.00
             224.04,287.00 225.00,299.00 225.00,299.00
             225.00,299.00 226.91,338.00 226.91,338.00
             226.91,338.00 229.00,371.00 229.00,371.00
             229.00,371.00 278.00,371.00 278.00,371.00
             278.00,371.00 276.08,360.00 276.08,360.00
             276.08,360.00 273.00,333.00 273.00,333.00
             273.00,333.00 271.00,282.00 271.00,282.00
             271.00,282.00 270.00,261.00 270.00,261.00
             269.97,242.95 265.48,217.63 252.56,204.29
             246.02,197.53 237.60,193.44 229.00,190.00
             229.00,190.00 229.00,188.00 229.00,188.00
             233.96,186.42 235.85,184.71 240.00,181.71
             254.50,171.21 263.78,159.81 269.95,143.00
             274.44,130.75 274.96,123.61 276.17,111.00
             279.43,76.87 269.14,40.17 239.00,20.70
             220.48,8.73 191.97,2.03 170.00,2.00
             170.00,2.00 139.00,2.00 139.00,2.00
             139.00,2.00 0.00,2.00 0.00,2.00 Z
           M 48.00,171.00
           C 48.00,171.00 48.00,46.00 48.00,46.00
             48.00,46.00 170.00,46.00 170.00,46.00
             187.56,46.03 205.12,51.01 216.67,65.00
             225.38,75.54 227.20,87.94 228.09,101.00
             228.30,104.15 228.92,105.69 228.68,109.00
             227.18,128.99 225.25,145.18 208.00,158.47
             196.53,167.31 178.26,170.98 164.00,171.00
             164.00,171.00 48.00,171.00 48.00,171.00 Z" />
</svg>
