<?xml version="1.0" encoding="UTF-8" standalone="no"?>
<svg 
     width="921" 
	 height="372"
     viewBox="0 0 921 372">
  <path id="Selection"
        fill="#000000" stroke="black" stroke-width="1"
        d="M 1.00,0.00
           C 1.00,0.00 1.00,369.00 1.00,369.00
             1.00,369.00 48.00,369.00 48.00,369.00
             48.00,369.00 48.00,211.00 48.00,211.00
             48.00,211.00 166.00,211.00 166.00,211.00
             180.81,211.18 198.05,215.71 208.91,226.17
             217.69,234.63 222.67,249.04 223.96,261.00
             223.96,261.00 223.96,270.00 223.96,270.00
             223.96,270.00 225.00,282.00 225.00,282.00
             225.00,282.00 225.00,297.00 225.00,297.00
             225.00,297.00 226.00,312.00 226.00,312.00
             226.00,312.00 227.09,337.00 227.09,337.00
             227.09,337.00 229.00,369.00 229.00,369.00
             229.00,369.00 279.00,369.00 279.00,369.00
             279.00,369.00 277.08,358.00 277.08,358.00
             275.81,350.75 274.09,339.20 274.00,332.00
             274.00,332.00 272.00,281.00 272.00,281.00
             272.00,281.00 271.00,264.00 271.00,264.00
             270.97,242.45 268.19,216.84 251.99,201.04
             245.84,195.05 237.81,191.36 230.00,188.00
             245.19,176.28 255.79,171.03 265.69,153.00
             273.80,138.23 275.61,125.33 277.17,109.00
             277.60,104.50 278.10,102.88 277.99,98.00
             277.99,98.00 277.09,89.00 277.09,89.00
             274.61,53.51 260.01,25.97 226.00,11.43
             194.05,-2.24 164.69,0.00 131.00,0.00
             131.00,0.00 1.00,0.00 1.00,0.00 Z
           M 332.00,1.00
           C 332.00,1.00 332.00,370.00 332.00,370.00
             332.00,370.00 590.00,370.00 590.00,370.00
             590.00,370.00 590.00,325.00 590.00,325.00
             590.00,325.00 380.00,325.00 380.00,325.00
             380.00,325.00 380.00,203.00 380.00,203.00
             380.00,203.00 562.00,203.00 562.00,203.00
             562.00,203.00 569.98,201.40 569.98,201.40
             569.98,201.40 571.00,189.00 571.00,189.00
             571.00,189.00 571.00,158.00 571.00,158.00
             571.00,158.00 380.00,158.00 380.00,158.00
             380.00,158.00 380.00,45.00 380.00,45.00
             380.00,45.00 587.00,45.00 587.00,45.00
             587.00,45.00 587.00,1.00 587.00,1.00
             587.00,1.00 332.00,1.00 332.00,1.00 Z
           M 879.00,319.00
           C 881.76,324.23 880.99,327.27 881.00,333.00
             881.00,333.00 882.04,348.00 882.04,348.00
             882.04,348.00 882.04,360.00 882.04,360.00
             882.04,360.00 883.00,369.00 883.00,369.00
             883.00,369.00 921.00,369.00 921.00,369.00
             921.00,369.00 921.00,175.00 921.00,175.00
             921.00,175.00 774.00,175.00 774.00,175.00
             774.00,175.00 774.00,207.00 774.00,207.00
             774.00,207.00 775.02,214.40 775.02,214.40
             775.02,214.40 781.00,216.00 781.00,216.00
             781.00,216.00 799.00,216.00 799.00,216.00
             799.00,216.00 878.00,216.00 878.00,216.00
             878.00,243.09 873.57,271.12 856.33,293.00
             848.00,303.57 835.09,314.57 823.00,320.63
             787.53,338.41 734.25,334.02 704.00,307.71
             682.92,289.38 672.74,262.71 667.40,236.00
             665.36,225.83 663.02,206.22 663.00,196.00
             663.00,196.00 663.00,179.00 663.00,179.00
             663.00,179.00 663.91,167.00 663.91,167.00
             666.89,126.19 682.76,84.11 718.00,60.36
             725.28,55.45 733.58,51.26 742.00,48.72
             750.37,46.20 763.28,44.18 772.00,44.18
             772.00,44.18 779.00,44.91 779.00,44.91
             804.51,46.66 831.02,54.00 848.57,74.01
             855.80,82.26 861.27,90.92 865.57,101.00
             865.57,101.00 871.84,117.40 871.84,117.40
             873.77,119.37 877.44,118.99 880.00,119.00
             880.00,119.00 915.00,119.00 915.00,119.00
             914.77,108.50 910.68,93.80 906.80,84.00
             878.65,12.96 789.31,-13.62 721.00,10.69
             654.95,34.20 621.48,100.59 616.91,167.00
             616.91,167.00 616.00,179.00 616.00,179.00
             615.97,199.06 616.51,221.32 620.45,241.00
             628.32,280.37 647.29,315.38 678.00,341.70
             699.91,360.48 731.13,371.66 760.00,372.00
             788.13,372.33 809.18,371.16 835.00,358.25
             851.30,350.10 870.55,335.42 879.00,319.00 Z
           M 49.00,169.00
           C 49.00,169.00 49.00,44.00 49.00,44.00
             49.00,44.00 164.00,44.00 164.00,44.00
             164.00,44.00 174.00,44.91 174.00,44.91
             188.62,45.92 202.72,48.48 213.71,59.30
             224.52,69.93 228.93,87.20 229.00,102.00
             229.10,122.68 226.25,144.14 208.00,157.21
             190.46,169.78 168.46,169.00 148.00,169.00
             148.00,169.00 49.00,169.00 49.00,169.00 Z" />
</svg>
