<?xml version="1.0" encoding="UTF-8" standalone="no"?>
<svg 
     width="966"
	 height="417"
     viewBox="0 0 966 417">
  <path id="Selection"
        fill="#000000" stroke="black" stroke-width="1"
        d="M 470.00,104.00
           C 464.10,106.77 456.30,114.49 451.00,118.92
             451.00,118.92 415.00,149.58 415.00,149.58
             411.09,152.91 398.09,162.42 397.50,167.00
             397.13,169.82 399.56,175.40 400.78,178.00
             404.14,185.16 407.69,192.38 412.00,199.00
             412.00,199.00 465.00,175.31 465.00,175.31
             465.00,175.31 563.00,130.31 563.00,130.31
             563.00,130.31 598.00,114.26 598.00,114.26
             601.30,112.66 608.76,110.50 609.69,106.80
             611.02,101.47 604.70,99.14 601.00,97.24
             601.00,97.24 568.00,79.58 568.00,79.58
             568.00,79.58 473.00,28.69 473.00,28.69
             473.00,28.69 443.00,12.58 443.00,12.58
             443.00,12.58 423.00,2.02 423.00,2.02
             418.57,0.82 416.55,3.82 414.16,7.00
             410.01,12.52 404.88,20.44 402.69,27.00
             401.77,30.01 400.82,33.03 402.69,35.91
             402.69,35.91 419.00,52.00 419.00,52.00
             419.00,52.00 454.00,87.00 454.00,87.00
             458.88,91.88 467.31,98.33 470.00,104.00 Z
           M 156.00,236.00
           C 167.81,265.52 185.55,315.28 202.34,340.00
             211.33,353.22 225.58,367.90 243.00,366.91
             272.79,365.21 302.62,336.44 318.33,313.00
             323.84,304.79 332.45,289.15 330.67,279.00
             328.73,267.95 319.27,265.32 311.00,272.22
             301.64,280.03 298.49,289.81 286.00,298.56
             278.68,303.69 272.77,305.87 265.01,300.21
             256.74,294.19 250.29,281.08 245.75,272.00
             245.75,272.00 216.80,203.00 216.80,203.00
             216.80,203.00 207.00,179.00 207.00,179.00
             207.00,179.00 202.74,168.00 202.74,168.00
             202.10,164.26 204.58,161.05 206.40,158.00
             206.40,158.00 220.67,136.00 220.67,136.00
             227.68,125.60 241.43,106.45 250.01,98.04
             254.54,93.61 261.86,87.55 268.00,85.79
             282.95,81.50 289.01,95.65 300.00,98.94
             312.21,102.60 325.76,90.29 330.48,80.00
             333.68,73.03 334.08,68.49 334.00,61.00
             333.88,50.88 330.45,38.38 322.83,31.33
             309.40,18.90 284.98,21.54 270.00,29.49
             245.42,42.53 223.08,77.58 208.32,101.00
             203.32,108.93 191.37,126.88 189.00,135.00
             189.00,135.00 187.00,135.00 187.00,135.00
             187.00,135.00 174.01,103.00 174.01,103.00
             165.61,82.63 158.52,63.78 146.56,45.00
             138.41,32.19 128.96,22.65 113.00,23.01
             99.62,23.32 86.83,31.56 77.00,40.00
             64.90,50.39 52.74,63.02 43.43,76.00
             38.29,83.15 30.70,95.09 30.10,104.00
             29.32,115.36 38.73,123.02 45.91,119.99
             49.65,118.41 52.11,114.14 54.47,111.00
             59.42,104.43 66.55,96.15 73.00,91.12
             75.94,88.83 80.09,86.04 84.00,86.33
             92.95,86.97 99.74,101.88 103.24,109.00
             103.24,109.00 117.60,143.00 117.60,143.00
             117.60,143.00 131.20,176.00 131.20,176.00
             131.20,176.00 138.20,193.00 138.20,193.00
             139.20,195.49 141.04,199.36 140.78,202.00
             140.53,204.51 137.89,208.72 136.58,211.00
             136.58,211.00 126.60,228.00 126.60,228.00
             115.10,247.16 104.18,263.95 89.57,281.00
             83.94,287.57 72.83,297.82 64.00,299.23
             49.45,301.56 43.54,286.61 31.00,286.04
             20.19,285.55 13.00,291.38 7.05,300.00
             -5.91,318.77 -0.07,346.10 18.00,359.39
             38.42,374.41 65.36,364.86 82.00,348.96
             114.55,317.88 134.02,274.62 156.00,236.00 Z
           M 858.00,220.00
           C 858.00,220.00 849.15,187.00 849.15,187.00
             849.15,187.00 831.88,123.00 831.88,123.00
             825.86,100.10 817.65,61.12 804.90,42.00
             796.75,29.78 780.96,25.58 767.00,25.04
             739.08,23.96 719.85,50.75 708.75,73.00
             707.07,76.37 702.55,85.55 702.47,89.00
             702.31,95.57 712.55,103.73 719.00,102.76
             724.96,101.86 727.46,96.27 730.90,92.09
             736.29,85.53 745.69,81.06 753.96,85.31
             758.77,87.79 760.82,93.22 762.50,98.00
             762.50,98.00 771.85,129.00 771.85,129.00
             771.85,129.00 801.72,233.00 801.72,233.00
             801.72,233.00 810.37,264.00 810.37,264.00
             811.02,266.59 813.32,274.37 812.87,276.59
             812.45,278.70 809.48,282.22 808.12,284.00
             808.12,284.00 797.08,298.00 797.08,298.00
             785.64,311.78 773.68,324.38 761.00,337.00
             754.95,343.02 744.25,352.84 736.00,355.21
             725.97,358.10 722.42,353.80 714.00,350.23
             702.63,345.41 691.54,343.71 681.09,351.79
             678.29,353.95 676.06,356.82 674.54,360.00
             672.58,364.11 672.06,367.51 672.00,372.00
             671.91,379.91 672.09,383.24 674.15,391.00
             675.57,396.32 677.95,403.72 681.39,407.98
             688.94,417.35 699.15,417.54 710.00,415.72
             728.55,412.59 752.50,398.92 767.00,387.20
             772.00,383.16 776.50,378.59 780.99,374.00
             797.98,356.58 821.18,321.80 835.72,301.00
             835.72,301.00 868.00,253.00 868.00,253.00
             868.00,253.00 922.40,168.00 922.40,168.00
             938.49,141.19 964.74,100.43 965.96,69.00
             966.76,48.47 955.85,26.27 933.00,26.16
             933.00,26.16 922.00,26.16 922.00,26.16
             909.17,28.47 898.45,38.46 899.04,52.00
             899.41,60.44 904.49,66.45 907.55,74.00
             912.05,85.12 912.13,89.34 912.00,101.00
             911.88,110.93 908.80,121.64 905.67,131.00
             899.49,149.47 886.10,175.17 876.00,192.00
             871.96,198.74 863.08,215.56 858.00,220.00 Z
           M 395.00,274.00
           C 395.00,274.00 395.00,276.00 395.00,276.00
             417.15,290.47 441.71,302.71 465.00,315.31
             465.00,315.31 532.00,351.25 532.00,351.25
             532.00,351.25 568.00,370.31 568.00,370.31
             571.55,372.23 583.79,379.27 587.00,379.81
             590.77,380.45 592.79,377.73 594.79,374.98
             598.01,370.56 602.74,362.02 605.25,357.00
             606.26,354.98 608.37,351.21 608.30,349.00
             608.14,344.27 597.60,335.89 594.00,332.72
             594.00,332.72 555.00,294.17 555.00,294.17
             555.00,294.17 542.01,282.00 542.01,282.00
             540.65,280.59 538.04,278.19 538.04,276.09
             538.04,274.02 540.57,272.19 542.01,271.00
             542.01,271.00 556.00,260.13 556.00,260.13
             556.00,260.13 595.00,230.13 595.00,230.13
             598.31,227.63 609.11,220.15 610.39,216.83
             611.49,213.97 609.87,208.85 608.97,206.00
             608.97,206.00 598.00,180.00 598.00,180.00
             591.30,181.57 580.75,187.14 574.00,190.14
             574.00,190.14 522.00,213.69 522.00,213.69
             489.54,228.56 423.09,257.82 395.00,274.00 Z" />
</svg>
