<?xml version="1.0" encoding="UTF-8" standalone="no"?>
<svg 
     width="951"
	 height="370"
     viewBox="0 0 951 370">
  <path id="Selection"
        fill="#000000" stroke="black" stroke-width="1"
        d="M 0.00,0.00
           C 0.00,0.00 0.00,369.00 0.00,369.00
             0.00,369.00 48.00,369.00 48.00,369.00
             48.00,369.00 48.00,211.00 48.00,211.00
             48.00,211.00 167.00,211.00 167.00,211.00
             182.19,211.07 197.71,215.60 208.71,226.43
             219.14,236.69 223.83,252.62 224.04,267.00
             224.04,267.00 224.04,279.00 224.04,279.00
             224.04,279.00 225.04,291.00 225.04,291.00
             225.04,291.00 225.04,306.00 225.04,306.00
             225.04,306.00 226.00,318.00 226.00,318.00
             226.00,318.00 227.00,332.00 227.00,332.00
             227.00,332.00 227.00,341.00 227.00,341.00
             227.00,341.00 229.00,369.00 229.00,369.00
             229.00,369.00 279.00,369.00 279.00,369.00
             274.78,354.42 273.02,336.16 273.00,321.00
             273.00,321.00 272.04,309.00 272.04,309.00
             272.04,309.00 272.04,296.00 272.04,296.00
             272.04,296.00 271.00,281.00 271.00,281.00
             271.00,281.00 270.00,254.00 270.00,254.00
             269.80,237.47 264.47,214.26 252.71,202.17
             246.89,196.19 236.69,191.31 229.00,188.00
             245.33,175.39 255.68,170.68 266.11,151.00
             272.98,138.05 276.98,117.64 277.00,103.00
             277.05,71.47 270.41,42.43 244.00,22.24
             238.19,17.79 231.72,14.30 225.00,11.43
             193.76,-1.93 163.03,0.00 130.00,0.00
             130.00,0.00 0.00,0.00 0.00,0.00 Z
           M 328.00,370.00
           C 328.00,370.00 374.00,370.00 374.00,370.00
             374.00,370.00 374.00,72.00 374.00,72.00
             374.00,72.00 392.20,102.00 392.20,102.00
             392.20,102.00 425.01,157.00 425.01,157.00
             425.01,157.00 509.40,298.00 509.40,298.00
             509.40,298.00 541.60,352.00 541.60,352.00
             541.60,352.00 553.38,369.43 553.38,369.43
             553.38,369.43 560.00,370.00 560.00,370.00
             560.00,370.00 606.00,370.00 606.00,370.00
             606.00,370.00 606.00,10.00 606.00,10.00
             606.00,10.00 604.40,2.02 604.40,2.02
             604.40,2.02 592.00,1.00 592.00,1.00
             592.00,1.00 560.00,1.00 560.00,1.00
             560.00,1.00 560.00,299.00 560.00,299.00
             555.84,294.85 548.89,281.71 545.58,276.00
             545.58,276.00 519.20,231.00 519.20,231.00
             519.20,231.00 470.58,148.00 470.58,148.00
             470.58,148.00 427.15,74.00 427.15,74.00
             427.15,74.00 394.85,19.00 394.85,19.00
             392.57,15.02 386.75,3.17 382.90,1.60
             381.14,0.88 377.94,1.00 376.00,1.00
             376.00,1.00 342.00,1.00 342.00,1.00
             339.34,1.00 331.49,0.52 329.60,2.02
             327.62,3.59 328.00,7.70 328.00,10.00
             328.00,10.00 328.00,370.00 328.00,370.00 Z
           M 662.00,2.00
           C 662.00,2.00 662.00,370.00 662.00,370.00
             662.00,370.00 763.00,370.00 763.00,370.00
             809.58,370.00 850.11,372.25 889.00,341.33
             894.30,337.12 903.95,327.37 908.11,322.00
             953.64,263.19 960.56,168.00 937.33,99.00
             918.40,42.75 869.46,2.09 809.00,2.00
             809.00,2.00 662.00,2.00 662.00,2.00 Z
           M 48.00,169.00
           C 48.00,169.00 48.00,44.00 48.00,44.00
             48.00,44.00 168.00,44.00 168.00,44.00
             185.52,44.03 203.82,48.36 215.82,62.00
             225.10,72.55 228.84,89.22 229.00,103.00
             229.22,122.08 225.26,144.13 209.00,156.24
             190.04,170.36 169.17,169.00 147.00,169.00
             147.00,169.00 48.00,169.00 48.00,169.00 Z
           M 709.00,327.00
           C 709.00,327.00 709.00,53.00 709.00,53.00
             709.00,50.70 708.62,46.59 710.60,45.02
             712.40,43.60 718.59,44.00 721.00,44.00
             721.00,44.00 748.00,44.00 748.00,44.00
             748.00,44.00 782.00,44.00 782.00,44.00
             811.50,44.00 839.29,45.46 863.00,65.44
             880.98,80.58 890.44,102.65 895.87,125.00
             898.45,135.61 900.17,147.11 901.00,158.00
             901.00,158.00 901.00,167.00 901.00,167.00
             901.00,167.00 902.00,179.00 902.00,179.00
             902.07,226.32 893.42,286.06 850.00,313.91
             826.39,329.06 808.32,327.00 782.00,327.00
             782.00,327.00 709.00,327.00 709.00,327.00 Z" />
</svg>
