<?xml version="1.0" encoding="UTF-8" standalone="no"?>
<svg 
     width="468" 
	 height="296"
     viewBox="0 0 468 296">
  <path id="Selection"
        fill="#000000" stroke="black" stroke-width="1"
        d="M 0.00,148.00
           C 0.00,148.00 56.00,187.58 56.00,187.58
             56.00,187.58 138.00,245.42 138.00,245.42
             138.00,245.42 181.00,275.86 181.00,275.86
             181.00,275.86 209.00,295.00 209.00,295.00
             209.00,295.00 210.00,263.00 210.00,263.00
             210.00,263.00 210.00,211.00 210.00,211.00
             210.00,211.00 456.00,211.00 456.00,211.00
             458.96,210.99 462.35,211.27 464.85,209.40
             469.69,205.79 468.00,189.97 468.00,184.00
             468.00,184.00 468.00,98.00 468.00,98.00
             467.98,89.94 467.13,86.17 458.00,86.00
             458.00,86.00 408.00,86.00 408.00,86.00
             408.00,86.00 210.00,86.00 210.00,86.00
             210.00,86.00 210.00,1.00 210.00,1.00
             202.37,1.86 196.10,7.94 190.00,12.29
             190.00,12.29 151.00,40.00 151.00,40.00
             151.00,40.00 49.00,112.58 49.00,112.58
             49.00,112.58 0.00,148.00 0.00,148.00 Z" />
</svg>
