<?xml version="1.0" encoding="UTF-8" standalone="no"?>
<svg 
     width="966" 
	 height="368"
     viewBox="0 0 966 368">
  <path id="Selection"
        fill="@000000" stroke="black" stroke-width="1"
        d="M 294.00,230.00
           C 294.00,230.00 251.00,230.00 251.00,230.00
             245.52,259.10 235.07,285.93 212.00,305.70
             176.50,336.12 115.68,331.61 83.04,298.96
             59.25,275.18 50.29,238.52 47.91,206.00
             47.91,206.00 47.00,194.00 47.00,194.00
             47.00,194.00 47.00,171.00 47.00,171.00
             47.00,171.00 48.87,150.00 48.87,150.00
             53.76,114.81 67.00,83.41 96.00,61.24
             102.65,56.15 113.09,50.67 121.00,47.86
             130.35,44.54 144.06,42.43 154.00,42.04
             159.06,41.84 160.57,42.59 165.00,42.91
             190.61,44.78 212.86,53.65 229.54,74.00
             236.08,81.98 240.22,90.40 243.77,100.00
             243.77,100.00 248.16,113.43 248.16,113.43
             249.81,115.42 253.63,115.00 256.00,115.00
             256.00,115.00 291.00,115.00 291.00,115.00
             290.78,104.89 286.86,89.47 283.19,80.00
             270.81,48.02 245.08,22.54 213.00,10.42
             194.91,3.59 176.16,1.18 157.00,0.09
             152.71,-0.15 150.87,0.65 147.00,1.04
             147.00,1.04 137.00,1.04 137.00,1.04
             125.73,2.25 112.68,4.97 102.00,8.69
             46.91,27.91 16.43,75.88 5.40,131.00
             3.49,140.56 1.12,157.43 1.00,167.00
             1.00,167.00 1.00,197.00 1.00,197.00
             1.00,197.00 1.91,209.00 1.91,209.00
             4.82,250.54 17.62,295.23 47.04,326.00
             55.67,335.03 63.48,341.28 74.00,347.95
             93.93,360.57 121.41,367.96 145.00,368.00
             185.27,368.06 221.36,357.53 250.91,328.83
             267.85,312.38 278.33,291.10 285.67,269.00
             289.13,258.57 293.76,240.82 294.00,230.00 Z
           M 364.00,5.00
           C 364.00,5.00 364.00,366.00 364.00,366.00
             364.00,366.00 584.00,366.00 584.00,366.00
             584.00,366.00 584.00,323.00 584.00,323.00
             584.00,323.00 410.00,323.00 410.00,323.00
             410.00,323.00 410.00,5.00 410.00,5.00
             410.00,5.00 364.00,5.00 364.00,5.00 Z
           M 786.00,230.00
           C 786.00,230.00 788.00,230.00 788.00,230.00
             788.00,230.00 802.95,271.00 802.95,271.00
             811.59,294.10 820.34,319.41 834.00,340.00
             841.15,350.77 851.78,363.44 865.00,366.47
             867.98,367.16 872.84,367.03 876.00,367.00
             885.04,366.89 892.11,363.82 900.00,359.74
             917.61,350.63 938.38,327.51 949.33,311.00
             954.81,302.74 961.56,290.05 961.96,280.00
             962.39,269.47 956.54,258.85 945.00,265.99
             933.82,272.91 921.66,301.87 904.00,300.85
             893.11,300.23 882.61,279.92 878.26,271.00
             878.26,271.00 849.19,198.00 849.19,198.00
             849.19,198.00 838.32,170.00 838.32,170.00
             838.32,170.00 833.89,158.00 833.89,158.00
             832.97,152.61 842.18,139.98 845.20,135.00
             852.87,122.37 870.24,96.01 880.01,86.00
             884.91,80.99 892.13,73.62 899.00,71.64
             914.83,67.06 919.37,81.85 931.00,85.35
             946.88,90.14 961.59,70.65 964.48,57.00
             965.19,53.66 965.04,47.59 965.00,44.00
             964.88,34.31 961.62,22.23 954.82,15.09
             941.23,0.84 915.42,3.52 900.00,13.06
             883.30,23.40 869.78,40.83 859.00,57.00
             859.00,57.00 819.00,124.00 819.00,124.00
             813.44,107.96 791.68,54.63 784.24,40.00
             778.28,28.26 770.16,14.07 758.00,8.00
             746.79,2.39 734.30,5.99 724.00,11.87
             706.34,21.95 684.27,47.00 673.00,64.00
             667.83,71.81 659.73,85.25 661.33,95.00
             662.72,103.47 671.51,113.33 679.90,105.77
             683.52,102.52 692.80,86.55 704.00,77.47
             707.86,74.33 712.81,70.80 718.00,72.86
             725.84,75.97 731.97,90.61 735.30,98.00
             735.30,98.00 761.80,165.00 761.80,165.00
             761.80,165.00 769.20,184.00 769.20,184.00
             770.33,186.82 772.37,191.00 772.04,194.00
             771.64,197.60 760.66,216.63 758.15,221.00
             747.41,239.71 736.12,258.32 722.39,275.00
             716.67,281.95 706.64,292.57 698.00,295.44
             683.94,300.10 674.24,286.54 668.00,283.57
             662.09,280.76 655.44,282.21 650.00,285.36
             646.98,287.11 644.50,289.41 642.18,292.00
             639.36,295.17 636.75,299.11 635.04,303.00
             626.05,323.51 633.77,351.81 654.00,362.68
             662.41,367.19 666.85,367.10 676.00,367.00
             693.15,366.79 706.61,355.66 717.99,344.00
             735.93,325.62 755.55,290.18 767.78,267.00
             772.17,258.68 783.73,237.96 786.00,230.00 Z" />
</svg>
