<?xml version="1.0" encoding="UTF-8" standalone="no"?>
<svg 
     width="1565" 
	 height="376"
     viewBox="0 0 1565 376">
  <path id="Selection"
        fill="#000000" stroke="black" stroke-width="1"
        d="M 0.00,1.00
           C 0.00,1.00 0.00,366.00 0.00,366.00
             0.00,366.00 1.60,373.98 1.60,373.98
             1.60,373.98 14.00,375.00 14.00,375.00
             14.00,375.00 48.00,375.00 48.00,375.00
             48.00,375.00 48.00,217.00 48.00,217.00
             48.00,217.00 131.00,217.00 131.00,217.00
             158.44,217.00 186.87,218.87 212.00,205.51
             222.73,199.81 229.68,193.88 237.91,185.00
             270.06,150.31 273.66,83.15 247.92,44.00
             230.40,17.35 198.85,1.05 167.00,1.00
             167.00,1.00 0.00,1.00 0.00,1.00 Z
           M 298.00,5.00
           C 298.00,5.00 298.00,374.00 298.00,374.00
             298.00,374.00 346.00,374.00 346.00,374.00
             346.00,374.00 346.00,216.00 346.00,216.00
             346.00,216.00 466.00,216.00 466.00,216.00
             484.31,216.22 502.24,223.42 512.64,239.00
             521.98,253.00 521.97,270.83 522.00,287.00
             522.00,287.00 523.00,304.00 523.00,304.00
             523.00,304.00 524.91,342.00 524.91,342.00
             524.91,342.00 527.00,374.00 527.00,374.00
             527.00,374.00 577.00,374.00 577.00,374.00
             573.19,355.04 571.03,341.52 571.00,322.00
             571.00,322.00 570.00,305.00 570.00,305.00
             570.00,305.00 569.00,275.00 569.00,275.00
             569.00,275.00 568.00,263.00 568.00,263.00
             568.00,263.00 568.00,254.00 568.00,254.00
             566.89,239.10 562.88,221.89 553.48,210.00
             546.05,200.59 536.93,197.65 527.00,192.00
             541.15,185.09 556.14,170.83 563.69,157.00
             569.96,145.51 574.84,125.13 575.00,112.00
             575.43,74.57 568.34,41.08 533.00,20.87
             501.78,3.02 469.32,5.00 435.00,5.00
             435.00,5.00 298.00,5.00 298.00,5.00 Z
           M 614.00,6.00
           C 614.00,6.00 614.00,375.00 614.00,375.00
             614.00,375.00 872.00,375.00 872.00,375.00
             872.00,375.00 872.00,331.00 872.00,331.00
             872.00,331.00 661.00,331.00 661.00,331.00
             661.00,331.00 661.00,208.00 661.00,208.00
             661.00,208.00 853.00,208.00 853.00,208.00
             853.00,208.00 853.00,163.00 853.00,163.00
             853.00,163.00 661.00,163.00 661.00,163.00
             661.00,163.00 661.00,51.00 661.00,51.00
             661.00,51.00 860.00,51.00 860.00,51.00
             860.00,51.00 867.98,49.40 867.98,49.40
             867.98,49.40 869.00,37.00 869.00,37.00
             869.00,37.00 869.00,6.00 869.00,6.00
             869.00,6.00 614.00,6.00 614.00,6.00 Z
           M 913.00,7.00
           C 913.00,7.00 913.00,372.00 913.00,372.00
             913.00,372.00 960.00,372.00 960.00,372.00
             960.00,372.00 960.00,206.00 960.00,206.00
             960.00,206.00 1130.00,206.00 1130.00,206.00
             1130.00,206.00 1130.00,171.00 1130.00,171.00
             1130.00,171.00 1128.40,163.02 1128.40,163.02
             1128.40,163.02 1121.00,162.00 1121.00,162.00
             1121.00,162.00 1090.00,162.00 1090.00,162.00
             1090.00,162.00 960.00,162.00 960.00,162.00
             960.00,162.00 960.00,51.00 960.00,51.00
             960.00,51.00 1153.00,51.00 1153.00,51.00
             1153.00,51.00 1153.00,7.00 1153.00,7.00
             1153.00,7.00 913.00,7.00 913.00,7.00 Z
           M 1271.00,7.00
           C 1271.00,7.00 1301.67,55.00 1301.67,55.00
             1301.67,55.00 1326.34,93.00 1326.34,93.00
             1326.34,93.00 1355.81,138.00 1355.81,138.00
             1355.81,138.00 1376.67,170.00 1376.67,170.00
             1376.67,170.00 1384.65,183.58 1384.65,183.58
             1384.65,183.58 1376.31,198.00 1376.31,198.00
             1376.31,198.00 1352.33,234.00 1352.33,234.00
             1352.33,234.00 1295.33,320.00 1295.33,320.00
             1295.33,320.00 1263.00,370.00 1263.00,370.00
             1263.00,370.00 1311.00,370.00 1311.00,370.00
             1311.00,370.00 1318.82,368.98 1318.82,368.98
             1318.82,368.98 1327.05,358.00 1327.05,358.00
             1327.05,358.00 1341.81,335.00 1341.81,335.00
             1341.81,335.00 1391.05,258.00 1391.05,258.00
             1391.05,258.00 1414.00,221.00 1414.00,221.00
             1414.00,221.00 1441.42,265.00 1441.42,265.00
             1441.42,265.00 1484.40,334.00 1484.40,334.00
             1484.40,334.00 1499.32,358.00 1499.32,358.00
             1499.32,358.00 1507.32,368.98 1507.32,368.98
             1507.32,368.98 1515.00,370.00 1515.00,370.00
             1515.00,370.00 1564.00,370.00 1564.00,370.00
             1564.00,370.00 1553.00,351.00 1553.00,351.00
             1553.00,351.00 1534.00,322.00 1534.00,322.00
             1534.00,322.00 1476.31,233.00 1476.31,233.00
             1476.31,233.00 1453.58,198.00 1453.58,198.00
             1453.58,198.00 1445.54,184.00 1445.54,184.00
             1445.54,184.00 1453.05,170.00 1453.05,170.00
             1453.05,170.00 1476.00,135.00 1476.00,135.00
             1476.00,135.00 1534.05,46.00 1534.05,46.00
             1534.05,46.00 1559.00,7.00 1559.00,7.00
             1559.00,7.00 1511.00,7.00 1511.00,7.00
             1511.00,7.00 1503.33,8.02 1503.33,8.02
             1503.33,8.02 1496.68,17.00 1496.68,17.00
             1496.68,17.00 1482.81,39.00 1482.81,39.00
             1482.81,39.00 1439.58,108.00 1439.58,108.00
             1439.58,108.00 1417.00,145.00 1417.00,145.00
             1417.00,145.00 1395.95,112.00 1395.95,112.00
             1395.95,112.00 1350.58,40.00 1350.58,40.00
             1350.58,40.00 1336.81,18.00 1336.81,18.00
             1336.81,18.00 1329.48,7.99 1329.48,7.99
             1329.48,7.99 1322.00,7.00 1322.00,7.00
             1322.00,7.00 1271.00,7.00 1271.00,7.00 Z
           M 1190.00,8.00
           C 1190.00,8.00 1190.00,369.00 1190.00,369.00
             1190.00,369.00 1239.00,369.00 1239.00,369.00
             1239.00,369.00 1239.00,8.00 1239.00,8.00
             1239.00,8.00 1190.00,8.00 1190.00,8.00 Z
           M 48.00,173.00
           C 48.00,173.00 48.00,44.00 48.00,44.00
             48.00,44.00 141.00,44.00 141.00,44.00
             141.00,44.00 153.00,44.91 153.00,44.91
             168.56,45.98 183.40,47.92 196.00,58.33
             201.29,62.70 206.17,68.78 209.11,75.00
             219.56,97.14 216.98,136.59 199.83,154.96
             188.45,167.15 168.31,172.97 152.00,173.00
             152.00,173.00 48.00,173.00 48.00,173.00 Z
           M 346.00,174.00
           C 346.00,174.00 346.00,49.00 346.00,49.00
             346.00,49.00 465.00,49.00 465.00,49.00
             482.84,49.03 501.56,53.07 513.82,67.00
             521.61,75.86 525.86,90.31 526.00,102.00
             526.27,125.10 526.29,145.84 506.00,161.47
             495.03,169.93 475.68,173.84 462.00,174.00
             462.00,174.00 346.00,174.00 346.00,174.00 Z" />
</svg>
