<?xml version="1.0" encoding="UTF-8" standalone="no"?>
<svg 
     width="1193" 
	 height="337"
     viewBox="0 0 1193 337">
  <path id="Selection"
        fill="#000000" stroke="black" stroke-width="1"
        d="M 267.00,336.00
           C 267.00,336.00 306.00,336.00 306.00,336.00
             308.21,336.00 311.71,336.22 313.58,334.98
             316.28,333.19 321.03,317.85 322.33,314.00
             322.33,314.00 342.33,258.00 342.33,258.00
             343.62,254.19 347.25,241.92 350.27,240.02
             352.24,238.79 355.72,239.00 358.00,239.00
             358.00,239.00 475.00,239.00 475.00,239.00
             477.21,239.00 480.71,238.78 482.58,240.02
             485.61,242.03 489.63,256.88 491.00,261.00
             491.00,261.00 505.69,305.00 505.69,305.00
             505.69,305.00 516.00,336.00 516.00,336.00
             516.00,336.00 566.00,336.00 566.00,336.00
             564.93,329.19 557.80,311.50 555.05,304.00
             555.05,304.00 534.05,246.00 534.05,246.00
             534.05,246.00 473.31,78.00 473.31,78.00
             473.31,78.00 451.58,18.00 451.58,18.00
             450.35,14.73 446.51,2.63 444.30,0.99
             442.88,-0.07 440.69,0.03 439.00,0.00
             439.00,0.00 402.00,0.00 402.00,0.00
             399.75,0.00 396.32,-0.22 394.39,1.02
             391.33,3.00 387.67,15.12 386.19,19.00
             386.19,19.00 363.95,78.00 363.95,78.00
             363.95,78.00 307.58,228.00 307.58,228.00
             307.58,228.00 281.58,297.00 281.58,297.00
             281.58,297.00 267.00,336.00 267.00,336.00 Z
           M 1.00,4.00
           C 1.00,4.00 1.00,337.00 1.00,337.00
             1.00,337.00 44.00,337.00 44.00,337.00
             44.00,337.00 44.00,194.00 44.00,194.00
             44.00,194.00 146.00,194.00 146.00,194.00
             160.86,194.18 177.97,197.23 188.91,208.09
             199.72,218.82 202.98,235.28 203.04,250.00
             203.04,250.00 203.04,264.00 203.04,264.00
             203.04,264.00 204.00,276.00 204.00,276.00
             204.00,276.00 205.09,305.00 205.09,305.00
             205.09,305.00 207.00,337.00 207.00,337.00
             207.00,337.00 253.00,337.00 253.00,337.00
             248.34,320.88 247.03,298.84 247.00,282.00
             247.00,282.00 246.04,270.00 246.04,270.00
             246.04,270.00 246.04,256.00 246.04,256.00
             246.04,256.00 245.00,242.00 245.00,242.00
             244.87,213.62 239.57,183.00 208.00,174.00
             208.00,174.00 208.00,172.00 208.00,172.00
             214.45,169.53 222.03,163.76 227.00,158.96
             247.38,139.27 251.04,115.97 251.00,89.00
             250.98,76.42 247.41,59.13 241.51,48.00
             234.96,35.65 225.86,26.39 214.00,19.06
             198.79,9.67 172.84,4.03 155.00,4.00
             155.00,4.00 128.00,4.00 128.00,4.00
             128.00,4.00 1.00,4.00 1.00,4.00 Z
           M 1019.00,5.00
           C 1019.00,5.00 1012.83,74.00 1012.83,74.00
             1012.83,74.00 1010.00,106.00 1010.00,106.00
             1010.00,106.00 958.00,106.00 958.00,106.00
             958.00,106.00 955.00,137.00 955.00,137.00
             955.00,137.00 1007.00,137.00 1007.00,137.00
             1007.00,137.00 1005.17,156.00 1005.17,156.00
             1005.17,156.00 1002.83,186.00 1002.83,186.00
             1002.83,186.00 1001.00,205.00 1001.00,205.00
             1001.00,205.00 956.00,205.00 956.00,205.00
             956.00,205.00 950.02,206.60 950.02,206.60
             950.02,206.60 948.09,216.00 948.09,216.00
             948.09,216.00 946.00,236.00 946.00,236.00
             946.00,236.00 998.00,236.00 998.00,236.00
             998.00,236.00 995.17,268.00 995.17,268.00
             995.17,268.00 989.00,337.00 989.00,337.00
             989.00,337.00 1023.00,337.00 1023.00,337.00
             1023.00,337.00 1025.83,306.00 1025.83,306.00
             1025.83,306.00 1029.17,266.00 1029.17,266.00
             1029.17,266.00 1032.00,236.00 1032.00,236.00
             1032.00,236.00 1094.00,236.00 1094.00,236.00
             1094.00,236.00 1092.17,260.00 1092.17,260.00
             1092.17,260.00 1089.83,289.00 1089.83,289.00
             1089.83,289.00 1086.00,337.00 1086.00,337.00
             1086.00,337.00 1119.00,337.00 1119.00,337.00
             1119.00,337.00 1123.17,293.00 1123.17,293.00
             1123.17,293.00 1128.00,236.00 1128.00,236.00
             1128.00,236.00 1174.00,236.00 1174.00,236.00
             1174.00,236.00 1179.83,234.43 1179.83,234.43
             1179.83,234.43 1181.17,226.00 1181.17,226.00
             1181.17,226.00 1183.00,205.00 1183.00,205.00
             1183.00,205.00 1131.00,205.00 1131.00,205.00
             1132.36,200.22 1132.65,190.35 1133.17,185.00
             1133.17,185.00 1135.91,156.00 1135.91,156.00
             1136.19,152.16 1136.21,140.09 1139.31,138.02
             1141.16,136.79 1144.81,137.00 1147.00,137.00
             1147.00,137.00 1190.00,137.00 1190.00,137.00
             1190.00,137.00 1192.00,106.00 1192.00,106.00
             1192.00,106.00 1140.00,106.00 1140.00,106.00
             1140.00,106.00 1144.17,64.00 1144.17,64.00
             1144.17,64.00 1149.00,5.00 1149.00,5.00
             1149.00,5.00 1124.00,5.00 1124.00,5.00
             1124.00,5.00 1116.60,6.02 1116.60,6.02
             1116.60,6.02 1114.58,12.00 1114.58,12.00
             1114.58,12.00 1113.01,29.00 1113.01,29.00
             1113.01,29.00 1106.00,106.00 1106.00,106.00
             1106.00,106.00 1044.00,106.00 1044.00,106.00
             1044.00,106.00 1049.17,49.00 1049.17,49.00
             1049.17,49.00 1052.09,16.00 1052.09,16.00
             1052.09,16.00 1053.00,5.00 1053.00,5.00
             1053.00,5.00 1019.00,5.00 1019.00,5.00 Z
           M 587.00,6.00
           C 587.00,6.00 587.00,335.00 587.00,335.00
             587.00,335.00 628.00,335.00 628.00,335.00
             628.00,335.00 628.00,70.00 628.00,70.00
             628.00,70.00 748.80,272.00 748.80,272.00
             748.80,272.00 776.99,319.00 776.99,319.00
             779.37,323.06 783.85,332.70 788.09,334.40
             789.88,335.12 793.03,335.00 795.00,335.00
             795.00,335.00 834.00,335.00 834.00,335.00
             834.00,335.00 834.00,6.00 834.00,6.00
             834.00,6.00 802.00,6.00 802.00,6.00
             793.36,6.02 793.02,6.36 793.00,15.00
             793.00,15.00 793.00,68.00 793.00,68.00
             793.00,68.00 793.00,271.00 793.00,271.00
             793.00,271.00 750.99,200.00 750.99,200.00
             750.99,200.00 673.99,69.00 673.99,69.00
             673.99,69.00 646.28,22.00 646.28,22.00
             644.33,18.57 638.91,8.00 635.67,6.57
             634.07,5.86 630.81,6.00 629.00,6.00
             629.00,6.00 587.00,6.00 587.00,6.00 Z
           M 44.00,157.00
           C 44.00,157.00 44.00,44.00 44.00,44.00
             44.00,44.00 153.00,44.00 153.00,44.00
             167.26,44.02 183.65,47.41 193.91,58.04
             198.87,63.18 202.24,70.20 204.28,77.00
             210.56,97.95 207.88,131.13 189.00,145.07
             180.45,151.38 168.50,154.82 158.00,155.96
             158.00,155.96 148.00,155.96 148.00,155.96
             148.00,155.96 136.00,157.00 136.00,157.00
             136.00,157.00 44.00,157.00 44.00,157.00 Z
           M 418.00,51.00
           C 418.00,51.00 467.00,198.00 467.00,198.00
             467.00,198.00 363.00,198.00 363.00,198.00
             363.00,198.00 375.05,165.00 375.05,165.00
             375.05,165.00 400.95,94.00 400.95,94.00
             400.95,94.00 411.42,65.00 411.42,65.00
             411.42,65.00 418.00,51.00 418.00,51.00 Z
           M 1103.00,137.00
           C 1103.00,137.00 1101.17,162.00 1101.17,162.00
             1101.17,162.00 1098.91,192.00 1098.91,192.00
             1098.91,192.00 1098.00,205.00 1098.00,205.00
             1098.00,205.00 1035.00,205.00 1035.00,205.00
             1035.00,205.00 1037.83,174.00 1037.83,174.00
             1037.83,174.00 1039.17,157.00 1039.17,157.00
             1039.17,157.00 1041.00,137.00 1041.00,137.00
             1041.00,137.00 1103.00,137.00 1103.00,137.00 Z" />
</svg>
