<?xml version="1.0" encoding="UTF-8" standalone="no"?>
<svg 
     width="1126"
	 height="371"
     viewBox="0 0 1126 371">
  <path id="Selection"
        fill="#000000" stroke="black" stroke-width="1"
        d="M 291.00,248.00
           C 291.00,248.00 248.00,248.00 248.00,248.00
             248.00,281.57 255.20,311.64 280.01,335.96
             304.62,360.08 331.63,367.76 365.00,370.09
             365.00,370.09 377.00,371.00 377.00,371.00
             393.24,371.03 408.02,369.98 424.00,366.80
             446.66,362.29 471.65,351.98 487.71,334.91
             503.57,318.07 512.96,295.20 513.00,272.00
             513.00,272.00 513.00,255.00 513.00,255.00
             512.91,247.97 510.80,237.73 508.66,231.00
             505.91,222.40 504.13,217.70 499.14,210.00
             481.07,182.16 455.03,175.13 425.00,167.63
             425.00,167.63 371.00,154.37 371.00,154.37
             346.72,148.30 313.47,145.23 304.77,117.00
             302.93,111.02 302.93,106.15 303.00,100.00
             303.06,94.92 304.05,88.89 305.43,84.00
             314.68,51.21 350.50,40.65 381.00,41.00
             409.99,41.34 440.59,53.98 454.19,81.00
             458.95,90.45 461.52,102.46 462.00,113.00
             462.00,113.00 504.00,113.00 504.00,113.00
             503.98,84.28 494.58,52.87 473.72,32.42
             460.77,19.74 445.24,12.25 428.00,7.29
             417.55,4.29 398.79,1.13 388.00,1.00
             388.00,1.00 365.00,1.00 365.00,1.00
             339.53,1.04 310.96,11.08 292.00,28.17
             269.09,48.82 258.65,80.76 259.00,111.00
             259.08,117.89 260.74,129.39 262.72,136.00
             264.37,141.50 267.05,148.13 270.06,153.00
             288.62,182.97 315.51,188.60 347.00,196.37
             347.00,196.37 403.00,210.13 403.00,210.13
             412.82,212.59 422.60,215.64 432.00,219.40
             450.80,226.92 464.59,235.64 468.54,257.00
             469.18,260.45 470.09,268.58 469.96,272.00
             468.72,303.96 446.68,319.24 418.00,326.37
             411.66,327.95 400.42,329.92 394.00,330.00
             394.00,330.00 374.00,330.00 374.00,330.00
             346.80,329.96 317.58,317.26 302.55,294.00
             299.12,288.70 295.84,281.07 294.04,275.00
             291.13,265.20 291.00,257.99 291.00,248.00 Z
           M 518.00,3.00
           C 518.00,3.00 518.00,47.00 518.00,47.00
             518.00,47.00 635.00,47.00 635.00,47.00
             635.00,47.00 635.00,368.00 635.00,368.00
             635.00,368.00 682.00,368.00 682.00,368.00
             682.00,368.00 682.00,47.00 682.00,47.00
             682.00,47.00 799.00,47.00 799.00,47.00
             799.00,47.00 799.00,3.00 799.00,3.00
             799.00,3.00 518.00,3.00 518.00,3.00 Z
           M 0.00,7.00
           C 0.00,7.00 0.00,368.00 0.00,368.00
             0.00,368.00 220.00,368.00 220.00,368.00
             220.00,368.00 220.00,325.00 220.00,325.00
             220.00,325.00 47.00,325.00 47.00,325.00
             47.00,325.00 47.00,7.00 47.00,7.00
             47.00,7.00 0.00,7.00 0.00,7.00 Z
           M 947.00,232.00
           C 947.00,232.00 958.42,261.00 958.42,261.00
             967.96,286.06 978.98,318.95 993.34,341.00
             1002.60,355.21 1016.37,370.97 1035.00,369.91
             1063.98,368.26 1093.53,337.66 1108.65,315.00
             1114.74,305.87 1121.73,293.19 1121.99,282.00
             1122.04,279.59 1122.07,276.28 1121.35,274.00
             1118.61,265.30 1110.68,264.24 1104.00,269.39
             1094.27,276.90 1090.06,288.83 1077.00,298.48
             1070.47,303.31 1064.00,305.38 1057.04,300.21
             1048.66,293.99 1042.37,280.26 1037.75,271.00
             1037.75,271.00 1007.80,196.00 1007.80,196.00
             1007.80,196.00 997.68,170.00 997.68,170.00
             996.79,167.59 994.05,161.13 994.02,159.00
             993.97,154.76 1003.64,140.25 1006.32,136.00
             1016.14,120.42 1026.75,103.95 1038.73,90.00
             1043.94,83.93 1052.92,75.11 1061.00,73.39
             1079.09,69.54 1083.56,94.87 1104.00,86.52
             1106.88,85.34 1108.71,83.97 1111.00,81.90
             1113.41,79.71 1116.32,76.65 1118.21,74.00
             1120.56,70.72 1123.00,65.89 1124.07,62.00
             1128.27,46.75 1124.51,23.54 1111.00,13.79
             1097.90,4.34 1075.43,6.92 1062.00,14.44
             1038.37,27.66 1020.64,56.41 1006.58,79.00
             1006.58,79.00 980.00,126.00 980.00,126.00
             980.00,126.00 967.80,97.00 967.80,97.00
             959.85,77.11 952.23,56.97 942.22,38.00
             936.14,26.48 926.57,11.64 913.00,8.53
             910.28,7.90 906.81,7.97 904.00,8.00
             892.79,8.13 882.56,14.47 874.00,21.21
             859.79,32.40 842.05,52.69 832.22,68.00
             827.07,76.02 819.32,89.10 821.93,99.00
             823.89,106.44 832.33,114.75 839.82,108.57
             842.17,106.63 845.80,100.79 847.89,98.00
             852.51,91.83 857.31,86.32 863.00,81.09
             866.84,77.56 872.45,72.84 878.00,75.10
             885.82,78.28 892.75,93.43 896.00,101.00
             896.00,101.00 921.60,166.00 921.60,166.00
             921.60,166.00 929.00,185.00 929.00,185.00
             930.14,187.86 932.44,193.02 932.29,196.00
             932.12,199.34 929.08,204.06 927.42,207.00
             927.42,207.00 918.58,223.00 918.58,223.00
             907.82,241.76 895.94,261.40 882.08,278.00
             876.02,285.26 867.17,294.76 858.00,297.89
             843.69,302.78 834.21,287.24 825.00,284.80
             819.45,283.33 812.54,285.89 808.00,289.05
             795.11,298.04 791.83,312.31 792.00,327.00
             792.26,348.72 808.88,368.47 831.00,369.91
             841.96,370.63 854.13,365.94 863.00,359.80
             880.17,347.90 893.47,328.59 904.42,311.00
             915.95,292.50 938.58,251.54 947.00,232.00 Z" />
</svg>
