<?xml version="1.0" encoding="UTF-8" standalone="no"?>
<svg 
     width="137"
	 height="954"
     viewBox="0 0 137 954">
  <path id="Selection"
        fill="#000000" stroke="black" stroke-width="1"
        d="M 4.00,0.00
           C 4.00,0.00 126.00,0.00 126.00,0.00
             126.00,0.00 126.00,16.00 126.00,16.00
             126.00,16.00 27.00,16.00 27.00,16.00
             27.00,16.00 27.00,70.00 27.00,70.00
             27.00,70.00 118.00,70.00 118.00,70.00
             118.00,70.00 118.00,92.00 118.00,92.00
             118.00,92.00 27.00,92.00 27.00,92.00
             27.00,92.00 27.00,151.00 27.00,151.00
             27.00,151.00 128.00,151.00 128.00,151.00
             128.00,151.00 129.00,173.00 129.00,173.00
             129.00,173.00 33.00,173.00 33.00,173.00
             33.00,173.00 11.00,173.00 11.00,173.00
             11.00,173.00 5.02,171.40 5.02,171.40
             5.02,171.40 4.00,164.00 4.00,164.00
             4.00,164.00 4.00,0.00 4.00,0.00 Z
           M 1.00,192.00
           C 1.00,192.00 20.00,192.00 20.00,192.00
             20.00,192.00 27.67,193.02 27.67,193.02
             27.67,193.02 34.01,202.00 34.01,202.00
             34.01,202.00 47.40,225.00 47.40,225.00
             47.40,225.00 85.58,290.00 85.58,290.00
             85.58,290.00 110.00,331.00 110.00,331.00
             110.00,331.00 110.00,192.00 110.00,192.00
             110.00,192.00 132.00,192.00 132.00,192.00
             132.00,192.00 132.00,367.00 132.00,367.00
             132.00,367.00 115.00,367.00 115.00,367.00
             115.00,367.00 107.32,365.98 107.32,365.98
             107.32,365.98 100.00,356.00 100.00,356.00
             100.00,356.00 86.94,334.00 86.94,334.00
             86.94,334.00 44.60,263.00 44.60,263.00
             44.60,263.00 23.00,228.00 23.00,228.00
             23.00,228.00 23.00,367.00 23.00,367.00
             23.00,367.00 1.00,367.00 1.00,367.00
             1.00,367.00 1.00,192.00 1.00,192.00 Z
           M 0.00,386.00
           C 0.00,386.00 134.00,386.00 134.00,386.00
             134.00,386.00 134.00,408.00 134.00,408.00
             134.00,408.00 78.00,408.00 78.00,408.00
             78.00,408.00 78.00,561.00 78.00,561.00
             78.00,561.00 55.00,561.00 55.00,561.00
             55.00,561.00 55.00,408.00 55.00,408.00
             55.00,408.00 0.00,408.00 0.00,408.00
             0.00,408.00 0.00,386.00 0.00,386.00 Z
           M 3.00,581.00
           C 3.00,581.00 126.00,581.00 126.00,581.00
             126.00,581.00 126.00,603.00 126.00,603.00
             126.00,603.00 27.00,603.00 27.00,603.00
             27.00,603.00 27.00,656.00 27.00,656.00
             27.00,656.00 118.00,656.00 118.00,656.00
             118.00,656.00 118.00,678.00 118.00,678.00
             118.00,678.00 27.00,678.00 27.00,678.00
             27.00,678.00 27.00,737.00 27.00,737.00
             27.00,737.00 128.00,737.00 128.00,737.00
             128.00,737.00 128.00,758.00 128.00,758.00
             128.00,758.00 3.00,758.00 3.00,758.00
             3.00,758.00 3.00,581.00 3.00,581.00 Z
           M 0.00,777.00
           C 0.00,777.00 65.00,777.00 65.00,777.00
             81.67,777.00 96.79,775.94 112.00,784.31
             118.12,787.68 123.70,792.86 127.10,799.00
             135.47,814.15 134.88,840.94 124.39,855.00
             120.82,859.78 116.26,863.29 111.00,866.00
             111.00,866.00 111.00,868.00 111.00,868.00
             126.20,874.59 127.67,883.05 129.17,898.00
             129.17,898.00 130.00,916.00 130.00,916.00
             130.00,916.00 131.04,928.00 131.04,928.00
             131.04,928.00 131.04,938.00 131.04,938.00
             131.04,938.00 133.00,954.00 133.00,954.00
             133.00,954.00 109.00,954.00 109.00,954.00
             109.00,954.00 108.00,932.00 108.00,932.00
             108.00,932.00 107.00,917.00 107.00,917.00
             106.98,905.64 107.95,894.71 98.96,886.10
             92.59,880.01 86.40,879.01 78.00,879.00
             78.00,879.00 23.00,879.00 23.00,879.00
             23.00,879.00 23.00,954.00 23.00,954.00
             23.00,954.00 0.00,954.00 0.00,954.00
             0.00,954.00 0.00,777.00 0.00,777.00 Z
           M 23.00,858.00
           C 23.00,858.00 78.00,858.00 78.00,858.00
             85.25,857.99 92.88,857.21 98.91,852.78
             112.60,842.73 112.65,815.06 99.98,804.22
             94.57,799.59 88.78,799.01 82.00,799.00
             82.00,799.00 23.00,799.00 23.00,799.00
             23.00,799.00 23.00,858.00 23.00,858.00 Z" />
</svg>
