<?xml version="1.0" encoding="UTF-8" standalone="no"?>
<svg 
     width="589"
	 height="370"
     viewBox="0 0 589 370">
  <path id="Selection"
        fill="#000000" stroke="black" stroke-width="1"
        d="M 310.00,1.00
           C 310.00,1.00 310.00,370.00 310.00,370.00
             310.00,370.00 358.00,370.00 358.00,370.00
             358.00,370.00 358.00,212.00 358.00,212.00
             358.00,212.00 478.00,212.00 478.00,212.00
             495.58,212.21 513.86,219.15 524.10,234.00
             533.89,248.21 533.97,266.46 534.00,283.00
             534.00,283.00 535.00,300.00 535.00,300.00
             535.00,300.00 536.91,338.00 536.91,338.00
             536.91,338.00 539.00,370.00 539.00,370.00
             539.00,370.00 589.00,370.00 589.00,370.00
             585.03,350.28 583.03,337.30 583.00,317.00
             583.00,317.00 582.00,301.00 582.00,301.00
             582.00,301.00 581.00,271.00 581.00,271.00
             581.00,271.00 580.00,259.00 580.00,259.00
             580.00,259.00 580.00,250.00 580.00,250.00
             578.89,235.10 574.88,217.89 565.48,206.00
             558.05,196.59 548.93,193.65 539.00,188.00
             553.15,181.09 568.14,166.83 575.69,153.00
             581.96,141.51 586.84,121.13 587.00,108.00
             587.43,70.56 580.34,37.07 545.00,16.87
             513.77,-0.98 481.34,1.00 447.00,1.00
             447.00,1.00 310.00,1.00 310.00,1.00 Z
           M 358.00,170.00
           C 358.00,170.00 358.00,45.00 358.00,45.00
             358.00,45.00 477.00,45.00 477.00,45.00
             494.84,45.03 513.56,49.07 525.82,63.00
             533.61,71.86 537.86,86.31 538.00,98.00
             538.27,121.10 538.29,141.84 518.00,157.47
             507.03,165.93 487.68,169.84 474.00,170.00
             474.00,170.00 358.00,170.00 358.00,170.00 Z
           M 100.00,153.00
           C 100.00,153.00 11.00,153.00 11.00,153.00
             2.32,153.02 0.06,153.75 0.00,163.00
             0.00,163.00 0.00,218.00 0.00,218.00
             0.01,220.77 -0.29,224.44 1.60,226.69
             4.64,230.30 19.10,229.00 24.00,229.00
             24.00,229.00 100.00,229.00 100.00,229.00
             100.00,229.00 100.00,260.00 100.00,260.00
             100.00,260.00 101.00,278.00 101.00,278.00
             110.76,273.64 133.35,257.32 143.00,250.42
             143.00,250.42 197.00,211.58 197.00,211.58
             197.00,211.58 224.00,192.00 224.00,192.00
             224.00,192.00 224.00,190.00 224.00,190.00
             224.00,190.00 194.00,168.71 194.00,168.71
             194.00,168.71 131.00,123.58 131.00,123.58
             131.00,123.58 110.00,108.42 110.00,108.42
             108.16,107.14 103.92,103.79 101.60,105.15
             99.63,106.31 100.00,111.00 100.00,113.00
             100.00,113.00 100.00,153.00 100.00,153.00 Z" />
</svg>
