<?xml version="1.0" encoding="UTF-8" standalone="no"?>
<svg 
     width="580" 
	 height="374"
     viewBox="0 0 580 374">
  <path id="Selection"
        fill="#000000" stroke="black" stroke-width="1"
        d="M 363.00,374.00
           C 363.00,374.00 363.00,216.00 363.00,216.00
             363.00,216.00 455.00,216.00 455.00,216.00
             480.47,216.00 504.72,216.94 528.00,204.14
             553.48,190.13 568.70,166.69 575.63,139.00
             577.21,132.64 578.92,123.50 579.00,117.00
             579.13,105.31 579.51,93.56 577.57,82.00
             572.76,53.43 557.02,29.34 532.00,14.45
             505.42,-1.36 475.67,0.00 446.00,0.00
             446.00,0.00 324.00,0.00 324.00,0.00
             322.01,0.00 318.19,-0.23 316.60,1.02
             314.90,2.37 315.04,5.05 315.00,7.00
             315.00,7.00 315.00,24.00 315.00,24.00
             315.00,24.00 315.00,101.00 315.00,101.00
             315.00,101.00 315.00,365.00 315.00,365.00
             315.00,367.30 314.62,371.41 316.60,372.98
             318.49,374.48 326.34,374.00 329.00,374.00
             329.00,374.00 363.00,374.00 363.00,374.00 Z
           M 363.00,173.00
           C 363.00,173.00 363.00,44.00 363.00,44.00
             363.00,44.00 468.00,44.00 468.00,44.00
             485.25,44.03 505.05,49.78 516.82,63.00
             525.24,72.47 529.85,86.42 530.00,99.00
             530.27,122.07 529.28,142.61 510.00,158.68
             497.65,168.97 478.79,172.98 463.00,173.00
             463.00,173.00 363.00,173.00 363.00,173.00 Z
           M 101.00,110.00
           C 101.00,110.00 101.00,149.00 101.00,149.00
             101.00,151.19 101.21,154.84 99.98,156.69
             97.60,160.25 83.37,159.00 79.00,159.00
             79.00,159.00 11.00,159.00 11.00,159.00
             2.32,159.02 0.06,159.75 0.00,169.00
             0.00,169.00 0.00,223.00 0.00,223.00
             0.00,225.19 -0.21,228.84 1.02,230.69
             3.40,234.25 17.63,233.00 22.00,233.00
             22.00,233.00 91.00,233.00 91.00,233.00
             93.91,233.01 98.14,232.55 99.98,235.31
             101.49,237.58 101.00,245.97 101.00,249.00
             101.00,249.00 101.00,282.00 101.00,282.00
             110.64,279.19 129.05,264.98 138.00,258.72
             138.00,258.72 198.00,215.58 198.00,215.58
             198.00,215.58 224.00,197.00 224.00,197.00
             219.12,190.75 201.38,179.25 194.00,174.00
             194.00,174.00 135.00,131.71 135.00,131.71
             135.00,131.71 115.00,117.29 115.00,117.29
             110.02,113.74 107.25,110.87 101.00,110.00 Z" />
</svg>
