<?xml version="1.0" encoding="UTF-8" standalone="no"?>
<svg 
     width="235" 
	 height="343"
     viewBox="0 0 235 343">
  <path id="Selection"
        fill="#000000" stroke="black" stroke-width="1"
        d="M 52.00,124.00
           C 53.33,94.95 59.80,63.25 87.00,47.46
             95.90,42.30 104.93,40.63 115.00,39.91
             128.47,38.95 142.63,40.44 155.00,46.32
             175.26,55.94 188.74,77.70 189.00,100.00
             189.10,108.77 188.24,117.62 185.48,126.00
             176.39,153.60 149.60,167.38 126.00,180.85
             126.00,180.85 73.00,211.81 73.00,211.81
             25.33,241.08 1.00,287.62 1.00,343.00
             1.00,343.00 235.00,343.00 235.00,343.00
             235.00,343.00 235.00,303.00 235.00,303.00
             235.00,303.00 49.00,303.00 49.00,303.00
             52.77,276.27 79.26,254.34 101.00,241.20
             101.00,241.20 182.00,195.00 182.00,195.00
             200.29,182.75 218.09,166.87 226.55,146.00
             242.07,107.70 235.94,58.21 205.00,29.09
             164.13,-9.37 82.50,-8.03 42.00,30.09
             24.08,46.95 13.66,73.85 10.95,98.00
             10.95,98.00 9.87,114.00 9.87,114.00
             9.44,116.35 8.43,120.37 9.87,122.40
             11.57,124.38 15.71,124.00 18.00,124.00
             18.00,124.00 52.00,124.00 52.00,124.00 Z" />
</svg>
