<?xml version="1.0" encoding="UTF-8" standalone="no"?>
<svg 
     width="566"
	 height="372"
     viewBox="0 0 566 372">
  <path id="Selection"
        fill="#000000" stroke="black" stroke-width="1"
        d="M 287.00,1.00
           C 287.00,1.00 287.00,372.00 287.00,372.00
             287.00,372.00 334.00,372.00 334.00,372.00
             334.00,372.00 334.00,199.00 334.00,199.00
             334.00,199.00 518.00,199.00 518.00,199.00
             518.00,199.00 518.00,372.00 518.00,372.00
             518.00,372.00 565.00,372.00 565.00,372.00
             565.00,372.00 565.00,1.00 565.00,1.00
             565.00,1.00 518.00,1.00 518.00,1.00
             518.00,1.00 518.00,154.00 518.00,154.00
             518.00,154.00 334.00,154.00 334.00,154.00
             334.00,154.00 334.00,1.00 334.00,1.00
             334.00,1.00 287.00,1.00 287.00,1.00 Z
           M 101.00,107.00
           C 101.00,107.00 101.00,146.00 101.00,146.00
             101.00,148.19 101.21,151.84 99.98,153.69
             97.60,157.25 83.37,156.00 79.00,156.00
             79.00,156.00 11.00,156.00 11.00,156.00
             2.32,156.02 0.06,156.75 0.00,166.00
             0.00,166.00 0.00,220.00 0.00,220.00
             0.00,222.19 -0.21,225.84 1.02,227.69
             3.40,231.25 17.63,230.00 22.00,230.00
             22.00,230.00 91.00,230.00 91.00,230.00
             93.91,230.01 98.14,229.55 99.98,232.31
             101.49,234.58 101.00,242.97 101.00,246.00
             101.00,246.00 101.00,279.00 101.00,279.00
             110.64,276.19 129.05,261.98 138.00,255.72
             138.00,255.72 198.00,212.58 198.00,212.58
             198.00,212.58 224.00,194.00 224.00,194.00
             219.12,187.75 201.38,176.25 194.00,171.00
             194.00,171.00 135.00,128.71 135.00,128.71
             135.00,128.71 115.00,114.29 115.00,114.29
             110.02,110.74 107.25,107.87 101.00,107.00 Z" />
</svg>
