<?xml version="1.0" encoding="UTF-8" standalone="no"?>
<svg 
     width="1253"
	 height="370"
     viewBox="0 0 1253 370">
  <path id="Selection"
        fill="#000000" stroke="black" stroke-width="1"
        d="M 310.00,0.00
           C 310.00,0.00 310.00,369.00 310.00,369.00
             310.00,369.00 358.00,369.00 358.00,369.00
             358.00,369.00 358.00,211.00 358.00,211.00
             358.00,211.00 473.00,211.00 473.00,211.00
             488.51,211.19 506.42,215.12 517.91,226.17
             534.65,242.28 533.97,268.52 534.00,290.00
             534.00,290.00 535.00,307.00 535.00,307.00
             535.00,307.00 538.00,369.00 538.00,369.00
             538.00,369.00 588.00,369.00 588.00,369.00
             588.00,369.00 585.42,353.00 585.42,353.00
             585.42,353.00 583.00,328.00 583.00,328.00
             583.00,328.00 582.00,300.00 582.00,300.00
             582.00,300.00 581.00,284.00 581.00,284.00
             581.00,284.00 580.00,255.00 580.00,255.00
             579.83,240.73 575.25,218.39 566.47,207.00
             558.86,197.12 550.12,192.79 539.00,188.00
             554.39,176.12 565.72,170.67 575.68,152.00
             582.86,138.54 586.98,117.23 587.00,102.00
             587.06,62.04 574.12,28.15 535.00,11.43
             503.85,-1.89 472.93,0.00 440.00,0.00
             440.00,0.00 310.00,0.00 310.00,0.00 Z
           M 617.00,369.00
           C 617.00,369.00 661.00,369.00 661.00,369.00
             663.04,369.00 666.63,369.26 668.30,368.01
             670.01,366.73 670.99,363.00 671.67,361.00
             671.67,361.00 677.34,345.00 677.34,345.00
             677.34,345.00 699.95,282.00 699.95,282.00
             701.48,277.81 704.85,265.17 708.27,263.02
             710.24,261.79 713.72,262.00 716.00,262.00
             716.00,262.00 844.00,262.00 844.00,262.00
             846.28,262.00 849.76,261.79 851.73,263.02
             854.03,264.47 854.83,267.57 855.67,270.00
             855.67,270.00 861.33,286.00 861.33,286.00
             861.33,286.00 889.00,369.00 889.00,369.00
             889.00,369.00 944.00,369.00 944.00,369.00
             944.00,369.00 909.69,274.00 909.69,274.00
             909.69,274.00 842.05,87.00 842.05,87.00
             842.05,87.00 818.66,22.00 818.66,22.00
             818.66,22.00 810.50,3.02 810.50,3.02
             810.50,3.02 803.00,2.00 803.00,2.00
             803.00,2.00 761.00,2.00 761.00,2.00
             761.00,2.00 755.50,3.02 755.50,3.02
             755.50,3.02 747.19,22.00 747.19,22.00
             747.19,22.00 722.42,88.00 722.42,88.00
             722.42,88.00 654.58,269.00 654.58,269.00
             654.58,269.00 630.58,333.00 630.58,333.00
             630.58,333.00 617.00,369.00 617.00,369.00 Z
           M 984.15,6.02
           C 980.40,9.34 981.01,11.28 981.00,16.00
             981.00,16.00 981.00,48.00 981.00,48.00
             981.00,48.00 981.00,170.00 981.00,170.00
             981.00,170.00 981.00,356.00 981.00,356.00
             981.01,359.38 980.62,363.96 983.43,366.40
             986.07,368.69 993.49,368.00 997.00,368.00
             997.00,368.00 1030.00,368.00 1030.00,368.00
             1030.00,368.00 1070.00,368.00 1070.00,368.00
             1070.00,368.00 1082.00,367.09 1082.00,367.09
             1115.60,364.74 1149.88,357.38 1179.00,339.80
             1219.05,315.61 1241.79,277.51 1249.25,232.00
             1249.25,232.00 1252.00,208.00 1252.00,208.00
             1252.00,208.00 1252.00,170.00 1252.00,170.00
             1251.95,137.98 1239.38,99.51 1220.10,74.00
             1208.28,58.35 1184.47,37.22 1167.00,28.26
             1144.76,16.86 1115.74,11.48 1091.00,8.84
             1091.00,8.84 1060.00,6.00 1060.00,6.00
             1060.00,6.00 1039.00,5.00 1039.00,5.00
             1039.00,5.00 1008.00,5.00 1008.00,5.00
             1001.87,5.00 989.39,4.16 984.15,6.02 Z
           M 358.00,169.00
           C 358.00,169.00 358.00,45.00 358.00,45.00
             358.00,45.00 483.00,45.00 483.00,45.00
             497.09,45.02 513.72,49.76 523.70,60.17
             532.92,69.79 537.84,85.84 538.00,99.00
             538.25,120.49 537.00,142.64 518.00,156.71
             499.78,170.20 478.34,169.00 457.00,169.00
             457.00,169.00 358.00,169.00 358.00,169.00 Z
           M 1023.00,329.00
           C 1023.00,329.00 1023.00,45.00 1023.00,45.00
             1023.00,45.00 1066.00,45.00 1066.00,45.00
             1066.00,45.00 1078.00,45.91 1078.00,45.91
             1111.10,48.23 1140.65,56.72 1167.00,77.67
             1190.41,96.28 1204.75,124.60 1208.71,154.00
             1210.75,169.15 1210.18,194.03 1210.00,210.00
             1210.00,210.00 1208.27,226.00 1208.27,226.00
             1204.37,253.28 1192.65,279.72 1171.00,297.54
             1146.26,317.90 1114.34,325.80 1083.00,328.09
             1083.00,328.09 1071.00,329.00 1071.00,329.00
             1071.00,329.00 1023.00,329.00 1023.00,329.00 Z
           M 784.00,53.00
           C 784.00,53.00 795.67,87.00 795.67,87.00
             795.67,87.00 816.33,149.00 816.33,149.00
             816.33,149.00 830.33,191.00 830.33,191.00
             830.33,191.00 838.00,216.00 838.00,216.00
             838.00,216.00 724.00,216.00 724.00,216.00
             724.00,216.00 737.31,178.00 737.31,178.00
             737.31,178.00 764.95,102.00 764.95,102.00
             764.95,102.00 776.95,69.00 776.95,69.00
             778.94,63.55 780.10,57.43 784.00,53.00 Z
           M 100.00,154.00
           C 100.00,154.00 11.00,154.00 11.00,154.00
             2.32,154.02 0.06,154.75 0.00,164.00
             0.00,164.00 0.00,219.00 0.00,219.00
             0.01,221.77 -0.29,225.44 1.60,227.69
             4.64,231.30 19.10,230.00 24.00,230.00
             24.00,230.00 100.00,230.00 100.00,230.00
             100.00,230.00 100.00,261.00 100.00,261.00
             100.00,261.00 101.00,279.00 101.00,279.00
             110.76,274.64 133.35,258.32 143.00,251.42
             143.00,251.42 197.00,212.58 197.00,212.58
             197.00,212.58 224.00,193.00 224.00,193.00
             224.00,193.00 224.00,191.00 224.00,191.00
             224.00,191.00 194.00,169.71 194.00,169.71
             194.00,169.71 131.00,124.58 131.00,124.58
             131.00,124.58 110.00,109.42 110.00,109.42
             108.16,108.14 103.92,104.79 101.60,106.15
             99.63,107.31 100.00,112.00 100.00,114.00
             100.00,114.00 100.00,154.00 100.00,154.00 Z" />
</svg>
