<?xml version="1.0" encoding="UTF-8" standalone="no"?>
<svg 
     width="238" 
	 height="352"
     viewBox="0 0 238 352">
  <path id="Selection"
        fill="#000000" stroke="black" stroke-width="1"
        d="M 9.00,113.00
           C 9.00,113.00 42.00,113.00 42.00,113.00
             44.30,113.00 48.41,113.38 49.98,111.40
             51.06,110.04 52.04,99.49 52.42,97.00
             54.00,86.87 55.94,79.14 60.78,70.00
             73.22,46.53 91.49,41.16 116.00,39.32
             119.24,39.08 120.89,39.69 124.00,39.91
             140.40,41.10 154.04,44.82 165.96,57.01
             184.15,75.64 185.37,109.05 168.68,129.00
             153.74,146.84 130.58,149.03 109.00,149.00
             109.00,149.00 93.00,148.00 93.00,148.00
             93.00,148.00 93.00,184.76 93.00,184.76
             93.00,184.76 114.00,184.76 114.00,184.76
             129.70,185.51 141.90,185.46 157.00,191.60
             177.97,200.15 191.73,219.22 192.00,242.00
             192.20,259.06 190.50,272.00 179.48,286.00
             162.94,307.04 137.85,314.82 112.00,313.09
             85.78,311.33 65.60,304.37 53.26,279.00
             47.76,267.69 45.01,250.56 45.00,238.00
             45.00,238.00 1.00,238.00 1.00,238.00
             1.00,258.06 6.68,283.10 15.76,301.00
             28.43,325.98 49.85,339.19 76.00,346.71
             92.11,351.34 104.45,352.03 121.00,352.00
             157.32,351.94 195.83,337.90 217.84,308.00
             239.86,278.10 246.67,223.49 224.56,192.00
             213.40,176.11 198.95,168.00 181.00,162.00
             194.15,154.71 200.27,153.41 210.24,140.00
             219.88,127.04 224.93,108.05 225.00,92.00
             225.11,67.47 216.13,43.92 198.00,27.09
             179.58,9.99 148.83,1.04 124.00,1.00
             81.59,0.93 43.39,10.44 21.89,51.00
             11.90,69.83 9.00,92.01 9.00,113.00 Z" />
</svg>
