<?xml version="1.0" encoding="UTF-8" standalone="no"?>
<svg 
     width="1200" 
	 height="371"
     viewBox="0 0 1200 371">
  <path id="Selection"
        fill="#000000" stroke="black" stroke-width="1"
        d="M 1160.00,316.00
           C 1160.00,316.00 1160.00,330.00 1160.00,330.00
             1160.00,330.00 1161.00,349.00 1161.00,349.00
             1161.00,349.00 1162.00,367.00 1162.00,367.00
             1162.00,367.00 1200.00,367.00 1200.00,367.00
             1200.00,367.00 1200.00,173.00 1200.00,173.00
             1200.00,173.00 1053.00,173.00 1053.00,173.00
             1053.00,173.00 1053.00,205.00 1053.00,205.00
             1053.00,205.00 1054.02,212.40 1054.02,212.40
             1054.02,212.40 1060.00,214.00 1060.00,214.00
             1060.00,214.00 1078.00,214.00 1078.00,214.00
             1078.00,214.00 1157.00,214.00 1157.00,214.00
             1157.00,239.70 1153.40,266.62 1137.84,288.00
             1120.78,311.44 1092.54,328.65 1063.00,329.00
             1063.00,329.00 1044.00,329.00 1044.00,329.00
             1024.31,328.97 1001.23,321.02 986.00,308.54
             959.18,286.55 947.84,253.41 943.85,220.00
             943.85,220.00 942.00,199.00 942.00,199.00
             942.00,199.00 942.00,170.00 942.00,170.00
             942.00,170.00 943.87,152.00 943.87,152.00
             949.32,112.83 969.02,72.81 1005.00,53.31
             1040.73,33.94 1094.13,40.63 1123.99,68.17
             1136.41,79.63 1146.66,99.44 1150.00,116.00
             1150.00,116.00 1194.00,116.00 1194.00,116.00
             1191.61,97.97 1187.39,84.08 1178.77,68.00
             1170.30,52.23 1157.46,38.97 1143.00,28.58
             1117.84,10.49 1093.58,3.01 1063.00,0.91
             1063.00,0.91 1052.00,0.02 1052.00,0.02
             1052.00,0.02 1043.00,1.04 1043.00,1.04
             1043.00,1.04 1035.00,1.04 1035.00,1.04
             1020.62,2.54 1002.12,7.30 989.00,13.31
             961.60,25.86 941.08,45.69 925.05,71.00
             908.15,97.68 899.15,128.74 896.04,160.00
             896.04,160.00 896.04,169.00 896.04,169.00
             896.04,169.00 895.00,180.00 895.00,180.00
             895.00,180.00 895.00,190.00 895.00,190.00
             895.00,190.00 896.00,209.00 896.00,209.00
             896.00,209.00 896.92,219.00 896.92,219.00
             899.15,246.86 908.07,276.33 923.05,300.00
             935.95,320.37 954.94,341.09 976.00,353.13
             1014.13,374.93 1075.97,375.75 1115.00,355.74
             1137.62,344.15 1144.22,334.24 1160.00,316.00 Z
           M 596.00,1.00
           C 596.00,1.00 596.00,370.00 596.00,370.00
             596.00,370.00 854.00,370.00 854.00,370.00
             854.00,370.00 854.00,326.00 854.00,326.00
             854.00,326.00 643.00,326.00 643.00,326.00
             643.00,326.00 643.00,202.00 643.00,202.00
             643.00,202.00 835.00,202.00 835.00,202.00
             835.00,202.00 835.00,158.00 835.00,158.00
             835.00,158.00 643.00,158.00 643.00,158.00
             643.00,158.00 643.00,45.00 643.00,45.00
             643.00,45.00 851.00,45.00 851.00,45.00
             851.00,45.00 851.00,1.00 851.00,1.00
             851.00,1.00 596.00,1.00 596.00,1.00 Z
           M 284.31,6.02
           C 281.41,9.13 282.01,10.90 282.00,15.00
             282.00,15.00 282.00,47.00 282.00,47.00
             282.00,47.00 282.00,163.00 282.00,163.00
             282.00,163.00 282.00,357.00 282.00,357.00
             282.02,364.66 282.30,367.84 291.00,368.00
             291.00,368.00 334.00,368.00 334.00,368.00
             334.00,368.00 366.00,368.00 366.00,368.00
             366.00,368.00 378.00,366.96 378.00,366.96
             378.00,366.96 387.00,366.96 387.00,366.96
             422.88,363.41 459.49,354.28 489.00,332.85
             524.12,307.34 542.09,273.20 549.08,231.00
             549.08,231.00 552.00,204.00 552.00,204.00
             552.00,204.00 552.00,174.00 552.00,174.00
             552.00,174.00 551.09,162.00 551.09,162.00
             548.31,123.94 533.95,86.54 506.96,59.01
             495.35,47.17 475.19,32.16 460.00,25.31
             441.22,16.84 416.43,12.38 396.00,9.72
             396.00,9.72 365.00,6.91 365.00,6.91
             365.00,6.91 355.00,5.96 355.00,5.96
             355.00,5.96 343.00,5.96 343.00,5.96
             343.00,5.96 331.00,5.00 331.00,5.00
             331.00,5.00 306.00,5.00 306.00,5.00
             300.31,5.00 289.20,4.16 284.31,6.02 Z
           M 323.00,329.00
           C 323.00,329.00 323.00,45.00 323.00,45.00
             323.00,45.00 369.00,45.00 369.00,45.00
             369.00,45.00 381.00,45.92 381.00,45.92
             411.83,48.38 441.41,57.30 466.00,76.67
             504.00,106.61 511.07,147.65 511.00,193.00
             511.00,193.00 510.00,212.00 510.00,212.00
             510.00,212.00 508.08,229.00 508.08,229.00
             503.46,256.93 490.75,282.53 468.00,300.11
             444.03,318.64 405.12,328.95 375.00,329.00
             375.00,329.00 323.00,329.00 323.00,329.00 Z
           M 101.00,105.00
           C 101.00,105.00 101.00,144.00 101.00,144.00
             101.00,146.19 101.21,149.84 99.98,151.69
             97.60,155.25 83.37,154.00 79.00,154.00
             79.00,154.00 11.00,154.00 11.00,154.00
             2.32,154.02 0.06,154.75 0.00,164.00
             0.00,164.00 0.00,218.00 0.00,218.00
             0.00,220.19 -0.21,223.84 1.02,225.69
             3.40,229.25 17.63,228.00 22.00,228.00
             22.00,228.00 91.00,228.00 91.00,228.00
             93.91,228.01 98.14,227.55 99.98,230.31
             101.49,232.58 101.00,240.97 101.00,244.00
             101.00,244.00 101.00,277.00 101.00,277.00
             110.64,274.19 129.05,259.98 138.00,253.72
             138.00,253.72 198.00,210.58 198.00,210.58
             198.00,210.58 224.00,192.00 224.00,192.00
             219.12,185.75 201.38,174.25 194.00,169.00
             194.00,169.00 135.00,126.71 135.00,126.71
             135.00,126.71 115.00,112.29 115.00,112.29
             110.02,108.74 107.25,105.87 101.00,105.00 Z" />
</svg>
