<?xml version="1.0" encoding="UTF-8" standalone="no"?>
<svg 
     width="958"
	 height="401"
     viewBox="0 0 958 401">
  <path id="Selection"
        fill="#000000" stroke="black" stroke-width="1"
        d="M 320.00,229.00
           C 320.00,229.00 289.00,229.00 289.00,229.00
             286.60,229.00 282.69,228.61 280.98,230.60
             279.83,231.94 277.82,242.26 276.98,245.00
             273.72,255.51 270.77,263.39 265.28,273.00
             250.36,299.11 226.17,314.79 196.00,315.96
             190.34,316.18 174.71,314.25 169.00,312.87
             161.22,310.99 152.96,308.10 146.00,304.13
             102.78,279.46 95.48,223.02 96.00,178.00
             96.00,178.00 96.83,169.00 96.83,169.00
             98.43,152.50 100.05,140.84 105.69,125.00
             118.47,89.12 150.61,60.06 190.00,60.00
             217.95,59.96 239.11,64.64 258.91,86.00
             265.32,92.91 269.96,101.25 273.39,110.00
             273.39,110.00 278.14,123.43 278.14,123.43
             279.86,125.42 283.58,125.00 286.00,125.00
             286.00,125.00 317.00,125.00 317.00,125.00
             316.19,114.99 313.50,104.42 310.05,95.00
             297.93,61.96 270.51,37.71 237.00,27.72
             220.72,22.87 205.82,21.97 189.00,22.00
             167.79,22.03 141.06,28.91 123.00,40.06
             113.34,46.03 105.97,51.86 98.01,60.00
             74.11,84.46 61.51,117.59 56.87,151.00
             55.95,157.60 55.01,164.33 55.00,171.00
             55.00,171.00 55.00,205.00 55.00,205.00
             55.00,205.00 56.85,223.00 56.85,223.00
             61.49,261.83 77.07,301.18 108.00,326.54
             126.19,341.45 154.30,352.72 178.00,353.00
             189.69,353.13 201.43,353.42 213.00,351.56
             246.81,346.12 278.27,327.34 296.58,298.00
             309.20,277.78 316.87,252.57 320.00,229.00 Z
           M 461.00,255.00
           C 457.10,248.21 454.09,231.32 452.12,223.00
             452.12,223.00 437.42,161.00 437.42,161.00
             435.05,150.46 429.24,129.04 422.32,121.18
             413.07,110.67 394.02,109.93 383.00,117.79
             375.59,123.07 369.84,131.96 365.76,140.00
             363.28,144.88 356.83,156.82 358.95,162.00
             360.71,166.30 366.15,171.15 370.90,168.22
             374.35,166.09 384.45,146.87 394.20,159.13
             396.56,162.11 398.16,168.23 399.28,172.00
             399.28,172.00 406.37,200.00 406.37,200.00
             406.37,200.00 422.87,264.00 422.87,264.00
             422.87,264.00 429.90,293.91 429.90,293.91
             430.52,299.34 423.68,306.66 420.58,311.00
             412.48,322.32 403.86,333.16 394.00,343.00
             389.86,347.13 384.82,352.61 379.00,354.19
             373.44,355.69 369.82,351.93 365.00,349.88
             355.04,345.65 344.25,346.99 339.76,358.00
             338.46,361.20 338.10,363.59 338.01,367.00
             337.89,372.26 338.28,374.90 339.42,380.00
             340.13,383.15 341.48,388.27 343.08,391.00
             348.57,400.34 357.85,400.02 367.00,397.28
             383.28,392.39 398.71,380.88 409.56,368.00
             424.14,350.70 446.83,311.69 459.01,291.00
             480.64,254.26 502.92,217.82 520.69,179.00
             526.63,166.03 531.89,149.28 529.00,135.00
             526.08,120.60 520.71,112.63 505.00,113.01
             502.01,113.09 499.79,113.31 497.00,114.53
             494.88,115.46 493.09,116.67 491.47,118.33
             480.50,129.49 489.33,139.46 492.79,151.00
             494.39,156.34 495.11,161.43 494.99,167.00
             494.52,187.52 480.17,217.73 470.74,236.00
             470.74,236.00 461.00,255.00 461.00,255.00 Z
           M 797.00,263.00
           C 802.40,278.57 813.69,308.91 820.75,323.00
             825.66,332.79 832.01,343.43 842.00,348.67
             860.96,358.63 882.71,338.14 893.87,325.00
             897.12,321.16 899.19,318.29 901.80,314.00
             905.45,307.98 910.07,299.29 908.77,292.00
             907.54,285.06 901.58,283.38 896.29,287.72
             891.05,292.01 887.75,299.78 880.00,305.20
             876.64,307.55 872.93,309.46 869.00,307.22
             862.90,303.74 857.74,294.26 854.78,288.00
             854.78,288.00 835.19,239.00 835.19,239.00
             833.42,234.45 826.82,219.91 827.16,216.00
             827.47,212.38 832.52,205.30 834.58,202.00
             840.89,191.86 849.66,178.29 858.00,170.00
             861.08,166.95 865.61,162.33 870.00,161.45
             881.23,159.21 885.42,176.64 899.00,168.91
             900.83,167.87 902.44,166.47 903.90,164.96
             905.99,162.78 907.38,160.72 908.67,158.00
             913.68,147.47 911.27,129.63 901.00,123.15
             892.09,117.20 880.00,118.51 871.00,123.15
             846.92,136.20 831.53,172.67 817.00,195.00
             817.00,195.00 795.24,142.00 795.24,142.00
             791.46,134.43 785.88,124.79 778.00,121.05
             761.12,113.02 741.09,134.54 731.44,146.00
             731.44,146.00 724.00,156.00 724.00,156.00
             720.38,161.47 715.12,170.16 716.36,177.00
             717.31,182.29 722.55,187.58 727.82,183.53
             730.25,181.66 736.62,171.61 743.00,166.21
             745.73,163.90 749.25,161.47 752.91,163.22
             757.23,165.28 761.20,173.72 763.22,178.00
             763.22,178.00 772.42,201.00 772.42,201.00
             772.42,201.00 780.68,222.00 780.68,222.00
             782.08,225.78 787.10,236.72 786.78,240.00
             786.47,243.07 780.12,253.76 778.28,257.00
             771.35,269.19 764.03,281.08 755.20,292.00
             751.46,296.62 744.87,303.68 739.00,305.34
             731.30,307.51 724.86,300.05 721.00,298.17
             716.63,296.05 710.91,297.16 707.04,299.85
             705.29,301.07 704.06,302.34 702.79,304.04
             701.34,305.96 699.82,308.76 698.93,311.00
             692.19,327.86 702.44,350.51 722.00,350.99
             729.59,351.17 735.56,349.60 742.00,345.45
             752.41,338.75 761.33,326.44 767.81,316.00
             767.81,316.00 786.69,283.00 786.69,283.00
             786.69,283.00 797.00,263.00 797.00,263.00 Z
           M 588.00,340.00
           C 586.58,350.76 586.13,359.18 578.67,367.99
             571.17,376.85 564.00,375.95 564.43,381.10
             564.63,383.46 566.82,386.21 568.26,388.00
             569.95,390.07 572.31,393.13 575.09,393.58
             577.80,394.03 581.66,391.96 584.00,390.69
             590.57,387.11 596.84,382.11 601.21,376.00
             611.16,362.11 611.00,350.06 611.00,334.00
             611.00,334.00 611.00,311.00 611.00,311.00
             610.99,308.46 611.32,304.52 609.40,302.60
             607.61,300.81 604.35,301.02 602.00,301.00
             602.00,301.00 576.00,301.00 576.00,301.00
             573.46,301.01 569.52,300.68 567.60,302.60
             565.96,304.23 566.04,306.86 566.00,309.00
             566.00,309.00 566.00,332.00 566.00,332.00
             566.04,333.76 565.98,336.06 567.02,337.57
             569.56,341.26 583.52,340.00 588.00,340.00 Z" />
</svg>
