<?xml version="1.0" encoding="UTF-8" standalone="no"?>
<svg 
     width="274" 
	 height="287"
     viewBox="0 0 274 287">
  <path id="Selection"
        fill="#000000" stroke="black" stroke-width="1"
        d="M 110.00,170.00
           C 110.00,170.00 110.00,275.00 110.00,275.00
             110.01,278.18 109.62,282.13 112.31,284.40
             114.56,286.29 118.23,285.99 121.00,286.00
             121.00,286.00 153.00,286.00 153.00,286.00
             155.77,285.99 159.44,286.29 161.69,284.40
             163.97,282.47 163.95,279.73 164.00,277.00
             164.00,277.00 164.00,259.00 164.00,259.00
             164.00,259.00 164.00,170.00 164.00,170.00
             164.00,170.00 262.00,170.00 262.00,170.00
             265.89,169.99 269.78,170.36 272.40,166.85
             274.54,163.99 274.00,158.51 274.00,155.00
             274.00,155.00 274.00,129.00 274.00,129.00
             274.00,126.52 274.19,123.27 272.98,121.06
             269.58,114.85 254.33,117.00 248.00,117.00
             248.00,117.00 164.00,117.00 164.00,117.00
             164.00,117.00 164.00,12.00 164.00,12.00
             163.99,8.82 164.38,4.87 161.69,2.60
             159.44,0.71 155.77,1.01 153.00,1.00
             153.00,1.00 121.00,1.00 121.00,1.00
             118.23,1.01 114.56,0.71 112.31,2.60
             108.67,5.66 110.00,21.00 110.00,26.00
             110.00,26.00 110.00,106.00 110.00,106.00
             110.00,108.31 110.20,111.77 108.98,113.77
             106.04,118.58 91.33,117.00 86.00,117.00
             86.00,117.00 12.00,117.00 12.00,117.00
             8.11,117.01 4.22,116.64 1.60,120.15
             -0.54,123.01 0.00,128.49 0.00,132.00
             0.00,132.00 0.00,158.00 0.00,158.00
             0.00,160.48 -0.19,163.73 1.02,165.94
             4.42,172.15 19.67,170.00 26.00,170.00
             26.00,170.00 110.00,170.00 110.00,170.00 Z" />
</svg>
