<?xml version="1.0" encoding="UTF-8" standalone="no"?>
<svg 
     width="908"
	 height="404"
     viewBox="0 0 908 404">
  <path id="Selection"
        fill="#000000" stroke="black" stroke-width="1"
        d="M 41.00,20.00
           C 41.00,20.00 41.00,348.00 41.00,348.00
             41.00,348.00 42.60,355.98 42.60,355.98
             42.60,355.98 54.00,357.00 54.00,357.00
             54.00,357.00 85.00,357.00 85.00,357.00
             85.00,357.00 85.00,215.00 85.00,215.00
             85.00,215.00 165.00,215.00 165.00,215.00
             165.00,215.00 186.00,215.00 186.00,215.00
             209.69,214.96 236.03,207.29 252.91,189.96
             270.49,171.92 278.29,149.67 280.09,125.00
             280.09,125.00 280.99,115.00 280.99,115.00
             280.99,115.00 280.17,106.00 280.17,106.00
             279.54,99.52 279.11,93.38 277.53,87.00
             270.35,58.16 250.46,34.93 222.00,25.36
             212.64,22.21 200.87,20.02 191.00,20.00
             191.00,20.00 41.00,20.00 41.00,20.00 Z
           M 85.00,176.00
           C 85.00,176.00 85.00,59.00 85.00,59.00
             85.00,59.00 160.00,59.00 160.00,59.00
             176.70,59.00 195.93,58.70 211.00,66.90
             217.14,70.24 223.01,75.17 226.90,81.00
             240.22,101.01 238.58,138.26 223.48,156.99
             220.32,160.91 215.38,164.62 211.00,167.12
             203.65,171.32 192.45,174.33 184.00,175.00
             184.00,175.00 175.00,175.00 175.00,175.00
             175.00,175.00 163.00,176.00 163.00,176.00
             163.00,176.00 85.00,176.00 85.00,176.00 Z
           M 451.00,258.00
           C 447.45,250.67 444.16,233.63 442.12,225.00
             442.12,225.00 432.88,187.00 432.88,187.00
             432.88,187.00 424.85,153.00 424.85,153.00
             419.46,133.32 414.53,116.46 391.00,115.09
             372.42,114.01 359.48,132.91 353.00,148.00
             351.21,152.17 346.77,160.62 348.50,165.00
             350.19,169.28 356.53,174.78 361.67,171.10
             364.77,168.87 373.53,150.83 383.61,162.13
             386.67,165.56 387.76,170.67 389.00,175.00
             389.00,175.00 395.63,201.00 395.63,201.00
             395.63,201.00 412.37,266.00 412.37,266.00
             412.37,266.00 419.49,296.00 419.49,296.00
             420.20,302.08 413.85,309.31 410.37,314.00
             402.13,325.10 393.80,336.20 384.00,346.00
             379.80,350.20 374.92,355.14 369.00,356.74
             363.01,358.36 360.10,354.92 355.00,352.68
             347.38,349.33 339.49,348.77 333.21,355.19
             331.54,356.90 330.38,358.79 329.48,361.00
             328.16,364.24 328.04,366.58 328.00,370.00
             327.93,376.06 328.09,378.06 329.42,384.00
             330.28,387.81 331.36,391.63 333.48,394.96
             337.32,401.01 342.21,402.23 349.00,401.96
             362.99,401.40 381.33,389.55 391.00,380.00
             391.00,380.00 400.56,370.00 400.56,370.00
             415.80,351.90 437.54,313.51 450.45,292.00
             467.35,263.83 498.97,210.89 510.99,182.00
             517.57,166.19 522.70,151.20 518.33,134.00
             515.47,122.70 507.39,114.24 495.00,115.33
             485.35,116.17 476.39,122.68 476.06,133.00
             475.78,141.56 479.86,145.69 482.25,153.00
             485.39,162.59 485.22,169.24 483.71,179.00
             481.35,194.25 471.60,217.06 464.63,231.00
             461.22,237.83 452.81,251.65 451.00,258.00 Z
           M 784.00,266.00
           C 784.00,266.00 786.00,266.00 786.00,266.00
             786.00,266.00 796.80,296.00 796.80,296.00
             801.98,309.20 804.61,318.43 812.20,331.00
             816.71,338.46 822.07,346.48 830.00,350.60
             848.90,360.42 871.34,340.48 882.38,327.00
             882.38,327.00 889.66,317.00 889.66,317.00
             893.12,311.68 898.18,301.47 897.61,295.00
             896.97,287.76 891.38,284.18 885.09,288.80
             877.81,294.15 868.67,314.75 857.01,308.82
             851.79,306.17 845.40,294.44 843.00,289.00
             843.00,289.00 823.40,240.00 823.40,240.00
             821.56,235.41 815.10,221.17 815.83,217.00
             816.42,213.61 822.22,205.18 824.33,202.00
             830.49,192.74 838.49,179.70 846.04,172.01
             849.14,168.85 854.47,164.13 859.00,163.48
             869.45,161.99 873.64,178.02 887.00,171.31
             888.79,170.41 890.39,169.23 891.82,167.81
             893.54,166.11 894.92,164.10 896.12,162.00
             902.57,150.74 900.95,131.41 889.00,124.22
             880.19,118.93 867.72,120.47 859.00,125.12
             841.22,134.60 825.51,161.63 815.42,179.00
             812.08,184.76 809.21,190.82 805.00,196.00
             805.00,196.00 796.00,172.00 796.00,172.00
             792.20,162.50 784.10,143.09 778.91,135.00
             773.64,126.79 767.45,120.45 757.00,121.09
             740.65,122.10 720.52,145.14 712.00,158.00
             708.71,162.97 703.58,171.85 704.25,178.00
             704.91,184.00 710.81,189.23 715.68,186.10
             715.68,186.10 731.04,168.47 731.04,168.47
             733.79,166.15 737.24,163.50 740.96,165.22
             745.79,167.44 750.04,177.23 752.23,182.00
             752.23,182.00 768.42,223.00 768.42,223.00
             769.83,226.71 774.79,237.83 774.83,241.00
             774.87,244.87 768.43,255.23 766.28,259.00
             759.85,270.31 751.35,284.07 743.08,294.00
             739.20,298.65 733.99,304.51 728.00,306.35
             717.31,309.63 713.34,299.76 706.00,298.43
             692.68,296.02 684.61,314.02 685.04,325.00
             686.07,351.39 711.69,360.62 732.00,346.43
             748.21,335.11 762.47,308.53 771.78,291.00
             775.52,283.96 781.89,273.41 784.00,266.00 Z
           M 576.00,342.00
           C 575.20,351.89 573.39,362.21 566.67,369.96
             559.85,377.84 552.00,377.95 552.46,383.05
             552.67,385.41 554.96,388.23 556.44,390.00
             558.10,391.97 560.43,394.60 563.00,395.30
             565.89,396.08 569.48,394.03 572.00,392.74
             578.97,389.17 584.86,384.32 589.51,378.00
             603.04,359.61 600.04,334.62 600.00,313.00
             599.99,310.46 600.32,306.52 598.40,304.60
             596.61,302.81 593.35,303.02 591.00,303.00
             591.00,303.00 564.00,303.00 564.00,303.00
             561.46,303.01 557.52,302.68 555.60,304.60
             553.96,306.23 554.04,308.86 554.00,311.00
             554.00,311.00 554.00,331.00 554.00,331.00
             554.01,333.77 553.71,337.44 555.60,339.69
             558.60,343.25 571.31,342.00 576.00,342.00 Z" />
</svg>
