<?xml version="1.0" encoding="UTF-8" standalone="no"?>
<svg 
     width="674"
	 height="377"
     viewBox="0 0 674 377">
  <path id="Selection"
        fill="#000000" stroke="black" stroke-width="1"
        d="M 155.00,0.42
           C 155.00,0.42 143.00,1.28 143.00,1.28
             132.55,2.54 122.12,4.54 112.00,7.43
             81.54,16.12 54.84,36.23 36.72,62.00
             -2.98,118.46 -9.15,199.56 12.33,264.00
             28.86,313.57 59.73,351.96 111.00,367.72
             122.71,371.31 139.80,374.85 152.00,375.00
             180.13,375.33 201.35,374.31 228.00,363.55
             286.78,339.81 317.04,280.05 324.72,220.00
             324.72,220.00 326.09,202.00 326.09,202.00
             326.09,202.00 327.00,192.00 327.00,192.00
             327.00,192.00 327.00,185.00 327.00,185.00
             327.00,185.00 326.09,173.00 326.09,173.00
             321.57,106.93 294.86,42.11 231.00,13.31
             219.97,8.34 205.95,4.71 194.00,2.75
             183.94,1.11 164.86,-0.78 155.00,0.42 Z
           M 392.00,3.00
           C 392.00,3.00 392.00,368.00 392.00,368.00
             392.00,370.30 391.62,374.41 393.60,375.98
             395.40,377.40 401.59,377.00 404.00,377.00
             404.00,377.00 430.00,377.00 430.00,377.00
             431.99,377.00 435.81,377.23 437.40,375.98
             439.90,374.00 439.00,362.39 439.00,359.00
             439.00,359.00 439.00,307.00 439.00,307.00
             439.00,307.00 439.00,75.00 439.00,75.00
             439.00,75.00 458.40,107.00 458.40,107.00
             458.40,107.00 492.42,164.00 492.42,164.00
             492.42,164.00 524.80,218.00 524.80,218.00
             524.80,218.00 576.60,305.00 576.60,305.00
             576.60,305.00 608.80,359.00 608.80,359.00
             611.23,363.05 617.12,374.78 621.10,376.40
             622.87,377.12 626.05,377.00 628.00,377.00
             628.00,377.00 673.00,377.00 673.00,377.00
             673.00,377.00 673.00,3.00 673.00,3.00
             673.00,3.00 627.00,3.00 627.00,3.00
             627.00,3.00 627.00,305.00 627.00,305.00
             627.00,305.00 607.58,273.00 607.58,273.00
             607.58,273.00 579.99,226.00 579.99,226.00
             579.99,226.00 491.85,76.00 491.85,76.00
             491.85,76.00 459.60,21.00 459.60,21.00
             457.37,17.28 451.20,5.07 447.79,3.60
             446.11,2.88 442.88,3.00 441.00,3.00
             441.00,3.00 392.00,3.00 392.00,3.00 Z
           M 153.00,43.14
           C 153.00,43.14 167.00,43.14 167.00,43.14
             175.70,43.01 187.58,44.85 196.00,47.15
             204.60,49.51 215.59,54.44 223.00,59.36
             258.38,82.83 275.79,123.82 279.08,165.00
             279.08,165.00 280.00,177.00 280.00,177.00
             280.00,177.00 280.00,198.00 280.00,198.00
             279.98,213.61 275.55,238.27 270.31,253.00
             254.46,297.54 220.61,329.85 172.00,332.04
             172.00,332.04 162.00,332.82 162.00,332.82
             140.16,331.27 122.92,328.47 104.00,316.30
             71.12,295.16 54.09,257.60 48.87,220.00
             48.87,220.00 47.00,202.00 47.00,202.00
             46.65,171.39 47.00,148.29 57.95,119.00
             64.68,101.00 75.91,83.20 90.00,70.09
             109.64,51.81 127.48,46.97 153.00,43.14 Z" />
</svg>
