<?xml version="1.0" encoding="UTF-8" standalone="no"?>
<svg 
     width="157"
	 height="374"
     viewBox="0 0 157 374">
  <path id="Selection"
        fill="#000000" stroke="black" stroke-width="1"
        d="M 46.00,105.00
           C 46.00,105.00 0.00,105.00 0.00,105.00
             0.00,105.00 0.00,143.00 0.00,143.00
             0.00,143.00 46.00,143.00 46.00,143.00
             46.00,143.00 46.00,374.00 46.00,374.00
             46.00,374.00 102.00,374.00 102.00,374.00
             102.00,374.00 102.00,143.00 102.00,143.00
             102.00,143.00 157.00,143.00 157.00,143.00
             157.00,143.00 157.00,105.00 157.00,105.00
             157.00,105.00 102.00,105.00 102.00,105.00
             102.00,105.00 102.00,81.00 102.00,81.00
             102.00,64.08 101.77,48.04 122.00,42.24
             133.75,39.27 145.24,41.96 157.00,42.24
             157.00,42.24 157.00,1.00 157.00,1.00
             157.00,1.00 139.00,0.00 139.00,0.00
             106.85,-0.37 60.74,2.43 48.75,39.00
             46.95,44.48 46.03,50.24 46.00,56.00
             46.00,56.00 46.00,105.00 46.00,105.00 Z" />
</svg>
