<?xml version="1.0" encoding="UTF-8" standalone="no"?>
<svg 
     width="1189" 
	 height="370"
     viewBox="0 0 1189 370">
  <path id="Selection"
        fill="#000000" stroke="black" stroke-width="1"
        d="M 265.00,370.00
           C 265.00,370.00 313.00,370.00 313.00,370.00
             313.00,370.00 313.00,212.00 313.00,212.00
             313.00,212.00 435.00,212.00 435.00,212.00
             448.56,212.16 465.51,217.93 474.82,228.04
             484.96,239.05 488.93,256.37 489.04,271.00
             489.04,271.00 489.04,285.00 489.04,285.00
             489.04,285.00 490.00,297.00 490.00,297.00
             490.00,297.00 492.00,336.00 492.00,336.00
             492.00,336.00 492.00,345.00 492.00,345.00
             492.00,345.00 494.00,370.00 494.00,370.00
             494.00,370.00 544.00,370.00 544.00,370.00
             540.06,349.05 538.03,336.59 538.00,315.00
             538.00,315.00 537.04,303.00 537.04,303.00
             537.04,303.00 537.04,291.00 537.04,291.00
             537.04,291.00 536.00,275.00 536.00,275.00
             535.98,263.42 535.35,250.42 533.58,239.00
             529.99,215.93 518.93,195.82 495.00,189.00
             495.00,189.00 495.00,187.00 495.00,187.00
             524.93,172.40 541.61,140.61 542.00,108.00
             542.28,83.99 540.80,62.89 527.30,42.00
             519.60,30.08 511.17,23.04 499.00,16.01
             484.58,7.70 463.54,2.75 447.00,1.04
             447.00,1.04 437.00,1.04 437.00,1.04
             437.00,1.04 425.00,0.00 425.00,0.00
             425.00,0.00 274.00,0.00 274.00,0.00
             272.01,0.00 268.19,-0.23 266.60,1.02
             264.05,3.04 265.00,17.32 265.00,21.00
             265.00,21.00 265.00,86.00 265.00,86.00
             265.00,86.00 265.00,370.00 265.00,370.00 Z
           M 1189.00,230.00
           C 1189.00,230.00 1145.00,230.00 1145.00,230.00
             1139.80,257.61 1129.34,284.63 1108.00,303.83
             1092.46,317.81 1071.92,325.76 1051.00,326.00
             1022.07,326.32 993.98,316.45 974.09,295.00
             946.59,265.34 940.55,213.85 941.00,175.00
             941.00,175.00 941.91,165.00 941.91,165.00
             942.73,153.14 944.00,141.59 946.89,130.00
             956.03,93.43 979.40,60.46 1016.00,47.69
             1030.75,42.55 1042.76,42.83 1058.00,43.00
             1084.21,43.31 1110.01,55.98 1125.62,77.00
             1131.03,84.27 1135.09,92.43 1138.00,101.00
             1138.92,103.71 1140.92,112.61 1142.72,114.01
             1144.33,115.26 1148.00,115.00 1150.00,115.00
             1158.10,115.01 1179.43,115.87 1186.00,114.00
             1186.00,114.00 1182.27,95.00 1182.27,95.00
             1177.59,77.25 1170.74,62.41 1159.19,48.00
             1130.62,12.34 1090.09,-0.07 1046.00,0.00
             1027.48,0.03 1004.03,4.56 987.00,11.87
             971.87,18.37 959.13,27.07 947.00,38.17
             943.32,41.54 941.99,43.42 938.85,47.00
             912.17,77.31 898.83,116.11 895.91,156.00
             895.91,156.00 895.00,166.00 895.00,166.00
             895.00,166.00 895.00,198.00 895.00,198.00
             895.00,198.00 896.85,220.00 896.85,220.00
             901.93,262.52 915.91,303.03 948.00,332.91
             1001.22,382.47 1096.67,379.50 1146.96,327.00
             1173.61,299.18 1182.41,266.65 1189.00,230.00 Z
           M 48.00,202.00
           C 48.00,202.00 217.00,202.00 217.00,202.00
             217.00,202.00 217.00,158.00 217.00,158.00
             217.00,158.00 48.00,158.00 48.00,158.00
             48.00,158.00 48.00,47.00 48.00,47.00
             48.00,47.00 196.00,47.00 196.00,47.00
             196.00,47.00 226.00,47.00 226.00,47.00
             228.52,47.00 236.84,47.31 238.69,46.40
             241.15,45.19 240.95,42.35 241.00,40.00
             241.00,40.00 241.00,11.00 241.00,11.00
             240.99,4.26 241.49,2.14 234.00,2.00
             234.00,2.00 187.00,2.00 187.00,2.00
             187.00,2.00 9.00,2.00 9.00,2.00
             7.01,2.00 3.19,1.77 1.60,3.02
             -0.10,4.37 0.04,7.05 0.00,9.00
             0.00,9.00 0.00,24.00 0.00,24.00
             0.00,24.00 0.00,94.00 0.00,94.00
             0.00,94.00 0.00,359.00 0.00,359.00
             0.00,361.30 -0.38,365.41 1.60,366.98
             3.40,368.40 9.59,368.00 12.00,368.00
             12.00,368.00 39.00,368.00 39.00,368.00
             40.99,368.00 44.81,368.23 46.40,366.98
             48.95,364.96 48.00,350.68 48.00,347.00
             48.00,347.00 48.00,281.00 48.00,281.00
             48.00,281.00 48.00,202.00 48.00,202.00 Z
           M 573.00,370.00
           C 573.00,370.00 616.00,370.00 616.00,370.00
             618.04,370.00 621.63,370.26 623.30,369.01
             625.02,367.72 625.97,364.01 626.69,362.00
             626.69,362.00 632.42,346.00 632.42,346.00
             632.42,346.00 655.00,283.00 655.00,283.00
             656.31,279.17 660.35,265.86 663.27,264.02
             665.24,262.79 668.72,263.00 671.00,263.00
             671.00,263.00 800.00,263.00 800.00,263.00
             802.21,263.00 805.71,262.78 807.58,264.02
             810.61,266.03 813.97,279.04 815.34,283.00
             815.34,283.00 837.00,346.00 837.00,346.00
             837.00,346.00 842.33,362.00 842.33,362.00
             843.00,364.00 844.00,367.73 845.70,369.01
             847.37,370.26 850.96,370.00 853.00,370.00
             853.00,370.00 899.00,370.00 899.00,370.00
             899.00,370.00 887.05,335.00 887.05,335.00
             887.05,335.00 866.05,277.00 866.05,277.00
             866.05,277.00 824.95,163.00 824.95,163.00
             824.95,163.00 797.34,87.00 797.34,87.00
             797.34,87.00 773.95,22.00 773.95,22.00
             772.55,18.19 768.40,4.88 765.59,3.02
             763.70,1.78 760.22,2.00 758.00,2.00
             758.00,2.00 717.00,2.00 717.00,2.00
             715.13,2.04 712.92,1.99 711.27,3.02
             708.18,4.96 704.14,18.04 702.68,22.00
             702.68,22.00 678.32,87.00 678.32,87.00
             678.32,87.00 605.95,280.00 605.95,280.00
             605.95,280.00 583.32,340.00 583.32,340.00
             580.42,347.85 574.16,362.50 573.00,370.00 Z
           M 314.00,170.00
           C 314.00,170.00 314.00,45.00 314.00,45.00
             314.00,45.00 436.00,45.00 436.00,45.00
             451.12,45.02 469.14,49.61 479.70,61.09
             489.33,71.57 492.13,85.36 493.09,99.00
             493.33,102.44 494.07,104.40 493.82,108.00
             492.46,127.16 489.60,144.89 473.00,157.24
             460.34,166.66 440.52,169.81 425.00,170.00
             425.00,170.00 314.00,170.00 314.00,170.00 Z
           M 739.00,53.00
           C 739.00,53.00 758.67,110.00 758.67,110.00
             758.67,110.00 794.00,216.00 794.00,216.00
             794.00,216.00 679.00,216.00 679.00,216.00
             679.00,216.00 694.95,172.00 694.95,172.00
             694.95,172.00 718.95,106.00 718.95,106.00
             718.95,106.00 731.31,72.00 731.31,72.00
             731.31,72.00 739.00,53.00 739.00,53.00 Z" />
</svg>
