<?xml version="1.0" encoding="UTF-8" standalone="no"?>
<svg 
     width="910"
	 height="376"
     viewBox="0 0 910 376">
  <path id="Selection"
        fill="#000000" stroke="black" stroke-width="1"
        d="M 43.00,248.00
           C 43.00,248.00 0.00,248.00 0.00,248.00
             0.00,248.00 0.91,259.00 0.91,259.00
             1.71,270.63 2.16,279.56 5.43,291.00
             12.72,316.55 29.78,337.59 52.00,351.91
             71.81,364.68 102.57,370.96 126.00,371.00
             126.00,371.00 143.00,371.00 143.00,371.00
             143.00,371.00 155.00,370.08 155.00,370.08
             190.57,367.24 229.03,353.91 249.65,323.00
             254.27,316.07 257.32,309.89 260.00,302.00
             265.07,287.02 266.73,270.65 265.17,255.00
             262.19,225.23 252.63,201.90 226.00,185.46
             208.59,174.71 190.59,170.84 171.00,166.35
             171.00,166.35 135.00,157.42 135.00,157.42
             135.00,157.42 110.00,151.37 110.00,151.37
             87.93,145.85 62.70,141.08 56.50,115.00
             55.41,110.42 54.91,105.71 55.01,101.00
             55.12,96.31 56.37,88.50 57.72,84.00
             66.75,53.90 95.33,43.22 124.00,41.96
             124.00,41.96 133.00,41.32 133.00,41.32
             146.86,42.36 157.94,43.28 171.00,48.87
             197.39,60.18 213.74,84.28 214.00,113.00
             214.00,113.00 256.00,113.00 256.00,113.00
             256.00,84.01 246.82,51.57 224.91,31.43
             203.97,12.18 175.80,4.14 148.00,1.92
             148.00,1.92 136.00,1.00 136.00,1.00
             116.45,0.97 101.07,0.99 82.00,7.03
             46.44,18.30 21.41,46.53 14.00,83.00
             13.03,87.79 10.88,106.72 11.18,111.00
             12.09,123.77 13.99,136.29 19.49,148.00
             36.71,184.67 79.41,192.52 115.00,200.42
             115.00,200.42 147.00,208.35 147.00,208.35
             163.67,212.20 193.11,220.54 206.00,231.32
             211.81,236.19 215.78,241.96 218.54,249.00
             221.29,256.03 222.08,265.48 222.00,273.00
             221.52,314.28 180.19,327.70 146.00,330.09
             146.00,330.09 133.00,331.00 133.00,331.00
             133.00,331.00 124.00,330.17 124.00,330.17
             116.83,329.47 110.05,328.88 103.00,327.11
             77.02,320.58 55.88,303.69 47.08,278.00
             43.71,268.17 43.00,258.28 43.00,248.00 Z
           M 728.00,1.21
           C 728.00,1.21 711.00,3.80 711.00,3.80
             684.50,8.92 659.82,20.63 640.00,39.09
             616.31,61.15 600.31,91.91 592.12,123.00
             588.39,137.12 585.56,151.44 584.04,166.00
             584.04,166.00 584.04,175.00 584.04,175.00
             584.04,175.00 583.00,191.00 583.00,191.00
             583.00,191.00 584.04,201.00 584.04,201.00
             584.04,201.00 584.04,210.00 584.04,210.00
             588.68,257.29 605.94,306.38 642.00,338.83
             666.17,360.58 696.96,371.78 729.00,374.83
             729.00,374.83 745.00,375.82 745.00,375.82
             745.00,375.82 757.00,375.00 757.00,375.00
             771.58,374.83 786.15,372.27 800.00,367.67
             813.45,363.20 824.12,358.57 836.00,350.65
             878.17,322.52 900.24,272.78 907.27,224.00
             908.59,214.83 909.99,204.23 910.00,195.00
             910.00,195.00 910.00,179.00 910.00,179.00
             910.00,179.00 907.27,152.00 907.27,152.00
             905.05,136.45 900.96,119.69 895.42,105.00
             887.77,84.71 877.43,65.22 862.83,49.00
             842.42,26.32 819.44,12.95 790.00,5.63
             780.53,3.27 767.71,1.02 758.00,1.21
             758.00,1.21 728.00,1.21 728.00,1.21 Z
           M 282.00,6.00
           C 282.00,6.00 282.00,50.00 282.00,50.00
             282.00,50.00 399.00,50.00 399.00,50.00
             399.00,50.00 399.00,371.00 399.00,371.00
             399.00,371.00 446.00,371.00 446.00,371.00
             446.00,371.00 446.00,50.00 446.00,50.00
             446.00,50.00 563.00,50.00 563.00,50.00
             563.00,50.00 563.00,6.00 563.00,6.00
             563.00,6.00 282.00,6.00 282.00,6.00 Z
           M 740.00,43.14
           C 740.00,43.14 748.00,43.14 748.00,43.14
             748.00,43.14 757.00,43.83 757.00,43.83
             771.57,45.24 781.47,47.07 795.00,53.31
             824.46,66.90 845.36,96.66 854.97,127.00
             858.61,138.49 862.86,161.06 863.00,173.00
             863.00,173.00 863.00,201.00 863.00,201.00
             862.99,207.67 862.05,214.40 861.13,221.00
             855.98,257.97 838.90,294.86 807.00,316.00
             799.55,320.93 790.53,325.27 782.00,327.97
             770.32,331.67 755.24,333.14 743.00,333.00
             735.14,332.90 722.63,330.94 715.00,328.85
             661.12,314.10 634.72,261.14 630.91,209.00
             630.91,209.00 630.00,197.00 630.00,197.00
             630.00,197.00 630.00,179.00 630.00,179.00
             630.00,179.00 630.91,167.00 630.91,167.00
             634.14,122.86 653.91,76.35 695.00,55.11
             713.24,45.68 720.80,46.04 740.00,43.14 Z" />
</svg>
