<?xml version="1.0" encoding="UTF-8" standalone="no"?>
<svg 
     width="761" 
	 height="366"
     viewBox="0 0 761 366">
  <path id="Selection"
        fill="#000000" stroke="black" stroke-width="1"
        d="M 479.00,0.00
           C 479.00,0.00 479.00,44.00 479.00,44.00
             479.00,44.00 596.00,44.00 596.00,44.00
             596.00,44.00 596.00,366.00 596.00,366.00
             596.00,366.00 643.00,366.00 643.00,366.00
             643.00,366.00 643.00,44.00 643.00,44.00
             643.00,44.00 760.00,44.00 760.00,44.00
             760.00,44.00 760.00,0.00 760.00,0.00
             760.00,0.00 479.00,0.00 479.00,0.00 Z
           M 0.00,3.00
           C 0.00,3.00 0.00,364.00 0.00,364.00
             0.00,364.00 49.00,364.00 49.00,364.00
             49.00,364.00 49.00,3.00 49.00,3.00
             49.00,3.00 0.00,3.00 0.00,3.00 Z
           M 138.00,3.00
           C 138.00,3.00 138.00,364.00 138.00,364.00
             138.00,364.00 183.00,364.00 183.00,364.00
             183.00,364.00 183.00,73.00 183.00,73.00
             183.00,73.00 205.01,109.00 205.01,109.00
             205.01,109.00 235.42,160.00 235.42,160.00
             235.42,160.00 262.40,205.00 262.40,205.00
             262.40,205.00 315.40,294.00 315.40,294.00
             315.40,294.00 347.00,347.00 347.00,347.00
             349.10,350.50 355.11,362.01 358.33,363.43
             359.93,364.14 363.19,364.00 365.00,364.00
             365.00,364.00 409.00,364.00 409.00,364.00
             409.00,364.00 409.00,3.00 409.00,3.00
             409.00,3.00 365.00,3.00 365.00,3.00
             365.00,3.00 365.00,294.00 365.00,294.00
             359.96,289.56 353.25,276.34 349.58,270.00
             349.58,270.00 322.58,224.00 322.58,224.00
             322.58,224.00 234.42,74.00 234.42,74.00
             234.42,74.00 202.80,20.00 202.80,20.00
             193.30,4.08 194.99,3.02 185.00,3.00
             185.00,3.00 138.00,3.00 138.00,3.00 Z" />
</svg>
