<?xml version="1.0" encoding="UTF-8" standalone="no"?>
<svg 
     width="1158"
	 height="373"
     viewBox="0 0 1158 373">
  <path id="Selection"
        fill="#000000" stroke="black" stroke-width="1"
        d="M 339.00,247.00
           C 339.00,247.00 296.00,247.00 296.00,247.00
             296.00,291.22 309.79,327.60 349.00,351.94
             373.43,367.09 405.74,371.13 434.00,371.00
             434.00,371.00 445.00,370.09 445.00,370.09
             481.13,367.56 519.15,356.67 542.48,327.00
             557.95,307.34 562.28,283.36 562.00,259.00
             561.90,251.13 559.89,239.60 557.71,232.00
             555.82,225.43 553.45,218.93 549.98,213.00
             531.58,181.51 503.63,174.28 471.00,166.13
             471.00,166.13 423.00,154.37 423.00,154.37
             397.87,148.09 359.66,144.63 352.68,114.00
             351.00,106.61 351.25,102.31 351.93,95.00
             352.55,88.31 353.28,84.31 355.82,78.00
             368.50,46.54 403.04,40.65 433.00,41.00
             457.79,41.29 484.59,52.82 498.46,74.00
             506.02,85.55 509.37,99.34 510.00,113.00
             510.00,113.00 544.00,113.00 544.00,113.00
             545.90,113.00 549.89,113.23 551.36,111.98
             553.02,110.57 552.31,107.88 552.16,106.00
             552.16,106.00 550.41,90.00 550.41,90.00
             546.99,68.75 537.85,46.18 521.96,31.17
             499.74,10.18 463.13,0.05 433.00,0.00
             433.00,0.00 414.00,0.00 414.00,0.00
             380.57,0.05 345.95,15.35 326.44,43.00
             313.70,61.05 307.10,85.00 307.00,107.00
             306.96,117.08 308.51,128.42 311.67,138.00
             325.30,179.37 361.74,188.05 399.00,196.88
             399.00,196.88 458.00,211.58 458.00,211.58
             472.22,215.64 494.38,222.72 504.83,233.17
             519.25,247.59 521.54,276.17 512.63,294.00
             509.38,300.48 503.67,307.02 498.00,311.48
             481.75,324.26 459.99,327.71 440.00,329.09
             435.63,329.39 434.03,330.16 429.00,329.96
             391.78,328.52 355.27,314.65 343.03,276.00
             340.14,266.87 339.00,256.54 339.00,247.00 Z
           M 879.00,0.00
           C 879.00,0.00 879.00,370.00 879.00,370.00
             879.00,370.00 926.00,370.00 926.00,370.00
             926.00,370.00 926.00,211.00 926.00,211.00
             926.00,211.00 1037.00,211.00 1037.00,211.00
             1037.00,211.00 1047.00,211.91 1047.00,211.91
             1064.14,213.11 1076.67,215.74 1088.91,229.00
             1099.69,240.68 1101.06,254.01 1102.09,269.00
             1102.09,269.00 1103.00,294.00 1103.00,294.00
             1103.00,294.00 1104.00,310.00 1104.00,310.00
             1104.00,310.00 1105.01,335.00 1105.01,335.00
             1105.01,335.00 1105.91,344.00 1105.91,344.00
             1105.91,344.00 1106.83,359.00 1106.83,359.00
             1107.06,361.39 1106.64,366.66 1108.02,368.40
             1109.59,370.38 1113.70,370.00 1116.00,370.00
             1116.00,370.00 1157.00,370.00 1157.00,370.00
             1157.00,370.00 1154.27,354.00 1154.27,354.00
             1152.90,345.08 1152.01,336.02 1152.00,327.00
             1152.00,327.00 1150.96,311.00 1150.96,311.00
             1150.96,311.00 1150.96,299.00 1150.96,299.00
             1150.96,299.00 1149.96,287.00 1149.96,287.00
             1149.96,287.00 1149.96,275.00 1149.96,275.00
             1149.96,275.00 1149.00,263.00 1149.00,263.00
             1148.98,251.93 1147.90,240.80 1145.35,230.00
             1140.78,210.71 1128.11,193.72 1108.00,189.00
             1108.00,189.00 1108.00,187.00 1108.00,187.00
             1123.70,180.99 1140.67,161.32 1147.28,146.00
             1153.36,131.91 1156.17,113.31 1156.00,98.00
             1156.00,98.00 1155.17,89.00 1155.17,89.00
             1152.41,60.49 1143.68,35.35 1118.00,19.23
             1085.74,-1.02 1050.44,0.00 1014.00,0.00
             1014.00,0.00 879.00,0.00 879.00,0.00 Z
           M 592.00,2.00
           C 592.00,2.00 592.00,371.00 592.00,371.00
             592.00,371.00 850.00,371.00 850.00,371.00
             850.00,371.00 850.00,326.00 850.00,326.00
             850.00,326.00 640.00,326.00 640.00,326.00
             640.00,326.00 640.00,204.00 640.00,204.00
             640.00,204.00 822.00,204.00 822.00,204.00
             822.00,204.00 829.98,202.40 829.98,202.40
             829.98,202.40 831.00,190.00 831.00,190.00
             831.00,190.00 831.00,159.00 831.00,159.00
             831.00,159.00 640.00,159.00 640.00,159.00
             640.00,159.00 640.00,46.00 640.00,46.00
             640.00,46.00 847.00,46.00 847.00,46.00
             847.00,46.00 847.00,2.00 847.00,2.00
             847.00,2.00 592.00,2.00 592.00,2.00 Z
           M 1.00,7.00
           C 1.00,7.00 1.00,255.00 1.00,255.00
             1.02,265.54 3.67,278.84 6.58,289.00
             14.14,315.39 30.72,338.75 54.00,353.56
             72.24,365.17 99.36,372.74 121.00,373.00
             121.00,373.00 138.00,373.00 138.00,373.00
             176.81,372.94 214.10,357.33 238.74,327.00
             268.97,289.78 267.00,247.83 267.00,203.00
             267.00,203.00 267.00,16.00 267.00,16.00
             266.98,7.36 266.64,7.02 258.00,7.00
             258.00,7.00 229.00,7.00 229.00,7.00
             227.01,7.00 223.19,6.77 221.60,8.02
             219.05,10.04 220.00,24.32 220.00,28.00
             220.00,28.00 220.00,95.00 220.00,95.00
             220.00,95.00 220.00,243.00 220.00,243.00
             219.74,265.08 210.97,291.34 194.96,306.91
             179.18,322.27 156.76,329.74 135.00,330.00
             120.99,330.16 105.79,328.12 93.00,322.11
             62.24,307.66 47.05,273.72 47.00,241.00
             47.00,241.00 47.00,16.00 47.00,16.00
             47.00,13.70 47.38,9.59 45.40,8.02
             43.51,6.52 35.66,7.00 33.00,7.00
             33.00,7.00 1.00,7.00 1.00,7.00 Z
           M 927.00,170.00
           C 927.00,170.00 927.00,45.00 927.00,45.00
             927.00,45.00 1050.00,45.00 1050.00,45.00
             1066.08,45.03 1082.81,49.63 1093.82,62.00
             1102.78,72.07 1106.84,87.72 1107.00,101.00
             1107.24,121.91 1104.93,143.04 1087.00,156.76
             1074.32,166.47 1060.29,168.04 1045.00,169.09
             1045.00,169.09 1035.00,170.00 1035.00,170.00
             1035.00,170.00 927.00,170.00 927.00,170.00 Z" />
</svg>
