<?xml version="1.0" encoding="UTF-8" standalone="no"?>
<svg 
     width="1009" 
	 height="371"
     viewBox="0 0 1009 371">
  <path id="Selection"
        fill="#000000" stroke="black" stroke-width="1"
        d="M 376.00,0.00
           C 376.00,0.00 376.00,369.00 376.00,369.00
             376.00,369.00 634.00,369.00 634.00,369.00
             634.00,369.00 634.00,325.00 634.00,325.00
             634.00,325.00 423.00,325.00 423.00,325.00
             423.00,325.00 423.00,202.00 423.00,202.00
             423.00,202.00 614.00,202.00 614.00,202.00
             614.00,202.00 614.00,157.00 614.00,157.00
             614.00,157.00 423.00,157.00 423.00,157.00
             423.00,157.00 423.00,44.00 423.00,44.00
             423.00,44.00 630.00,44.00 630.00,44.00
             630.00,44.00 630.00,0.00 630.00,0.00
             630.00,0.00 376.00,0.00 376.00,0.00 Z
           M 673.00,1.00
           C 673.00,1.00 673.00,361.00 673.00,361.00
             673.00,361.00 674.60,368.98 674.60,368.98
             674.60,368.98 687.00,370.00 687.00,370.00
             687.00,370.00 719.00,370.00 719.00,370.00
             719.00,370.00 719.00,100.00 719.00,100.00
             719.00,100.00 718.00,83.00 718.00,83.00
             718.00,83.00 718.00,61.00 718.00,61.00
             718.00,61.00 720.00,61.00 720.00,61.00
             720.52,66.75 727.74,88.21 730.00,95.00
             730.00,95.00 747.00,148.00 747.00,148.00
             747.00,148.00 795.00,299.00 795.00,299.00
             795.00,299.00 812.28,353.00 812.28,353.00
             813.32,356.46 815.82,367.09 818.51,368.98
             820.01,370.03 822.24,369.96 824.00,370.00
             824.00,370.00 856.00,370.00 856.00,370.00
             858.09,370.00 861.73,370.23 863.44,368.98
             865.47,367.49 868.67,356.00 869.67,353.00
             869.67,353.00 886.72,299.00 886.72,299.00
             886.72,299.00 904.98,242.00 904.98,242.00
             904.98,242.00 935.67,145.00 935.67,145.00
             935.67,145.00 951.67,95.00 951.67,95.00
             951.67,95.00 962.00,61.00 962.00,61.00
             962.00,61.00 963.00,94.00 963.00,94.00
             963.00,94.00 963.00,158.00 963.00,158.00
             963.00,158.00 963.00,370.00 963.00,370.00
             963.00,370.00 1008.00,370.00 1008.00,370.00
             1008.00,370.00 1008.00,1.00 1008.00,1.00
             1008.00,1.00 949.00,1.00 949.00,1.00
             949.00,1.00 941.70,1.99 941.70,1.99
             941.70,1.99 935.33,19.00 935.33,19.00
             935.33,19.00 917.42,75.00 917.42,75.00
             917.42,75.00 896.34,141.00 896.34,141.00
             896.34,141.00 868.34,229.00 868.34,229.00
             868.34,229.00 853.42,276.00 853.42,276.00
             853.42,276.00 841.00,313.00 841.00,313.00
             841.00,313.00 809.66,215.00 809.66,215.00
             809.66,215.00 764.34,74.00 764.34,74.00
             764.34,74.00 746.86,19.00 746.86,19.00
             746.86,19.00 740.30,1.99 740.30,1.99
             740.30,1.99 733.00,1.00 733.00,1.00
             733.00,1.00 673.00,1.00 673.00,1.00 Z
           M 1.00,2.00
           C 1.00,2.00 1.00,370.00 1.00,370.00
             1.00,370.00 47.00,370.00 47.00,370.00
             47.00,370.00 47.00,142.00 47.00,142.00
             47.00,142.00 46.00,125.00 46.00,125.00
             46.00,125.00 46.00,61.00 46.00,61.00
             46.00,61.00 56.72,93.00 56.72,93.00
             56.72,93.00 71.02,138.00 71.02,138.00
             71.02,138.00 97.98,222.00 97.98,222.00
             97.98,222.00 122.00,298.00 122.00,298.00
             122.00,298.00 139.33,352.00 139.33,352.00
             140.45,355.34 143.48,367.35 145.70,369.01
             147.37,370.26 150.96,370.00 153.00,370.00
             153.00,370.00 186.00,370.00 186.00,370.00
             193.99,369.86 192.47,367.60 197.33,353.00
             197.33,353.00 214.86,298.00 214.86,298.00
             214.86,298.00 234.66,236.00 234.66,236.00
             234.66,236.00 271.02,121.00 271.02,121.00
             271.02,121.00 285.02,77.00 285.02,77.00
             285.02,77.00 290.00,61.00 290.00,61.00
             290.00,61.00 291.00,84.00 291.00,84.00
             291.00,84.00 291.00,118.00 291.00,118.00
             291.00,118.00 290.00,132.00 290.00,132.00
             290.00,132.00 290.00,212.00 290.00,212.00
             290.00,212.00 290.00,370.00 290.00,370.00
             290.00,370.00 336.00,370.00 336.00,370.00
             336.00,370.00 336.00,2.00 336.00,2.00
             336.00,2.00 268.00,2.00 268.00,2.00
             268.00,2.00 260.72,26.00 260.72,26.00
             260.72,26.00 240.34,90.00 240.34,90.00
             240.34,90.00 194.66,234.00 194.66,234.00
             194.66,234.00 179.67,281.00 179.67,281.00
             179.67,281.00 170.00,313.00 170.00,313.00
             165.59,308.37 161.95,292.84 159.67,286.00
             159.67,286.00 138.98,221.00 138.98,221.00
             138.98,221.00 90.98,71.00 90.98,71.00
             90.98,71.00 69.00,2.00 69.00,2.00
             69.00,2.00 1.00,2.00 1.00,2.00 Z" />
</svg>
