<?xml version="1.0" encoding="UTF-8" standalone="no"?>
<svg 
     width="879" 
	 height="373"
     viewBox="0 0 879 373">
  <path id="Selection"
        fill="#000000" stroke="black" stroke-width="1"
        d="M 0.00,369.00
           C 0.00,369.00 48.00,369.00 48.00,369.00
             48.00,369.00 48.00,211.00 48.00,211.00
             48.00,211.00 166.00,211.00 166.00,211.00
             180.37,211.17 196.26,215.17 207.00,225.09
             218.89,236.08 223.81,251.05 224.00,267.00
             224.00,267.00 225.00,299.00 225.00,299.00
             225.00,299.00 226.00,315.00 226.00,315.00
             226.00,315.00 228.00,346.00 228.00,346.00
             228.00,346.00 228.00,355.00 228.00,355.00
             228.00,355.00 229.00,369.00 229.00,369.00
             229.00,369.00 279.00,369.00 279.00,369.00
             274.70,354.12 273.02,334.50 273.00,319.00
             273.00,319.00 272.04,307.00 272.04,307.00
             272.04,307.00 272.04,293.00 272.04,293.00
             272.04,293.00 271.00,278.00 271.00,278.00
             271.00,278.00 270.00,253.00 270.00,253.00
             269.77,233.65 263.90,212.25 249.00,199.18
             243.91,194.72 235.30,190.71 229.00,188.00
             242.61,178.05 255.29,170.26 264.13,155.00
             272.44,140.64 276.97,120.54 277.00,104.00
             277.06,65.51 266.91,30.80 229.00,13.31
             197.12,-1.40 165.12,0.00 131.00,0.00
             131.00,0.00 9.00,0.00 9.00,0.00
             7.01,0.00 3.19,-0.23 1.60,1.02
             -0.95,3.04 0.00,17.32 0.00,21.00
             0.00,21.00 0.00,86.00 0.00,86.00
             0.00,86.00 0.00,369.00 0.00,369.00 Z
           M 608.00,235.00
           C 608.00,235.00 573.00,235.00 573.00,235.00
             570.64,235.00 566.80,234.58 565.16,236.57
             565.16,236.57 560.86,252.00 560.86,252.00
             557.84,262.53 554.77,270.27 549.74,280.00
             536.12,306.40 507.90,329.63 477.00,330.00
             462.25,330.17 450.38,330.42 436.00,325.98
             426.91,323.16 418.98,319.94 411.00,314.64
             379.35,293.64 367.14,256.94 362.85,221.00
             362.85,221.00 361.00,199.00 361.00,199.00
             361.00,199.00 361.00,174.00 361.00,174.00
             361.00,174.00 361.92,162.00 361.92,162.00
             365.49,117.39 387.28,71.29 431.00,53.80
             441.22,49.71 452.97,47.02 464.00,47.00
             464.00,47.00 475.00,47.00 475.00,47.00
             497.75,47.04 524.40,56.83 539.71,74.01
             547.03,82.23 552.28,90.83 556.40,101.00
             556.40,101.00 562.14,117.43 562.14,117.43
             563.85,119.42 567.59,119.00 570.00,119.00
             570.00,119.00 605.00,119.00 605.00,119.00
             604.56,109.42 601.40,97.12 598.33,88.00
             583.89,45.08 546.60,16.58 503.00,8.00
             496.70,6.76 485.26,5.08 479.00,5.00
             451.92,4.69 432.55,6.02 407.00,16.45
             352.79,38.58 323.48,95.45 316.85,151.00
             316.85,151.00 315.00,171.00 315.00,171.00
             315.00,171.00 315.00,202.00 315.00,202.00
             315.00,202.00 316.84,224.00 316.84,224.00
             321.97,272.02 341.74,321.23 383.00,349.25
             401.50,361.82 429.49,371.73 452.00,372.00
             452.00,372.00 472.00,372.00 472.00,372.00
             504.17,371.95 538.36,357.22 562.00,335.83
             582.39,317.39 594.76,291.05 602.14,265.00
             604.48,256.74 607.61,243.43 608.00,235.00 Z
           M 658.00,8.00
           C 658.00,8.00 658.00,369.00 658.00,369.00
             658.00,369.00 878.00,369.00 878.00,369.00
             878.00,369.00 878.00,326.00 878.00,326.00
             878.00,326.00 704.00,326.00 704.00,326.00
             704.00,326.00 704.00,8.00 704.00,8.00
             704.00,8.00 658.00,8.00 658.00,8.00 Z
           M 50.31,44.60
           C 50.31,44.60 92.00,44.00 92.00,44.00
             92.00,44.00 165.00,44.00 165.00,44.00
             180.08,44.02 199.33,46.92 211.00,57.18
             235.41,78.65 235.34,133.33 211.00,154.82
             198.65,165.72 183.75,167.99 168.00,169.09
             168.00,169.09 156.00,170.00 156.00,170.00
             156.00,170.00 57.00,170.00 57.00,170.00
             55.01,170.00 51.19,170.23 49.60,168.98
             47.90,167.63 48.04,164.95 48.00,163.00
             48.00,163.00 48.00,147.00 48.00,147.00
             48.00,147.00 48.00,73.00 48.00,73.00
             48.00,73.00 48.00,51.00 48.00,51.00
             48.07,47.62 47.71,46.79 50.31,44.60 Z" />
</svg>
