<?xml version="1.0" encoding="UTF-8" standalone="no"?>
<svg 
     width="235"
	 height="352"
     viewBox="0 0 235 352">
  <path id="Selection"
        fill="#000000" stroke="black" stroke-width="1"
        d="M 106.00,1.42
           C 92.73,3.35 81.24,5.17 69.00,11.27
             23.49,33.97 5.71,91.63 1.92,139.00
             1.92,139.00 0.00,165.00 0.00,165.00
             0.00,165.00 0.00,188.00 0.00,188.00
             0.00,188.00 0.91,200.00 0.91,200.00
             2.22,219.09 4.45,237.37 9.13,256.00
             15.26,280.41 26.47,305.69 44.17,323.91
             60.92,341.16 88.05,351.72 112.00,352.00
             126.05,352.16 137.41,351.33 151.00,347.28
             202.08,332.05 222.14,280.95 230.08,233.00
             231.79,222.69 233.98,206.24 234.00,196.00
             234.00,196.00 234.00,157.00 234.00,157.00
             233.97,136.34 228.00,103.77 221.66,84.00
             215.89,66.02 206.50,47.07 193.83,33.00
             172.09,8.84 138.13,-2.49 106.00,1.42 Z
           M 116.00,39.32
           C 151.78,38.53 171.75,66.33 180.12,98.00
             183.67,111.47 187.83,134.25 188.00,148.00
             188.00,148.00 189.00,167.00 189.00,167.00
             189.05,196.75 187.83,225.00 180.37,254.00
             174.91,275.23 162.71,298.85 142.00,308.51
             134.80,311.87 126.86,313.09 119.00,313.68
             115.86,313.91 114.05,313.33 111.00,313.08
             75.25,310.23 60.30,278.88 52.63,248.00
             49.36,234.86 46.02,209.45 46.00,196.00
             45.94,159.40 44.97,125.32 57.00,90.00
             63.18,71.85 73.25,54.15 91.00,45.27
             101.41,40.06 105.29,40.69 116.00,39.32 Z" />
</svg>
