<?xml version="1.0" encoding="UTF-8" standalone="no"?>
<svg 
     width="438" 
	 height="369"
     viewBox="0 0 438 369">
  <path id="Selection"
        fill="#000000" stroke="black" stroke-width="1"
        d="M 388.00,0.00
           C 388.00,0.00 388.00,116.00 388.00,116.00
             388.00,116.00 390.91,154.00 390.91,154.00
             390.91,154.00 397.09,239.00 397.09,239.00
             397.09,239.00 400.00,279.00 400.00,279.00
             400.00,279.00 426.00,279.00 426.00,279.00
             426.00,279.00 426.91,267.00 426.91,267.00
             426.91,267.00 429.91,228.00 429.91,228.00
             429.91,228.00 433.91,176.00 433.91,176.00
             433.91,176.00 435.17,156.00 435.17,156.00
             435.17,156.00 437.09,131.00 437.09,131.00
             437.09,131.00 438.00,119.00 438.00,119.00
             438.00,119.00 438.00,0.00 438.00,0.00
             438.00,0.00 388.00,0.00 388.00,0.00 Z
           M 132.00,258.00
           C 132.00,258.00 141.20,280.00 141.20,280.00
             150.05,302.13 157.72,325.00 171.00,345.00
             178.80,356.73 191.62,369.90 207.00,368.68
             226.04,367.16 240.00,355.99 253.00,343.00
             260.17,335.83 262.01,334.32 268.12,326.00
             273.46,318.71 280.34,307.18 280.91,298.00
             281.54,287.75 274.70,280.87 265.01,287.13
             257.11,292.25 253.62,303.14 242.00,310.61
             236.79,313.96 231.59,315.82 226.00,312.14
             219.11,307.61 212.42,295.44 208.76,288.00
             208.76,288.00 200.58,269.00 200.58,269.00
             200.58,269.00 183.80,228.00 183.80,228.00
             183.80,228.00 176.01,209.00 176.01,209.00
             175.05,206.68 172.69,201.27 172.59,199.00
             172.39,194.64 180.04,183.96 182.67,180.00
             189.15,170.24 204.22,148.68 212.01,141.04
             216.33,136.81 222.95,131.23 229.00,130.01
             241.84,127.43 246.36,140.74 257.00,141.80
             270.25,143.13 280.86,128.59 283.29,117.00
             284.37,112.13 284.04,108.83 283.29,104.00
             282.32,98.34 281.03,92.85 277.75,88.01
             266.94,72.05 243.97,74.56 229.00,82.26
             208.30,92.90 188.86,123.27 176.58,143.00
             172.09,150.21 162.69,164.66 160.00,172.00
             160.00,172.00 152.58,155.00 152.58,155.00
             145.04,137.33 135.78,112.78 125.94,97.00
             119.49,86.68 109.49,75.17 96.00,76.18
             73.49,77.88 49.28,104.97 36.63,122.00
             31.80,128.50 23.37,141.52 25.82,150.00
             27.70,156.54 35.39,163.15 41.82,157.69
             42.86,156.80 53.22,143.12 61.00,136.10
             64.05,133.35 68.61,129.76 73.00,131.11
             79.70,133.18 85.36,144.95 88.22,151.00
             88.22,151.00 111.60,207.00 111.60,207.00
             112.95,210.38 119.91,226.30 119.75,228.58
             119.61,230.47 117.16,234.24 116.15,236.00
             116.15,236.00 107.32,251.00 107.32,251.00
             97.15,267.32 89.89,279.20 77.13,294.00
             71.95,300.00 63.92,308.42 56.00,310.45
             44.43,313.41 38.71,304.09 32.00,300.92
             25.29,297.75 18.74,299.60 13.04,303.93
             10.55,305.81 9.02,307.53 7.16,310.01
             4.82,313.14 2.94,316.25 1.77,320.00
             -3.44,336.73 3.70,357.38 20.00,365.09
             32.02,370.77 46.65,369.11 58.00,362.54
             73.93,353.31 84.98,338.03 95.00,323.00
             104.17,309.25 125.76,272.47 132.00,258.00 Z
           M 388.00,314.00
           C 388.00,314.00 388.00,366.00 388.00,366.00
             388.00,366.00 438.00,366.00 438.00,366.00
             438.00,366.00 438.00,314.00 438.00,314.00
             438.00,314.00 388.00,314.00 388.00,314.00 Z" />
</svg>
