<?xml version="1.0" encoding="UTF-8" standalone="no"?>
<svg 
     width="257"
	 height="329"
     viewBox="0 0 257 329">
  <path id="Selection"
        fill="#000000" stroke="black" stroke-width="1"
        d="M 26.15,1.02
           C 21.64,5.02 22.99,11.36 23.00,17.00
             23.01,19.77 22.71,23.44 24.60,25.69
             26.71,28.19 30.04,27.98 33.00,28.00
             33.00,28.00 64.00,28.00 64.00,28.00
             64.00,28.00 244.00,28.00 244.00,28.00
             251.22,27.99 253.85,28.15 254.00,20.00
             254.07,16.19 254.90,4.10 252.40,1.60
             250.17,-0.64 243.13,0.00 240.00,0.00
             240.00,0.00 205.00,0.00 205.00,0.00
             205.00,0.00 81.00,0.00 81.00,0.00
             81.00,0.00 45.00,0.00 45.00,0.00
             39.45,0.00 31.19,-0.77 26.15,1.02 Z
           M 121.00,229.00
           C 122.13,235.22 128.19,249.46 130.80,256.00
             137.86,273.66 144.53,292.24 155.35,308.00
             164.17,320.86 171.86,328.19 188.00,328.00
             209.29,327.75 233.62,303.61 244.64,287.00
             248.64,280.98 254.34,270.36 253.89,263.00
             253.35,254.08 246.45,250.40 239.09,255.94
             232.45,260.94 228.56,270.30 219.00,276.45
             214.57,279.30 209.92,281.30 205.00,278.26
             198.00,273.94 192.39,263.27 188.75,256.00
             188.75,256.00 166.20,202.00 166.20,202.00
             166.20,202.00 156.06,176.00 156.06,176.00
             155.71,171.72 162.82,161.86 165.34,158.00
             170.43,150.22 184.95,130.22 191.04,124.01
             194.94,120.03 201.42,114.54 207.00,113.39
             217.32,111.27 222.76,121.10 230.00,123.35
             241.11,126.80 252.41,114.74 255.21,105.00
             256.19,101.61 256.04,97.53 256.00,94.00
             255.94,89.34 255.45,86.44 253.96,82.00
             246.97,61.16 221.94,62.56 206.00,71.31
             189.91,80.15 177.35,98.97 167.33,114.00
             161.59,122.61 148.93,142.19 145.00,151.00
             145.00,151.00 116.85,89.00 116.85,89.00
             112.28,81.00 106.66,71.57 98.00,67.55
             77.75,58.15 54.49,81.09 42.58,95.00
             42.58,95.00 33.72,106.00 33.72,106.00
             29.28,112.31 21.46,123.89 23.82,132.00
             25.49,137.76 32.16,142.92 37.68,138.48
             38.10,138.13 49.18,124.35 55.00,119.10
             57.94,116.46 61.77,113.51 66.00,114.55
             72.33,116.11 77.04,126.57 79.75,132.00
             79.75,132.00 101.20,183.00 101.20,183.00
             102.95,187.33 108.78,198.92 108.15,203.00
             107.65,206.17 99.34,219.48 97.19,223.00
             89.34,235.81 81.11,248.50 71.41,260.00
             66.61,265.69 59.12,273.48 52.00,276.03
             40.43,280.18 34.41,268.88 26.00,266.83
             14.77,264.09 4.53,276.34 1.79,286.00
             0.81,289.43 0.96,293.44 1.00,297.00
             1.10,305.31 3.38,311.83 9.09,318.00
             21.04,330.88 38.31,330.77 53.00,322.69
             73.30,311.52 92.70,278.36 103.77,258.00
             107.31,251.49 116.38,233.07 121.00,229.00 Z" />
</svg>
