<?xml version="1.0" encoding="UTF-8" standalone="no"?>
<svg 
     width="198" 
	 height="266"
     viewBox="0 0 198 266">
  <path id="Selection"
        fill="#000000" stroke="black" stroke-width="1"
        d="M 39.00,178.00
           C 39.00,178.00 0.00,178.00 0.00,178.00
             0.50,200.91 7.45,227.09 25.00,242.83
             45.98,261.64 78.77,266.31 106.00,266.00
             138.22,265.62 173.41,251.00 188.63,221.00
             195.07,208.30 197.16,194.07 197.00,180.00
             196.94,174.86 195.97,169.93 194.57,165.00
             182.75,123.30 129.37,116.75 94.00,106.71
             78.63,102.35 51.80,94.94 47.53,77.00
             42.92,57.66 59.20,43.86 76.00,39.04
             79.93,37.91 86.88,37.05 91.00,37.00
             112.91,36.75 138.24,39.42 147.54,63.00
             149.93,69.07 150.00,72.66 150.00,79.00
             150.00,79.00 189.00,79.00 189.00,79.00
             189.00,55.04 178.50,31.26 159.00,16.76
             143.74,5.41 120.82,0.03 102.00,0.00
             70.57,-0.05 39.56,7.77 20.44,35.00
             10.07,49.76 7.80,66.47 8.00,84.00
             8.06,88.96 8.88,93.22 10.15,98.00
             19.39,132.61 53.24,138.84 83.00,146.37
             83.00,146.37 110.00,153.37 110.00,153.37
             125.84,157.39 153.48,167.77 156.67,186.00
             157.36,189.91 156.83,194.15 155.98,198.00
             151.13,220.05 125.10,228.97 105.00,229.00
             79.43,229.04 52.37,224.53 42.55,197.00
             40.62,191.62 39.26,183.71 39.00,178.00 Z" />
</svg>
