<?xml version="1.0" encoding="UTF-8" standalone="no"?>
<svg 
     width="473"
	 height="398"
     viewBox="0 0 473 398">
  <path id="Selection"
        fill="#000000" stroke="black" stroke-width="1"
        d="M 24.00,84.00
           C 24.00,84.00 46.00,84.00 46.00,84.00
             58.67,83.98 60.64,77.97 70.00,69.72
             70.00,69.72 102.00,40.09 102.00,40.09
             107.11,35.33 117.00,27.13 121.00,22.00
             121.00,22.00 164.00,61.17 164.00,61.17
             164.00,61.17 188.00,82.69 188.00,82.69
             188.00,82.69 197.00,84.00 197.00,84.00
             197.00,84.00 219.00,83.00 219.00,83.00
             214.64,76.91 204.69,67.69 199.00,62.00
             199.00,62.00 174.00,37.04 174.00,37.04
             174.00,37.04 156.00,20.00 156.00,20.00
             152.01,16.01 139.25,2.16 135.00,0.60
             133.06,-0.12 130.09,0.00 128.00,0.00
             128.00,0.00 115.00,0.00 115.00,0.00
             112.91,0.00 109.94,-0.12 108.00,0.60
             103.88,2.11 91.84,15.16 88.00,19.00
             88.00,19.00 73.00,33.04 73.00,33.04
             73.00,33.04 44.00,62.00 44.00,62.00
             38.46,67.54 27.09,77.46 24.00,84.00 Z
           M 128.00,247.00
           C 128.00,247.00 119.12,212.00 119.12,212.00
             119.12,212.00 106.21,158.00 106.21,158.00
             103.50,145.46 97.24,118.60 89.61,109.00
             86.30,104.84 82.97,102.48 78.00,100.70
             53.95,92.10 38.95,107.90 28.76,128.00
             26.76,131.94 20.88,143.99 21.40,148.00
             22.03,152.75 29.03,160.10 34.90,156.97
             39.03,154.77 44.75,139.47 54.98,144.33
             56.41,145.00 57.57,145.96 58.61,147.13
             62.92,151.99 67.06,172.73 68.87,180.00
             68.87,180.00 88.37,256.00 88.37,256.00
             88.37,256.00 94.13,279.00 94.13,279.00
             94.98,282.52 96.65,287.48 95.63,291.00
             94.64,294.43 87.69,303.64 85.29,307.00
             77.88,317.35 69.70,326.50 61.28,336.00
             56.74,341.14 49.83,348.43 43.00,350.20
             37.58,351.60 34.64,348.49 30.00,346.32
             20.71,341.99 11.46,340.94 4.56,350.02
             -2.18,358.87 0.25,371.13 2.88,381.00
             4.17,385.80 6.08,391.04 10.18,394.15
             13.69,396.80 17.76,397.13 22.00,396.96
             29.44,396.66 36.45,393.52 43.00,390.25
             61.53,380.98 73.11,368.96 84.66,352.00
             108.61,316.81 152.74,242.82 172.26,205.00
             182.22,185.70 199.74,156.84 200.00,135.00
             200.12,124.51 199.64,113.12 191.90,105.04
             182.05,94.77 161.61,97.15 156.01,111.00
             152.32,120.12 157.38,127.92 160.54,136.00
             162.22,140.30 163.49,147.37 163.82,152.00
             164.32,159.11 160.64,174.99 158.33,182.00
             154.46,193.77 146.46,211.92 140.74,223.00
             140.74,223.00 128.00,247.00 128.00,247.00 Z
           M 397.00,153.00
           C 397.00,153.00 396.00,118.00 396.00,118.00
             396.00,118.00 358.00,118.00 358.00,118.00
             358.00,118.00 358.00,255.00 358.00,255.00
             358.00,255.00 358.00,323.00 358.00,323.00
             358.04,324.95 357.90,327.63 359.60,328.98
             361.08,330.15 364.18,329.99 366.00,330.00
             366.00,330.00 389.00,330.00 389.00,330.00
             390.99,330.00 394.81,330.23 396.40,328.98
             398.90,327.00 398.00,315.39 398.00,312.00
             398.00,312.00 398.00,260.00 398.00,260.00
             398.00,260.00 398.00,224.00 398.00,224.00
             398.00,224.00 398.00,204.00 398.00,204.00
             398.22,185.72 409.32,168.01 425.00,158.88
             430.53,155.66 434.82,153.91 441.00,152.37
             449.85,150.17 462.77,150.00 472.00,150.00
             472.00,150.00 472.00,113.00 472.00,113.00
             448.53,108.80 427.53,117.36 411.00,134.00
             405.63,139.41 399.75,145.81 397.00,153.00 Z
           M 245.00,329.00
           C 244.17,339.20 242.80,348.93 235.79,356.99
             228.14,365.77 221.00,365.00 221.43,370.10
             221.63,372.46 223.82,375.21 225.26,377.00
             226.99,379.13 229.28,382.06 232.09,382.64
             239.73,384.23 253.92,371.62 258.08,366.00
             272.08,347.05 269.04,322.21 269.00,300.00
             268.99,297.47 269.34,293.64 267.40,291.74
             265.58,289.96 262.37,290.04 260.00,290.00
             260.00,290.00 233.00,290.00 233.00,290.00
             230.46,290.01 226.52,289.68 224.60,291.60
             222.96,293.23 223.04,295.86 223.00,298.00
             223.00,298.00 223.00,321.00 223.00,321.00
             223.04,322.78 223.00,325.14 224.02,326.69
             226.40,330.25 240.63,329.00 245.00,329.00 Z" />
</svg>
