<?xml version="1.0" encoding="UTF-8" standalone="no"?>
<svg 
     width="633" 
	 height="334"
     viewBox="0 0 633 334">
  <path id="Selection"
        fill="#000000" stroke="black" stroke-width="1"
        d="M 310.00,0.00
           C 310.00,0.00 310.00,333.00 310.00,333.00
             310.00,333.00 353.00,333.00 353.00,333.00
             353.00,333.00 353.00,190.00 353.00,190.00
             353.00,190.00 455.00,190.00 455.00,190.00
             470.55,190.19 487.69,193.41 498.91,205.04
             508.66,215.15 511.98,231.37 512.04,245.00
             512.04,245.00 512.04,257.00 512.04,257.00
             512.04,257.00 513.00,269.00 513.00,269.00
             513.00,269.00 514.09,300.00 514.09,300.00
             514.09,300.00 516.00,333.00 516.00,333.00
             516.00,333.00 562.00,333.00 562.00,333.00
             558.99,322.59 557.05,308.83 557.00,298.00
             557.00,298.00 556.00,276.00 556.00,276.00
             556.00,276.00 554.96,261.00 554.96,261.00
             554.96,261.00 554.96,248.00 554.96,248.00
             554.96,248.00 554.00,238.00 554.00,238.00
             553.67,209.41 549.00,179.13 517.00,170.00
             517.00,170.00 517.00,168.00 517.00,168.00
             530.57,163.67 545.06,146.55 551.24,134.00
             563.48,109.16 563.01,68.75 550.63,44.00
             545.38,33.50 536.70,24.06 527.00,17.52
             510.42,6.33 483.92,0.03 464.00,0.00
             464.00,0.00 437.00,0.00 437.00,0.00
             437.00,0.00 310.00,0.00 310.00,0.00 Z
           M 0.00,7.00
           C 0.00,7.00 0.00,333.00 0.00,333.00
             0.00,333.00 199.00,333.00 199.00,333.00
             199.00,333.00 199.00,294.00 199.00,294.00
             199.00,294.00 42.00,294.00 42.00,294.00
             42.00,294.00 42.00,7.00 42.00,7.00
             42.00,7.00 0.00,7.00 0.00,7.00 Z
           M 352.00,152.00
           C 352.00,152.00 352.00,40.00 352.00,40.00
             352.00,40.00 465.00,40.00 465.00,40.00
             479.27,40.02 494.27,44.74 503.67,56.00
             510.66,64.37 513.04,74.47 514.16,85.00
             516.21,104.09 513.60,127.83 497.00,140.24
             480.56,152.52 460.46,152.00 441.00,152.00
             441.00,152.00 352.00,152.00 352.00,152.00 Z
           M 234.00,294.00
           C 234.00,294.00 234.00,333.00 234.00,333.00
             234.00,333.00 273.00,333.00 273.00,333.00
             273.00,333.00 273.00,294.00 273.00,294.00
             273.00,294.00 234.00,294.00 234.00,294.00 Z
           M 594.00,295.00
           C 594.00,295.00 594.00,334.00 594.00,334.00
             594.00,334.00 633.00,334.00 633.00,334.00
             633.00,334.00 633.00,295.00 633.00,295.00
             633.00,295.00 594.00,295.00 594.00,295.00 Z" />
</svg>
