<?xml version="1.0" encoding="UTF-8" standalone="no"?>
<svg 
     width="500"
	 height="329"
     viewBox="0 0 500 329">
  <path id="Selection"
        fill="#000000" stroke="black" stroke-width="1"
        d="M 7.25,1.00
           C 7.00,4.29 6.74,12.24 7.25,15.00
             8.37,18.19 12.76,24.95 14.68,28.00
             14.68,28.00 27.00,48.00 27.00,48.00
             27.00,48.00 76.80,129.00 76.80,129.00
             76.80,129.00 94.58,158.00 94.58,158.00
             95.99,160.29 100.64,167.18 100.49,169.58
             100.35,171.83 95.49,177.87 94.02,180.00
             94.02,180.00 76.66,205.00 76.66,205.00
             76.66,205.00 24.28,280.00 24.28,280.00
             24.28,280.00 9.58,301.00 9.58,301.00
             5.14,307.27 1.14,311.02 1.00,319.00
             1.00,319.00 1.00,329.00 1.00,329.00
             1.00,329.00 217.00,329.00 217.00,329.00
             217.00,329.00 220.91,275.00 220.91,275.00
             220.91,275.00 223.00,245.00 223.00,245.00
             219.56,244.51 208.87,241.59 206.39,242.61
             203.81,243.68 199.31,254.97 197.74,258.00
             192.64,267.89 184.80,279.24 174.00,283.29
             160.77,288.25 145.91,287.00 132.00,287.00
             132.00,287.00 64.00,287.00 64.00,287.00
             64.00,287.00 127.42,199.00 127.42,199.00
             127.42,199.00 144.85,175.00 144.85,175.00
             146.71,172.45 151.91,165.81 152.27,163.00
             152.69,159.68 148.55,153.91 146.80,151.00
             146.80,151.00 130.42,124.00 130.42,124.00
             130.42,124.00 89.40,56.00 89.40,56.00
             89.40,56.00 68.00,21.00 68.00,21.00
             68.00,21.00 140.00,21.00 140.00,21.00
             148.45,21.10 159.85,22.94 167.00,27.55
             179.89,35.86 189.64,59.29 193.00,74.00
             196.27,73.85 207.06,72.93 208.98,70.42
             210.15,68.88 209.99,65.86 210.00,64.00
             210.00,64.00 209.00,46.00 209.00,46.00
             209.00,46.00 208.00,1.00 208.00,1.00
             208.00,1.00 7.25,1.00 7.25,1.00 Z
           M 352.00,137.00
           C 352.00,137.00 264.00,137.00 264.00,137.00
             259.80,137.01 256.39,136.68 253.31,140.15
             250.87,142.89 251.02,145.58 251.00,149.00
             251.00,149.00 251.00,174.00 251.00,174.00
             251.00,176.06 250.89,179.10 251.60,181.00
             254.71,189.29 267.72,187.00 275.00,187.00
             275.00,187.00 352.00,187.00 352.00,187.00
             352.00,187.00 352.00,280.00 352.00,280.00
             352.01,283.66 351.69,286.90 354.31,289.85
             356.88,292.75 359.41,292.93 363.00,293.00
             363.00,293.00 387.00,293.00 387.00,293.00
             389.44,293.00 392.73,293.19 394.89,291.98
             400.87,288.61 399.00,274.17 399.00,268.00
             399.00,268.00 399.00,187.00 399.00,187.00
             399.00,187.00 487.00,187.00 487.00,187.00
             491.20,186.99 494.61,187.32 497.69,183.85
             500.13,181.11 499.98,178.42 500.00,175.00
             500.00,175.00 500.00,150.00 500.00,150.00
             500.00,147.94 500.11,144.90 499.40,143.00
             496.29,134.71 483.28,137.00 476.00,137.00
             476.00,137.00 399.00,137.00 399.00,137.00
             399.00,137.00 399.00,46.00 399.00,46.00
             398.99,42.57 399.33,38.96 396.69,36.31
             394.45,34.08 391.93,34.06 389.00,34.00
             389.00,34.00 365.00,34.00 365.00,34.00
             362.87,34.00 360.01,33.90 358.00,34.56
             355.71,35.32 353.55,36.89 352.60,39.17
             351.59,41.60 352.00,55.43 352.00,59.00
             352.00,59.00 352.00,137.00 352.00,137.00 Z" />
</svg>
